<?xml version="1.0" encoding="UTF-8" standalone="no"?><svg xmlns="http://www.w3.org/2000/svg" xmlns:xlink="http://www.w3.org/1999/xlink" clip-rule="evenodd" stroke-miterlimit="4.00" viewBox="0 0 1920 1080"><desc>SVG generated by Keynote</desc><defs></defs><g transform="matrix(1.00, 0.00, -0.00, -1.00, 0.0, 1080.0)"><path d="M 0.0 1080.0 L 1920.0 1080.0 L 1920.0 0.0 L 0.0 0.0 Z M 0.0 1080.0 " fill="#009DFF"></path><text xml:space="preserve" font-family="Helvetica-Bold" font-weight="bold" font-size="36.0" fill="#FEFFFF" transform="matrix(1.00, 0.00, -0.00, -1.00, 1779.0, 46.0)">3</text><text xml:space="preserve" font-family="Helvetica-Bold" font-weight="bold" font-size="36.0" fill="#FEFFFF" transform="matrix(1.00, 0.00, -0.00, -1.00, 1799.0, 46.0)">3</text><g opacity="0.15"><g><clipPath id="clip-1250"><path d="M 661.0 0.0 L 1920.0 0.0 L 1920.0 1080.0 L 661.0 1080.0 Z M 661.0 0.0 "></path></clipPath><g clip-path="url(#clip-1250)"><image xlink:href="../../615F7CD4-E262-41F7-8138-806EC6AB1FAB/assets/87ABFF0ACED01E62478C9A9C0E1733CE.png" width="539.00" height="540.00" transform="matrix(0.38, -2.21, -2.21, -0.38, 1857.0, 1255.0)"></image></g></g></g><g opacity="0.15"><g><clipPath id="clip-1251"><path d="M 0.0 0.0 L 752.0 0.0 L 752.0 1080.0 L 0.0 1080.0 Z M 0.0 0.0 "></path></clipPath><g clip-path="url(#clip-1251)"><image xlink:href="../../615F7CD4-E262-41F7-8138-806EC6AB1FAB/assets/87ABFF0ACED01E62478C9A9C0E1733CE.png" width="539.00" height="540.00" transform="matrix(-2.14, 0.53, 0.53, 2.14, 463.8, -163.5)"></image></g></g></g><image xlink:href="../../64D18779-C8CD-4043-9888-7298FA89828B/assets/024C212174119A599B01A5CCD153BFCB.png" width="403.00" height="141.00" transform="matrix(1.48, 0.00, -0.00, -1.48, 678.0, 618.0)"></image><text xml:space="preserve" font-family="Helvetica-Light" font-size="78.0" fill="#FEFFFF" transform="matrix(1.00, 0.00, -0.00, -1.00, 160.0, 868.0)">E</text><text xml:space="preserve" font-family="Helvetica-Light" font-size="78.0" fill="#FEFFFF" transform="matrix(1.00, 0.00, -0.00, -1.00, 207.7, 868.0)">s</text><text xml:space="preserve" font-family="Helvetica-Light" font-size="78.0" fill="#FEFFFF" transform="matrix(1.00, 0.00, -0.00, -1.00, 246.7, 868.0)">t</text><text xml:space="preserve" font-family="Helvetica-Light" font-size="78.0" fill="#FEFFFF" transform="matrix(1.00, 0.00, -0.00, -1.00, 268.3, 868.0)">e</text><text xml:space="preserve" font-family="Helvetica-Light" font-size="78.0" fill="#FEFFFF" transform="matrix(1.00, 0.00, -0.00, -1.00, 311.7, 868.0)"> </text><text xml:space="preserve" font-family="Helvetica-Light" font-size="78.0" fill="#FEFFFF" transform="matrix(1.00, 0.00, -0.00, -1.00, 333.4, 868.0)">t</text><text xml:space="preserve" font-family="Helvetica-Light" font-size="78.0" fill="#FEFFFF" transform="matrix(1.00, 0.00, -0.00, -1.00, 355.1, 868.0)">r</text><text xml:space="preserve" font-family="Helvetica-Light" font-size="78.0" fill="#FEFFFF" transform="matrix(1.00, 0.00, -0.00, -1.00, 381.1, 868.0)">a</text><text xml:space="preserve" font-family="Helvetica-Light" font-size="78.0" fill="#FEFFFF" transform="matrix(1.00, 0.00, -0.00, -1.00, 424.4, 868.0)">b</text><text xml:space="preserve" font-family="Helvetica-Light" font-size="78.0" fill="#FEFFFF" transform="matrix(1.00, 0.00, -0.00, -1.00, 472.1, 868.0)">a</text><text xml:space="preserve" font-family="Helvetica-Light" font-size="78.0" fill="#FEFFFF" transform="matrix(1.00, 0.00, -0.00, -1.00, 515.4, 868.0)">l</text><text xml:space="preserve" font-family="Helvetica-Light" font-size="78.0" fill="#FEFFFF" transform="matrix(1.00, 0.00, -0.00, -1.00, 532.8, 868.0)">h</text><text xml:space="preserve" font-family="Helvetica-Light" font-size="78.0" fill="#FEFFFF" transform="matrix(1.00, 0.00, -0.00, -1.00, 576.1, 868.0)">o</text><text xml:space="preserve" font-family="Helvetica-Light" font-size="78.0" fill="#FEFFFF" transform="matrix(1.00, 0.00, -0.00, -1.00, 619.5, 868.0)"> </text><text xml:space="preserve" font-family="Helvetica-Light" font-size="78.0" fill="#FEFFFF" transform="matrix(1.00, 0.00, -0.00, -1.00, 641.2, 868.0)">e</text><text xml:space="preserve" font-family="Helvetica-Light" font-size="78.0" fill="#FEFFFF" transform="matrix(1.00, 0.00, -0.00, -1.00, 684.6, 868.0)">s</text><text xml:space="preserve" font-family="Helvetica-Light" font-size="78.0" fill="#FEFFFF" transform="matrix(1.00, 0.00, -0.00, -1.00, 723.6, 868.0)">t</text><text xml:space="preserve" font-family="Helvetica-Light" font-size="78.0" fill="#FEFFFF" transform="matrix(1.00, 0.00, -0.00, -1.00, 745.2, 868.0)">á</text><text xml:space="preserve" font-family="Helvetica-Light" font-size="78.0" fill="#FEFFFF" transform="matrix(1.00, 0.00, -0.00, -1.00, 788.6, 868.0)"> </text><text xml:space="preserve" font-family="Helvetica-Light" font-size="78.0" fill="#FEFFFF" transform="matrix(1.00, 0.00, -0.00, -1.00, 810.3, 868.0)">l</text><text xml:space="preserve" font-family="Helvetica-Light" font-size="78.0" fill="#FEFFFF" transform="matrix(1.00, 0.00, -0.00, -1.00, 827.6, 868.0)">i</text><text xml:space="preserve" font-family="Helvetica-Light" font-size="78.0" fill="#FEFFFF" transform="matrix(1.00, 0.00, -0.00, -1.00, 844.9, 868.0)">c</text><text xml:space="preserve" font-family="Helvetica-Light" font-size="78.0" fill="#FEFFFF" transform="matrix(1.00, 0.00, -0.00, -1.00, 888.3, 868.0)">e</text><text xml:space="preserve" font-family="Helvetica-Light" font-size="78.0" fill="#FEFFFF" transform="matrix(1.00, 0.00, -0.00, -1.00, 931.7, 868.0)">n</text><text xml:space="preserve" font-family="Helvetica-Light" font-size="78.0" fill="#FEFFFF" transform="matrix(1.00, 0.00, -0.00, -1.00, 975.0, 868.0)">c</text><text xml:space="preserve" font-family="Helvetica-Light" font-size="78.0" fill="#FEFFFF" transform="matrix(1.00, 0.00, -0.00, -1.00, 1018.4, 868.0)">i</text><text xml:space="preserve" font-family="Helvetica-Light" font-size="78.0" fill="#FEFFFF" transform="matrix(1.00, 0.00, -0.00, -1.00, 1035.7, 868.0)">a</text><text xml:space="preserve" font-family="Helvetica-Light" font-size="78.0" fill="#FEFFFF" transform="matrix(1.00, 0.00, -0.00, -1.00, 1079.1, 868.0)">d</text><text xml:space="preserve" font-family="Helvetica-Light" font-size="78.0" fill="#FEFFFF" transform="matrix(1.00, 0.00, -0.00, -1.00, 1126.7, 868.0)">o</text><text xml:space="preserve" font-family="Helvetica-Light" font-size="78.0" fill="#FEFFFF" transform="matrix(1.00, 0.00, -0.00, -1.00, 1170.1, 868.0)"> </text><text xml:space="preserve" font-family="Helvetica-Light" font-size="78.0" fill="#FEFFFF" transform="matrix(1.00, 0.00, -0.00, -1.00, 1191.8, 868.0)">s</text><text xml:space="preserve" font-family="Helvetica-Light" font-size="78.0" fill="#FEFFFF" transform="matrix(1.00, 0.00, -0.00, -1.00, 1230.8, 868.0)">o</text><text xml:space="preserve" font-family="Helvetica-Light" font-size="78.0" fill="#FEFFFF" transform="matrix(1.00, 0.00, -0.00, -1.00, 1274.2, 868.0)">b</text><text xml:space="preserve" font-family="Helvetica-Light" font-size="78.0" fill="#FEFFFF" transform="matrix(1.00, 0.00, -0.00, -1.00, 1321.8, 868.0)"> </text><text xml:space="preserve" font-family="Helvetica-Light" font-size="78.0" fill="#FEFFFF" transform="matrix(1.00, 0.00, -0.00, -1.00, 1343.5, 868.0)">u</text><text xml:space="preserve" font-family="Helvetica-Light" font-size="78.0" fill="#FEFFFF" transform="matrix(1.00, 0.00, -0.00, -1.00, 1386.9, 868.0)">m</text><text xml:space="preserve" font-family="Helvetica-Light" font-size="78.0" fill="#FEFFFF" transform="matrix(1.00, 0.00, -0.00, -1.00, 1451.8, 868.0)">a</text><text xml:space="preserve" font-family="Helvetica-Light" font-size="78.0" fill="#FEFFFF" transform="matrix(1.00, 0.00, -0.00, -1.00, 1495.2, 868.0)"> </text><text xml:space="preserve" font-family="Helvetica-Light" font-size="78.0" fill="#FEFFFF" transform="matrix(1.00, 0.00, -0.00, -1.00, 1516.9, 868.0)">l</text><text xml:space="preserve" font-family="Helvetica-Light" font-size="78.0" fill="#FEFFFF" transform="matrix(1.00, 0.00, -0.00, -1.00, 1534.2, 868.0)">i</text><text xml:space="preserve" font-family="Helvetica-Light" font-size="78.0" fill="#FEFFFF" transform="matrix(1.00, 0.00, -0.00, -1.00, 1551.5, 868.0)">c</text><text xml:space="preserve" font-family="Helvetica-Light" font-size="78.0" fill="#FEFFFF" transform="matrix(1.00, 0.00, -0.00, -1.00, 1594.9, 868.0)">e</text><text xml:space="preserve" font-family="Helvetica-Light" font-size="78.0" fill="#FEFFFF" transform="matrix(1.00, 0.00, -0.00, -1.00, 1638.3, 868.0)">n</text><text xml:space="preserve" font-family="Helvetica-Light" font-size="78.0" fill="#FEFFFF" transform="matrix(1.00, 0.00, -0.00, -1.00, 1681.6, 868.0)">ç</text><text xml:space="preserve" font-family="Helvetica-Light" font-size="78.0" fill="#FEFFFF" transform="matrix(1.00, 0.00, -0.00, -1.00, 1725.0, 868.0)">a</text><text xml:space="preserve" font-family="Helvetica-Light" font-size="78.0" fill="#FEFFFF" transform="matrix(1.00, 0.00, -0.00, -1.00, 1768.4, 868.0)"> </text><text xml:space="preserve" font-family="Helvetica-Light" font-size="78.0" fill="#FEFFFF" transform="matrix(1.00, 0.00, -0.00, -1.00, 631.0, 774.0)">C</text><text xml:space="preserve" font-family="Helvetica-Light" font-size="78.0" fill="#FEFFFF" transform="matrix(1.00, 0.00, -0.00, -1.00, 687.3, 774.0)">r</text><text xml:space="preserve" font-family="Helvetica-Light" font-size="78.0" fill="#FEFFFF" transform="matrix(1.00, 0.00, -0.00, -1.00, 711.9, 774.0)">e</text><text xml:space="preserve" font-family="Helvetica-Light" font-size="78.0" fill="#FEFFFF" transform="matrix(1.00, 0.00, -0.00, -1.00, 755.3, 774.0)">a</text><text xml:space="preserve" font-family="Helvetica-Light" font-size="78.0" fill="#FEFFFF" transform="matrix(1.00, 0.00, -0.00, -1.00, 798.6, 774.0)">t</text><text xml:space="preserve" font-family="Helvetica-Light" font-size="78.0" fill="#FEFFFF" transform="matrix(1.00, 0.00, -0.00, -1.00, 820.3, 774.0)">i</text><text xml:space="preserve" font-family="Helvetica-Light" font-size="78.0" fill="#FEFFFF" transform="matrix(1.00, 0.00, -0.00, -1.00, 837.6, 774.0)">v</text><text xml:space="preserve" font-family="Helvetica-Light" font-size="78.0" fill="#FEFFFF" transform="matrix(1.00, 0.00, -0.00, -1.00, 876.6, 774.0)">e</text><text xml:space="preserve" font-family="Helvetica-Light" font-size="78.0" fill="#FEFFFF" transform="matrix(1.00, 0.00, -0.00, -1.00, 920.0, 774.0)"> </text><text xml:space="preserve" font-family="Helvetica-Light" font-size="78.0" fill="#FEFFFF" transform="matrix(1.00, 0.00, -0.00, -1.00, 941.7, 774.0)">C</text><text xml:space="preserve" font-family="Helvetica-Light" font-size="78.0" fill="#FEFFFF" transform="matrix(1.00, 0.00, -0.00, -1.00, 998.0, 774.0)">o</text><text xml:space="preserve" font-family="Helvetica-Light" font-size="78.0" fill="#FEFFFF" transform="matrix(1.00, 0.00, -0.00, -1.00, 1041.4, 774.0)">m</text><text xml:space="preserve" font-family="Helvetica-Light" font-size="78.0" fill="#FEFFFF" transform="matrix(1.00, 0.00, -0.00, -1.00, 1106.3, 774.0)">m</text><text xml:space="preserve" font-family="Helvetica-Light" font-size="78.0" fill="#FEFFFF" transform="matrix(1.00, 0.00, -0.00, -1.00, 1171.3, 774.0)">o</text><text xml:space="preserve" font-family="Helvetica-Light" font-size="78.0" fill="#FEFFFF" transform="matrix(1.00, 0.00, -0.00, -1.00, 1214.7, 774.0)">n</text><text xml:space="preserve" font-family="Helvetica-Light" font-size="78.0" fill="#FEFFFF" transform="matrix(1.00, 0.00, -0.00, -1.00, 1258.0, 774.0)">s</text><text xml:space="preserve" font-family="Helvetica-Light" font-size="78.0" fill="#FEFFFF" transform="matrix(1.00, 0.00, -0.00, -1.00, 1297.0, 774.0)"> </text><text xml:space="preserve" font-family="Helvetica-Bold" font-weight="bold" font-size="50.0" fill="#FEFFFF" transform="matrix(1.00, 0.00, -0.00, -1.00, 89.0, 130.0)">A</text><text xml:space="preserve" font-family="Helvetica-Bold" font-weight="bold" font-size="50.0" fill="#FEFFFF" transform="matrix(1.00, 0.00, -0.00, -1.00, 125.1, 130.0)">t</text><text xml:space="preserve" font-family="Helvetica-Bold" font-weight="bold" font-size="50.0" fill="#FEFFFF" transform="matrix(1.00, 0.00, -0.00, -1.00, 141.8, 130.0)">r</text><text xml:space="preserve" font-family="Helvetica-Bold" font-weight="bold" font-size="50.0" fill="#FEFFFF" transform="matrix(1.00, 0.00, -0.00, -1.00, 161.2, 130.0)">i</text><text xml:space="preserve" font-family="Helvetica-Bold" font-weight="bold" font-size="50.0" fill="#FEFFFF" transform="matrix(1.00, 0.00, -0.00, -1.00, 175.1, 130.0)">b</text><text xml:space="preserve" font-family="Helvetica-Bold" font-weight="bold" font-size="50.0" fill="#FEFFFF" transform="matrix(1.00, 0.00, -0.00, -1.00, 205.7, 130.0)">u</text><text xml:space="preserve" font-family="Helvetica-Bold" font-weight="bold" font-size="50.0" fill="#FEFFFF" transform="matrix(1.00, 0.00, -0.00, -1.00, 236.2, 130.0)">i</text><text xml:space="preserve" font-family="Helvetica-Bold" font-weight="bold" font-size="50.0" fill="#FEFFFF" transform="matrix(1.00, 0.00, -0.00, -1.00, 250.1, 130.0)">ç</text><text xml:space="preserve" font-family="Helvetica-Bold" font-weight="bold" font-size="50.0" fill="#FEFFFF" transform="matrix(1.00, 0.00, -0.00, -1.00, 277.9, 130.0)">ã</text><text xml:space="preserve" font-family="Helvetica-Bold" font-weight="bold" font-size="50.0" fill="#FEFFFF" transform="matrix(1.00, 0.00, -0.00, -1.00, 305.7, 130.0)">o</text><text xml:space="preserve" font-family="Helvetica-Bold" font-weight="bold" font-size="50.0" fill="#FEFFFF" transform="matrix(1.00, 0.00, -0.00, -1.00, 336.2, 130.0)">-</text><text xml:space="preserve" font-family="Helvetica-Bold" font-weight="bold" font-size="50.0" fill="#FEFFFF" transform="matrix(1.00, 0.00, -0.00, -1.00, 352.9, 130.0)">C</text><text xml:space="preserve" font-family="Helvetica-Bold" font-weight="bold" font-size="50.0" fill="#FEFFFF" transform="matrix(1.00, 0.00, -0.00, -1.00, 389.0, 130.0)">o</text><text xml:space="preserve" font-family="Helvetica-Bold" font-weight="bold" font-size="50.0" fill="#FEFFFF" transform="matrix(1.00, 0.00, -0.00, -1.00, 419.5, 130.0)">m</text><text xml:space="preserve" font-family="Helvetica-Bold" font-weight="bold" font-size="50.0" fill="#FEFFFF" transform="matrix(1.00, 0.00, -0.00, -1.00, 464.0, 130.0)">p</text><text xml:space="preserve" font-family="Helvetica-Bold" font-weight="bold" font-size="50.0" fill="#FEFFFF" transform="matrix(1.00, 0.00, -0.00, -1.00, 494.5, 130.0)">a</text><text xml:space="preserve" font-family="Helvetica-Bold" font-weight="bold" font-size="50.0" fill="#FEFFFF" transform="matrix(1.00, 0.00, -0.00, -1.00, 522.3, 130.0)">r</text><text xml:space="preserve" font-family="Helvetica-Bold" font-weight="bold" font-size="50.0" fill="#FEFFFF" transform="matrix(1.00, 0.00, -0.00, -1.00, 541.8, 130.0)">t</text><text xml:space="preserve" font-family="Helvetica-Bold" font-weight="bold" font-size="50.0" fill="#FEFFFF" transform="matrix(1.00, 0.00, -0.00, -1.00, 558.5, 130.0)">i</text><text xml:space="preserve" font-family="Helvetica-Bold" font-weight="bold" font-size="50.0" fill="#FEFFFF" transform="matrix(1.00, 0.00, -0.00, -1.00, 572.3, 130.0)">l</text><text xml:space="preserve" font-family="Helvetica-Bold" font-weight="bold" font-size="50.0" fill="#FEFFFF" transform="matrix(1.00, 0.00, -0.00, -1.00, 586.2, 130.0)">h</text><text xml:space="preserve" font-family="Helvetica-Bold" font-weight="bold" font-size="50.0" fill="#FEFFFF" transform="matrix(1.00, 0.00, -0.00, -1.00, 616.8, 130.0)">a</text><text xml:space="preserve" font-family="Helvetica-Bold" font-weight="bold" font-size="50.0" fill="#FEFFFF" transform="matrix(1.00, 0.00, -0.00, -1.00, 644.6, 130.0)">m</text><text xml:space="preserve" font-family="Helvetica-Bold" font-weight="bold" font-size="50.0" fill="#FEFFFF" transform="matrix(1.00, 0.00, -0.00, -1.00, 689.0, 130.0)">e</text><text xml:space="preserve" font-family="Helvetica-Bold" font-weight="bold" font-size="50.0" fill="#FEFFFF" transform="matrix(1.00, 0.00, -0.00, -1.00, 716.9, 130.0)">n</text><text xml:space="preserve" font-family="Helvetica-Bold" font-weight="bold" font-size="50.0" fill="#FEFFFF" transform="matrix(1.00, 0.00, -0.00, -1.00, 747.4, 130.0)">t</text><text xml:space="preserve" font-family="Helvetica-Bold" font-weight="bold" font-size="50.0" fill="#FEFFFF" transform="matrix(1.00, 0.00, -0.00, -1.00, 764.0, 130.0)">o</text><text xml:space="preserve" font-family="Helvetica-Bold" font-weight="bold" font-size="50.0" fill="#FEFFFF" transform="matrix(1.00, 0.00, -0.00, -1.00, 794.6, 130.0)"> </text><text xml:space="preserve" font-family="Helvetica-Bold" font-weight="bold" font-size="50.0" fill="#FEFFFF" transform="matrix(1.00, 0.00, -0.00, -1.00, 808.5, 130.0)">p</text><text xml:space="preserve" font-family="Helvetica-Bold" font-weight="bold" font-size="50.0" fill="#FEFFFF" transform="matrix(1.00, 0.00, -0.00, -1.00, 839.0, 130.0)">e</text><text xml:space="preserve" font-family="Helvetica-Bold" font-weight="bold" font-size="50.0" fill="#FEFFFF" transform="matrix(1.00, 0.00, -0.00, -1.00, 866.8, 130.0)">l</text><text xml:space="preserve" font-family="Helvetica-Bold" font-weight="bold" font-size="50.0" fill="#FEFFFF" transform="matrix(1.00, 0.00, -0.00, -1.00, 880.7, 130.0)">a</text><text xml:space="preserve" font-family="Helvetica-Bold" font-weight="bold" font-size="50.0" fill="#FEFFFF" transform="matrix(1.00, 0.00, -0.00, -1.00, 908.5, 130.0)"> </text><text xml:space="preserve" font-family="Helvetica-Bold" font-weight="bold" font-size="50.0" fill="#FEFFFF" transform="matrix(1.00, 0.00, -0.00, -1.00, 922.4, 130.0)">m</text><text xml:space="preserve" font-family="Helvetica-Bold" font-weight="bold" font-size="50.0" fill="#FEFFFF" transform="matrix(1.00, 0.00, -0.00, -1.00, 966.9, 130.0)">e</text><text xml:space="preserve" font-family="Helvetica-Bold" font-weight="bold" font-size="50.0" fill="#FEFFFF" transform="matrix(1.00, 0.00, -0.00, -1.00, 994.7, 130.0)">s</text><text xml:space="preserve" font-family="Helvetica-Bold" font-weight="bold" font-size="50.0" fill="#FEFFFF" transform="matrix(1.00, 0.00, -0.00, -1.00, 1022.5, 130.0)">m</text><text xml:space="preserve" font-family="Helvetica-Bold" font-weight="bold" font-size="50.0" fill="#FEFFFF" transform="matrix(1.00, 0.00, -0.00, -1.00, 1067.0, 130.0)">a</text><text xml:space="preserve" font-family="Helvetica-Bold" font-weight="bold" font-size="50.0" fill="#FEFFFF" transform="matrix(1.00, 0.00, -0.00, -1.00, 1094.8, 130.0)"> </text><text xml:space="preserve" font-family="Helvetica-Bold" font-weight="bold" font-size="50.0" fill="#FEFFFF" transform="matrix(1.00, 0.00, -0.00, -1.00, 1108.7, 130.0)">l</text><text xml:space="preserve" font-family="Helvetica-Bold" font-weight="bold" font-size="50.0" fill="#FEFFFF" transform="matrix(1.00, 0.00, -0.00, -1.00, 1122.5, 130.0)">i</text><text xml:space="preserve" font-family="Helvetica-Bold" font-weight="bold" font-size="50.0" fill="#FEFFFF" transform="matrix(1.00, 0.00, -0.00, -1.00, 1136.4, 130.0)">c</text><text xml:space="preserve" font-family="Helvetica-Bold" font-weight="bold" font-size="50.0" fill="#FEFFFF" transform="matrix(1.00, 0.00, -0.00, -1.00, 1164.2, 130.0)">e</text><text xml:space="preserve" font-family="Helvetica-Bold" font-weight="bold" font-size="50.0" fill="#FEFFFF" transform="matrix(1.00, 0.00, -0.00, -1.00, 1192.1, 130.0)">n</text><text xml:space="preserve" font-family="Helvetica-Bold" font-weight="bold" font-size="50.0" fill="#FEFFFF" transform="matrix(1.00, 0.00, -0.00, -1.00, 1222.6, 130.0)">ç</text><text xml:space="preserve" font-family="Helvetica-Bold" font-weight="bold" font-size="50.0" fill="#FEFFFF" transform="matrix(1.00, 0.00, -0.00, -1.00, 1250.4, 130.0)">a</text><text xml:space="preserve" font-family="Helvetica-Bold" font-weight="bold" font-size="50.0" fill="#FEFFFF" transform="matrix(1.00, 0.00, -0.00, -1.00, 1278.2, 130.0)"> </text><text xml:space="preserve" font-family="Helvetica-Bold" font-weight="bold" font-size="50.0" fill="#FEFFFF" transform="matrix(1.00, 0.00, -0.00, -1.00, 1292.1, 130.0)">4</text><text xml:space="preserve" font-family="Helvetica-Bold" font-weight="bold" font-size="50.0" fill="#FEFFFF" transform="matrix(1.00, 0.00, -0.00, -1.00, 1319.9, 130.0)">.</text><text xml:space="preserve" font-family="Helvetica-Bold" font-weight="bold" font-size="50.0" fill="#FEFFFF" transform="matrix(1.00, 0.00, -0.00, -1.00, 1333.8, 130.0)">0</text><text xml:space="preserve" font-family="Helvetica-Bold" font-weight="bold" font-size="50.0" fill="#FEFFFF" transform="matrix(1.00, 0.00, -0.00, -1.00, 1361.6, 130.0)">.</text><text xml:space="preserve" font-family="Helvetica-Bold" font-weight="bold" font-size="50.0" fill="#FEFFFF" transform="matrix(1.00, 0.00, -0.00, -1.00, 89.0, 70.0)">h</text><text xml:space="preserve" font-family="Helvetica-Bold" font-weight="bold" font-size="50.0" fill="#FEFFFF" transform="matrix(1.00, 0.00, -0.00, -1.00, 119.5, 70.0)">t</text><text xml:space="preserve" font-family="Helvetica-Bold" font-weight="bold" font-size="50.0" fill="#FEFFFF" transform="matrix(1.00, 0.00, -0.00, -1.00, 136.2, 70.0)">t</text><text xml:space="preserve" font-family="Helvetica-Bold" font-weight="bold" font-size="50.0" fill="#FEFFFF" transform="matrix(1.00, 0.00, -0.00, -1.00, 152.8, 70.0)">p</text><text xml:space="preserve" font-family="Helvetica-Bold" font-weight="bold" font-size="50.0" fill="#FEFFFF" transform="matrix(1.00, 0.00, -0.00, -1.00, 183.4, 70.0)">:</text><text xml:space="preserve" font-family="Helvetica-Bold" font-weight="bold" font-size="50.0" fill="#FEFFFF" transform="matrix(1.00, 0.00, -0.00, -1.00, 200.0, 70.0)">/</text><text xml:space="preserve" font-family="Helvetica-Bold" font-weight="bold" font-size="50.0" fill="#FEFFFF" transform="matrix(1.00, 0.00, -0.00, -1.00, 213.9, 70.0)">/</text><text xml:space="preserve" font-family="Helvetica-Bold" font-weight="bold" font-size="50.0" fill="#FEFFFF" transform="matrix(1.00, 0.00, -0.00, -1.00, 227.8, 70.0)">c</text><text xml:space="preserve" font-family="Helvetica-Bold" font-weight="bold" font-size="50.0" fill="#FEFFFF" transform="matrix(1.00, 0.00, -0.00, -1.00, 255.6, 70.0)">r</text><text xml:space="preserve" font-family="Helvetica-Bold" font-weight="bold" font-size="50.0" fill="#FEFFFF" transform="matrix(1.00, 0.00, -0.00, -1.00, 275.1, 70.0)">e</text><text xml:space="preserve" font-family="Helvetica-Bold" font-weight="bold" font-size="50.0" fill="#FEFFFF" transform="matrix(1.00, 0.00, -0.00, -1.00, 302.9, 70.0)">a</text><text xml:space="preserve" font-family="Helvetica-Bold" font-weight="bold" font-size="50.0" fill="#FEFFFF" transform="matrix(1.00, 0.00, -0.00, -1.00, 330.7, 70.0)">t</text><text xml:space="preserve" font-family="Helvetica-Bold" font-weight="bold" font-size="50.0" fill="#FEFFFF" transform="matrix(1.00, 0.00, -0.00, -1.00, 347.3, 70.0)">i</text><text xml:space="preserve" font-family="Helvetica-Bold" font-weight="bold" font-size="50.0" fill="#FEFFFF" transform="matrix(1.00, 0.00, -0.00, -1.00, 361.2, 70.0)">v</text><text xml:space="preserve" font-family="Helvetica-Bold" font-weight="bold" font-size="50.0" fill="#FEFFFF" transform="matrix(1.00, 0.00, -0.00, -1.00, 389.0, 70.0)">e</text><text xml:space="preserve" font-family="Helvetica-Bold" font-weight="bold" font-size="50.0" fill="#FEFFFF" transform="matrix(1.00, 0.00, -0.00, -1.00, 416.9, 70.0)">c</text><text xml:space="preserve" font-family="Helvetica-Bold" font-weight="bold" font-size="50.0" fill="#FEFFFF" transform="matrix(1.00, 0.00, -0.00, -1.00, 444.7, 70.0)">o</text><text xml:space="preserve" font-family="Helvetica-Bold" font-weight="bold" font-size="50.0" fill="#FEFFFF" transform="matrix(1.00, 0.00, -0.00, -1.00, 475.2, 70.0)">m</text><text xml:space="preserve" font-family="Helvetica-Bold" font-weight="bold" font-size="50.0" fill="#FEFFFF" transform="matrix(1.00, 0.00, -0.00, -1.00, 519.7, 70.0)">m</text><text xml:space="preserve" font-family="Helvetica-Bold" font-weight="bold" font-size="50.0" fill="#FEFFFF" transform="matrix(1.00, 0.00, -0.00, -1.00, 564.2, 70.0)">o</text><text xml:space="preserve" font-family="Helvetica-Bold" font-weight="bold" font-size="50.0" fill="#FEFFFF" transform="matrix(1.00, 0.00, -0.00, -1.00, 594.7, 70.0)">n</text><text xml:space="preserve" font-family="Helvetica-Bold" font-weight="bold" font-size="50.0" fill="#FEFFFF" transform="matrix(1.00, 0.00, -0.00, -1.00, 625.2, 70.0)">s</text><text xml:space="preserve" font-family="Helvetica-Bold" font-weight="bold" font-size="50.0" fill="#FEFFFF" transform="matrix(1.00, 0.00, -0.00, -1.00, 653.0, 70.0)">.</text><text xml:space="preserve" font-family="Helvetica-Bold" font-weight="bold" font-size="50.0" fill="#FEFFFF" transform="matrix(1.00, 0.00, -0.00, -1.00, 666.9, 70.0)">o</text><text xml:space="preserve" font-family="Helvetica-Bold" font-weight="bold" font-size="50.0" fill="#FEFFFF" transform="matrix(1.00, 0.00, -0.00, -1.00, 697.4, 70.0)">r</text><text xml:space="preserve" font-family="Helvetica-Bold" font-weight="bold" font-size="50.0" fill="#FEFFFF" transform="matrix(1.00, 0.00, -0.00, -1.00, 716.9, 70.0)">g</text><text xml:space="preserve" font-family="Helvetica-Bold" font-weight="bold" font-size="50.0" fill="#FEFFFF" transform="matrix(1.00, 0.00, -0.00, -1.00, 747.4, 70.0)">/</text><text xml:space="preserve" font-family="Helvetica-Bold" font-weight="bold" font-size="50.0" fill="#FEFFFF" transform="matrix(1.00, 0.00, -0.00, -1.00, 761.3, 70.0)">l</text><text xml:space="preserve" font-family="Helvetica-Bold" font-weight="bold" font-size="50.0" fill="#FEFFFF" transform="matrix(1.00, 0.00, -0.00, -1.00, 775.2, 70.0)">i</text><text xml:space="preserve" font-family="Helvetica-Bold" font-weight="bold" font-size="50.0" fill="#FEFFFF" transform="matrix(1.00, 0.00, -0.00, -1.00, 789.1, 70.0)">c</text><text xml:space="preserve" font-family="Helvetica-Bold" font-weight="bold" font-size="50.0" fill="#FEFFFF" transform="matrix(1.00, 0.00, -0.00, -1.00, 816.9, 70.0)">e</text><text xml:space="preserve" font-family="Helvetica-Bold" font-weight="bold" font-size="50.0" fill="#FEFFFF" transform="matrix(1.00, 0.00, -0.00, -1.00, 844.7, 70.0)">n</text><text xml:space="preserve" font-family="Helvetica-Bold" font-weight="bold" font-size="50.0" fill="#FEFFFF" transform="matrix(1.00, 0.00, -0.00, -1.00, 875.3, 70.0)">s</text><text xml:space="preserve" font-family="Helvetica-Bold" font-weight="bold" font-size="50.0" fill="#FEFFFF" transform="matrix(1.00, 0.00, -0.00, -1.00, 903.1, 70.0)">e</text><text xml:space="preserve" font-family="Helvetica-Bold" font-weight="bold" font-size="50.0" fill="#FEFFFF" transform="matrix(1.00, 0.00, -0.00, -1.00, 930.9, 70.0)">s</text><text xml:space="preserve" font-family="Helvetica-Bold" font-weight="bold" font-size="50.0" fill="#FEFFFF" transform="matrix(1.00, 0.00, -0.00, -1.00, 958.7, 70.0)">/</text><text xml:space="preserve" font-family="Helvetica-Bold" font-weight="bold" font-size="50.0" fill="#FEFFFF" transform="matrix(1.00, 0.00, -0.00, -1.00, 972.6, 70.0)">b</text><text xml:space="preserve" font-family="Helvetica-Bold" font-weight="bold" font-size="50.0" fill="#FEFFFF" transform="matrix(1.00, 0.00, -0.00, -1.00, 1003.1, 70.0)">y</text><text xml:space="preserve" font-family="Helvetica-Bold" font-weight="bold" font-size="50.0" fill="#FEFFFF" transform="matrix(1.00, 0.00, -0.00, -1.00, 1030.9, 70.0)">-</text><text xml:space="preserve" font-family="Helvetica-Bold" font-weight="bold" font-size="50.0" fill="#FEFFFF" transform="matrix(1.00, 0.00, -0.00, -1.00, 1047.6, 70.0)">s</text><text xml:space="preserve" font-family="Helvetica-Bold" font-weight="bold" font-size="50.0" fill="#FEFFFF" transform="matrix(1.00, 0.00, -0.00, -1.00, 1075.4, 70.0)">a</text><text xml:space="preserve" font-family="Helvetica-Bold" font-weight="bold" font-size="50.0" fill="#FEFFFF" transform="matrix(1.00, 0.00, -0.00, -1.00, 1103.2, 70.0)">/</text><text xml:space="preserve" font-family="Helvetica-Bold" font-weight="bold" font-size="50.0" fill="#FEFFFF" transform="matrix(1.00, 0.00, -0.00, -1.00, 1117.1, 70.0)">4</text><text xml:space="preserve" font-family="Helvetica-Bold" font-weight="bold" font-size="50.0" fill="#FEFFFF" transform="matrix(1.00, 0.00, -0.00, -1.00, 1144.9, 70.0)">.</text><text xml:space="preserve" font-family="Helvetica-Bold" font-weight="bold" font-size="50.0" fill="#FEFFFF" transform="matrix(1.00, 0.00, -0.00, -1.00, 1158.8, 70.0)">0</text><text xml:space="preserve" font-family="Helvetica-Bold" font-weight="bold" font-size="50.0" fill="#FEFFFF" transform="matrix(1.00, 0.00, -0.00, -1.00, 1186.6, 70.0)">/</text><text xml:space="preserve" font-family="Helvetica-Bold" font-weight="bold" font-size="50.0" fill="#FEFFFF" transform="matrix(1.00, 0.00, -0.00, -1.00, 1200.5, 70.0)"> </text></g></svg>