<?xml version="1.0" encoding="UTF-8" standalone="no"?><svg xmlns="http://www.w3.org/2000/svg" xmlns:xlink="http://www.w3.org/1999/xlink" clip-rule="evenodd" stroke-miterlimit="4.00" viewBox="0 0 1920 1080"><desc>SVG generated by Keynote</desc><defs></defs><g transform="matrix(1.00, 0.00, -0.00, -1.00, 0.0, 1080.0)"><path d="M 0.0 1080.0 L 1920.0 1080.0 L 1920.0 0.0 L 0.0 0.0 Z M 0.0 1080.0 " fill="#009DFF"></path><text xml:space="preserve" font-family="Helvetica-Bold" font-weight="bold" font-size="36.0" fill="#FEFFFF" transform="matrix(1.00, 0.00, -0.00, -1.00, 1789.0, 46.0)">6</text><g opacity="0.15"><g><clipPath id="clip-37"><path d="M 661.0 0.0 L 1920.0 0.0 L 1920.0 1080.0 L 661.0 1080.0 Z M 661.0 0.0 "></path></clipPath><g clip-path="url(#clip-37)"><image xlink:href="../../615F7CD4-E262-41F7-8138-806EC6AB1FAB/assets/87ABFF0ACED01E62478C9A9C0E1733CE.png" width="539.00" height="540.00" transform="matrix(0.38, -2.21, -2.21, -0.38, 1857.0, 1255.0)"></image></g></g></g><g opacity="0.15"><g><clipPath id="clip-38"><path d="M 0.0 0.0 L 752.0 0.0 L 752.0 1080.0 L 0.0 1080.0 Z M 0.0 0.0 "></path></clipPath><g clip-path="url(#clip-38)"><image xlink:href="../../615F7CD4-E262-41F7-8138-806EC6AB1FAB/assets/87ABFF0ACED01E62478C9A9C0E1733CE.png" width="539.00" height="540.00" transform="matrix(-2.14, 0.53, 0.53, 2.14, 463.8, -163.5)"></image></g></g></g><text xml:space="preserve" font-family="HelveticaNeue-Light" font-size="91.8" fill="#FEFFFF" transform="matrix(1.00, 0.00, -0.00, -1.00, 59.0, 932.0)">R</text><text xml:space="preserve" font-family="HelveticaNeue-Light" font-size="91.8" fill="#FEFFFF" transform="matrix(1.00, 0.00, -0.00, -1.00, 120.2, 932.0)">e</text><text xml:space="preserve" font-family="HelveticaNeue-Light" font-size="91.8" fill="#FEFFFF" transform="matrix(1.00, 0.00, -0.00, -1.00, 167.9, 932.0)">p</text><text xml:space="preserve" font-family="HelveticaNeue-Light" font-size="91.8" fill="#FEFFFF" transform="matrix(1.00, 0.00, -0.00, -1.00, 220.6, 932.0)">r</text><text xml:space="preserve" font-family="HelveticaNeue-Light" font-size="91.8" fill="#FEFFFF" transform="matrix(1.00, 0.00, -0.00, -1.00, 247.8, 932.0)">e</text><text xml:space="preserve" font-family="HelveticaNeue-Light" font-size="91.8" fill="#FEFFFF" transform="matrix(1.00, 0.00, -0.00, -1.00, 295.5, 932.0)">s</text><text xml:space="preserve" font-family="HelveticaNeue-Light" font-size="91.8" fill="#FEFFFF" transform="matrix(1.00, 0.00, -0.00, -1.00, 339.6, 932.0)">e</text><text xml:space="preserve" font-family="HelveticaNeue-Light" font-size="91.8" fill="#FEFFFF" transform="matrix(1.00, 0.00, -0.00, -1.00, 387.3, 932.0)">n</text><text xml:space="preserve" font-family="HelveticaNeue-Light" font-size="91.8" fill="#FEFFFF" transform="matrix(1.00, 0.00, -0.00, -1.00, 436.6, 932.0)">t</text><text xml:space="preserve" font-family="HelveticaNeue-Light" font-size="91.8" fill="#FEFFFF" transform="matrix(1.00, 0.00, -0.00, -1.00, 463.7, 932.0)">a</text><text xml:space="preserve" font-family="HelveticaNeue-Light" font-size="91.8" fill="#FEFFFF" transform="matrix(1.00, 0.00, -0.00, -1.00, 511.4, 932.0)">ç</text><text xml:space="preserve" font-family="HelveticaNeue-Light" font-size="91.8" fill="#FEFFFF" transform="matrix(1.00, 0.00, -0.00, -1.00, 559.0, 932.0)">ã</text><text xml:space="preserve" font-family="HelveticaNeue-Light" font-size="91.8" fill="#FEFFFF" transform="matrix(1.00, 0.00, -0.00, -1.00, 606.7, 932.0)">o</text><text xml:space="preserve" font-family="HelveticaNeue-Light" font-size="91.8" fill="#FEFFFF" transform="matrix(1.00, 0.00, -0.00, -1.00, 657.7, 932.0)"> </text><text xml:space="preserve" font-family="HelveticaNeue-Light" font-size="91.8" fill="#FEFFFF" transform="matrix(1.00, 0.00, -0.00, -1.00, 683.2, 932.0)">C</text><text xml:space="preserve" font-family="HelveticaNeue-Light" font-size="91.8" fill="#FEFFFF" transform="matrix(1.00, 0.00, -0.00, -1.00, 747.9, 932.0)">o</text><text xml:space="preserve" font-family="HelveticaNeue-Light" font-size="91.8" fill="#FEFFFF" transform="matrix(1.00, 0.00, -0.00, -1.00, 798.9, 932.0)">m</text><text xml:space="preserve" font-family="HelveticaNeue-Light" font-size="91.8" fill="#FEFFFF" transform="matrix(1.00, 0.00, -0.00, -1.00, 875.4, 932.0)">p</text><text xml:space="preserve" font-family="HelveticaNeue-Light" font-size="91.8" fill="#FEFFFF" transform="matrix(1.00, 0.00, -0.00, -1.00, 928.1, 932.0)">u</text><text xml:space="preserve" font-family="HelveticaNeue-Light" font-size="91.8" fill="#FEFFFF" transform="matrix(1.00, 0.00, -0.00, -1.00, 977.4, 932.0)">t</text><text xml:space="preserve" font-family="HelveticaNeue-Light" font-size="91.8" fill="#FEFFFF" transform="matrix(1.00, 0.00, -0.00, -1.00, 1004.5, 932.0)">a</text><text xml:space="preserve" font-family="HelveticaNeue-Light" font-size="91.8" fill="#FEFFFF" transform="matrix(1.00, 0.00, -0.00, -1.00, 1052.2, 932.0)">c</text><text xml:space="preserve" font-family="HelveticaNeue-Light" font-size="91.8" fill="#FEFFFF" transform="matrix(1.00, 0.00, -0.00, -1.00, 1099.8, 932.0)">i</text><text xml:space="preserve" font-family="HelveticaNeue-Light" font-size="91.8" fill="#FEFFFF" transform="matrix(1.00, 0.00, -0.00, -1.00, 1116.8, 932.0)">o</text><text xml:space="preserve" font-family="HelveticaNeue-Light" font-size="91.8" fill="#FEFFFF" transform="matrix(1.00, 0.00, -0.00, -1.00, 1167.9, 932.0)">n</text><text xml:space="preserve" font-family="HelveticaNeue-Light" font-size="91.8" fill="#FEFFFF" transform="matrix(1.00, 0.00, -0.00, -1.00, 1217.1, 932.0)">a</text><text xml:space="preserve" font-family="HelveticaNeue-Light" font-size="91.8" fill="#FEFFFF" transform="matrix(1.00, 0.00, -0.00, -1.00, 1264.8, 932.0)">l</text><g><clipPath id="clip-39"><path d="M 112.7 351.8 L 1141.1 351.8 L 1141.1 774.7 L 112.7 774.7 Z M 112.7 351.8 "></path></clipPath><g clip-path="url(#clip-39)"><text xml:space="preserve" font-family="HelveticaNeue-Light" font-size="48.8" fill="#FEFFFF" transform="matrix(1.00, 0.00, -0.00, -1.00, 131.8, 699.0)">•</text><text xml:space="preserve" font-family="HelveticaNeue-Light" font-size="65.0" fill="#FEFFFF" transform="matrix(1.00, 0.00, -0.00, -1.00, 183.0, 692.0)">M</text><text xml:space="preserve" font-family="HelveticaNeue-Light" font-size="65.0" fill="#FEFFFF" transform="matrix(1.00, 0.00, -0.00, -1.00, 236.4, 692.0)">a</text><text xml:space="preserve" font-family="HelveticaNeue-Light" font-size="65.0" fill="#FEFFFF" transform="matrix(1.00, 0.00, -0.00, -1.00, 270.1, 692.0)">t</text><text xml:space="preserve" font-family="HelveticaNeue-Light" font-size="65.0" fill="#FEFFFF" transform="matrix(1.00, 0.00, -0.00, -1.00, 289.3, 692.0)">r</text><text xml:space="preserve" font-family="HelveticaNeue-Light" font-size="65.0" fill="#FEFFFF" transform="matrix(1.00, 0.00, -0.00, -1.00, 309.8, 692.0)">i</text><text xml:space="preserve" font-family="HelveticaNeue-Light" font-size="65.0" fill="#FEFFFF" transform="matrix(1.00, 0.00, -0.00, -1.00, 321.8, 692.0)">z</text><text xml:space="preserve" font-family="HelveticaNeue-Light" font-size="65.0" fill="#FEFFFF" transform="matrix(1.00, 0.00, -0.00, -1.00, 351.9, 692.0)"> </text><text xml:space="preserve" font-family="HelveticaNeue-Light" font-size="65.0" fill="#FEFFFF" transform="matrix(1.00, 0.00, -0.00, -1.00, 370.0, 692.0)">d</text><text xml:space="preserve" font-family="HelveticaNeue-Light" font-size="65.0" fill="#FEFFFF" transform="matrix(1.00, 0.00, -0.00, -1.00, 407.3, 692.0)">e</text><text xml:space="preserve" font-family="HelveticaNeue-Light" font-size="65.0" fill="#FEFFFF" transform="matrix(1.00, 0.00, -0.00, -1.00, 441.1, 692.0)"> </text><text xml:space="preserve" font-family="HelveticaNeue-Light" font-size="65.0" fill="#FEFFFF" transform="matrix(1.00, 0.00, -0.00, -1.00, 459.1, 692.0)">A</text><text xml:space="preserve" font-family="HelveticaNeue-Light" font-size="65.0" fill="#FEFFFF" transform="matrix(1.00, 0.00, -0.00, -1.00, 500.1, 692.0)">d</text><text xml:space="preserve" font-family="HelveticaNeue-Light" font-size="65.0" fill="#FEFFFF" transform="matrix(1.00, 0.00, -0.00, -1.00, 537.4, 692.0)">j</text><text xml:space="preserve" font-family="HelveticaNeue-Light" font-size="65.0" fill="#FEFFFF" transform="matrix(1.00, 0.00, -0.00, -1.00, 549.4, 692.0)">a</text><text xml:space="preserve" font-family="HelveticaNeue-Light" font-size="65.0" fill="#FEFFFF" transform="matrix(1.00, 0.00, -0.00, -1.00, 583.1, 692.0)">c</text><text xml:space="preserve" font-family="HelveticaNeue-Light" font-size="65.0" fill="#FEFFFF" transform="matrix(1.00, 0.00, -0.00, -1.00, 616.9, 692.0)">ê</text><text xml:space="preserve" font-family="HelveticaNeue-Light" font-size="65.0" fill="#FEFFFF" transform="matrix(1.00, 0.00, -0.00, -1.00, 650.6, 692.0)">n</text><text xml:space="preserve" font-family="HelveticaNeue-Light" font-size="65.0" fill="#FEFFFF" transform="matrix(1.00, 0.00, -0.00, -1.00, 685.5, 692.0)">c</text><text xml:space="preserve" font-family="HelveticaNeue-Light" font-size="65.0" fill="#FEFFFF" transform="matrix(1.00, 0.00, -0.00, -1.00, 719.2, 692.0)">i</text><text xml:space="preserve" font-family="HelveticaNeue-Light" font-size="65.0" fill="#FEFFFF" transform="matrix(1.00, 0.00, -0.00, -1.00, 731.3, 692.0)">a</text><text xml:space="preserve" font-family="HelveticaNeue-Light" font-size="65.0" fill="#FEFFFF" transform="matrix(1.00, 0.00, -0.00, -1.00, 765.0, 692.0)">;</text><text xml:space="preserve" font-family="HelveticaNeue-Light" font-size="65.0" fill="#FEFFFF" transform="matrix(1.00, 0.00, -0.00, -1.00, 783.1, 692.0)"> </text><text xml:space="preserve" font-family="HelveticaNeue-Light" font-size="48.8" fill="#FEFFFF" transform="matrix(1.00, 0.00, -0.00, -1.00, 131.8, 604.6)">•</text><text xml:space="preserve" font-family="HelveticaNeue-Light" font-size="65.0" fill="#FEFFFF" transform="matrix(1.00, 0.00, -0.00, -1.00, 183.0, 598.0)">L</text><text xml:space="preserve" font-family="HelveticaNeue-Light" font-size="65.0" fill="#FEFFFF" transform="matrix(1.00, 0.00, -0.00, -1.00, 217.9, 598.0)">i</text><text xml:space="preserve" font-family="HelveticaNeue-Light" font-size="65.0" fill="#FEFFFF" transform="matrix(1.00, 0.00, -0.00, -1.00, 229.9, 598.0)">s</text><text xml:space="preserve" font-family="HelveticaNeue-Light" font-size="65.0" fill="#FEFFFF" transform="matrix(1.00, 0.00, -0.00, -1.00, 261.2, 598.0)">t</text><text xml:space="preserve" font-family="HelveticaNeue-Light" font-size="65.0" fill="#FEFFFF" transform="matrix(1.00, 0.00, -0.00, -1.00, 280.4, 598.0)">a</text><text xml:space="preserve" font-family="HelveticaNeue-Light" font-size="65.0" fill="#FEFFFF" transform="matrix(1.00, 0.00, -0.00, -1.00, 314.2, 598.0)"> </text><text xml:space="preserve" font-family="HelveticaNeue-Light" font-size="65.0" fill="#FEFFFF" transform="matrix(1.00, 0.00, -0.00, -1.00, 332.2, 598.0)">d</text><text xml:space="preserve" font-family="HelveticaNeue-Light" font-size="65.0" fill="#FEFFFF" transform="matrix(1.00, 0.00, -0.00, -1.00, 369.6, 598.0)">e</text><text xml:space="preserve" font-family="HelveticaNeue-Light" font-size="65.0" fill="#FEFFFF" transform="matrix(1.00, 0.00, -0.00, -1.00, 403.3, 598.0)"> </text><text xml:space="preserve" font-family="HelveticaNeue-Light" font-size="65.0" fill="#FEFFFF" transform="matrix(1.00, 0.00, -0.00, -1.00, 421.4, 598.0)">A</text><text xml:space="preserve" font-family="HelveticaNeue-Light" font-size="65.0" fill="#FEFFFF" transform="matrix(1.00, 0.00, -0.00, -1.00, 462.3, 598.0)">d</text><text xml:space="preserve" font-family="HelveticaNeue-Light" font-size="65.0" fill="#FEFFFF" transform="matrix(1.00, 0.00, -0.00, -1.00, 499.6, 598.0)">j</text><text xml:space="preserve" font-family="HelveticaNeue-Light" font-size="65.0" fill="#FEFFFF" transform="matrix(1.00, 0.00, -0.00, -1.00, 511.6, 598.0)">a</text><text xml:space="preserve" font-family="HelveticaNeue-Light" font-size="65.0" fill="#FEFFFF" transform="matrix(1.00, 0.00, -0.00, -1.00, 545.4, 598.0)">c</text><text xml:space="preserve" font-family="HelveticaNeue-Light" font-size="65.0" fill="#FEFFFF" transform="matrix(1.00, 0.00, -0.00, -1.00, 579.1, 598.0)">ê</text><text xml:space="preserve" font-family="HelveticaNeue-Light" font-size="65.0" fill="#FEFFFF" transform="matrix(1.00, 0.00, -0.00, -1.00, 612.8, 598.0)">n</text><text xml:space="preserve" font-family="HelveticaNeue-Light" font-size="65.0" fill="#FEFFFF" transform="matrix(1.00, 0.00, -0.00, -1.00, 647.8, 598.0)">c</text><text xml:space="preserve" font-family="HelveticaNeue-Light" font-size="65.0" fill="#FEFFFF" transform="matrix(1.00, 0.00, -0.00, -1.00, 681.5, 598.0)">i</text><text xml:space="preserve" font-family="HelveticaNeue-Light" font-size="65.0" fill="#FEFFFF" transform="matrix(1.00, 0.00, -0.00, -1.00, 693.5, 598.0)">a</text><text xml:space="preserve" font-family="HelveticaNeue-Light" font-size="65.0" fill="#FEFFFF" transform="matrix(1.00, 0.00, -0.00, -1.00, 727.2, 598.0)">;</text><text xml:space="preserve" font-family="HelveticaNeue-Light" font-size="65.0" fill="#FEFFFF" transform="matrix(1.00, 0.00, -0.00, -1.00, 745.3, 598.0)"> </text><text xml:space="preserve" font-family="HelveticaNeue-Light" font-size="48.8" fill="#FEFFFF" transform="matrix(1.00, 0.00, -0.00, -1.00, 131.8, 510.2)">•</text><text xml:space="preserve" font-family="HelveticaNeue-Light" font-size="65.0" fill="#FEFFFF" transform="matrix(1.00, 0.00, -0.00, -1.00, 183.0, 503.0)">L</text><text xml:space="preserve" font-family="HelveticaNeue-Light" font-size="65.0" fill="#FEFFFF" transform="matrix(1.00, 0.00, -0.00, -1.00, 217.9, 503.0)">i</text><text xml:space="preserve" font-family="HelveticaNeue-Light" font-size="65.0" fill="#FEFFFF" transform="matrix(1.00, 0.00, -0.00, -1.00, 229.9, 503.0)">s</text><text xml:space="preserve" font-family="HelveticaNeue-Light" font-size="65.0" fill="#FEFFFF" transform="matrix(1.00, 0.00, -0.00, -1.00, 261.2, 503.0)">t</text><text xml:space="preserve" font-family="HelveticaNeue-Light" font-size="65.0" fill="#FEFFFF" transform="matrix(1.00, 0.00, -0.00, -1.00, 280.4, 503.0)">a</text><text xml:space="preserve" font-family="HelveticaNeue-Light" font-size="65.0" fill="#FEFFFF" transform="matrix(1.00, 0.00, -0.00, -1.00, 314.2, 503.0)"> </text><text xml:space="preserve" font-family="HelveticaNeue-Light" font-size="65.0" fill="#FEFFFF" transform="matrix(1.00, 0.00, -0.00, -1.00, 332.2, 503.0)">d</text><text xml:space="preserve" font-family="HelveticaNeue-Light" font-size="65.0" fill="#FEFFFF" transform="matrix(1.00, 0.00, -0.00, -1.00, 369.6, 503.0)">e</text><text xml:space="preserve" font-family="HelveticaNeue-Light" font-size="65.0" fill="#FEFFFF" transform="matrix(1.00, 0.00, -0.00, -1.00, 403.3, 503.0)"> </text><text xml:space="preserve" font-family="HelveticaNeue-Light" font-size="65.0" fill="#FEFFFF" transform="matrix(1.00, 0.00, -0.00, -1.00, 421.4, 503.0)">A</text><text xml:space="preserve" font-family="HelveticaNeue-Light" font-size="65.0" fill="#FEFFFF" transform="matrix(1.00, 0.00, -0.00, -1.00, 462.3, 503.0)">r</text><text xml:space="preserve" font-family="HelveticaNeue-Light" font-size="65.0" fill="#FEFFFF" transform="matrix(1.00, 0.00, -0.00, -1.00, 481.6, 503.0)">e</text><text xml:space="preserve" font-family="HelveticaNeue-Light" font-size="65.0" fill="#FEFFFF" transform="matrix(1.00, 0.00, -0.00, -1.00, 515.3, 503.0)">s</text><text xml:space="preserve" font-family="HelveticaNeue-Light" font-size="65.0" fill="#FEFFFF" transform="matrix(1.00, 0.00, -0.00, -1.00, 546.6, 503.0)">t</text><text xml:space="preserve" font-family="HelveticaNeue-Light" font-size="65.0" fill="#FEFFFF" transform="matrix(1.00, 0.00, -0.00, -1.00, 565.9, 503.0)">a</text><text xml:space="preserve" font-family="HelveticaNeue-Light" font-size="65.0" fill="#FEFFFF" transform="matrix(1.00, 0.00, -0.00, -1.00, 599.6, 503.0)">s</text><text xml:space="preserve" font-family="HelveticaNeue-Light" font-size="65.0" fill="#FEFFFF" transform="matrix(1.00, 0.00, -0.00, -1.00, 630.9, 503.0)">;</text><text xml:space="preserve" font-family="HelveticaNeue-Light" font-size="65.0" fill="#FEFFFF" transform="matrix(1.00, 0.00, -0.00, -1.00, 648.9, 503.0)"> </text><text xml:space="preserve" font-family="HelveticaNeue-Light" font-size="48.8" fill="#FEFFFF" transform="matrix(1.00, 0.00, -0.00, -1.00, 131.8, 415.8)">•</text><text xml:space="preserve" font-family="HelveticaNeue-Light" font-size="65.0" fill="#FEFFFF" transform="matrix(1.00, 0.00, -0.00, -1.00, 183.0, 409.0)">P</text><text xml:space="preserve" font-family="HelveticaNeue-Light" font-size="65.0" fill="#FEFFFF" transform="matrix(1.00, 0.00, -0.00, -1.00, 223.9, 409.0)">a</text><text xml:space="preserve" font-family="HelveticaNeue-Light" font-size="65.0" fill="#FEFFFF" transform="matrix(1.00, 0.00, -0.00, -1.00, 257.7, 409.0)">r</text><text xml:space="preserve" font-family="HelveticaNeue-Light" font-size="65.0" fill="#FEFFFF" transform="matrix(1.00, 0.00, -0.00, -1.00, 277.0, 409.0)">e</text><text xml:space="preserve" font-family="HelveticaNeue-Light" font-size="65.0" fill="#FEFFFF" transform="matrix(1.00, 0.00, -0.00, -1.00, 310.7, 409.0)">n</text><text xml:space="preserve" font-family="HelveticaNeue-Light" font-size="65.0" fill="#FEFFFF" transform="matrix(1.00, 0.00, -0.00, -1.00, 345.6, 409.0)">t</text><text xml:space="preserve" font-family="HelveticaNeue-Light" font-size="65.0" fill="#FEFFFF" transform="matrix(1.00, 0.00, -0.00, -1.00, 364.9, 409.0)">-</text><text xml:space="preserve" font-family="HelveticaNeue-Light" font-size="65.0" fill="#FEFFFF" transform="matrix(1.00, 0.00, -0.00, -1.00, 388.9, 409.0)">C</text><text xml:space="preserve" font-family="HelveticaNeue-Light" font-size="65.0" fill="#FEFFFF" transform="matrix(1.00, 0.00, -0.00, -1.00, 434.7, 409.0)">h</text><text xml:space="preserve" font-family="HelveticaNeue-Light" font-size="65.0" fill="#FEFFFF" transform="matrix(1.00, 0.00, -0.00, -1.00, 469.6, 409.0)">i</text><text xml:space="preserve" font-family="HelveticaNeue-Light" font-size="65.0" fill="#FEFFFF" transform="matrix(1.00, 0.00, -0.00, -1.00, 481.6, 409.0)">l</text><text xml:space="preserve" font-family="HelveticaNeue-Light" font-size="65.0" fill="#FEFFFF" transform="matrix(1.00, 0.00, -0.00, -1.00, 493.6, 409.0)">d</text><text xml:space="preserve" font-family="HelveticaNeue-Light" font-size="65.0" fill="#FEFFFF" transform="matrix(1.00, 0.00, -0.00, -1.00, 530.9, 409.0)"> </text><text xml:space="preserve" font-family="HelveticaNeue-Light" font-size="65.0" fill="#FEFFFF" transform="matrix(1.00, 0.00, -0.00, -1.00, 549.0, 409.0)">T</text><text xml:space="preserve" font-family="HelveticaNeue-Light" font-size="65.0" fill="#FEFFFF" transform="matrix(1.00, 0.00, -0.00, -1.00, 579.2, 409.0)">r</text><text xml:space="preserve" font-family="HelveticaNeue-Light" font-size="65.0" fill="#FEFFFF" transform="matrix(1.00, 0.00, -0.00, -1.00, 598.5, 409.0)">e</text><text xml:space="preserve" font-family="HelveticaNeue-Light" font-size="65.0" fill="#FEFFFF" transform="matrix(1.00, 0.00, -0.00, -1.00, 632.2, 409.0)">e</text><text xml:space="preserve" font-family="HelveticaNeue-Light" font-size="65.0" fill="#FEFFFF" transform="matrix(1.00, 0.00, -0.00, -1.00, 666.0, 409.0)">;</text></g></g></g></svg>