<?xml version="1.0" encoding="UTF-8" standalone="no"?><svg xmlns="http://www.w3.org/2000/svg" xmlns:xlink="http://www.w3.org/1999/xlink" clip-rule="evenodd" stroke-miterlimit="4.00" viewBox="0 0 1920 1080"><desc>SVG generated by Keynote</desc><defs><linearGradient id="gradSh1.0" x1="0.0" y1="0.0" x2="100.0" y2="0.0" gradientUnits="userSpaceOnUse" gradientTransform="matrix(0.67, 0.96, 0.96, -0.67, 152.9, 667.8)"><stop offset="0.00000" stop-color="#EC5D57"></stop><stop offset="0.47067" stop-color="#E36456"></stop><stop offset="0.47141" stop-color="#A5954A"></stop><stop offset="0.47214" stop-color="#96A148"></stop><stop offset="0.47434" stop-color="#70BF41"></stop><stop offset="1.00000" stop-color="#70BF41"></stop></linearGradient></defs><g transform="matrix(1.00, 0.00, -0.00, -1.00, 0.0, 1080.0)"><path d="M 0.0 1080.0 L 1920.0 1080.0 L 1920.0 0.0 L 0.0 0.0 Z M 0.0 1080.0 " fill="#009DFF"></path><text xml:space="preserve" font-family="Helvetica-Bold" font-weight="bold" font-size="36.0" fill="#FEFFFF" transform="matrix(1.00, 0.00, -0.00, -1.00, 1789.0, 46.0)">7</text><g opacity="0.15"><g><clipPath id="clip-40"><path d="M 661.0 0.0 L 1920.0 0.0 L 1920.0 1080.0 L 661.0 1080.0 Z M 661.0 0.0 "></path></clipPath><g clip-path="url(#clip-40)"><image xlink:href="../../615F7CD4-E262-41F7-8138-806EC6AB1FAB/assets/87ABFF0ACED01E62478C9A9C0E1733CE.png" width="539.00" height="540.00" transform="matrix(0.38, -2.21, -2.21, -0.38, 1857.0, 1255.0)"></image></g></g></g><g opacity="0.15"><g><clipPath id="clip-41"><path d="M 0.0 0.0 L 752.0 0.0 L 752.0 1080.0 L 0.0 1080.0 Z M 0.0 0.0 "></path></clipPath><g clip-path="url(#clip-41)"><image xlink:href="../../615F7CD4-E262-41F7-8138-806EC6AB1FAB/assets/87ABFF0ACED01E62478C9A9C0E1733CE.png" width="539.00" height="540.00" transform="matrix(-2.14, 0.53, 0.53, 2.14, 463.8, -163.5)"></image></g></g></g><g><clipPath id="clip-42"><path d="M 134.5 751.5 L 955.6 751.5 L 955.6 185.2 L 134.5 185.2 Z M 134.5 751.5 "></path></clipPath><g clip-path="url(#clip-42)"><g><clipPath id="clip-43"><path d="M 135.0 680.3 L 237.5 680.3 L 237.5 751.0 L 135.0 751.0 Z M 135.0 680.3 "></path></clipPath><g clip-path="url(#clip-43)"><path d="M 135.0 680.3 L 237.5 680.3 L 237.5 751.0 L 135.0 751.0 Z M 135.0 680.3 " fill="url(#gradSh1.0)"></path></g></g></g></g><g><clipPath id="clip-44"><path d="M 134.5 751.5 L 955.6 751.5 L 955.6 185.2 L 134.5 185.2 Z M 134.5 751.5 "></path></clipPath><g clip-path="url(#clip-44)"><path d="M 237.5 751.0 L 340.0 751.0 L 340.0 680.3 L 237.5 680.3 Z M 237.5 751.0 " fill="#6FBF40"></path><path d="M 340.0 751.0 L 442.5 751.0 L 442.5 680.3 L 340.0 680.3 Z M 340.0 751.0 " fill="#6FBF40"></path><path d="M 442.5 751.0 L 545.0 751.0 L 545.0 680.3 L 442.5 680.3 Z M 442.5 751.0 " fill="#6FBF40"></path><path d="M 545.0 751.0 L 647.6 751.0 L 647.6 680.3 L 545.0 680.3 Z M 545.0 751.0 " fill="#6FBF40"></path><path d="M 647.6 751.0 L 750.1 751.0 L 750.1 680.3 L 647.6 680.3 Z M 647.6 751.0 " fill="#6FBF40"></path><path d="M 750.1 751.0 L 852.6 751.0 L 852.6 680.3 L 750.1 680.3 Z M 750.1 751.0 " fill="#6FBF40"></path><path d="M 852.6 751.0 L 955.1 751.0 L 955.1 680.3 L 852.6 680.3 Z M 852.6 751.0 " fill="#6FBF40"></path><path d="M 135.0 680.3 L 237.5 680.3 L 237.5 609.7 L 135.0 609.7 Z M 135.0 680.3 " fill="#EB5C56"></path><path d="M 237.5 680.3 L 340.0 680.3 L 340.0 609.7 L 237.5 609.7 Z M 237.5 680.3 " fill="#FEFFFF"></path><path d="M 340.0 680.3 L 442.5 680.3 L 442.5 609.7 L 340.0 609.7 Z M 340.0 680.3 " fill="#FEFFFF"></path><path d="M 442.5 680.3 L 545.0 680.3 L 545.0 609.7 L 442.5 609.7 Z M 442.5 680.3 " fill="#FEFFFF"></path><path d="M 545.0 680.3 L 647.6 680.3 L 647.6 609.7 L 545.0 609.7 Z M 545.0 680.3 " fill="#FEFFFF"></path><path d="M 647.6 680.3 L 750.1 680.3 L 750.1 609.7 L 647.6 609.7 Z M 647.6 680.3 " fill="#FEFFFF"></path><path d="M 750.1 680.3 L 852.6 680.3 L 852.6 609.7 L 750.1 609.7 Z M 750.1 680.3 " fill="#FEFFFF"></path><path d="M 852.6 680.3 L 955.1 680.3 L 955.1 609.7 L 852.6 609.7 Z M 852.6 680.3 " fill="#FEFFFF"></path><path d="M 135.0 609.7 L 237.5 609.7 L 237.5 539.0 L 135.0 539.0 Z M 135.0 609.7 " fill="#EB5C56"></path><path d="M 237.5 609.7 L 340.0 609.7 L 340.0 539.0 L 237.5 539.0 Z M 237.5 609.7 " fill="#E2E5E8"></path><path d="M 340.0 609.7 L 442.5 609.7 L 442.5 539.0 L 340.0 539.0 Z M 340.0 609.7 " fill="#E2E5E8"></path><path d="M 442.5 609.7 L 545.0 609.7 L 545.0 539.0 L 442.5 539.0 Z M 442.5 609.7 " fill="#E2E5E8"></path><path d="M 545.0 609.7 L 647.6 609.7 L 647.6 539.0 L 545.0 539.0 Z M 545.0 609.7 " fill="#E2E5E8"></path><path d="M 647.6 609.7 L 750.1 609.7 L 750.1 539.0 L 647.6 539.0 Z M 647.6 609.7 " fill="#E2E5E8"></path><path d="M 750.1 609.7 L 852.6 609.7 L 852.6 539.0 L 750.1 539.0 Z M 750.1 609.7 " fill="#E2E5E8"></path><path d="M 852.6 609.7 L 955.1 609.7 L 955.1 539.0 L 852.6 539.0 Z M 852.6 609.7 " fill="#E2E5E8"></path><path d="M 135.0 539.0 L 237.5 539.0 L 237.5 468.3 L 135.0 468.3 Z M 135.0 539.0 " fill="#EB5C56"></path><path d="M 237.5 539.0 L 340.0 539.0 L 340.0 468.3 L 237.5 468.3 Z M 237.5 539.0 " fill="#FEFFFF"></path><path d="M 340.0 539.0 L 442.5 539.0 L 442.5 468.3 L 340.0 468.3 Z M 340.0 539.0 " fill="#FEFFFF"></path><path d="M 442.5 539.0 L 545.0 539.0 L 545.0 468.3 L 442.5 468.3 Z M 442.5 539.0 " fill="#FEFFFF"></path><path d="M 545.0 539.0 L 647.6 539.0 L 647.6 468.3 L 545.0 468.3 Z M 545.0 539.0 " fill="#FEFFFF"></path><path d="M 647.6 539.0 L 750.1 539.0 L 750.1 468.3 L 647.6 468.3 Z M 647.6 539.0 " fill="#FEFFFF"></path><path d="M 750.1 539.0 L 852.6 539.0 L 852.6 468.3 L 750.1 468.3 Z M 750.1 539.0 " fill="#FEFFFF"></path><path d="M 852.6 539.0 L 955.1 539.0 L 955.1 468.3 L 852.6 468.3 Z M 852.6 539.0 " fill="#FEFFFF"></path><path d="M 135.0 468.3 L 237.5 468.3 L 237.5 397.7 L 135.0 397.7 Z M 135.0 468.3 " fill="#EB5C56"></path><path d="M 237.5 468.3 L 340.0 468.3 L 340.0 397.7 L 237.5 397.7 Z M 237.5 468.3 " fill="#E2E5E8"></path><path d="M 340.0 468.3 L 442.5 468.3 L 442.5 397.7 L 340.0 397.7 Z M 340.0 468.3 " fill="#E2E5E8"></path><path d="M 442.5 468.3 L 545.0 468.3 L 545.0 397.7 L 442.5 397.7 Z M 442.5 468.3 " fill="#E2E5E8"></path><path d="M 545.0 468.3 L 647.6 468.3 L 647.6 397.7 L 545.0 397.7 Z M 545.0 468.3 " fill="#E2E5E8"></path><path d="M 647.6 468.3 L 750.1 468.3 L 750.1 397.7 L 647.6 397.7 Z M 647.6 468.3 " fill="#E2E5E8"></path><path d="M 750.1 468.3 L 852.6 468.3 L 852.6 397.7 L 750.1 397.7 Z M 750.1 468.3 " fill="#E2E5E8"></path><path d="M 852.6 468.3 L 955.1 468.3 L 955.1 397.7 L 852.6 397.7 Z M 852.6 468.3 " fill="#E2E5E8"></path><path d="M 135.0 397.7 L 237.5 397.7 L 237.5 327.0 L 135.0 327.0 Z M 135.0 397.7 " fill="#EB5C56"></path><path d="M 237.5 397.7 L 340.0 397.7 L 340.0 327.0 L 237.5 327.0 Z M 237.5 397.7 " fill="#FEFFFF"></path><path d="M 340.0 397.7 L 442.5 397.7 L 442.5 327.0 L 340.0 327.0 Z M 340.0 397.7 " fill="#FEFFFF"></path><path d="M 442.5 397.7 L 545.0 397.7 L 545.0 327.0 L 442.5 327.0 Z M 442.5 397.7 " fill="#FEFFFF"></path><path d="M 545.0 397.7 L 647.6 397.7 L 647.6 327.0 L 545.0 327.0 Z M 545.0 397.7 " fill="#FEFFFF"></path><path d="M 647.6 397.7 L 750.1 397.7 L 750.1 327.0 L 647.6 327.0 Z M 647.6 397.7 " fill="#FEFFFF"></path><path d="M 750.1 397.7 L 852.6 397.7 L 852.6 327.0 L 750.1 327.0 Z M 750.1 397.7 " fill="#FEFFFF"></path><path d="M 852.6 397.7 L 955.1 397.7 L 955.1 327.0 L 852.6 327.0 Z M 852.6 397.7 " fill="#FEFFFF"></path><path d="M 135.0 327.0 L 237.5 327.0 L 237.5 256.4 L 135.0 256.4 Z M 135.0 327.0 " fill="#EB5C56"></path><path d="M 237.5 327.0 L 340.0 327.0 L 340.0 256.4 L 237.5 256.4 Z M 237.5 327.0 " fill="#E2E5E8"></path><path d="M 340.0 327.0 L 442.5 327.0 L 442.5 256.4 L 340.0 256.4 Z M 340.0 327.0 " fill="#E2E5E8"></path><path d="M 442.5 327.0 L 545.0 327.0 L 545.0 256.4 L 442.5 256.4 Z M 442.5 327.0 " fill="#E2E5E8"></path><path d="M 545.0 327.0 L 647.6 327.0 L 647.6 256.4 L 545.0 256.4 Z M 545.0 327.0 " fill="#E2E5E8"></path><path d="M 647.6 327.0 L 750.1 327.0 L 750.1 256.4 L 647.6 256.4 Z M 647.6 327.0 " fill="#E2E5E8"></path><path d="M 750.1 327.0 L 852.6 327.0 L 852.6 256.4 L 750.1 256.4 Z M 750.1 327.0 " fill="#E2E5E8"></path><path d="M 852.6 327.0 L 955.1 327.0 L 955.1 256.4 L 852.6 256.4 Z M 852.6 327.0 " fill="#E2E5E8"></path><path d="M 135.0 256.4 L 237.5 256.4 L 237.5 185.7 L 135.0 185.7 Z M 135.0 256.4 " fill="#EB5C56"></path><path d="M 237.5 256.4 L 340.0 256.4 L 340.0 185.7 L 237.5 185.7 Z M 237.5 256.4 " fill="#FEFFFF"></path><path d="M 340.0 256.4 L 442.5 256.4 L 442.5 185.7 L 340.0 185.7 Z M 340.0 256.4 " fill="#FEFFFF"></path><path d="M 442.5 256.4 L 545.0 256.4 L 545.0 185.7 L 442.5 185.7 Z M 442.5 256.4 " fill="#FEFFFF"></path><path d="M 545.0 256.4 L 647.6 256.4 L 647.6 185.7 L 545.0 185.7 Z M 545.0 256.4 " fill="#FEFFFF"></path><path d="M 647.6 256.4 L 750.1 256.4 L 750.1 185.7 L 647.6 185.7 Z M 647.6 256.4 " fill="#FEFFFF"></path><path d="M 750.1 256.4 L 852.6 256.4 L 852.6 185.7 L 750.1 185.7 Z M 750.1 256.4 " fill="#FEFFFF"></path><path d="M 852.6 256.4 L 955.1 256.4 L 955.1 185.7 L 852.6 185.7 Z M 852.6 256.4 " fill="#FEFFFF"></path></g></g><g><clipPath id="clip-45"><path d="M 134.5 751.5 L 955.6 751.5 L 955.6 185.2 L 134.5 185.2 Z M 134.5 751.5 "></path></clipPath><g clip-path="url(#clip-45)"><g><clipPath id="clip-46"><path d="M 238.0 680.8 L 339.5 680.8 L 339.5 750.5 L 238.0 750.5 Z M 238.0 680.8 "></path></clipPath><g clip-path="url(#clip-46)"><text xml:space="preserve" font-family="Helvetica-Bold" font-weight="bold" font-size="36.0" fill="#FEFFFE" transform="matrix(1.00, 0.00, -0.00, -1.00, 279.0, 702.0)">1</text></g></g></g></g><g><clipPath id="clip-47"><path d="M 134.5 751.5 L 955.6 751.5 L 955.6 185.2 L 134.5 185.2 Z M 134.5 751.5 "></path></clipPath><g clip-path="url(#clip-47)"><g><clipPath id="clip-48"><path d="M 340.5 680.8 L 442.0 680.8 L 442.0 750.5 L 340.5 750.5 Z M 340.5 680.8 "></path></clipPath><g clip-path="url(#clip-48)"><text xml:space="preserve" font-family="Helvetica-Bold" font-weight="bold" font-size="36.0" fill="#FEFFFE" transform="matrix(1.00, 0.00, -0.00, -1.00, 381.0, 702.0)">2</text></g></g></g></g><g><clipPath id="clip-49"><path d="M 134.5 751.5 L 955.6 751.5 L 955.6 185.2 L 134.5 185.2 Z M 134.5 751.5 "></path></clipPath><g clip-path="url(#clip-49)"><g><clipPath id="clip-50"><path d="M 443.0 680.8 L 544.5 680.8 L 544.5 750.5 L 443.0 750.5 Z M 443.0 680.8 "></path></clipPath><g clip-path="url(#clip-50)"><text xml:space="preserve" font-family="Helvetica-Bold" font-weight="bold" font-size="36.0" fill="#FEFFFE" transform="matrix(1.00, 0.00, -0.00, -1.00, 484.0, 702.0)">3</text></g></g></g></g><g><clipPath id="clip-51"><path d="M 134.5 751.5 L 955.6 751.5 L 955.6 185.2 L 134.5 185.2 Z M 134.5 751.5 "></path></clipPath><g clip-path="url(#clip-51)"><g><clipPath id="clip-52"><path d="M 545.5 680.8 L 647.1 680.8 L 647.1 750.5 L 545.5 750.5 Z M 545.5 680.8 "></path></clipPath><g clip-path="url(#clip-52)"><text xml:space="preserve" font-family="Helvetica-Bold" font-weight="bold" font-size="36.0" fill="#FEFFFE" transform="matrix(1.00, 0.00, -0.00, -1.00, 586.0, 702.0)">4</text></g></g></g></g><g><clipPath id="clip-53"><path d="M 134.5 751.5 L 955.6 751.5 L 955.6 185.2 L 134.5 185.2 Z M 134.5 751.5 "></path></clipPath><g clip-path="url(#clip-53)"><g><clipPath id="clip-54"><path d="M 648.1 680.8 L 749.6 680.8 L 749.6 750.5 L 648.1 750.5 Z M 648.1 680.8 "></path></clipPath><g clip-path="url(#clip-54)"><text xml:space="preserve" font-family="Helvetica-Bold" font-weight="bold" font-size="36.0" fill="#FEFFFE" transform="matrix(1.00, 0.00, -0.00, -1.00, 689.0, 702.0)">5</text></g></g></g></g><g><clipPath id="clip-55"><path d="M 134.5 751.5 L 955.6 751.5 L 955.6 185.2 L 134.5 185.2 Z M 134.5 751.5 "></path></clipPath><g clip-path="url(#clip-55)"><g><clipPath id="clip-56"><path d="M 750.6 680.8 L 852.1 680.8 L 852.1 750.5 L 750.6 750.5 Z M 750.6 680.8 "></path></clipPath><g clip-path="url(#clip-56)"><text xml:space="preserve" font-family="Helvetica-Bold" font-weight="bold" font-size="36.0" fill="#FEFFFE" transform="matrix(1.00, 0.00, -0.00, -1.00, 791.0, 702.0)">6</text></g></g></g></g><g><clipPath id="clip-57"><path d="M 134.5 751.5 L 955.6 751.5 L 955.6 185.2 L 134.5 185.2 Z M 134.5 751.5 "></path></clipPath><g clip-path="url(#clip-57)"><g><clipPath id="clip-58"><path d="M 853.1 680.8 L 954.6 680.8 L 954.6 750.5 L 853.1 750.5 Z M 853.1 680.8 "></path></clipPath><g clip-path="url(#clip-58)"><text xml:space="preserve" font-family="Helvetica-Bold" font-weight="bold" font-size="36.0" fill="#FEFFFE" transform="matrix(1.00, 0.00, -0.00, -1.00, 894.0, 702.0)">7</text></g></g></g></g><g><clipPath id="clip-59"><path d="M 134.5 751.5 L 955.6 751.5 L 955.6 185.2 L 134.5 185.2 Z M 134.5 751.5 "></path></clipPath><g clip-path="url(#clip-59)"><g><clipPath id="clip-60"><path d="M 135.5 610.2 L 237.0 610.2 L 237.0 679.8 L 135.5 679.8 Z M 135.5 610.2 "></path></clipPath><g clip-path="url(#clip-60)"><text xml:space="preserve" font-family="Helvetica-Bold" font-weight="bold" font-size="36.0" fill="#FEFFFE" transform="matrix(1.00, 0.00, -0.00, -1.00, 176.0, 631.0)">1</text></g></g></g></g><g><clipPath id="clip-61"><path d="M 134.5 751.5 L 955.6 751.5 L 955.6 185.2 L 134.5 185.2 Z M 134.5 751.5 "></path></clipPath><g clip-path="url(#clip-61)"><g><clipPath id="clip-62"><path d="M 340.5 610.2 L 442.0 610.2 L 442.0 679.8 L 340.5 679.8 Z M 340.5 610.2 "></path></clipPath><g clip-path="url(#clip-62)"><text xml:space="preserve" font-family="Helvetica-Light" font-size="36.0" fill="#000000" transform="matrix(1.00, 0.00, -0.00, -1.00, 381.0, 631.0)">1</text></g></g></g></g><g><clipPath id="clip-63"><path d="M 134.5 751.5 L 955.6 751.5 L 955.6 185.2 L 134.5 185.2 Z M 134.5 751.5 "></path></clipPath><g clip-path="url(#clip-63)"><g><clipPath id="clip-64"><path d="M 443.0 610.2 L 544.5 610.2 L 544.5 679.8 L 443.0 679.8 Z M 443.0 610.2 "></path></clipPath><g clip-path="url(#clip-64)"><text xml:space="preserve" font-family="Helvetica-Light" font-size="36.0" fill="#000000" transform="matrix(1.00, 0.00, -0.00, -1.00, 484.0, 631.0)">1</text></g></g></g></g><g><clipPath id="clip-65"><path d="M 134.5 751.5 L 955.6 751.5 L 955.6 185.2 L 134.5 185.2 Z M 134.5 751.5 "></path></clipPath><g clip-path="url(#clip-65)"><g><clipPath id="clip-66"><path d="M 135.5 539.5 L 237.0 539.5 L 237.0 609.2 L 135.5 609.2 Z M 135.5 539.5 "></path></clipPath><g clip-path="url(#clip-66)"><text xml:space="preserve" font-family="Helvetica-Bold" font-weight="bold" font-size="36.0" fill="#FEFFFE" transform="matrix(1.00, 0.00, -0.00, -1.00, 176.0, 560.0)">2</text></g></g></g></g><g><clipPath id="clip-67"><path d="M 134.5 751.5 L 955.6 751.5 L 955.6 185.2 L 134.5 185.2 Z M 134.5 751.5 "></path></clipPath><g clip-path="url(#clip-67)"><g><clipPath id="clip-68"><path d="M 238.0 539.5 L 339.5 539.5 L 339.5 609.2 L 238.0 609.2 Z M 238.0 539.5 "></path></clipPath><g clip-path="url(#clip-68)"><text xml:space="preserve" font-family="Helvetica-Light" font-size="36.0" fill="#000000" transform="matrix(1.00, 0.00, -0.00, -1.00, 279.0, 560.0)">1</text></g></g></g></g><g><clipPath id="clip-69"><path d="M 134.5 751.5 L 955.6 751.5 L 955.6 185.2 L 134.5 185.2 Z M 134.5 751.5 "></path></clipPath><g clip-path="url(#clip-69)"><g><clipPath id="clip-70"><path d="M 443.0 539.5 L 544.5 539.5 L 544.5 609.2 L 443.0 609.2 Z M 443.0 539.5 "></path></clipPath><g clip-path="url(#clip-70)"><text xml:space="preserve" font-family="Helvetica-Light" font-size="36.0" fill="#000000" transform="matrix(1.00, 0.00, -0.00, -1.00, 484.0, 560.0)">1</text></g></g></g></g><g><clipPath id="clip-71"><path d="M 134.5 751.5 L 955.6 751.5 L 955.6 185.2 L 134.5 185.2 Z M 134.5 751.5 "></path></clipPath><g clip-path="url(#clip-71)"><g><clipPath id="clip-72"><path d="M 545.5 539.5 L 647.1 539.5 L 647.1 609.2 L 545.5 609.2 Z M 545.5 539.5 "></path></clipPath><g clip-path="url(#clip-72)"><text xml:space="preserve" font-family="Helvetica-Light" font-size="36.0" fill="#000000" transform="matrix(1.00, 0.00, -0.00, -1.00, 586.0, 560.0)">1</text></g></g></g></g><g><clipPath id="clip-73"><path d="M 134.5 751.5 L 955.6 751.5 L 955.6 185.2 L 134.5 185.2 Z M 134.5 751.5 "></path></clipPath><g clip-path="url(#clip-73)"><g><clipPath id="clip-74"><path d="M 135.5 468.8 L 237.0 468.8 L 237.0 538.5 L 135.5 538.5 Z M 135.5 468.8 "></path></clipPath><g clip-path="url(#clip-74)"><text xml:space="preserve" font-family="Helvetica-Bold" font-weight="bold" font-size="36.0" fill="#FEFFFE" transform="matrix(1.00, 0.00, -0.00, -1.00, 176.0, 490.0)">3</text></g></g></g></g><g><clipPath id="clip-75"><path d="M 134.5 751.5 L 955.6 751.5 L 955.6 185.2 L 134.5 185.2 Z M 134.5 751.5 "></path></clipPath><g clip-path="url(#clip-75)"><g><clipPath id="clip-76"><path d="M 238.0 468.8 L 339.5 468.8 L 339.5 538.5 L 238.0 538.5 Z M 238.0 468.8 "></path></clipPath><g clip-path="url(#clip-76)"><text xml:space="preserve" font-family="Helvetica-Light" font-size="36.0" fill="#000000" transform="matrix(1.00, 0.00, -0.00, -1.00, 279.0, 490.0)">1</text></g></g></g></g><g><clipPath id="clip-77"><path d="M 134.5 751.5 L 955.6 751.5 L 955.6 185.2 L 134.5 185.2 Z M 134.5 751.5 "></path></clipPath><g clip-path="url(#clip-77)"><g><clipPath id="clip-78"><path d="M 340.5 468.8 L 442.0 468.8 L 442.0 538.5 L 340.5 538.5 Z M 340.5 468.8 "></path></clipPath><g clip-path="url(#clip-78)"><text xml:space="preserve" font-family="Helvetica-Light" font-size="36.0" fill="#000000" transform="matrix(1.00, 0.00, -0.00, -1.00, 381.0, 490.0)">1</text></g></g></g></g><g><clipPath id="clip-79"><path d="M 134.5 751.5 L 955.6 751.5 L 955.6 185.2 L 134.5 185.2 Z M 134.5 751.5 "></path></clipPath><g clip-path="url(#clip-79)"><g><clipPath id="clip-80"><path d="M 648.1 468.8 L 749.6 468.8 L 749.6 538.5 L 648.1 538.5 Z M 648.1 468.8 "></path></clipPath><g clip-path="url(#clip-80)"><text xml:space="preserve" font-family="Helvetica-Light" font-size="36.0" fill="#000000" transform="matrix(1.00, 0.00, -0.00, -1.00, 689.0, 490.0)">1</text></g></g></g></g><g><clipPath id="clip-81"><path d="M 134.5 751.5 L 955.6 751.5 L 955.6 185.2 L 134.5 185.2 Z M 134.5 751.5 "></path></clipPath><g clip-path="url(#clip-81)"><g><clipPath id="clip-82"><path d="M 135.5 398.2 L 237.0 398.2 L 237.0 467.8 L 135.5 467.8 Z M 135.5 398.2 "></path></clipPath><g clip-path="url(#clip-82)"><text xml:space="preserve" font-family="Helvetica-Bold" font-weight="bold" font-size="36.0" fill="#FEFFFE" transform="matrix(1.00, 0.00, -0.00, -1.00, 176.0, 419.0)">4</text></g></g></g></g><g><clipPath id="clip-83"><path d="M 134.5 751.5 L 955.6 751.5 L 955.6 185.2 L 134.5 185.2 Z M 134.5 751.5 "></path></clipPath><g clip-path="url(#clip-83)"><g><clipPath id="clip-84"><path d="M 340.5 398.2 L 442.0 398.2 L 442.0 467.8 L 340.5 467.8 Z M 340.5 398.2 "></path></clipPath><g clip-path="url(#clip-84)"><text xml:space="preserve" font-family="Helvetica-Light" font-size="36.0" fill="#000000" transform="matrix(1.00, 0.00, -0.00, -1.00, 381.0, 419.0)">1</text></g></g></g></g><g><clipPath id="clip-85"><path d="M 134.5 751.5 L 955.6 751.5 L 955.6 185.2 L 134.5 185.2 Z M 134.5 751.5 "></path></clipPath><g clip-path="url(#clip-85)"><g><clipPath id="clip-86"><path d="M 648.1 398.2 L 749.6 398.2 L 749.6 467.8 L 648.1 467.8 Z M 648.1 398.2 "></path></clipPath><g clip-path="url(#clip-86)"><text xml:space="preserve" font-family="Helvetica-Light" font-size="36.0" fill="#000000" transform="matrix(1.00, 0.00, -0.00, -1.00, 689.0, 419.0)">1</text></g></g></g></g><g><clipPath id="clip-87"><path d="M 134.5 751.5 L 955.6 751.5 L 955.6 185.2 L 134.5 185.2 Z M 134.5 751.5 "></path></clipPath><g clip-path="url(#clip-87)"><g><clipPath id="clip-88"><path d="M 135.5 327.5 L 237.0 327.5 L 237.0 397.2 L 135.5 397.2 Z M 135.5 327.5 "></path></clipPath><g clip-path="url(#clip-88)"><text xml:space="preserve" font-family="Helvetica-Bold" font-weight="bold" font-size="36.0" fill="#FEFFFE" transform="matrix(1.00, 0.00, -0.00, -1.00, 176.0, 348.0)">5</text></g></g></g></g><g><clipPath id="clip-89"><path d="M 134.5 751.5 L 955.6 751.5 L 955.6 185.2 L 134.5 185.2 Z M 134.5 751.5 "></path></clipPath><g clip-path="url(#clip-89)"><g><clipPath id="clip-90"><path d="M 443.0 327.5 L 544.5 327.5 L 544.5 397.2 L 443.0 397.2 Z M 443.0 327.5 "></path></clipPath><g clip-path="url(#clip-90)"><text xml:space="preserve" font-family="Helvetica-Light" font-size="36.0" fill="#000000" transform="matrix(1.00, 0.00, -0.00, -1.00, 484.0, 348.0)">1</text></g></g></g></g><g><clipPath id="clip-91"><path d="M 134.5 751.5 L 955.6 751.5 L 955.6 185.2 L 134.5 185.2 Z M 134.5 751.5 "></path></clipPath><g clip-path="url(#clip-91)"><g><clipPath id="clip-92"><path d="M 545.5 327.5 L 647.1 327.5 L 647.1 397.2 L 545.5 397.2 Z M 545.5 327.5 "></path></clipPath><g clip-path="url(#clip-92)"><text xml:space="preserve" font-family="Helvetica-Light" font-size="36.0" fill="#000000" transform="matrix(1.00, 0.00, -0.00, -1.00, 586.0, 348.0)">1</text></g></g></g></g><g><clipPath id="clip-93"><path d="M 134.5 751.5 L 955.6 751.5 L 955.6 185.2 L 134.5 185.2 Z M 134.5 751.5 "></path></clipPath><g clip-path="url(#clip-93)"><g><clipPath id="clip-94"><path d="M 750.6 327.5 L 852.1 327.5 L 852.1 397.2 L 750.6 397.2 Z M 750.6 327.5 "></path></clipPath><g clip-path="url(#clip-94)"><text xml:space="preserve" font-family="Helvetica-Light" font-size="36.0" fill="#000000" transform="matrix(1.00, 0.00, -0.00, -1.00, 791.0, 348.0)">1</text></g></g></g></g><g><clipPath id="clip-95"><path d="M 134.5 751.5 L 955.6 751.5 L 955.6 185.2 L 134.5 185.2 Z M 134.5 751.5 "></path></clipPath><g clip-path="url(#clip-95)"><g><clipPath id="clip-96"><path d="M 135.5 256.9 L 237.0 256.9 L 237.0 326.5 L 135.5 326.5 Z M 135.5 256.9 "></path></clipPath><g clip-path="url(#clip-96)"><text xml:space="preserve" font-family="Helvetica-Bold" font-weight="bold" font-size="36.0" fill="#FEFFFE" transform="matrix(1.00, 0.00, -0.00, -1.00, 176.0, 278.0)">6</text></g></g></g></g><g><clipPath id="clip-97"><path d="M 134.5 751.5 L 955.6 751.5 L 955.6 185.2 L 134.5 185.2 Z M 134.5 751.5 "></path></clipPath><g clip-path="url(#clip-97)"><g><clipPath id="clip-98"><path d="M 648.1 256.9 L 749.6 256.9 L 749.6 326.5 L 648.1 326.5 Z M 648.1 256.9 "></path></clipPath><g clip-path="url(#clip-98)"><text xml:space="preserve" font-family="Helvetica-Light" font-size="36.0" fill="#000000" transform="matrix(1.00, 0.00, -0.00, -1.00, 689.0, 278.0)">1</text></g></g></g></g><g><clipPath id="clip-99"><path d="M 134.5 751.5 L 955.6 751.5 L 955.6 185.2 L 134.5 185.2 Z M 134.5 751.5 "></path></clipPath><g clip-path="url(#clip-99)"><g><clipPath id="clip-100"><path d="M 853.1 256.9 L 954.6 256.9 L 954.6 326.5 L 853.1 326.5 Z M 853.1 256.9 "></path></clipPath><g clip-path="url(#clip-100)"><text xml:space="preserve" font-family="Helvetica-Light" font-size="36.0" fill="#000000" transform="matrix(1.00, 0.00, -0.00, -1.00, 894.0, 278.0)">1</text></g></g></g></g><g><clipPath id="clip-101"><path d="M 134.5 751.5 L 955.6 751.5 L 955.6 185.2 L 134.5 185.2 Z M 134.5 751.5 "></path></clipPath><g clip-path="url(#clip-101)"><g><clipPath id="clip-102"><path d="M 135.5 186.2 L 237.0 186.2 L 237.0 255.9 L 135.5 255.9 Z M 135.5 186.2 "></path></clipPath><g clip-path="url(#clip-102)"><text xml:space="preserve" font-family="Helvetica-Bold" font-weight="bold" font-size="36.0" fill="#FEFFFE" transform="matrix(1.00, 0.00, -0.00, -1.00, 176.0, 207.0)">7</text></g></g></g></g><g><clipPath id="clip-103"><path d="M 134.5 751.5 L 955.6 751.5 L 955.6 185.2 L 134.5 185.2 Z M 134.5 751.5 "></path></clipPath><g clip-path="url(#clip-103)"><g><clipPath id="clip-104"><path d="M 750.6 186.2 L 852.1 186.2 L 852.1 255.9 L 750.6 255.9 Z M 750.6 186.2 "></path></clipPath><g clip-path="url(#clip-104)"><text xml:space="preserve" font-family="Helvetica-Light" font-size="36.0" fill="#000000" transform="matrix(1.00, 0.00, -0.00, -1.00, 791.0, 207.0)">1</text></g></g></g></g><g><clipPath id="clip-105"><path d="M 134.5 751.5 L 955.6 751.5 L 955.6 185.2 L 134.5 185.2 Z M 134.5 751.5 "></path></clipPath><g clip-path="url(#clip-105)"><g><clipPath id="clip-106"><path d="M 339.5 185.2 L 340.5 185.2 L 340.5 751.5 L 339.5 751.5 Z M 339.5 185.2 "></path></clipPath><g clip-path="url(#clip-106)"><path d="M 207.0 1.5 L 207.0 568.8 " fill="none" stroke="#FEFFFF" stroke-width="1.00" stroke-linejoin="round" stroke-dasharray="1.0, 2.0" transform="matrix(1.00, 0.00, 0.00, -1.00, 133.0, 753.0)"></path></g></g></g></g><g><clipPath id="clip-107"><path d="M 134.5 751.5 L 955.6 751.5 L 955.6 185.2 L 134.5 185.2 Z M 134.5 751.5 "></path></clipPath><g clip-path="url(#clip-107)"><g><clipPath id="clip-108"><path d="M 442.0 185.2 L 443.0 185.2 L 443.0 751.5 L 442.0 751.5 Z M 442.0 185.2 "></path></clipPath><g clip-path="url(#clip-108)"><path d="M 309.5 1.5 L 309.5 568.8 " fill="none" stroke="#FEFFFF" stroke-width="1.00" stroke-linejoin="round" stroke-dasharray="1.0, 2.0" transform="matrix(1.00, 0.00, 0.00, -1.00, 133.0, 753.0)"></path></g></g></g></g><g><clipPath id="clip-109"><path d="M 134.5 751.5 L 955.6 751.5 L 955.6 185.2 L 134.5 185.2 Z M 134.5 751.5 "></path></clipPath><g clip-path="url(#clip-109)"><g><clipPath id="clip-110"><path d="M 544.5 185.2 L 545.5 185.2 L 545.5 751.5 L 544.5 751.5 Z M 544.5 185.2 "></path></clipPath><g clip-path="url(#clip-110)"><path d="M 412.0 1.5 L 412.0 568.8 " fill="none" stroke="#FEFFFF" stroke-width="1.00" stroke-linejoin="round" stroke-dasharray="1.0, 2.0" transform="matrix(1.00, 0.00, 0.00, -1.00, 133.0, 753.0)"></path></g></g></g></g><g><clipPath id="clip-111"><path d="M 134.5 751.5 L 955.6 751.5 L 955.6 185.2 L 134.5 185.2 Z M 134.5 751.5 "></path></clipPath><g clip-path="url(#clip-111)"><g><clipPath id="clip-112"><path d="M 647.1 185.2 L 648.1 185.2 L 648.1 751.5 L 647.1 751.5 Z M 647.1 185.2 "></path></clipPath><g clip-path="url(#clip-112)"><path d="M 514.6 1.5 L 514.6 568.8 " fill="none" stroke="#FEFFFF" stroke-width="1.00" stroke-linejoin="round" stroke-dasharray="1.0, 2.0" transform="matrix(1.00, 0.00, 0.00, -1.00, 133.0, 753.0)"></path></g></g></g></g><g><clipPath id="clip-113"><path d="M 134.5 751.5 L 955.6 751.5 L 955.6 185.2 L 134.5 185.2 Z M 134.5 751.5 "></path></clipPath><g clip-path="url(#clip-113)"><g><clipPath id="clip-114"><path d="M 749.6 185.2 L 750.6 185.2 L 750.6 751.5 L 749.6 751.5 Z M 749.6 185.2 "></path></clipPath><g clip-path="url(#clip-114)"><path d="M 617.1 1.5 L 617.1 568.8 " fill="none" stroke="#FEFFFF" stroke-width="1.00" stroke-linejoin="round" stroke-dasharray="1.0, 2.0" transform="matrix(1.00, 0.00, 0.00, -1.00, 133.0, 753.0)"></path></g></g></g></g><g><clipPath id="clip-115"><path d="M 134.5 751.5 L 955.6 751.5 L 955.6 185.2 L 134.5 185.2 Z M 134.5 751.5 "></path></clipPath><g clip-path="url(#clip-115)"><g><clipPath id="clip-116"><path d="M 852.1 185.2 L 853.1 185.2 L 853.1 751.5 L 852.1 751.5 Z M 852.1 185.2 "></path></clipPath><g clip-path="url(#clip-116)"><path d="M 719.6 1.5 L 719.6 568.8 " fill="none" stroke="#FEFFFF" stroke-width="1.00" stroke-linejoin="round" stroke-dasharray="1.0, 2.0" transform="matrix(1.00, 0.00, 0.00, -1.00, 133.0, 753.0)"></path></g></g></g></g><g><clipPath id="clip-117"><path d="M 134.5 751.5 L 955.6 751.5 L 955.6 185.2 L 134.5 185.2 Z M 134.5 751.5 "></path></clipPath><g clip-path="url(#clip-117)"><g><clipPath id="clip-118"><path d="M 134.5 609.2 L 955.6 609.2 L 955.6 610.2 L 134.5 610.2 Z M 134.5 609.2 "></path></clipPath><g clip-path="url(#clip-118)"><path d="M 1.5 143.3 L 823.6 143.3 " fill="none" stroke="#FEFFFF" stroke-width="1.00" stroke-linejoin="round" stroke-dasharray="1.0, 2.0" transform="matrix(1.00, 0.00, 0.00, -1.00, 133.0, 753.0)"></path></g></g></g></g><g><clipPath id="clip-119"><path d="M 134.5 751.5 L 955.6 751.5 L 955.6 185.2 L 134.5 185.2 Z M 134.5 751.5 "></path></clipPath><g clip-path="url(#clip-119)"><g><clipPath id="clip-120"><path d="M 134.5 538.5 L 955.6 538.5 L 955.6 539.5 L 134.5 539.5 Z M 134.5 538.5 "></path></clipPath><g clip-path="url(#clip-120)"><path d="M 1.5 214.0 L 823.6 214.0 " fill="none" stroke="#FEFFFF" stroke-width="1.00" stroke-linejoin="round" stroke-dasharray="1.0, 2.0" transform="matrix(1.00, 0.00, 0.00, -1.00, 133.0, 753.0)"></path></g></g></g></g><g><clipPath id="clip-121"><path d="M 134.5 751.5 L 955.6 751.5 L 955.6 185.2 L 134.5 185.2 Z M 134.5 751.5 "></path></clipPath><g clip-path="url(#clip-121)"><g><clipPath id="clip-122"><path d="M 134.5 467.8 L 955.6 467.8 L 955.6 468.8 L 134.5 468.8 Z M 134.5 467.8 "></path></clipPath><g clip-path="url(#clip-122)"><path d="M 1.5 284.7 L 823.6 284.7 " fill="none" stroke="#FEFFFF" stroke-width="1.00" stroke-linejoin="round" stroke-dasharray="1.0, 2.0" transform="matrix(1.00, 0.00, 0.00, -1.00, 133.0, 753.0)"></path></g></g></g></g><g><clipPath id="clip-123"><path d="M 134.5 751.5 L 955.6 751.5 L 955.6 185.2 L 134.5 185.2 Z M 134.5 751.5 "></path></clipPath><g clip-path="url(#clip-123)"><g><clipPath id="clip-124"><path d="M 134.5 397.2 L 955.6 397.2 L 955.6 398.2 L 134.5 398.2 Z M 134.5 397.2 "></path></clipPath><g clip-path="url(#clip-124)"><path d="M 1.5 355.3 L 823.6 355.3 " fill="none" stroke="#FEFFFF" stroke-width="1.00" stroke-linejoin="round" stroke-dasharray="1.0, 2.0" transform="matrix(1.00, 0.00, 0.00, -1.00, 133.0, 753.0)"></path></g></g></g></g><g><clipPath id="clip-125"><path d="M 134.5 751.5 L 955.6 751.5 L 955.6 185.2 L 134.5 185.2 Z M 134.5 751.5 "></path></clipPath><g clip-path="url(#clip-125)"><g><clipPath id="clip-126"><path d="M 134.5 326.5 L 955.6 326.5 L 955.6 327.5 L 134.5 327.5 Z M 134.5 326.5 "></path></clipPath><g clip-path="url(#clip-126)"><path d="M 1.5 426.0 L 823.6 426.0 " fill="none" stroke="#FEFFFF" stroke-width="1.00" stroke-linejoin="round" stroke-dasharray="1.0, 2.0" transform="matrix(1.00, 0.00, 0.00, -1.00, 133.0, 753.0)"></path></g></g></g></g><g><clipPath id="clip-127"><path d="M 134.5 751.5 L 955.6 751.5 L 955.6 185.2 L 134.5 185.2 Z M 134.5 751.5 "></path></clipPath><g clip-path="url(#clip-127)"><g><clipPath id="clip-128"><path d="M 134.5 255.9 L 955.6 255.9 L 955.6 256.9 L 134.5 256.9 Z M 134.5 255.9 "></path></clipPath><g clip-path="url(#clip-128)"><path d="M 1.5 496.6 L 823.6 496.6 " fill="none" stroke="#FEFFFF" stroke-width="1.00" stroke-linejoin="round" stroke-dasharray="1.0, 2.0" transform="matrix(1.00, 0.00, 0.00, -1.00, 133.0, 753.0)"></path></g></g></g></g><g><clipPath id="clip-129"><path d="M 134.5 751.5 L 955.6 751.5 L 955.6 185.2 L 134.5 185.2 Z M 134.5 751.5 "></path></clipPath><g clip-path="url(#clip-129)"><g><clipPath id="clip-130"><path d="M 237.0 185.2 L 238.0 185.2 L 238.0 751.5 L 237.0 751.5 Z M 237.0 185.2 "></path></clipPath><g clip-path="url(#clip-130)"><path d="M 104.5 1.5 L 104.5 568.8 " fill="none" stroke="#FEFFFF" stroke-width="1.00" stroke-linejoin="round" stroke-dasharray="1.0, 2.0" transform="matrix(1.00, 0.00, 0.00, -1.00, 133.0, 753.0)"></path></g></g></g></g><g><clipPath id="clip-131"><path d="M 134.5 751.5 L 955.6 751.5 L 955.6 185.2 L 134.5 185.2 Z M 134.5 751.5 "></path></clipPath><g clip-path="url(#clip-131)"><g><clipPath id="clip-132"><path d="M 134.5 679.8 L 955.6 679.8 L 955.6 680.8 L 134.5 680.8 Z M 134.5 679.8 "></path></clipPath><g clip-path="url(#clip-132)"><path d="M 1.5 72.7 L 823.6 72.7 " fill="none" stroke="#FEFFFF" stroke-width="1.00" stroke-linejoin="round" stroke-dasharray="1.0, 2.0" transform="matrix(1.00, 0.00, 0.00, -1.00, 133.0, 753.0)"></path></g></g></g></g><g><clipPath id="clip-133"><path d="M 134.5 751.5 L 955.6 751.5 L 955.6 185.2 L 134.5 185.2 Z M 134.5 751.5 "></path></clipPath><g clip-path="url(#clip-133)"><g><clipPath id="clip-134"><path d="M 134.5 185.2 L 135.5 185.2 L 135.5 751.5 L 134.5 751.5 Z M 134.5 185.2 "></path></clipPath><g clip-path="url(#clip-134)"><path d="M 2.0 1.5 L 2.0 568.8 " fill="none" stroke="#FEFFFF" stroke-width="1.00" stroke-linejoin="round" stroke-dasharray="1.0, 2.0" transform="matrix(1.00, 0.00, 0.00, -1.00, 133.0, 753.0)"></path></g></g></g></g><g><clipPath id="clip-135"><path d="M 134.5 751.5 L 955.6 751.5 L 955.6 185.2 L 134.5 185.2 Z M 134.5 751.5 "></path></clipPath><g clip-path="url(#clip-135)"><g><clipPath id="clip-136"><path d="M 954.6 185.2 L 955.6 185.2 L 955.6 751.5 L 954.6 751.5 Z M 954.6 185.2 "></path></clipPath><g clip-path="url(#clip-136)"><path d="M 822.1 1.5 L 822.1 568.8 " fill="none" stroke="#FEFFFF" stroke-width="1.00" stroke-linejoin="round" stroke-dasharray="1.0, 2.0" transform="matrix(1.00, 0.00, 0.00, -1.00, 133.0, 753.0)"></path></g></g></g></g><g><clipPath id="clip-137"><path d="M 134.5 751.5 L 955.6 751.5 L 955.6 185.2 L 134.5 185.2 Z M 134.5 751.5 "></path></clipPath><g clip-path="url(#clip-137)"><g><clipPath id="clip-138"><path d="M 134.5 750.5 L 955.6 750.5 L 955.6 751.5 L 134.5 751.5 Z M 134.5 750.5 "></path></clipPath><g clip-path="url(#clip-138)"><path d="M 1.5 2.0 L 823.6 2.0 " fill="none" stroke="#FEFFFF" stroke-width="1.00" stroke-linejoin="round" stroke-dasharray="1.0, 2.0" transform="matrix(1.00, 0.00, 0.00, -1.00, 133.0, 753.0)"></path></g></g></g></g><g><clipPath id="clip-139"><path d="M 134.5 751.5 L 955.6 751.5 L 955.6 185.2 L 134.5 185.2 Z M 134.5 751.5 "></path></clipPath><g clip-path="url(#clip-139)"><g><clipPath id="clip-140"><path d="M 134.5 185.2 L 955.6 185.2 L 955.6 186.2 L 134.5 186.2 Z M 134.5 185.2 "></path></clipPath><g clip-path="url(#clip-140)"><path d="M 1.5 567.3 L 823.6 567.3 " fill="none" stroke="#FEFFFF" stroke-width="1.00" stroke-linejoin="round" stroke-dasharray="1.0, 2.0" transform="matrix(1.00, 0.00, 0.00, -1.00, 133.0, 753.0)"></path></g></g></g></g><g><clipPath id="clip-141"><path d="M 1411.1 708.2 L 1486.3 708.2 L 1486.3 783.4 L 1411.1 783.4 Z M 1411.1 708.2 "></path></clipPath><g clip-path="url(#clip-141)"><path d="M 1474.6 771.6 C 1488.8 757.3 1488.8 734.2 1474.6 719.9 C 1460.3 705.6 1437.1 705.6 1422.8 719.9 C 1408.5 734.2 1408.5 757.3 1422.8 771.6 C 1437.1 785.9 1460.3 785.9 1474.6 771.6 Z M 1474.6 771.6 " fill="#FEFFFF"></path></g></g><g><clipPath id="clip-142"><path d="M 1412.1 709.2 L 1485.3 709.2 L 1485.3 782.4 L 1412.1 782.4 Z M 1412.1 709.2 "></path></clipPath><g clip-path="url(#clip-142)"><text xml:space="preserve" font-family="Helvetica-Bold" font-weight="bold" font-size="40.0" fill="#51A7F9" transform="matrix(1.00, 0.00, -0.00, -1.00, 1438.0, 731.0)">1</text></g></g><g><clipPath id="clip-143"><path d="M 1540.8 845.1 L 1616.0 845.1 L 1616.0 920.3 L 1540.8 920.3 Z M 1540.8 845.1 "></path></clipPath><g clip-path="url(#clip-143)"><path d="M 1604.3 908.6 C 1618.6 894.3 1618.6 871.1 1604.3 856.8 C 1590.0 842.6 1566.8 842.6 1552.6 856.8 C 1538.3 871.1 1538.3 894.3 1552.6 908.6 C 1566.8 922.9 1590.0 922.9 1604.3 908.6 Z M 1604.3 908.6 " fill="#FEFFFF"></path></g></g><g><clipPath id="clip-144"><path d="M 1541.8 846.1 L 1615.0 846.1 L 1615.0 919.3 L 1541.8 919.3 Z M 1541.8 846.1 "></path></clipPath><g clip-path="url(#clip-144)"><text xml:space="preserve" font-family="Helvetica-Bold" font-weight="bold" font-size="40.0" fill="#51A7F9" transform="matrix(1.00, 0.00, -0.00, -1.00, 1567.0, 868.0)">3</text></g></g><g><clipPath id="clip-145"><path d="M 1281.3 845.1 L 1356.5 845.1 L 1356.5 920.3 L 1281.3 920.3 Z M 1281.3 845.1 "></path></clipPath><g clip-path="url(#clip-145)"><path d="M 1344.8 908.6 C 1359.1 894.3 1359.1 871.1 1344.8 856.8 C 1330.5 842.6 1307.3 842.6 1293.0 856.8 C 1278.8 871.1 1278.8 894.3 1293.0 908.6 C 1307.3 922.9 1330.5 922.9 1344.8 908.6 Z M 1344.8 908.6 " fill="#FEFFFF"></path></g></g><g><clipPath id="clip-146"><path d="M 1282.3 846.1 L 1355.5 846.1 L 1355.5 919.3 L 1282.3 919.3 Z M 1282.3 846.1 "></path></clipPath><g clip-path="url(#clip-146)"><text xml:space="preserve" font-family="Helvetica-Bold" font-weight="bold" font-size="40.0" fill="#51A7F9" transform="matrix(1.00, 0.00, -0.00, -1.00, 1308.0, 868.0)">2</text></g></g><g><clipPath id="clip-147"><path d="M 1281.3 974.1 L 1356.5 974.1 L 1356.5 1049.3 L 1281.3 1049.3 Z M 1281.3 974.1 "></path></clipPath><g clip-path="url(#clip-147)"><path d="M 1344.8 1037.5 C 1359.1 1023.3 1359.1 1000.1 1344.8 985.8 C 1330.5 971.5 1307.3 971.5 1293.0 985.8 C 1278.8 1000.1 1278.8 1023.3 1293.0 1037.5 C 1307.3 1051.8 1330.5 1051.8 1344.8 1037.5 Z M 1344.8 1037.5 " fill="#FEFFFF"></path></g></g><g><clipPath id="clip-148"><path d="M 1282.3 975.1 L 1355.5 975.1 L 1355.5 1048.3 L 1282.3 1048.3 Z M 1282.3 975.1 "></path></clipPath><g clip-path="url(#clip-148)"><text xml:space="preserve" font-family="Helvetica-Bold" font-weight="bold" font-size="40.0" fill="#51A7F9" transform="matrix(1.00, 0.00, -0.00, -1.00, 1308.0, 997.0)">4</text></g></g><g><clipPath id="clip-149"><path d="M 1540.8 974.1 L 1616.0 974.1 L 1616.0 1049.3 L 1540.8 1049.3 Z M 1540.8 974.1 "></path></clipPath><g clip-path="url(#clip-149)"><path d="M 1604.3 1037.5 C 1618.6 1023.3 1618.6 1000.1 1604.3 985.8 C 1590.0 971.5 1566.8 971.5 1552.6 985.8 C 1538.3 1000.1 1538.3 1023.3 1552.6 1037.5 C 1566.8 1051.8 1590.0 1051.8 1604.3 1037.5 Z M 1604.3 1037.5 " fill="#FEFFFF"></path></g></g><g><clipPath id="clip-150"><path d="M 1541.8 975.1 L 1615.0 975.1 L 1615.0 1048.3 L 1541.8 1048.3 Z M 1541.8 975.1 "></path></clipPath><g clip-path="url(#clip-150)"><text xml:space="preserve" font-family="Helvetica-Bold" font-weight="bold" font-size="40.0" fill="#51A7F9" transform="matrix(1.00, 0.00, -0.00, -1.00, 1567.0, 997.0)">5</text></g></g><g><clipPath id="clip-151"><path d="M 1313.9 918.3 L 1323.9 918.3 L 1323.9 976.1 L 1313.9 976.1 Z M 1313.9 918.3 "></path></clipPath><g clip-path="url(#clip-151)"><path d="M 0.0 55.8 C 0.0 37.2 0.0 18.6 0.0 0.0 " fill="none" stroke="#FEFFFF" stroke-width="8.00" transform="matrix(1.00, 0.00, 0.00, -1.00, 1318.9, 975.1)"></path></g></g><g><clipPath id="clip-152"><path d="M 1354.5 1006.7 L 1542.8 1006.7 L 1542.8 1016.7 L 1354.5 1016.7 Z M 1354.5 1006.7 "></path></clipPath><g clip-path="url(#clip-152)"><path d="M 0.0 0.0 C 62.1 0.0 124.2 0.0 186.3 0.0 " fill="none" stroke="#FEFFFF" stroke-width="8.00" transform="matrix(1.00, 0.00, 0.00, -1.00, 1355.5, 1011.7)"></path></g></g><g><clipPath id="clip-153"><path d="M 1354.5 877.7 L 1542.8 877.7 L 1542.8 887.7 L 1354.5 887.7 Z M 1354.5 877.7 "></path></clipPath><g clip-path="url(#clip-153)"><path d="M 0.0 0.0 C 62.1 0.0 124.2 0.0 186.3 0.0 " fill="none" stroke="#FEFFFF" stroke-width="8.00" transform="matrix(1.00, 0.00, 0.00, -1.00, 1355.5, 882.7)"></path></g></g><g><clipPath id="clip-154"><path d="M 1573.4 918.3 L 1583.4 918.3 L 1583.4 976.1 L 1573.4 976.1 Z M 1573.4 918.3 "></path></clipPath><g clip-path="url(#clip-154)"><path d="M 0.0 55.8 C 0.0 37.2 0.0 18.6 0.0 0.0 " fill="none" stroke="#FEFFFF" stroke-width="8.00" transform="matrix(1.00, 0.00, 0.00, -1.00, 1578.4, 975.1)"></path></g></g><g><clipPath id="clip-155"><path d="M 1340.2 768.6 L 1427.4 768.6 L 1427.4 859.9 L 1340.2 859.9 Z M 1340.2 768.6 "></path></clipPath><g clip-path="url(#clip-155)"><path d="M 0.0 0.0 C 26.5 27.9 52.9 55.9 79.4 83.8 " fill="none" stroke="#FEFFFF" stroke-width="8.00" transform="matrix(1.00, 0.00, 0.00, -1.00, 1344.1, 856.2)"></path></g></g><g><clipPath id="clip-156"><path d="M 1469.9 768.6 L 1557.2 768.6 L 1557.2 859.9 L 1469.9 859.9 Z M 1469.9 768.6 "></path></clipPath><g clip-path="url(#clip-156)"><path d="M 0.0 83.8 C 26.5 55.9 52.9 27.9 79.4 0.0 " fill="none" stroke="#FEFFFF" stroke-width="8.00" transform="matrix(1.00, 0.00, 0.00, -1.00, 1473.8, 856.2)"></path></g></g><g><clipPath id="clip-157"><path d="M 1786.3 974.1 L 1861.5 974.1 L 1861.5 1049.3 L 1786.3 1049.3 Z M 1786.3 974.1 "></path></clipPath><g clip-path="url(#clip-157)"><path d="M 1849.8 1037.5 C 1864.0 1023.3 1864.0 1000.1 1849.8 985.8 C 1835.5 971.5 1812.3 971.5 1798.0 985.8 C 1783.7 1000.1 1783.7 1023.3 1798.0 1037.5 C 1812.3 1051.8 1835.5 1051.8 1849.8 1037.5 Z M 1849.8 1037.5 " fill="#FEFFFF"></path></g></g><g><clipPath id="clip-158"><path d="M 1787.3 975.1 L 1860.5 975.1 L 1860.5 1048.3 L 1787.3 1048.3 Z M 1787.3 975.1 "></path></clipPath><g clip-path="url(#clip-158)"><text xml:space="preserve" font-family="Helvetica-Bold" font-weight="bold" font-size="40.0" fill="#51A7F9" transform="matrix(1.00, 0.00, -0.00, -1.00, 1813.0, 997.0)">6</text></g></g><g><clipPath id="clip-159"><path d="M 1786.3 845.1 L 1861.5 845.1 L 1861.5 920.3 L 1786.3 920.3 Z M 1786.3 845.1 "></path></clipPath><g clip-path="url(#clip-159)"><path d="M 1849.8 908.6 C 1864.0 894.3 1864.0 871.1 1849.8 856.8 C 1835.5 842.6 1812.3 842.6 1798.0 856.8 C 1783.7 871.1 1783.7 894.3 1798.0 908.6 C 1812.3 922.9 1835.5 922.9 1849.8 908.6 Z M 1849.8 908.6 " fill="#FEFFFF"></path></g></g><g><clipPath id="clip-160"><path d="M 1787.3 846.1 L 1860.5 846.1 L 1860.5 919.3 L 1787.3 919.3 Z M 1787.3 846.1 "></path></clipPath><g clip-path="url(#clip-160)"><text xml:space="preserve" font-family="Helvetica-Bold" font-weight="bold" font-size="40.0" fill="#51A7F9" transform="matrix(1.00, 0.00, -0.00, -1.00, 1813.0, 868.0)">7</text></g></g><g><clipPath id="clip-161"><path d="M 1614.0 1006.7 L 1788.3 1006.7 L 1788.3 1016.7 L 1614.0 1016.7 Z M 1614.0 1006.7 "></path></clipPath><g clip-path="url(#clip-161)"><path d="M 0.0 0.0 C 57.4 0.0 114.8 0.0 172.3 0.0 " fill="none" stroke="#FEFFFF" stroke-width="8.00" transform="matrix(1.00, 0.00, 0.00, -1.00, 1615.0, 1011.7)"></path></g></g><g><clipPath id="clip-162"><path d="M 1818.9 918.3 L 1828.9 918.3 L 1828.9 976.1 L 1818.9 976.1 Z M 1818.9 918.3 "></path></clipPath><g clip-path="url(#clip-162)"><path d="M 0.0 55.8 C 0.0 37.2 0.0 18.6 0.0 0.0 " fill="none" stroke="#FEFFFF" stroke-width="8.00" transform="matrix(1.00, 0.00, 0.00, -1.00, 1823.9, 975.1)"></path></g></g><text xml:space="preserve" font-family="HelveticaNeue-Light" font-size="97.9" fill="#FEFFFF" transform="matrix(1.00, 0.00, -0.00, -1.00, 45.0, 941.0)">M</text><text xml:space="preserve" font-family="HelveticaNeue-Light" font-size="97.9" fill="#FEFFFF" transform="matrix(1.00, 0.00, -0.00, -1.00, 125.4, 941.0)">a</text><text xml:space="preserve" font-family="HelveticaNeue-Light" font-size="97.9" fill="#FEFFFF" transform="matrix(1.00, 0.00, -0.00, -1.00, 176.2, 941.0)">t</text><text xml:space="preserve" font-family="HelveticaNeue-Light" font-size="97.9" fill="#FEFFFF" transform="matrix(1.00, 0.00, -0.00, -1.00, 205.2, 941.0)">r</text><text xml:space="preserve" font-family="HelveticaNeue-Light" font-size="97.9" fill="#FEFFFF" transform="matrix(1.00, 0.00, -0.00, -1.00, 236.0, 941.0)">i</text><text xml:space="preserve" font-family="HelveticaNeue-Light" font-size="97.9" fill="#FEFFFF" transform="matrix(1.00, 0.00, -0.00, -1.00, 254.2, 941.0)">z</text><text xml:space="preserve" font-family="HelveticaNeue-Light" font-size="97.9" fill="#FEFFFF" transform="matrix(1.00, 0.00, -0.00, -1.00, 299.5, 941.0)"> </text><text xml:space="preserve" font-family="HelveticaNeue-Light" font-size="97.9" fill="#FEFFFF" transform="matrix(1.00, 0.00, -0.00, -1.00, 326.7, 941.0)">d</text><text xml:space="preserve" font-family="HelveticaNeue-Light" font-size="97.9" fill="#FEFFFF" transform="matrix(1.00, 0.00, -0.00, -1.00, 382.9, 941.0)">e</text><text xml:space="preserve" font-family="HelveticaNeue-Light" font-size="97.9" fill="#FEFFFF" transform="matrix(1.00, 0.00, -0.00, -1.00, 433.7, 941.0)"> </text><text xml:space="preserve" font-family="HelveticaNeue-Light" font-size="97.9" fill="#FEFFFF" transform="matrix(1.00, 0.00, -0.00, -1.00, 461.0, 941.0)">A</text><text xml:space="preserve" font-family="HelveticaNeue-Light" font-size="97.9" fill="#FEFFFF" transform="matrix(1.00, 0.00, -0.00, -1.00, 522.7, 941.0)">d</text><text xml:space="preserve" font-family="HelveticaNeue-Light" font-size="97.9" fill="#FEFFFF" transform="matrix(1.00, 0.00, -0.00, -1.00, 578.9, 941.0)">j</text><text xml:space="preserve" font-family="HelveticaNeue-Light" font-size="97.9" fill="#FEFFFF" transform="matrix(1.00, 0.00, -0.00, -1.00, 597.0, 941.0)">a</text><text xml:space="preserve" font-family="HelveticaNeue-Light" font-size="97.9" fill="#FEFFFF" transform="matrix(1.00, 0.00, -0.00, -1.00, 647.8, 941.0)">c</text><text xml:space="preserve" font-family="HelveticaNeue-Light" font-size="97.9" fill="#FEFFFF" transform="matrix(1.00, 0.00, -0.00, -1.00, 698.6, 941.0)">ê</text><text xml:space="preserve" font-family="HelveticaNeue-Light" font-size="97.9" fill="#FEFFFF" transform="matrix(1.00, 0.00, -0.00, -1.00, 749.4, 941.0)">n</text><text xml:space="preserve" font-family="HelveticaNeue-Light" font-size="97.9" fill="#FEFFFF" transform="matrix(1.00, 0.00, -0.00, -1.00, 802.0, 941.0)">c</text><text xml:space="preserve" font-family="HelveticaNeue-Light" font-size="97.9" fill="#FEFFFF" transform="matrix(1.00, 0.00, -0.00, -1.00, 852.8, 941.0)">i</text><text xml:space="preserve" font-family="HelveticaNeue-Light" font-size="97.9" fill="#FEFFFF" transform="matrix(1.00, 0.00, -0.00, -1.00, 871.0, 941.0)">a</text><text xml:space="preserve" font-family="HelveticaNeue-Light" font-size="97.9" fill="#FEFFFF" transform="matrix(1.00, 0.00, -0.00, -1.00, 921.8, 941.0)">:</text></g></svg>