<?xml version="1.0" encoding="UTF-8" standalone="no"?><svg xmlns="http://www.w3.org/2000/svg" xmlns:xlink="http://www.w3.org/1999/xlink" clip-rule="evenodd" stroke-miterlimit="4.00" viewBox="0 0 1920 1080"><desc>SVG generated by Keynote</desc><defs></defs><g transform="matrix(1.00, 0.00, -0.00, -1.00, 0.0, 1080.0)"><path d="M 0.0 1080.0 L 1920.0 1080.0 L 1920.0 0.0 L 0.0 0.0 Z M 0.0 1080.0 " fill="#009DFF"></path><text xml:space="preserve" font-family="Helvetica-Bold" font-weight="bold" font-size="36.0" fill="#FEFFFF" transform="matrix(1.00, 0.00, -0.00, -1.00, 1780.0, 46.0)">1</text><text xml:space="preserve" font-family="Helvetica-Bold" font-weight="bold" font-size="36.0" fill="#FEFFFF" transform="matrix(1.00, 0.00, -0.00, -1.00, 1798.1, 46.0)">1</text><g opacity="0.15"><g><clipPath id="clip-430"><path d="M 661.0 0.0 L 1920.0 0.0 L 1920.0 1080.0 L 661.0 1080.0 Z M 661.0 0.0 "></path></clipPath><g clip-path="url(#clip-430)"><image xlink:href="../../615F7CD4-E262-41F7-8138-806EC6AB1FAB/assets/87ABFF0ACED01E62478C9A9C0E1733CE.png" width="539.00" height="540.00" transform="matrix(0.38, -2.21, -2.21, -0.38, 1857.0, 1255.0)"></image></g></g></g><g opacity="0.15"><g><clipPath id="clip-431"><path d="M 0.0 0.0 L 752.0 0.0 L 752.0 1080.0 L 0.0 1080.0 Z M 0.0 0.0 "></path></clipPath><g clip-path="url(#clip-431)"><image xlink:href="../../615F7CD4-E262-41F7-8138-806EC6AB1FAB/assets/87ABFF0ACED01E62478C9A9C0E1733CE.png" width="539.00" height="540.00" transform="matrix(-2.14, 0.53, 0.53, 2.14, 463.8, -163.5)"></image></g></g></g><g><clipPath id="clip-432"><path d="M 1411.1 708.2 L 1486.3 708.2 L 1486.3 783.4 L 1411.1 783.4 Z M 1411.1 708.2 "></path></clipPath><g clip-path="url(#clip-432)"><path d="M 1474.6 771.6 C 1488.8 757.3 1488.8 734.2 1474.6 719.9 C 1460.3 705.6 1437.1 705.6 1422.8 719.9 C 1408.5 734.2 1408.5 757.3 1422.8 771.6 C 1437.1 785.9 1460.3 785.9 1474.6 771.6 Z M 1474.6 771.6 " fill="#FEFFFF"></path></g></g><g><clipPath id="clip-433"><path d="M 1412.1 709.2 L 1485.3 709.2 L 1485.3 782.4 L 1412.1 782.4 Z M 1412.1 709.2 "></path></clipPath><g clip-path="url(#clip-433)"><text xml:space="preserve" font-family="Helvetica-Bold" font-weight="bold" font-size="40.0" fill="#51A7F9" transform="matrix(1.00, 0.00, -0.00, -1.00, 1438.0, 731.0)">1</text></g></g><g><clipPath id="clip-434"><path d="M 1540.8 845.1 L 1616.0 845.1 L 1616.0 920.3 L 1540.8 920.3 Z M 1540.8 845.1 "></path></clipPath><g clip-path="url(#clip-434)"><path d="M 1604.3 908.6 C 1618.6 894.3 1618.6 871.1 1604.3 856.8 C 1590.0 842.6 1566.8 842.6 1552.6 856.8 C 1538.3 871.1 1538.3 894.3 1552.6 908.6 C 1566.8 922.9 1590.0 922.9 1604.3 908.6 Z M 1604.3 908.6 " fill="#FEFFFF"></path></g></g><g><clipPath id="clip-435"><path d="M 1541.8 846.1 L 1615.0 846.1 L 1615.0 919.3 L 1541.8 919.3 Z M 1541.8 846.1 "></path></clipPath><g clip-path="url(#clip-435)"><text xml:space="preserve" font-family="Helvetica-Bold" font-weight="bold" font-size="40.0" fill="#51A7F9" transform="matrix(1.00, 0.00, -0.00, -1.00, 1567.0, 868.0)">3</text></g></g><g><clipPath id="clip-436"><path d="M 1281.3 845.1 L 1356.5 845.1 L 1356.5 920.3 L 1281.3 920.3 Z M 1281.3 845.1 "></path></clipPath><g clip-path="url(#clip-436)"><path d="M 1344.8 908.6 C 1359.1 894.3 1359.1 871.1 1344.8 856.8 C 1330.5 842.6 1307.3 842.6 1293.0 856.8 C 1278.8 871.1 1278.8 894.3 1293.0 908.6 C 1307.3 922.9 1330.5 922.9 1344.8 908.6 Z M 1344.8 908.6 " fill="#FEFFFF"></path></g></g><g><clipPath id="clip-437"><path d="M 1282.3 846.1 L 1355.5 846.1 L 1355.5 919.3 L 1282.3 919.3 Z M 1282.3 846.1 "></path></clipPath><g clip-path="url(#clip-437)"><text xml:space="preserve" font-family="Helvetica-Bold" font-weight="bold" font-size="40.0" fill="#51A7F9" transform="matrix(1.00, 0.00, -0.00, -1.00, 1308.0, 868.0)">2</text></g></g><g><clipPath id="clip-438"><path d="M 1281.3 974.1 L 1356.5 974.1 L 1356.5 1049.3 L 1281.3 1049.3 Z M 1281.3 974.1 "></path></clipPath><g clip-path="url(#clip-438)"><path d="M 1344.8 1037.5 C 1359.1 1023.3 1359.1 1000.1 1344.8 985.8 C 1330.5 971.5 1307.3 971.5 1293.0 985.8 C 1278.8 1000.1 1278.8 1023.3 1293.0 1037.5 C 1307.3 1051.8 1330.5 1051.8 1344.8 1037.5 Z M 1344.8 1037.5 " fill="#FEFFFF"></path></g></g><g><clipPath id="clip-439"><path d="M 1282.3 975.1 L 1355.5 975.1 L 1355.5 1048.3 L 1282.3 1048.3 Z M 1282.3 975.1 "></path></clipPath><g clip-path="url(#clip-439)"><text xml:space="preserve" font-family="Helvetica-Bold" font-weight="bold" font-size="40.0" fill="#51A7F9" transform="matrix(1.00, 0.00, -0.00, -1.00, 1308.0, 997.0)">4</text></g></g><g><clipPath id="clip-440"><path d="M 1540.8 974.1 L 1616.0 974.1 L 1616.0 1049.3 L 1540.8 1049.3 Z M 1540.8 974.1 "></path></clipPath><g clip-path="url(#clip-440)"><path d="M 1604.3 1037.5 C 1618.6 1023.3 1618.6 1000.1 1604.3 985.8 C 1590.0 971.5 1566.8 971.5 1552.6 985.8 C 1538.3 1000.1 1538.3 1023.3 1552.6 1037.5 C 1566.8 1051.8 1590.0 1051.8 1604.3 1037.5 Z M 1604.3 1037.5 " fill="#FEFFFF"></path></g></g><g><clipPath id="clip-441"><path d="M 1541.8 975.1 L 1615.0 975.1 L 1615.0 1048.3 L 1541.8 1048.3 Z M 1541.8 975.1 "></path></clipPath><g clip-path="url(#clip-441)"><text xml:space="preserve" font-family="Helvetica-Bold" font-weight="bold" font-size="40.0" fill="#51A7F9" transform="matrix(1.00, 0.00, -0.00, -1.00, 1567.0, 997.0)">5</text></g></g><g><clipPath id="clip-442"><path d="M 1313.9 918.3 L 1323.9 918.3 L 1323.9 976.1 L 1313.9 976.1 Z M 1313.9 918.3 "></path></clipPath><g clip-path="url(#clip-442)"><path d="M 0.0 55.8 C 0.0 37.2 0.0 18.6 0.0 0.0 " fill="none" stroke="#FEFFFF" stroke-width="8.00" transform="matrix(1.00, 0.00, 0.00, -1.00, 1318.9, 975.1)"></path></g></g><g><clipPath id="clip-443"><path d="M 1354.5 1006.7 L 1542.8 1006.7 L 1542.8 1016.7 L 1354.5 1016.7 Z M 1354.5 1006.7 "></path></clipPath><g clip-path="url(#clip-443)"><path d="M 0.0 0.0 C 62.1 0.0 124.2 0.0 186.3 0.0 " fill="none" stroke="#FEFFFF" stroke-width="8.00" transform="matrix(1.00, 0.00, 0.00, -1.00, 1355.5, 1011.7)"></path></g></g><g><clipPath id="clip-444"><path d="M 1354.5 877.7 L 1542.8 877.7 L 1542.8 887.7 L 1354.5 887.7 Z M 1354.5 877.7 "></path></clipPath><g clip-path="url(#clip-444)"><path d="M 0.0 0.0 C 62.1 0.0 124.2 0.0 186.3 0.0 " fill="none" stroke="#FEFFFF" stroke-width="8.00" transform="matrix(1.00, 0.00, 0.00, -1.00, 1355.5, 882.7)"></path></g></g><g><clipPath id="clip-445"><path d="M 1573.4 918.3 L 1583.4 918.3 L 1583.4 976.1 L 1573.4 976.1 Z M 1573.4 918.3 "></path></clipPath><g clip-path="url(#clip-445)"><path d="M 0.0 55.8 C 0.0 37.2 0.0 18.6 0.0 0.0 " fill="none" stroke="#FEFFFF" stroke-width="8.00" transform="matrix(1.00, 0.00, 0.00, -1.00, 1578.4, 975.1)"></path></g></g><g><clipPath id="clip-446"><path d="M 1340.2 768.6 L 1427.4 768.6 L 1427.4 859.9 L 1340.2 859.9 Z M 1340.2 768.6 "></path></clipPath><g clip-path="url(#clip-446)"><path d="M 0.0 0.0 C 26.5 27.9 52.9 55.9 79.4 83.8 " fill="none" stroke="#FEFFFF" stroke-width="8.00" transform="matrix(1.00, 0.00, 0.00, -1.00, 1344.1, 856.2)"></path></g></g><g><clipPath id="clip-447"><path d="M 1469.9 768.6 L 1557.2 768.6 L 1557.2 859.9 L 1469.9 859.9 Z M 1469.9 768.6 "></path></clipPath><g clip-path="url(#clip-447)"><path d="M 0.0 83.8 C 26.5 55.9 52.9 27.9 79.4 0.0 " fill="none" stroke="#FEFFFF" stroke-width="8.00" transform="matrix(1.00, 0.00, 0.00, -1.00, 1473.8, 856.2)"></path></g></g><g><clipPath id="clip-448"><path d="M 1786.3 974.1 L 1861.5 974.1 L 1861.5 1049.3 L 1786.3 1049.3 Z M 1786.3 974.1 "></path></clipPath><g clip-path="url(#clip-448)"><path d="M 1849.8 1037.5 C 1864.0 1023.3 1864.0 1000.1 1849.8 985.8 C 1835.5 971.5 1812.3 971.5 1798.0 985.8 C 1783.7 1000.1 1783.7 1023.3 1798.0 1037.5 C 1812.3 1051.8 1835.5 1051.8 1849.8 1037.5 Z M 1849.8 1037.5 " fill="#FEFFFF"></path></g></g><g><clipPath id="clip-449"><path d="M 1787.3 975.1 L 1860.5 975.1 L 1860.5 1048.3 L 1787.3 1048.3 Z M 1787.3 975.1 "></path></clipPath><g clip-path="url(#clip-449)"><text xml:space="preserve" font-family="Helvetica-Bold" font-weight="bold" font-size="40.0" fill="#51A7F9" transform="matrix(1.00, 0.00, -0.00, -1.00, 1813.0, 997.0)">6</text></g></g><g><clipPath id="clip-450"><path d="M 1786.3 845.1 L 1861.5 845.1 L 1861.5 920.3 L 1786.3 920.3 Z M 1786.3 845.1 "></path></clipPath><g clip-path="url(#clip-450)"><path d="M 1849.8 908.6 C 1864.0 894.3 1864.0 871.1 1849.8 856.8 C 1835.5 842.6 1812.3 842.6 1798.0 856.8 C 1783.7 871.1 1783.7 894.3 1798.0 908.6 C 1812.3 922.9 1835.5 922.9 1849.8 908.6 Z M 1849.8 908.6 " fill="#FEFFFF"></path></g></g><g><clipPath id="clip-451"><path d="M 1787.3 846.1 L 1860.5 846.1 L 1860.5 919.3 L 1787.3 919.3 Z M 1787.3 846.1 "></path></clipPath><g clip-path="url(#clip-451)"><text xml:space="preserve" font-family="Helvetica-Bold" font-weight="bold" font-size="40.0" fill="#51A7F9" transform="matrix(1.00, 0.00, -0.00, -1.00, 1813.0, 868.0)">7</text></g></g><g><clipPath id="clip-452"><path d="M 1614.0 1006.7 L 1788.3 1006.7 L 1788.3 1016.7 L 1614.0 1016.7 Z M 1614.0 1006.7 "></path></clipPath><g clip-path="url(#clip-452)"><path d="M 0.0 0.0 C 57.4 0.0 114.8 0.0 172.3 0.0 " fill="none" stroke="#FEFFFF" stroke-width="8.00" transform="matrix(1.00, 0.00, 0.00, -1.00, 1615.0, 1011.7)"></path></g></g><g><clipPath id="clip-453"><path d="M 1818.9 918.3 L 1828.9 918.3 L 1828.9 976.1 L 1818.9 976.1 Z M 1818.9 918.3 "></path></clipPath><g clip-path="url(#clip-453)"><path d="M 0.0 55.8 C 0.0 37.2 0.0 18.6 0.0 0.0 " fill="none" stroke="#FEFFFF" stroke-width="8.00" transform="matrix(1.00, 0.00, 0.00, -1.00, 1823.9, 975.1)"></path></g></g><path d="M 107.8 866.1 L 207.8 866.1 L 207.8 766.1 L 107.8 766.1 Z M 107.8 866.1 " fill="#31D071"></path><path d="M 0.0 0.0 L 100.0 0.0 L 100.0 100.0 L 0.0 100.0 Z M 0.0 0.0 " fill="none" stroke="#FEFFFF" stroke-width="2.00" transform="matrix(1.00, 0.00, 0.00, -1.00, 107.8, 866.1)"></path><g><clipPath id="clip-454"><path d="M 102.2 767.1 L 213.5 767.1 L 213.5 865.1 L 102.2 865.1 Z M 102.2 767.1 "></path></clipPath><g clip-path="url(#clip-454)"><text xml:space="preserve" font-family="Helvetica-Bold" font-weight="bold" font-size="49.0" fill="#FEFFFE" transform="matrix(1.00, 0.00, -0.00, -1.00, 144.0, 798.0)">1</text></g></g><path d="M 107.8 746.6 L 207.8 746.6 L 207.8 646.6 L 107.8 646.6 Z M 107.8 746.6 " fill="#31D071"></path><path d="M 0.0 0.0 L 100.0 0.0 L 100.0 100.0 L 0.0 100.0 Z M 0.0 0.0 " fill="none" stroke="#FEFFFF" stroke-width="2.00" transform="matrix(1.00, 0.00, 0.00, -1.00, 107.8, 746.6)"></path><g><clipPath id="clip-455"><path d="M 102.2 647.6 L 213.5 647.6 L 213.5 745.6 L 102.2 745.6 Z M 102.2 647.6 "></path></clipPath><g clip-path="url(#clip-455)"><text xml:space="preserve" font-family="Helvetica-Bold" font-weight="bold" font-size="49.0" fill="#FEFFFE" transform="matrix(1.00, 0.00, -0.00, -1.00, 144.0, 678.0)">2</text></g></g><path d="M 107.8 627.1 L 207.8 627.1 L 207.8 527.1 L 107.8 527.1 Z M 107.8 627.1 " fill="#31D071"></path><path d="M 0.0 0.0 L 100.0 0.0 L 100.0 100.0 L 0.0 100.0 Z M 0.0 0.0 " fill="none" stroke="#FEFFFF" stroke-width="2.00" transform="matrix(1.00, 0.00, 0.00, -1.00, 107.8, 627.1)"></path><g><clipPath id="clip-456"><path d="M 102.2 528.1 L 213.5 528.1 L 213.5 626.1 L 102.2 626.1 Z M 102.2 528.1 "></path></clipPath><g clip-path="url(#clip-456)"><text xml:space="preserve" font-family="Helvetica-Bold" font-weight="bold" font-size="49.0" fill="#FEFFFE" transform="matrix(1.00, 0.00, -0.00, -1.00, 144.0, 559.0)">3</text></g></g><path d="M 107.8 507.6 L 207.8 507.6 L 207.8 407.6 L 107.8 407.6 Z M 107.8 507.6 " fill="#31D071"></path><path d="M 0.0 0.0 L 100.0 0.0 L 100.0 100.0 L 0.0 100.0 Z M 0.0 0.0 " fill="none" stroke="#FEFFFF" stroke-width="2.00" transform="matrix(1.00, 0.00, 0.00, -1.00, 107.8, 507.6)"></path><g><clipPath id="clip-457"><path d="M 102.2 408.6 L 213.5 408.6 L 213.5 506.6 L 102.2 506.6 Z M 102.2 408.6 "></path></clipPath><g clip-path="url(#clip-457)"><text xml:space="preserve" font-family="Helvetica-Bold" font-weight="bold" font-size="49.0" fill="#FEFFFE" transform="matrix(1.00, 0.00, -0.00, -1.00, 144.0, 439.0)">4</text></g></g><path d="M 107.8 388.1 L 207.8 388.1 L 207.8 288.1 L 107.8 288.1 Z M 107.8 388.1 " fill="#31D071"></path><path d="M 0.0 0.0 L 100.0 0.0 L 100.0 100.0 L 0.0 100.0 Z M 0.0 0.0 " fill="none" stroke="#FEFFFF" stroke-width="2.00" transform="matrix(1.00, 0.00, 0.00, -1.00, 107.8, 388.1)"></path><g><clipPath id="clip-458"><path d="M 102.2 289.1 L 213.5 289.1 L 213.5 387.1 L 102.2 387.1 Z M 102.2 289.1 "></path></clipPath><g clip-path="url(#clip-458)"><text xml:space="preserve" font-family="Helvetica-Bold" font-weight="bold" font-size="49.0" fill="#FEFFFE" transform="matrix(1.00, 0.00, -0.00, -1.00, 144.0, 320.0)">5</text></g></g><path d="M 107.8 268.6 L 207.8 268.6 L 207.8 168.6 L 107.8 168.6 Z M 107.8 268.6 " fill="#31D071"></path><path d="M 0.0 0.0 L 100.0 0.0 L 100.0 100.0 L 0.0 100.0 Z M 0.0 0.0 " fill="none" stroke="#FEFFFF" stroke-width="2.00" transform="matrix(1.00, 0.00, 0.00, -1.00, 107.8, 268.6)"></path><g><clipPath id="clip-459"><path d="M 102.2 169.6 L 213.5 169.6 L 213.5 267.6 L 102.2 267.6 Z M 102.2 169.6 "></path></clipPath><g clip-path="url(#clip-459)"><text xml:space="preserve" font-family="Helvetica-Bold" font-weight="bold" font-size="49.0" fill="#FEFFFE" transform="matrix(1.00, 0.00, -0.00, -1.00, 144.0, 200.0)">6</text></g></g><path d="M 107.8 149.1 L 207.8 149.1 L 207.8 49.1 L 107.8 49.1 Z M 107.8 149.1 " fill="#31D071"></path><path d="M 0.0 0.0 L 100.0 0.0 L 100.0 100.0 L 0.0 100.0 Z M 0.0 0.0 " fill="none" stroke="#FEFFFF" stroke-width="2.00" transform="matrix(1.00, 0.00, 0.00, -1.00, 107.8, 149.1)"></path><g><clipPath id="clip-460"><path d="M 102.2 50.1 L 213.5 50.1 L 213.5 148.1 L 102.2 148.1 Z M 102.2 50.1 "></path></clipPath><g clip-path="url(#clip-460)"><text xml:space="preserve" font-family="Helvetica-Bold" font-weight="bold" font-size="49.0" fill="#FEFFFE" transform="matrix(1.00, 0.00, -0.00, -1.00, 144.0, 81.0)">7</text></g></g><path d="M 402.3 866.1 L 502.3 866.1 L 502.3 766.1 L 402.3 766.1 Z M 402.3 866.1 " fill="#EB5C57"></path><path d="M 0.0 0.0 L 100.0 0.0 L 100.0 100.0 L 0.0 100.0 Z M 0.0 0.0 " fill="none" stroke="#FEFFFF" stroke-width="2.00" transform="matrix(1.00, 0.00, 0.00, -1.00, 402.3, 866.1)"></path><g><clipPath id="clip-461"><path d="M 396.7 767.1 L 508.0 767.1 L 508.0 865.1 L 396.7 865.1 Z M 396.7 767.1 "></path></clipPath><g clip-path="url(#clip-461)"><text xml:space="preserve" font-family="Helvetica-Bold" font-weight="bold" font-size="49.0" fill="#FEFFFE" transform="matrix(1.00, 0.00, -0.00, -1.00, 439.0, 798.0)">2</text></g></g><path d="M 402.3 746.6 L 502.3 746.6 L 502.3 646.6 L 402.3 646.6 Z M 402.3 746.6 " fill="#EB5C57"></path><path d="M 0.0 0.0 L 100.0 0.0 L 100.0 100.0 L 0.0 100.0 Z M 0.0 0.0 " fill="none" stroke="#FEFFFF" stroke-width="2.00" transform="matrix(1.00, 0.00, 0.00, -1.00, 402.3, 746.6)"></path><g><clipPath id="clip-462"><path d="M 396.7 647.6 L 508.0 647.6 L 508.0 745.6 L 396.7 745.6 Z M 396.7 647.6 "></path></clipPath><g clip-path="url(#clip-462)"><text xml:space="preserve" font-family="Helvetica-Bold" font-weight="bold" font-size="49.0" fill="#FEFFFE" transform="matrix(1.00, 0.00, -0.00, -1.00, 439.0, 678.0)">1</text></g></g><path d="M 402.3 627.1 L 502.3 627.1 L 502.3 527.1 L 402.3 527.1 Z M 402.3 627.1 " fill="#EB5C57"></path><path d="M 0.0 0.0 L 100.0 0.0 L 100.0 100.0 L 0.0 100.0 Z M 0.0 0.0 " fill="none" stroke="#FEFFFF" stroke-width="2.00" transform="matrix(1.00, 0.00, 0.00, -1.00, 402.3, 627.1)"></path><g><clipPath id="clip-463"><path d="M 396.7 528.1 L 508.0 528.1 L 508.0 626.1 L 396.7 626.1 Z M 396.7 528.1 "></path></clipPath><g clip-path="url(#clip-463)"><text xml:space="preserve" font-family="Helvetica-Bold" font-weight="bold" font-size="49.0" fill="#FEFFFE" transform="matrix(1.00, 0.00, -0.00, -1.00, 439.0, 559.0)">1</text></g></g><path d="M 402.3 507.6 L 502.3 507.6 L 502.3 407.6 L 402.3 407.6 Z M 402.3 507.6 " fill="#EB5C57"></path><path d="M 0.0 0.0 L 100.0 0.0 L 100.0 100.0 L 0.0 100.0 Z M 0.0 0.0 " fill="none" stroke="#FEFFFF" stroke-width="2.00" transform="matrix(1.00, 0.00, 0.00, -1.00, 402.3, 507.6)"></path><g><clipPath id="clip-464"><path d="M 396.7 408.6 L 508.0 408.6 L 508.0 506.6 L 396.7 506.6 Z M 396.7 408.6 "></path></clipPath><g clip-path="url(#clip-464)"><text xml:space="preserve" font-family="Helvetica-Bold" font-weight="bold" font-size="49.0" fill="#FEFFFE" transform="matrix(1.00, 0.00, -0.00, -1.00, 439.0, 439.0)">2</text></g></g><path d="M 402.3 388.1 L 502.3 388.1 L 502.3 288.1 L 402.3 288.1 Z M 402.3 388.1 " fill="#EB5C57"></path><path d="M 0.0 0.0 L 100.0 0.0 L 100.0 100.0 L 0.0 100.0 Z M 0.0 0.0 " fill="none" stroke="#FEFFFF" stroke-width="2.00" transform="matrix(1.00, 0.00, 0.00, -1.00, 402.3, 388.1)"></path><g><clipPath id="clip-465"><path d="M 396.7 289.1 L 508.0 289.1 L 508.0 387.1 L 396.7 387.1 Z M 396.7 289.1 "></path></clipPath><g clip-path="url(#clip-465)"><text xml:space="preserve" font-family="Helvetica-Bold" font-weight="bold" font-size="49.0" fill="#FEFFFE" transform="matrix(1.00, 0.00, -0.00, -1.00, 439.0, 320.0)">3</text></g></g><path d="M 402.3 268.6 L 502.3 268.6 L 502.3 168.6 L 402.3 168.6 Z M 402.3 268.6 " fill="#EB5C57"></path><path d="M 0.0 0.0 L 100.0 0.0 L 100.0 100.0 L 0.0 100.0 Z M 0.0 0.0 " fill="none" stroke="#FEFFFF" stroke-width="2.00" transform="matrix(1.00, 0.00, 0.00, -1.00, 402.3, 268.6)"></path><g><clipPath id="clip-466"><path d="M 396.7 169.6 L 508.0 169.6 L 508.0 267.6 L 396.7 267.6 Z M 396.7 169.6 "></path></clipPath><g clip-path="url(#clip-466)"><text xml:space="preserve" font-family="Helvetica-Bold" font-weight="bold" font-size="49.0" fill="#FEFFFE" transform="matrix(1.00, 0.00, -0.00, -1.00, 439.0, 200.0)">5</text></g></g><path d="M 402.3 149.1 L 502.3 149.1 L 502.3 49.1 L 402.3 49.1 Z M 402.3 149.1 " fill="#EB5C57"></path><path d="M 0.0 0.0 L 100.0 0.0 L 100.0 100.0 L 0.0 100.0 Z M 0.0 0.0 " fill="none" stroke="#FEFFFF" stroke-width="2.00" transform="matrix(1.00, 0.00, 0.00, -1.00, 402.3, 149.1)"></path><g><clipPath id="clip-467"><path d="M 396.7 50.1 L 508.0 50.1 L 508.0 148.1 L 396.7 148.1 Z M 396.7 50.1 "></path></clipPath><g clip-path="url(#clip-467)"><text xml:space="preserve" font-family="Helvetica-Bold" font-weight="bold" font-size="49.0" fill="#FEFFFE" transform="matrix(1.00, 0.00, -0.00, -1.00, 439.0, 81.0)">6</text></g></g><path d="M 24.5 0.0 L 29.0 0.0 L 94.1 0.0 L 98.6 0.0 " fill="none" stroke="#FEFFFF" stroke-width="9.00" transform="matrix(1.00, 0.00, 0.00, -1.00, 243.0, 816.1)"></path><path d="M 337.2 798.7 L 372.0 816.1 L 337.2 833.5 Z M 337.2 798.7 " fill="#FEFFFF"></path><path d="M 257.5 801.6 C 249.5 801.6 243.0 808.1 243.0 816.1 C 243.0 824.1 249.5 830.6 257.5 830.6 C 265.5 830.6 272.0 824.1 272.0 816.1 C 272.0 808.1 265.5 801.6 257.5 801.6 Z M 257.5 801.6 " fill="#FEFFFF"></path><g><clipPath id="clip-468"><path d="M 700.3 764.1 L 804.3 764.1 L 804.3 868.1 L 700.3 868.1 Z M 700.3 764.1 "></path></clipPath><g clip-path="url(#clip-468)"><path d="M 702.3 866.1 L 802.3 866.1 L 802.3 766.1 L 702.3 766.1 Z M 702.3 866.1 " fill="#EB5C57"></path><path d="M 0.0 0.0 L 100.0 0.0 L 100.0 100.0 L 0.0 100.0 Z M 0.0 0.0 " fill="none" stroke="#FEFFFF" stroke-width="2.00" transform="matrix(1.00, 0.00, 0.00, -1.00, 702.3, 866.1)"></path></g></g><g><clipPath id="clip-469"><path d="M 696.7 767.1 L 808.0 767.1 L 808.0 865.1 L 696.7 865.1 Z M 696.7 767.1 "></path></clipPath><g clip-path="url(#clip-469)"><text xml:space="preserve" font-family="Helvetica-Bold" font-weight="bold" font-size="49.0" fill="#FEFFFE" transform="matrix(1.00, 0.00, -0.00, -1.00, 739.0, 798.0)">3</text></g></g><g><clipPath id="clip-470"><path d="M 700.3 644.6 L 804.3 644.6 L 804.3 748.6 L 700.3 748.6 Z M 700.3 644.6 "></path></clipPath><g clip-path="url(#clip-470)"><path d="M 702.3 746.6 L 802.3 746.6 L 802.3 646.6 L 702.3 646.6 Z M 702.3 746.6 " fill="#EB5C57"></path><path d="M 0.0 0.0 L 100.0 0.0 L 100.0 100.0 L 0.0 100.0 Z M 0.0 0.0 " fill="none" stroke="#FEFFFF" stroke-width="2.00" transform="matrix(1.00, 0.00, 0.00, -1.00, 702.3, 746.6)"></path></g></g><g><clipPath id="clip-471"><path d="M 696.7 647.6 L 808.0 647.6 L 808.0 745.6 L 696.7 745.6 Z M 696.7 647.6 "></path></clipPath><g clip-path="url(#clip-471)"><text xml:space="preserve" font-family="Helvetica-Bold" font-weight="bold" font-size="49.0" fill="#FEFFFE" transform="matrix(1.00, 0.00, -0.00, -1.00, 739.0, 678.0)">3</text></g></g><g><clipPath id="clip-472"><path d="M 700.3 525.1 L 804.3 525.1 L 804.3 629.1 L 700.3 629.1 Z M 700.3 525.1 "></path></clipPath><g clip-path="url(#clip-472)"><path d="M 702.3 627.1 L 802.3 627.1 L 802.3 527.1 L 702.3 527.1 Z M 702.3 627.1 " fill="#EB5C57"></path><path d="M 0.0 0.0 L 100.0 0.0 L 100.0 100.0 L 0.0 100.0 Z M 0.0 0.0 " fill="none" stroke="#FEFFFF" stroke-width="2.00" transform="matrix(1.00, 0.00, 0.00, -1.00, 702.3, 627.1)"></path></g></g><g><clipPath id="clip-473"><path d="M 696.7 528.1 L 808.0 528.1 L 808.0 626.1 L 696.7 626.1 Z M 696.7 528.1 "></path></clipPath><g clip-path="url(#clip-473)"><text xml:space="preserve" font-family="Helvetica-Bold" font-weight="bold" font-size="49.0" fill="#FEFFFE" transform="matrix(1.00, 0.00, -0.00, -1.00, 739.0, 559.0)">2</text></g></g><g><clipPath id="clip-474"><path d="M 700.3 405.6 L 804.3 405.6 L 804.3 509.6 L 700.3 509.6 Z M 700.3 405.6 "></path></clipPath><g clip-path="url(#clip-474)"><path d="M 702.3 507.6 L 802.3 507.6 L 802.3 407.6 L 702.3 407.6 Z M 702.3 507.6 " fill="#EB5C57"></path><path d="M 0.0 0.0 L 100.0 0.0 L 100.0 100.0 L 0.0 100.0 Z M 0.0 0.0 " fill="none" stroke="#FEFFFF" stroke-width="2.00" transform="matrix(1.00, 0.00, 0.00, -1.00, 702.3, 507.6)"></path></g></g><g><clipPath id="clip-475"><path d="M 696.7 408.6 L 808.0 408.6 L 808.0 506.6 L 696.7 506.6 Z M 696.7 408.6 "></path></clipPath><g clip-path="url(#clip-475)"><text xml:space="preserve" font-family="Helvetica-Bold" font-weight="bold" font-size="49.0" fill="#FEFFFE" transform="matrix(1.00, 0.00, -0.00, -1.00, 739.0, 439.0)">5</text></g></g><g><clipPath id="clip-476"><path d="M 700.3 286.1 L 804.3 286.1 L 804.3 390.1 L 700.3 390.1 Z M 700.3 286.1 "></path></clipPath><g clip-path="url(#clip-476)"><path d="M 702.3 388.1 L 802.3 388.1 L 802.3 288.1 L 702.3 288.1 Z M 702.3 388.1 " fill="#EB5C57"></path><path d="M 0.0 0.0 L 100.0 0.0 L 100.0 100.0 L 0.0 100.0 Z M 0.0 0.0 " fill="none" stroke="#FEFFFF" stroke-width="2.00" transform="matrix(1.00, 0.00, 0.00, -1.00, 702.3, 388.1)"></path></g></g><g><clipPath id="clip-477"><path d="M 696.7 289.1 L 808.0 289.1 L 808.0 387.1 L 696.7 387.1 Z M 696.7 289.1 "></path></clipPath><g clip-path="url(#clip-477)"><text xml:space="preserve" font-family="Helvetica-Bold" font-weight="bold" font-size="49.0" fill="#FEFFFE" transform="matrix(1.00, 0.00, -0.00, -1.00, 739.0, 320.0)">4</text></g></g><g><clipPath id="clip-478"><path d="M 700.3 166.6 L 804.3 166.6 L 804.3 270.6 L 700.3 270.6 Z M 700.3 166.6 "></path></clipPath><g clip-path="url(#clip-478)"><path d="M 702.3 268.6 L 802.3 268.6 L 802.3 168.6 L 702.3 168.6 Z M 702.3 268.6 " fill="#EB5C57"></path><path d="M 0.0 0.0 L 100.0 0.0 L 100.0 100.0 L 0.0 100.0 Z M 0.0 0.0 " fill="none" stroke="#FEFFFF" stroke-width="2.00" transform="matrix(1.00, 0.00, 0.00, -1.00, 702.3, 268.6)"></path></g></g><g><clipPath id="clip-479"><path d="M 696.7 169.6 L 808.0 169.6 L 808.0 267.6 L 696.7 267.6 Z M 696.7 169.6 "></path></clipPath><g clip-path="url(#clip-479)"><text xml:space="preserve" font-family="Helvetica-Bold" font-weight="bold" font-size="49.0" fill="#FEFFFE" transform="matrix(1.00, 0.00, -0.00, -1.00, 739.0, 200.0)">7</text></g></g><g><clipPath id="clip-480"><path d="M 990.3 640.6 L 1094.3 640.6 L 1094.3 744.6 L 990.3 744.6 Z M 990.3 640.6 "></path></clipPath><g clip-path="url(#clip-480)"><path d="M 992.3 742.6 L 1092.3 742.6 L 1092.3 642.6 L 992.3 642.6 Z M 992.3 742.6 " fill="#EB5C57"></path><path d="M 0.0 0.0 L 100.0 0.0 L 100.0 100.0 L 0.0 100.0 Z M 0.0 0.0 " fill="none" stroke="#FEFFFF" stroke-width="2.00" transform="matrix(1.00, 0.00, 0.00, -1.00, 992.3, 742.6)"></path></g></g><g><clipPath id="clip-481"><path d="M 986.7 643.6 L 1098.0 643.6 L 1098.0 741.6 L 986.7 741.6 Z M 986.7 643.6 "></path></clipPath><g clip-path="url(#clip-481)"><text xml:space="preserve" font-family="Helvetica-Bold" font-weight="bold" font-size="49.0" fill="#FEFFFE" transform="matrix(1.00, 0.00, -0.00, -1.00, 1029.0, 674.0)">4</text></g></g><g><clipPath id="clip-482"><path d="M 990.3 521.1 L 1094.3 521.1 L 1094.3 625.1 L 990.3 625.1 Z M 990.3 521.1 "></path></clipPath><g clip-path="url(#clip-482)"><path d="M 992.3 623.1 L 1092.3 623.1 L 1092.3 523.1 L 992.3 523.1 Z M 992.3 623.1 " fill="#EB5C57"></path><path d="M 0.0 0.0 L 100.0 0.0 L 100.0 100.0 L 0.0 100.0 Z M 0.0 0.0 " fill="none" stroke="#FEFFFF" stroke-width="2.00" transform="matrix(1.00, 0.00, 0.00, -1.00, 992.3, 623.1)"></path></g></g><g><clipPath id="clip-483"><path d="M 986.7 524.1 L 1098.0 524.1 L 1098.0 622.1 L 986.7 622.1 Z M 986.7 524.1 "></path></clipPath><g clip-path="url(#clip-483)"><text xml:space="preserve" font-family="Helvetica-Bold" font-weight="bold" font-size="49.0" fill="#FEFFFE" transform="matrix(1.00, 0.00, -0.00, -1.00, 1029.0, 555.0)">5</text></g></g><g><clipPath id="clip-484"><path d="M 990.3 282.1 L 1094.3 282.1 L 1094.3 386.1 L 990.3 386.1 Z M 990.3 282.1 "></path></clipPath><g clip-path="url(#clip-484)"><path d="M 992.3 384.1 L 1092.3 384.1 L 1092.3 284.1 L 992.3 284.1 Z M 992.3 384.1 " fill="#EB5C57"></path><path d="M 0.0 0.0 L 100.0 0.0 L 100.0 100.0 L 0.0 100.0 Z M 0.0 0.0 " fill="none" stroke="#FEFFFF" stroke-width="2.00" transform="matrix(1.00, 0.00, 0.00, -1.00, 992.3, 384.1)"></path></g></g><g><clipPath id="clip-485"><path d="M 986.7 285.1 L 1098.0 285.1 L 1098.0 383.1 L 986.7 383.1 Z M 986.7 285.1 "></path></clipPath><g clip-path="url(#clip-485)"><text xml:space="preserve" font-family="Helvetica-Bold" font-weight="bold" font-size="49.0" fill="#FEFFFE" transform="matrix(1.00, 0.00, -0.00, -1.00, 1029.0, 316.0)">6</text></g></g><path d="M 24.5 0.0 L 29.0 0.0 L 94.1 0.0 L 98.6 0.0 " fill="none" stroke="#FEFFFF" stroke-width="9.00" transform="matrix(1.00, 0.00, 0.00, -1.00, 243.0, 696.6)"></path><path d="M 337.2 679.2 L 372.0 696.6 L 337.2 714.0 Z M 337.2 679.2 " fill="#FEFFFF"></path><path d="M 257.5 682.1 C 249.5 682.1 243.0 688.6 243.0 696.6 C 243.0 704.6 249.5 711.1 257.5 711.1 C 265.5 711.1 272.0 704.6 272.0 696.6 C 272.0 688.6 265.5 682.1 257.5 682.1 Z M 257.5 682.1 " fill="#FEFFFF"></path><path d="M 24.5 0.0 L 29.0 0.0 L 94.1 0.0 L 98.6 0.0 " fill="none" stroke="#FEFFFF" stroke-width="9.00" transform="matrix(1.00, 0.00, 0.00, -1.00, 243.0, 577.1)"></path><path d="M 337.2 559.7 L 372.0 577.1 L 337.2 594.5 Z M 337.2 559.7 " fill="#FEFFFF"></path><path d="M 257.5 562.6 C 249.5 562.6 243.0 569.1 243.0 577.1 C 243.0 585.1 249.5 591.6 257.5 591.6 C 265.5 591.6 272.0 585.1 272.0 577.1 C 272.0 569.1 265.5 562.6 257.5 562.6 Z M 257.5 562.6 " fill="#FEFFFF"></path><path d="M 24.5 0.0 L 29.0 0.0 L 94.1 0.0 L 98.6 0.0 " fill="none" stroke="#FEFFFF" stroke-width="9.00" transform="matrix(1.00, 0.00, 0.00, -1.00, 243.0, 457.6)"></path><path d="M 337.2 440.2 L 372.0 457.6 L 337.2 475.0 Z M 337.2 440.2 " fill="#FEFFFF"></path><path d="M 257.5 443.1 C 249.5 443.1 243.0 449.6 243.0 457.6 C 243.0 465.6 249.5 472.1 257.5 472.1 C 265.5 472.1 272.0 465.6 272.0 457.6 C 272.0 449.6 265.5 443.1 257.5 443.1 Z M 257.5 443.1 " fill="#FEFFFF"></path><path d="M 24.5 0.0 L 29.0 0.0 L 94.1 0.0 L 98.6 0.0 " fill="none" stroke="#FEFFFF" stroke-width="9.00" transform="matrix(1.00, 0.00, 0.00, -1.00, 243.0, 338.1)"></path><path d="M 337.2 320.7 L 372.0 338.1 L 337.2 355.5 Z M 337.2 320.7 " fill="#FEFFFF"></path><path d="M 257.5 323.6 C 249.5 323.6 243.0 330.1 243.0 338.1 C 243.0 346.1 249.5 352.6 257.5 352.6 C 265.5 352.6 272.0 346.1 272.0 338.1 C 272.0 330.1 265.5 323.6 257.5 323.6 Z M 257.5 323.6 " fill="#FEFFFF"></path><path d="M 24.5 0.0 L 29.0 0.0 L 94.1 0.0 L 98.6 0.0 " fill="none" stroke="#FEFFFF" stroke-width="9.00" transform="matrix(1.00, 0.00, 0.00, -1.00, 243.0, 218.6)"></path><path d="M 337.2 201.2 L 372.0 218.6 L 337.2 236.0 Z M 337.2 201.2 " fill="#FEFFFF"></path><path d="M 257.5 204.1 C 249.5 204.1 243.0 210.6 243.0 218.6 C 243.0 226.6 249.5 233.1 257.5 233.1 C 265.5 233.1 272.0 226.6 272.0 218.6 C 272.0 210.6 265.5 204.1 257.5 204.1 Z M 257.5 204.1 " fill="#FEFFFF"></path><path d="M 24.5 0.0 L 29.0 0.0 L 94.1 0.0 L 98.6 0.0 " fill="none" stroke="#FEFFFF" stroke-width="9.00" transform="matrix(1.00, 0.00, 0.00, -1.00, 243.0, 99.1)"></path><path d="M 337.2 81.7 L 372.0 99.1 L 337.2 116.5 Z M 337.2 81.7 " fill="#FEFFFF"></path><path d="M 257.5 84.6 C 249.5 84.6 243.0 91.0 243.0 99.1 C 243.0 107.1 249.5 113.6 257.5 113.6 C 265.5 113.6 272.0 107.1 272.0 99.1 C 272.0 91.0 265.5 84.6 257.5 84.6 Z M 257.5 84.6 " fill="#FEFFFF"></path><path d="M 24.5 0.0 L 29.0 0.0 L 94.1 0.0 L 98.6 0.0 " fill="none" stroke="#FEFFFF" stroke-width="9.00" transform="matrix(1.00, 0.00, 0.00, -1.00, 536.0, 816.1)"></path><path d="M 630.2 798.7 L 665.0 816.1 L 630.2 833.5 Z M 630.2 798.7 " fill="#FEFFFF"></path><path d="M 550.5 801.6 C 542.5 801.6 536.0 808.1 536.0 816.1 C 536.0 824.1 542.5 830.6 550.5 830.6 C 558.5 830.6 565.0 824.1 565.0 816.1 C 565.0 808.1 558.5 801.6 550.5 801.6 Z M 550.5 801.6 " fill="#FEFFFF"></path><path d="M 24.5 0.0 L 29.0 0.0 L 94.1 0.0 L 98.6 0.0 " fill="none" stroke="#FEFFFF" stroke-width="9.00" transform="matrix(1.00, 0.00, 0.00, -1.00, 536.0, 696.6)"></path><path d="M 630.2 679.2 L 665.0 696.6 L 630.2 714.0 Z M 630.2 679.2 " fill="#FEFFFF"></path><path d="M 550.5 682.1 C 542.5 682.1 536.0 688.6 536.0 696.6 C 536.0 704.6 542.5 711.1 550.5 711.1 C 558.5 711.1 565.0 704.6 565.0 696.6 C 565.0 688.6 558.5 682.1 550.5 682.1 Z M 550.5 682.1 " fill="#FEFFFF"></path><path d="M 24.5 0.0 L 29.0 0.0 L 94.1 0.0 L 98.6 0.0 " fill="none" stroke="#FEFFFF" stroke-width="9.00" transform="matrix(1.00, 0.00, 0.00, -1.00, 536.0, 577.1)"></path><path d="M 630.2 559.7 L 665.0 577.1 L 630.2 594.5 Z M 630.2 559.7 " fill="#FEFFFF"></path><path d="M 550.5 562.6 C 542.5 562.6 536.0 569.1 536.0 577.1 C 536.0 585.1 542.5 591.6 550.5 591.6 C 558.5 591.6 565.0 585.1 565.0 577.1 C 565.0 569.1 558.5 562.6 550.5 562.6 Z M 550.5 562.6 " fill="#FEFFFF"></path><path d="M 24.5 0.0 L 29.0 0.0 L 94.1 0.0 L 98.6 0.0 " fill="none" stroke="#FEFFFF" stroke-width="9.00" transform="matrix(1.00, 0.00, 0.00, -1.00, 536.0, 457.6)"></path><path d="M 630.2 440.2 L 665.0 457.6 L 630.2 475.0 Z M 630.2 440.2 " fill="#FEFFFF"></path><path d="M 550.5 443.1 C 542.5 443.1 536.0 449.6 536.0 457.6 C 536.0 465.6 542.5 472.1 550.5 472.1 C 558.5 472.1 565.0 465.6 565.0 457.6 C 565.0 449.6 558.5 443.1 550.5 443.1 Z M 550.5 443.1 " fill="#FEFFFF"></path><path d="M 24.5 0.0 L 29.0 0.0 L 94.1 0.0 L 98.6 0.0 " fill="none" stroke="#FEFFFF" stroke-width="9.00" transform="matrix(1.00, 0.00, 0.00, -1.00, 536.0, 338.1)"></path><path d="M 630.2 320.7 L 665.0 338.1 L 630.2 355.5 Z M 630.2 320.7 " fill="#FEFFFF"></path><path d="M 550.5 323.6 C 542.5 323.6 536.0 330.1 536.0 338.1 C 536.0 346.1 542.5 352.6 550.5 352.6 C 558.5 352.6 565.0 346.1 565.0 338.1 C 565.0 330.1 558.5 323.6 550.5 323.6 Z M 550.5 323.6 " fill="#FEFFFF"></path><path d="M 24.5 0.0 L 29.0 0.0 L 94.1 0.0 L 98.6 0.0 " fill="none" stroke="#FEFFFF" stroke-width="9.00" transform="matrix(1.00, 0.00, 0.00, -1.00, 536.0, 218.6)"></path><path d="M 630.2 201.2 L 665.0 218.6 L 630.2 236.0 Z M 630.2 201.2 " fill="#FEFFFF"></path><path d="M 550.5 204.1 C 542.5 204.1 536.0 210.6 536.0 218.6 C 536.0 226.6 542.5 233.1 550.5 233.1 C 558.5 233.1 565.0 226.6 565.0 218.6 C 565.0 210.6 558.5 204.1 550.5 204.1 Z M 550.5 204.1 " fill="#FEFFFF"></path><path d="M 24.5 0.0 L 29.0 0.0 L 94.1 0.0 L 98.6 0.0 " fill="none" stroke="#FEFFFF" stroke-width="9.00" transform="matrix(1.00, 0.00, 0.00, -1.00, 827.0, 696.6)"></path><path d="M 921.2 679.2 L 956.0 696.6 L 921.2 714.0 Z M 921.2 679.2 " fill="#FEFFFF"></path><path d="M 841.5 682.1 C 833.5 682.1 827.0 688.6 827.0 696.6 C 827.0 704.6 833.5 711.1 841.5 711.1 C 849.5 711.1 856.0 704.6 856.0 696.6 C 856.0 688.6 849.5 682.1 841.5 682.1 Z M 841.5 682.1 " fill="#FEFFFF"></path><path d="M 24.5 0.0 L 29.0 0.0 L 94.1 0.0 L 98.6 0.0 " fill="none" stroke="#FEFFFF" stroke-width="9.00" transform="matrix(1.00, 0.00, 0.00, -1.00, 827.0, 577.1)"></path><path d="M 921.2 559.7 L 956.0 577.1 L 921.2 594.5 Z M 921.2 559.7 " fill="#FEFFFF"></path><path d="M 841.5 562.6 C 833.5 562.6 827.0 569.1 827.0 577.1 C 827.0 585.1 833.5 591.6 841.5 591.6 C 849.5 591.6 856.0 585.1 856.0 577.1 C 856.0 569.1 849.5 562.6 841.5 562.6 Z M 841.5 562.6 " fill="#FEFFFF"></path><path d="M 24.5 0.0 L 29.0 0.0 L 94.1 0.0 L 98.6 0.0 " fill="none" stroke="#FEFFFF" stroke-width="9.00" transform="matrix(1.00, 0.00, 0.00, -1.00, 827.0, 338.1)"></path><path d="M 921.2 320.7 L 956.0 338.1 L 921.2 355.5 Z M 921.2 320.7 " fill="#FEFFFF"></path><path d="M 841.5 323.6 C 833.5 323.6 827.0 330.1 827.0 338.1 C 827.0 346.1 833.5 352.6 841.5 352.6 C 849.5 352.6 856.0 346.1 856.0 338.1 C 856.0 330.1 849.5 323.6 841.5 323.6 Z M 841.5 323.6 " fill="#FEFFFF"></path><text xml:space="preserve" font-family="HelveticaNeue-Bold" font-weight="bold" font-size="96.9" fill="#FEFFFF" transform="matrix(1.00, 0.00, -0.00, -1.00, 45.0, 942.0)">L</text><text xml:space="preserve" font-family="HelveticaNeue-Bold" font-weight="bold" font-size="96.9" fill="#FEFFFF" transform="matrix(1.00, 0.00, -0.00, -1.00, 102.5, 942.0)">i</text><text xml:space="preserve" font-family="HelveticaNeue-Bold" font-weight="bold" font-size="96.9" fill="#FEFFFF" transform="matrix(1.00, 0.00, -0.00, -1.00, 127.5, 942.0)">s</text><text xml:space="preserve" font-family="HelveticaNeue-Bold" font-weight="bold" font-size="96.9" fill="#FEFFFF" transform="matrix(1.00, 0.00, -0.00, -1.00, 179.5, 942.0)">t</text><text xml:space="preserve" font-family="HelveticaNeue-Bold" font-weight="bold" font-size="96.9" fill="#FEFFFF" transform="matrix(1.00, 0.00, -0.00, -1.00, 213.6, 942.0)">a</text><text xml:space="preserve" font-family="HelveticaNeue-Bold" font-weight="bold" font-size="96.9" fill="#FEFFFF" transform="matrix(1.00, 0.00, -0.00, -1.00, 269.2, 942.0)"> </text><text xml:space="preserve" font-family="HelveticaNeue-Bold" font-weight="bold" font-size="96.9" fill="#FEFFFF" transform="matrix(1.00, 0.00, -0.00, -1.00, 296.2, 942.0)">d</text><text xml:space="preserve" font-family="HelveticaNeue-Bold" font-weight="bold" font-size="96.9" fill="#FEFFFF" transform="matrix(1.00, 0.00, -0.00, -1.00, 355.4, 942.0)">e</text><text xml:space="preserve" font-family="HelveticaNeue-Bold" font-weight="bold" font-size="96.9" fill="#FEFFFF" transform="matrix(1.00, 0.00, -0.00, -1.00, 411.0, 942.0)"> </text><text xml:space="preserve" font-family="HelveticaNeue-Bold" font-weight="bold" font-size="96.9" fill="#FEFFFF" transform="matrix(1.00, 0.00, -0.00, -1.00, 437.9, 942.0)">A</text><text xml:space="preserve" font-family="HelveticaNeue-Bold" font-weight="bold" font-size="96.9" fill="#FEFFFF" transform="matrix(1.00, 0.00, -0.00, -1.00, 504.3, 942.0)">d</text><text xml:space="preserve" font-family="HelveticaNeue-Bold" font-weight="bold" font-size="96.9" fill="#FEFFFF" transform="matrix(1.00, 0.00, -0.00, -1.00, 563.5, 942.0)">j</text><text xml:space="preserve" font-family="HelveticaNeue-Bold" font-weight="bold" font-size="96.9" fill="#FEFFFF" transform="matrix(1.00, 0.00, -0.00, -1.00, 590.5, 942.0)">a</text><text xml:space="preserve" font-family="HelveticaNeue-Bold" font-weight="bold" font-size="96.9" fill="#FEFFFF" transform="matrix(1.00, 0.00, -0.00, -1.00, 646.1, 942.0)">c</text><text xml:space="preserve" font-family="HelveticaNeue-Bold" font-weight="bold" font-size="96.9" fill="#FEFFFF" transform="matrix(1.00, 0.00, -0.00, -1.00, 701.7, 942.0)">ê</text><text xml:space="preserve" font-family="HelveticaNeue-Bold" font-weight="bold" font-size="96.9" fill="#FEFFFF" transform="matrix(1.00, 0.00, -0.00, -1.00, 757.3, 942.0)">n</text><text xml:space="preserve" font-family="HelveticaNeue-Bold" font-weight="bold" font-size="96.9" fill="#FEFFFF" transform="matrix(1.00, 0.00, -0.00, -1.00, 814.8, 942.0)">c</text><text xml:space="preserve" font-family="HelveticaNeue-Bold" font-weight="bold" font-size="96.9" fill="#FEFFFF" transform="matrix(1.00, 0.00, -0.00, -1.00, 870.4, 942.0)">i</text><text xml:space="preserve" font-family="HelveticaNeue-Bold" font-weight="bold" font-size="96.9" fill="#FEFFFF" transform="matrix(1.00, 0.00, -0.00, -1.00, 895.4, 942.0)">a</text></g></svg>