<?xml version="1.0" encoding="UTF-8" standalone="no"?><svg xmlns="http://www.w3.org/2000/svg" xmlns:xlink="http://www.w3.org/1999/xlink" clip-rule="evenodd" stroke-miterlimit="4.00" viewBox="0 0 1920 1080"><desc>SVG generated by Keynote</desc><defs></defs><g transform="matrix(1.00, 0.00, -0.00, -1.00, 0.0, 1080.0)"><path d="M 0.0 1080.0 L 1920.0 1080.0 L 1920.0 0.0 L 0.0 0.0 Z M 0.0 1080.0 " fill="#009DFF"></path><text xml:space="preserve" font-family="Helvetica-Bold" font-weight="bold" font-size="36.0" fill="#FEFFFF" transform="matrix(1.00, 0.00, -0.00, -1.00, 1779.0, 46.0)">1</text><text xml:space="preserve" font-family="Helvetica-Bold" font-weight="bold" font-size="36.0" fill="#FEFFFF" transform="matrix(1.00, 0.00, -0.00, -1.00, 1799.0, 46.0)">6</text><g opacity="0.15"><g><clipPath id="clip-840"><path d="M 661.0 0.0 L 1920.0 0.0 L 1920.0 1080.0 L 661.0 1080.0 Z M 661.0 0.0 "></path></clipPath><g clip-path="url(#clip-840)"><image xlink:href="../../615F7CD4-E262-41F7-8138-806EC6AB1FAB/assets/87ABFF0ACED01E62478C9A9C0E1733CE.png" width="539.00" height="540.00" transform="matrix(0.38, -2.21, -2.21, -0.38, 1857.0, 1255.0)"></image></g></g></g><g opacity="0.15"><g><clipPath id="clip-841"><path d="M 0.0 0.0 L 752.0 0.0 L 752.0 1080.0 L 0.0 1080.0 Z M 0.0 0.0 "></path></clipPath><g clip-path="url(#clip-841)"><image xlink:href="../../615F7CD4-E262-41F7-8138-806EC6AB1FAB/assets/87ABFF0ACED01E62478C9A9C0E1733CE.png" width="539.00" height="540.00" transform="matrix(-2.14, 0.53, 0.53, 2.14, 463.8, -163.5)"></image></g></g></g><text xml:space="preserve" font-family="HelveticaNeue-Bold" font-weight="bold" font-size="102.0" fill="#FEFFFF" transform="matrix(1.00, 0.00, -0.00, -1.00, 45.0, 938.0)">L</text><text xml:space="preserve" font-family="HelveticaNeue-Bold" font-weight="bold" font-size="102.0" fill="#FEFFFF" transform="matrix(1.00, 0.00, -0.00, -1.00, 105.5, 938.0)">i</text><text xml:space="preserve" font-family="HelveticaNeue-Bold" font-weight="bold" font-size="102.0" fill="#FEFFFF" transform="matrix(1.00, 0.00, -0.00, -1.00, 131.8, 938.0)">s</text><text xml:space="preserve" font-family="HelveticaNeue-Bold" font-weight="bold" font-size="102.0" fill="#FEFFFF" transform="matrix(1.00, 0.00, -0.00, -1.00, 186.6, 938.0)">t</text><text xml:space="preserve" font-family="HelveticaNeue-Bold" font-weight="bold" font-size="102.0" fill="#FEFFFF" transform="matrix(1.00, 0.00, -0.00, -1.00, 222.5, 938.0)">a</text><text xml:space="preserve" font-family="HelveticaNeue-Bold" font-weight="bold" font-size="102.0" fill="#FEFFFF" transform="matrix(1.00, 0.00, -0.00, -1.00, 281.0, 938.0)"> </text><text xml:space="preserve" font-family="HelveticaNeue-Bold" font-weight="bold" font-size="102.0" fill="#FEFFFF" transform="matrix(1.00, 0.00, -0.00, -1.00, 309.4, 938.0)">d</text><text xml:space="preserve" font-family="HelveticaNeue-Bold" font-weight="bold" font-size="102.0" fill="#FEFFFF" transform="matrix(1.00, 0.00, -0.00, -1.00, 371.7, 938.0)">e</text><text xml:space="preserve" font-family="HelveticaNeue-Bold" font-weight="bold" font-size="102.0" fill="#FEFFFF" transform="matrix(1.00, 0.00, -0.00, -1.00, 430.3, 938.0)"> </text><text xml:space="preserve" font-family="HelveticaNeue-Bold" font-weight="bold" font-size="102.0" fill="#FEFFFF" transform="matrix(1.00, 0.00, -0.00, -1.00, 458.6, 938.0)">A</text><text xml:space="preserve" font-family="HelveticaNeue-Bold" font-weight="bold" font-size="102.0" fill="#FEFFFF" transform="matrix(1.00, 0.00, -0.00, -1.00, 528.5, 938.0)">r</text><text xml:space="preserve" font-family="HelveticaNeue-Bold" font-weight="bold" font-size="102.0" fill="#FEFFFF" transform="matrix(1.00, 0.00, -0.00, -1.00, 566.3, 938.0)">e</text><text xml:space="preserve" font-family="HelveticaNeue-Bold" font-weight="bold" font-size="102.0" fill="#FEFFFF" transform="matrix(1.00, 0.00, -0.00, -1.00, 624.9, 938.0)">s</text><text xml:space="preserve" font-family="HelveticaNeue-Bold" font-weight="bold" font-size="102.0" fill="#FEFFFF" transform="matrix(1.00, 0.00, -0.00, -1.00, 679.6, 938.0)">t</text><text xml:space="preserve" font-family="HelveticaNeue-Bold" font-weight="bold" font-size="102.0" fill="#FEFFFF" transform="matrix(1.00, 0.00, -0.00, -1.00, 715.5, 938.0)">a</text><text xml:space="preserve" font-family="HelveticaNeue-Bold" font-weight="bold" font-size="102.0" fill="#FEFFFF" transform="matrix(1.00, 0.00, -0.00, -1.00, 774.1, 938.0)">s</text><g><clipPath id="clip-842"><path d="M 1257.8 369.4 L 1333.0 369.4 L 1333.0 444.6 L 1257.8 444.6 Z M 1257.8 369.4 "></path></clipPath><g clip-path="url(#clip-842)"><path d="M 1321.2 432.9 C 1335.5 418.6 1335.5 395.5 1321.2 381.2 C 1306.9 366.9 1283.8 366.9 1269.5 381.2 C 1255.2 395.5 1255.2 418.6 1269.5 432.9 C 1283.8 447.2 1306.9 447.2 1321.2 432.9 Z M 1321.2 432.9 " fill="#FEFFFF"></path></g></g><g><clipPath id="clip-843"><path d="M 1258.8 370.4 L 1332.0 370.4 L 1332.0 443.6 L 1258.8 443.6 Z M 1258.8 370.4 "></path></clipPath><g clip-path="url(#clip-843)"><text xml:space="preserve" font-family="Helvetica-Bold" font-weight="bold" font-size="40.0" fill="#51A7F9" transform="matrix(1.00, 0.00, -0.00, -1.00, 1284.0, 392.0)">1</text></g></g><g><clipPath id="clip-844"><path d="M 1387.5 506.4 L 1462.7 506.4 L 1462.7 581.6 L 1387.5 581.6 Z M 1387.5 506.4 "></path></clipPath><g clip-path="url(#clip-844)"><path d="M 1451.0 569.9 C 1465.3 555.6 1465.3 532.4 1451.0 518.1 C 1436.7 503.8 1413.5 503.8 1399.2 518.1 C 1384.9 532.4 1384.9 555.6 1399.2 569.9 C 1413.5 584.2 1436.7 584.2 1451.0 569.9 Z M 1451.0 569.9 " fill="#FEFFFF"></path></g></g><g><clipPath id="clip-845"><path d="M 1388.5 507.4 L 1461.7 507.4 L 1461.7 580.6 L 1388.5 580.6 Z M 1388.5 507.4 "></path></clipPath><g clip-path="url(#clip-845)"><text xml:space="preserve" font-family="Helvetica-Bold" font-weight="bold" font-size="40.0" fill="#51A7F9" transform="matrix(1.00, 0.00, -0.00, -1.00, 1414.0, 529.0)">3</text></g></g><g><clipPath id="clip-846"><path d="M 1128.0 506.4 L 1203.2 506.4 L 1203.2 581.6 L 1128.0 581.6 Z M 1128.0 506.4 "></path></clipPath><g clip-path="url(#clip-846)"><path d="M 1191.5 569.9 C 1205.8 555.6 1205.8 532.4 1191.5 518.1 C 1177.2 503.8 1154.0 503.8 1139.7 518.1 C 1125.4 532.4 1125.4 555.6 1139.7 569.9 C 1154.0 584.2 1177.2 584.2 1191.5 569.9 Z M 1191.5 569.9 " fill="#FEFFFF"></path></g></g><g><clipPath id="clip-847"><path d="M 1129.0 507.4 L 1202.2 507.4 L 1202.2 580.6 L 1129.0 580.6 Z M 1129.0 507.4 "></path></clipPath><g clip-path="url(#clip-847)"><text xml:space="preserve" font-family="Helvetica-Bold" font-weight="bold" font-size="40.0" fill="#51A7F9" transform="matrix(1.00, 0.00, -0.00, -1.00, 1154.0, 529.0)">2</text></g></g><g><clipPath id="clip-848"><path d="M 1128.0 635.4 L 1203.2 635.4 L 1203.2 710.6 L 1128.0 710.6 Z M 1128.0 635.4 "></path></clipPath><g clip-path="url(#clip-848)"><path d="M 1191.5 698.8 C 1205.8 684.5 1205.8 661.4 1191.5 647.1 C 1177.2 632.8 1154.0 632.8 1139.7 647.1 C 1125.4 661.4 1125.4 684.5 1139.7 698.8 C 1154.0 713.1 1177.2 713.1 1191.5 698.8 Z M 1191.5 698.8 " fill="#FEFFFF"></path></g></g><g><clipPath id="clip-849"><path d="M 1129.0 636.4 L 1202.2 636.4 L 1202.2 709.6 L 1129.0 709.6 Z M 1129.0 636.4 "></path></clipPath><g clip-path="url(#clip-849)"><text xml:space="preserve" font-family="Helvetica-Bold" font-weight="bold" font-size="40.0" fill="#51A7F9" transform="matrix(1.00, 0.00, -0.00, -1.00, 1154.0, 658.0)">4</text></g></g><g><clipPath id="clip-850"><path d="M 1387.5 635.4 L 1462.7 635.4 L 1462.7 710.6 L 1387.5 710.6 Z M 1387.5 635.4 "></path></clipPath><g clip-path="url(#clip-850)"><path d="M 1451.0 698.8 C 1465.3 684.5 1465.3 661.4 1451.0 647.1 C 1436.7 632.8 1413.5 632.8 1399.2 647.1 C 1384.9 661.4 1384.9 684.5 1399.2 698.8 C 1413.5 713.1 1436.7 713.1 1451.0 698.8 Z M 1451.0 698.8 " fill="#FEFFFF"></path></g></g><g><clipPath id="clip-851"><path d="M 1388.5 636.4 L 1461.7 636.4 L 1461.7 709.6 L 1388.5 709.6 Z M 1388.5 636.4 "></path></clipPath><g clip-path="url(#clip-851)"><text xml:space="preserve" font-family="Helvetica-Bold" font-weight="bold" font-size="40.0" fill="#51A7F9" transform="matrix(1.00, 0.00, -0.00, -1.00, 1414.0, 658.0)">5</text></g></g><g><clipPath id="clip-852"><path d="M 1160.6 579.6 L 1170.6 579.6 L 1170.6 637.4 L 1160.6 637.4 Z M 1160.6 579.6 "></path></clipPath><g clip-path="url(#clip-852)"><path d="M 0.0 55.8 C 0.0 37.2 0.0 18.6 0.0 0.0 " fill="none" stroke="#FEFFFF" stroke-width="8.00" transform="matrix(1.00, 0.00, 0.00, -1.00, 1165.6, 636.4)"></path></g></g><g><clipPath id="clip-853"><path d="M 1201.2 668.0 L 1389.5 668.0 L 1389.5 678.0 L 1201.2 678.0 Z M 1201.2 668.0 "></path></clipPath><g clip-path="url(#clip-853)"><path d="M 0.0 0.0 C 62.1 0.0 124.2 0.0 186.3 0.0 " fill="none" stroke="#FEFFFF" stroke-width="8.00" transform="matrix(1.00, 0.00, 0.00, -1.00, 1202.2, 673.0)"></path></g></g><g><clipPath id="clip-854"><path d="M 1201.2 539.0 L 1389.5 539.0 L 1389.5 549.0 L 1201.2 549.0 Z M 1201.2 539.0 "></path></clipPath><g clip-path="url(#clip-854)"><path d="M 0.0 0.0 C 62.1 0.0 124.2 0.0 186.3 0.0 " fill="none" stroke="#FEFFFF" stroke-width="8.00" transform="matrix(1.00, 0.00, 0.00, -1.00, 1202.2, 544.0)"></path></g></g><g><clipPath id="clip-855"><path d="M 1420.1 579.6 L 1430.1 579.6 L 1430.1 637.4 L 1420.1 637.4 Z M 1420.1 579.6 "></path></clipPath><g clip-path="url(#clip-855)"><path d="M 0.0 55.8 C 0.0 37.2 0.0 18.6 0.0 0.0 " fill="none" stroke="#FEFFFF" stroke-width="8.00" transform="matrix(1.00, 0.00, 0.00, -1.00, 1425.1, 636.4)"></path></g></g><g><clipPath id="clip-856"><path d="M 1186.9 429.9 L 1274.1 429.9 L 1274.1 521.2 L 1186.9 521.2 Z M 1186.9 429.9 "></path></clipPath><g clip-path="url(#clip-856)"><path d="M 0.0 0.0 C 26.5 27.9 52.9 55.9 79.4 83.8 " fill="none" stroke="#FEFFFF" stroke-width="8.00" transform="matrix(1.00, 0.00, 0.00, -1.00, 1190.8, 517.4)"></path></g></g><g><clipPath id="clip-857"><path d="M 1316.6 429.9 L 1403.8 429.9 L 1403.8 521.2 L 1316.6 521.2 Z M 1316.6 429.9 "></path></clipPath><g clip-path="url(#clip-857)"><path d="M 0.0 83.8 C 26.5 55.9 52.9 27.9 79.4 0.0 " fill="none" stroke="#FEFFFF" stroke-width="8.00" transform="matrix(1.00, 0.00, 0.00, -1.00, 1320.5, 517.4)"></path></g></g><g><clipPath id="clip-858"><path d="M 1633.0 635.4 L 1708.2 635.4 L 1708.2 710.6 L 1633.0 710.6 Z M 1633.0 635.4 "></path></clipPath><g clip-path="url(#clip-858)"><path d="M 1696.4 698.8 C 1710.7 684.5 1710.7 661.4 1696.4 647.1 C 1682.1 632.8 1659.0 632.8 1644.7 647.1 C 1630.4 661.4 1630.4 684.5 1644.7 698.8 C 1659.0 713.1 1682.1 713.1 1696.4 698.8 Z M 1696.4 698.8 " fill="#FEFFFF"></path></g></g><g><clipPath id="clip-859"><path d="M 1634.0 636.4 L 1707.2 636.4 L 1707.2 709.6 L 1634.0 709.6 Z M 1634.0 636.4 "></path></clipPath><g clip-path="url(#clip-859)"><text xml:space="preserve" font-family="Helvetica-Bold" font-weight="bold" font-size="40.0" fill="#51A7F9" transform="matrix(1.00, 0.00, -0.00, -1.00, 1659.0, 658.0)">6</text></g></g><g><clipPath id="clip-860"><path d="M 1633.0 506.4 L 1708.2 506.4 L 1708.2 581.6 L 1633.0 581.6 Z M 1633.0 506.4 "></path></clipPath><g clip-path="url(#clip-860)"><path d="M 1696.4 569.9 C 1710.7 555.6 1710.7 532.4 1696.4 518.1 C 1682.1 503.8 1659.0 503.8 1644.7 518.1 C 1630.4 532.4 1630.4 555.6 1644.7 569.9 C 1659.0 584.2 1682.1 584.2 1696.4 569.9 Z M 1696.4 569.9 " fill="#FEFFFF"></path></g></g><g><clipPath id="clip-861"><path d="M 1634.0 507.4 L 1707.2 507.4 L 1707.2 580.6 L 1634.0 580.6 Z M 1634.0 507.4 "></path></clipPath><g clip-path="url(#clip-861)"><text xml:space="preserve" font-family="Helvetica-Bold" font-weight="bold" font-size="40.0" fill="#51A7F9" transform="matrix(1.00, 0.00, -0.00, -1.00, 1659.0, 529.0)">7</text></g></g><g><clipPath id="clip-862"><path d="M 1460.7 668.0 L 1635.0 668.0 L 1635.0 678.0 L 1460.7 678.0 Z M 1460.7 668.0 "></path></clipPath><g clip-path="url(#clip-862)"><path d="M 0.0 0.0 C 57.4 0.0 114.8 0.0 172.3 0.0 " fill="none" stroke="#FEFFFF" stroke-width="8.00" transform="matrix(1.00, 0.00, 0.00, -1.00, 1461.7, 673.0)"></path></g></g><g><clipPath id="clip-863"><path d="M 1665.6 579.6 L 1675.6 579.6 L 1675.6 637.4 L 1665.6 637.4 Z M 1665.6 579.6 "></path></clipPath><g clip-path="url(#clip-863)"><path d="M 0.0 55.8 C 0.0 37.2 0.0 18.6 0.0 0.0 " fill="none" stroke="#FEFFFF" stroke-width="8.00" transform="matrix(1.00, 0.00, 0.00, -1.00, 1670.6, 636.4)"></path></g></g><path d="M 0.0 608.9 C 0.0 406.0 0.0 203.0 0.0 0.0 " fill="none" stroke="#FEFFFF" stroke-width="4.00" stroke-linecap="round" stroke-dasharray="0.0, 12.0" transform="matrix(1.00, 0.00, 0.00, -1.00, 572.8, 778.6)"></path><text xml:space="preserve" font-family="Helvetica-LightOblique" font-style="italic" font-size="50.0" fill="#FEFFFF" transform="matrix(1.00, 0.00, -0.00, -1.00, 335.0, 722.0)">E</text><text xml:space="preserve" font-family="Helvetica-LightOblique" font-style="italic" font-size="50.0" fill="#FEFFFF" transform="matrix(1.00, 0.00, -0.00, -1.00, 365.6, 722.0)">n</text><text xml:space="preserve" font-family="Helvetica-LightOblique" font-style="italic" font-size="50.0" fill="#FEFFFF" transform="matrix(1.00, 0.00, -0.00, -1.00, 393.4, 722.0)">t</text><text xml:space="preserve" font-family="Helvetica-LightOblique" font-style="italic" font-size="50.0" fill="#FEFFFF" transform="matrix(1.00, 0.00, -0.00, -1.00, 407.2, 722.0)">r</text><text xml:space="preserve" font-family="Helvetica-LightOblique" font-style="italic" font-size="50.0" fill="#FEFFFF" transform="matrix(1.00, 0.00, -0.00, -1.00, 423.9, 722.0)">a</text><text xml:space="preserve" font-family="Helvetica-LightOblique" font-style="italic" font-size="50.0" fill="#FEFFFF" transform="matrix(1.00, 0.00, -0.00, -1.00, 451.7, 722.0)">d</text><text xml:space="preserve" font-family="Helvetica-LightOblique" font-style="italic" font-size="50.0" fill="#FEFFFF" transform="matrix(1.00, 0.00, -0.00, -1.00, 482.2, 722.0)">a</text><text xml:space="preserve" font-family="Helvetica-LightOblique" font-style="italic" font-size="50.0" fill="#FEFFFF" transform="matrix(1.00, 0.00, -0.00, -1.00, 510.1, 722.0)"> </text><text xml:space="preserve" font-family="HelveticaNeue-Bold" font-weight="bold" font-size="61.0" fill="#FEFFFF" transform="matrix(1.00, 0.00, -0.00, -1.00, 46.0, 851.0)">E</text><text xml:space="preserve" font-family="HelveticaNeue-Bold" font-weight="bold" font-size="61.0" fill="#FEFFFF" transform="matrix(1.00, 0.00, -0.00, -1.00, 85.5, 851.0)">x</text><text xml:space="preserve" font-family="HelveticaNeue-Bold" font-weight="bold" font-size="61.0" fill="#FEFFFF" transform="matrix(1.00, 0.00, -0.00, -1.00, 118.3, 851.0)">e</text><text xml:space="preserve" font-family="HelveticaNeue-Bold" font-weight="bold" font-size="61.0" fill="#FEFFFF" transform="matrix(1.00, 0.00, -0.00, -1.00, 153.3, 851.0)">m</text><text xml:space="preserve" font-family="HelveticaNeue-Bold" font-weight="bold" font-size="61.0" fill="#FEFFFF" transform="matrix(1.00, 0.00, -0.00, -1.00, 208.6, 851.0)">p</text><text xml:space="preserve" font-family="HelveticaNeue-Bold" font-weight="bold" font-size="61.0" fill="#FEFFFF" transform="matrix(1.00, 0.00, -0.00, -1.00, 245.8, 851.0)">l</text><text xml:space="preserve" font-family="HelveticaNeue-Bold" font-weight="bold" font-size="61.0" fill="#FEFFFF" transform="matrix(1.00, 0.00, -0.00, -1.00, 261.6, 851.0)">o</text><text xml:space="preserve" font-family="Helvetica-LightOblique" font-style="italic" font-size="50.0" fill="#FEFFFF" transform="matrix(1.00, 0.00, -0.00, -1.00, 778.0, 722.0)">S</text><text xml:space="preserve" font-family="Helvetica-LightOblique" font-style="italic" font-size="50.0" fill="#FEFFFF" transform="matrix(1.00, 0.00, -0.00, -1.00, 808.5, 722.0)">a</text><text xml:space="preserve" font-family="Helvetica-LightOblique" font-style="italic" font-size="50.0" fill="#FEFFFF" transform="matrix(1.00, 0.00, -0.00, -1.00, 836.4, 722.0)">í</text><text xml:space="preserve" font-family="Helvetica-LightOblique" font-style="italic" font-size="50.0" fill="#FEFFFF" transform="matrix(1.00, 0.00, -0.00, -1.00, 847.5, 722.0)">d</text><text xml:space="preserve" font-family="Helvetica-LightOblique" font-style="italic" font-size="50.0" fill="#FEFFFF" transform="matrix(1.00, 0.00, -0.00, -1.00, 878.0, 722.0)">a</text><text xml:space="preserve" font-family="Helvetica-LightOblique" font-style="italic" font-size="50.0" fill="#FEFFFF" transform="matrix(1.00, 0.00, -0.00, -1.00, 905.8, 722.0)"> </text><text xml:space="preserve" font-family="Helvetica-Bold" font-weight="bold" font-size="50.0" fill="#FEFFFF" transform="matrix(1.00, 0.00, -0.00, -1.00, 763.0, 605.0)">6</text><text xml:space="preserve" font-family="Helvetica-Bold" font-weight="bold" font-size="50.0" fill="#FEFFFF" transform="matrix(1.00, 0.00, -0.00, -1.00, 790.8, 605.0)"> </text><text xml:space="preserve" font-family="Helvetica-Bold" font-weight="bold" font-size="50.0" fill="#FEFFFF" transform="matrix(1.00, 0.00, -0.00, -1.00, 804.7, 605.0)">&lt;</text><text xml:space="preserve" font-family="Helvetica-Bold" font-weight="bold" font-size="50.0" fill="#FEFFFF" transform="matrix(1.00, 0.00, -0.00, -1.00, 833.9, 605.0)">-</text><text xml:space="preserve" font-family="Helvetica-Bold" font-weight="bold" font-size="50.0" fill="#FEFFFF" transform="matrix(1.00, 0.00, -0.00, -1.00, 850.5, 605.0)">&gt;</text><text xml:space="preserve" font-family="Helvetica-Bold" font-weight="bold" font-size="50.0" fill="#FEFFFF" transform="matrix(1.00, 0.00, -0.00, -1.00, 879.7, 605.0)"> </text><text xml:space="preserve" font-family="Helvetica-Bold" font-weight="bold" font-size="50.0" fill="#FEFFFF" transform="matrix(1.00, 0.00, -0.00, -1.00, 893.6, 605.0)">7</text><text xml:space="preserve" font-family="Helvetica-Bold" font-weight="bold" font-size="50.0" fill="#FEFFFF" transform="matrix(1.00, 0.00, -0.00, -1.00, 763.0, 545.0)">5</text><text xml:space="preserve" font-family="Helvetica-Bold" font-weight="bold" font-size="50.0" fill="#FEFFFF" transform="matrix(1.00, 0.00, -0.00, -1.00, 790.8, 545.0)"> </text><text xml:space="preserve" font-family="Helvetica-Bold" font-weight="bold" font-size="50.0" fill="#FEFFFF" transform="matrix(1.00, 0.00, -0.00, -1.00, 804.7, 545.0)">&lt;</text><text xml:space="preserve" font-family="Helvetica-Bold" font-weight="bold" font-size="50.0" fill="#FEFFFF" transform="matrix(1.00, 0.00, -0.00, -1.00, 833.9, 545.0)">-</text><text xml:space="preserve" font-family="Helvetica-Bold" font-weight="bold" font-size="50.0" fill="#FEFFFF" transform="matrix(1.00, 0.00, -0.00, -1.00, 850.5, 545.0)">&gt;</text><text xml:space="preserve" font-family="Helvetica-Bold" font-weight="bold" font-size="50.0" fill="#FEFFFF" transform="matrix(1.00, 0.00, -0.00, -1.00, 879.7, 545.0)"> </text><text xml:space="preserve" font-family="Helvetica-Bold" font-weight="bold" font-size="50.0" fill="#FEFFFF" transform="matrix(1.00, 0.00, -0.00, -1.00, 893.6, 545.0)">6</text><text xml:space="preserve" font-family="Helvetica-Bold" font-weight="bold" font-size="50.0" fill="#FEFFFF" transform="matrix(1.00, 0.00, -0.00, -1.00, 763.0, 485.0)">4</text><text xml:space="preserve" font-family="Helvetica-Bold" font-weight="bold" font-size="50.0" fill="#FEFFFF" transform="matrix(1.00, 0.00, -0.00, -1.00, 790.8, 485.0)"> </text><text xml:space="preserve" font-family="Helvetica-Bold" font-weight="bold" font-size="50.0" fill="#FEFFFF" transform="matrix(1.00, 0.00, -0.00, -1.00, 804.7, 485.0)">&lt;</text><text xml:space="preserve" font-family="Helvetica-Bold" font-weight="bold" font-size="50.0" fill="#FEFFFF" transform="matrix(1.00, 0.00, -0.00, -1.00, 833.9, 485.0)">-</text><text xml:space="preserve" font-family="Helvetica-Bold" font-weight="bold" font-size="50.0" fill="#FEFFFF" transform="matrix(1.00, 0.00, -0.00, -1.00, 850.5, 485.0)">&gt;</text><text xml:space="preserve" font-family="Helvetica-Bold" font-weight="bold" font-size="50.0" fill="#FEFFFF" transform="matrix(1.00, 0.00, -0.00, -1.00, 879.7, 485.0)"> </text><text xml:space="preserve" font-family="Helvetica-Bold" font-weight="bold" font-size="50.0" fill="#FEFFFF" transform="matrix(1.00, 0.00, -0.00, -1.00, 893.6, 485.0)">5</text><text xml:space="preserve" font-family="Helvetica-Bold" font-weight="bold" font-size="50.0" fill="#FEFFFF" transform="matrix(1.00, 0.00, -0.00, -1.00, 763.0, 425.0)">3</text><text xml:space="preserve" font-family="Helvetica-Bold" font-weight="bold" font-size="50.0" fill="#FEFFFF" transform="matrix(1.00, 0.00, -0.00, -1.00, 790.8, 425.0)"> </text><text xml:space="preserve" font-family="Helvetica-Bold" font-weight="bold" font-size="50.0" fill="#FEFFFF" transform="matrix(1.00, 0.00, -0.00, -1.00, 804.7, 425.0)">&lt;</text><text xml:space="preserve" font-family="Helvetica-Bold" font-weight="bold" font-size="50.0" fill="#FEFFFF" transform="matrix(1.00, 0.00, -0.00, -1.00, 833.9, 425.0)">-</text><text xml:space="preserve" font-family="Helvetica-Bold" font-weight="bold" font-size="50.0" fill="#FEFFFF" transform="matrix(1.00, 0.00, -0.00, -1.00, 850.5, 425.0)">&gt;</text><text xml:space="preserve" font-family="Helvetica-Bold" font-weight="bold" font-size="50.0" fill="#FEFFFF" transform="matrix(1.00, 0.00, -0.00, -1.00, 879.7, 425.0)"> </text><text xml:space="preserve" font-family="Helvetica-Bold" font-weight="bold" font-size="50.0" fill="#FEFFFF" transform="matrix(1.00, 0.00, -0.00, -1.00, 893.6, 425.0)">5</text><text xml:space="preserve" font-family="Helvetica-Bold" font-weight="bold" font-size="50.0" fill="#FEFFFF" transform="matrix(1.00, 0.00, -0.00, -1.00, 763.0, 365.0)">2</text><text xml:space="preserve" font-family="Helvetica-Bold" font-weight="bold" font-size="50.0" fill="#FEFFFF" transform="matrix(1.00, 0.00, -0.00, -1.00, 790.8, 365.0)"> </text><text xml:space="preserve" font-family="Helvetica-Bold" font-weight="bold" font-size="50.0" fill="#FEFFFF" transform="matrix(1.00, 0.00, -0.00, -1.00, 804.7, 365.0)">&lt;</text><text xml:space="preserve" font-family="Helvetica-Bold" font-weight="bold" font-size="50.0" fill="#FEFFFF" transform="matrix(1.00, 0.00, -0.00, -1.00, 833.9, 365.0)">-</text><text xml:space="preserve" font-family="Helvetica-Bold" font-weight="bold" font-size="50.0" fill="#FEFFFF" transform="matrix(1.00, 0.00, -0.00, -1.00, 850.5, 365.0)">&gt;</text><text xml:space="preserve" font-family="Helvetica-Bold" font-weight="bold" font-size="50.0" fill="#FEFFFF" transform="matrix(1.00, 0.00, -0.00, -1.00, 879.7, 365.0)"> </text><text xml:space="preserve" font-family="Helvetica-Bold" font-weight="bold" font-size="50.0" fill="#FEFFFF" transform="matrix(1.00, 0.00, -0.00, -1.00, 893.6, 365.0)">4</text><text xml:space="preserve" font-family="Helvetica-Bold" font-weight="bold" font-size="50.0" fill="#FEFFFF" transform="matrix(1.00, 0.00, -0.00, -1.00, 763.0, 305.0)">2</text><text xml:space="preserve" font-family="Helvetica-Bold" font-weight="bold" font-size="50.0" fill="#FEFFFF" transform="matrix(1.00, 0.00, -0.00, -1.00, 790.8, 305.0)"> </text><text xml:space="preserve" font-family="Helvetica-Bold" font-weight="bold" font-size="50.0" fill="#FEFFFF" transform="matrix(1.00, 0.00, -0.00, -1.00, 804.7, 305.0)">&lt;</text><text xml:space="preserve" font-family="Helvetica-Bold" font-weight="bold" font-size="50.0" fill="#FEFFFF" transform="matrix(1.00, 0.00, -0.00, -1.00, 833.9, 305.0)">-</text><text xml:space="preserve" font-family="Helvetica-Bold" font-weight="bold" font-size="50.0" fill="#FEFFFF" transform="matrix(1.00, 0.00, -0.00, -1.00, 850.5, 305.0)">&gt;</text><text xml:space="preserve" font-family="Helvetica-Bold" font-weight="bold" font-size="50.0" fill="#FEFFFF" transform="matrix(1.00, 0.00, -0.00, -1.00, 879.7, 305.0)"> </text><text xml:space="preserve" font-family="Helvetica-Bold" font-weight="bold" font-size="50.0" fill="#FEFFFF" transform="matrix(1.00, 0.00, -0.00, -1.00, 893.6, 305.0)">3</text><text xml:space="preserve" font-family="Helvetica-Bold" font-weight="bold" font-size="50.0" fill="#FEFFFF" transform="matrix(1.00, 0.00, -0.00, -1.00, 763.0, 245.0)">1</text><text xml:space="preserve" font-family="Helvetica-Bold" font-weight="bold" font-size="50.0" fill="#FEFFFF" transform="matrix(1.00, 0.00, -0.00, -1.00, 790.8, 245.0)"> </text><text xml:space="preserve" font-family="Helvetica-Bold" font-weight="bold" font-size="50.0" fill="#FEFFFF" transform="matrix(1.00, 0.00, -0.00, -1.00, 804.7, 245.0)">&lt;</text><text xml:space="preserve" font-family="Helvetica-Bold" font-weight="bold" font-size="50.0" fill="#FEFFFF" transform="matrix(1.00, 0.00, -0.00, -1.00, 833.9, 245.0)">-</text><text xml:space="preserve" font-family="Helvetica-Bold" font-weight="bold" font-size="50.0" fill="#FEFFFF" transform="matrix(1.00, 0.00, -0.00, -1.00, 850.5, 245.0)">&gt;</text><text xml:space="preserve" font-family="Helvetica-Bold" font-weight="bold" font-size="50.0" fill="#FEFFFF" transform="matrix(1.00, 0.00, -0.00, -1.00, 879.7, 245.0)"> </text><text xml:space="preserve" font-family="Helvetica-Bold" font-weight="bold" font-size="50.0" fill="#FEFFFF" transform="matrix(1.00, 0.00, -0.00, -1.00, 893.6, 245.0)">3</text><text xml:space="preserve" font-family="Helvetica-Bold" font-weight="bold" font-size="50.0" fill="#FEFFFF" transform="matrix(1.00, 0.00, -0.00, -1.00, 763.0, 185.0)">1</text><text xml:space="preserve" font-family="Helvetica-Bold" font-weight="bold" font-size="50.0" fill="#FEFFFF" transform="matrix(1.00, 0.00, -0.00, -1.00, 790.8, 185.0)"> </text><text xml:space="preserve" font-family="Helvetica-Bold" font-weight="bold" font-size="50.0" fill="#FEFFFF" transform="matrix(1.00, 0.00, -0.00, -1.00, 804.7, 185.0)">&lt;</text><text xml:space="preserve" font-family="Helvetica-Bold" font-weight="bold" font-size="50.0" fill="#FEFFFF" transform="matrix(1.00, 0.00, -0.00, -1.00, 833.9, 185.0)">-</text><text xml:space="preserve" font-family="Helvetica-Bold" font-weight="bold" font-size="50.0" fill="#FEFFFF" transform="matrix(1.00, 0.00, -0.00, -1.00, 850.5, 185.0)">&gt;</text><text xml:space="preserve" font-family="Helvetica-Bold" font-weight="bold" font-size="50.0" fill="#FEFFFF" transform="matrix(1.00, 0.00, -0.00, -1.00, 879.7, 185.0)"> </text><text xml:space="preserve" font-family="Helvetica-Bold" font-weight="bold" font-size="50.0" fill="#FEFFFF" transform="matrix(1.00, 0.00, -0.00, -1.00, 893.6, 185.0)">2</text><text xml:space="preserve" font-family="Helvetica-Bold" font-weight="bold" font-size="50.0" fill="#FEFFFF" transform="matrix(1.00, 0.00, -0.00, -1.00, 380.0, 615.0)">7</text><text xml:space="preserve" font-family="Helvetica-Bold" font-weight="bold" font-size="50.0" fill="#FEFFFF" transform="matrix(1.00, 0.00, -0.00, -1.00, 407.8, 615.0)"> </text><text xml:space="preserve" font-family="Helvetica-Bold" font-weight="bold" font-size="50.0" fill="#FEFFFF" transform="matrix(1.00, 0.00, -0.00, -1.00, 421.7, 615.0)">8</text><text xml:space="preserve" font-family="Helvetica-Bold" font-weight="bold" font-size="50.0" fill="#FEFFFF" transform="matrix(1.00, 0.00, -0.00, -1.00, 449.5, 615.0)"> </text><text xml:space="preserve" font-family="Helvetica-Bold" font-weight="bold" font-size="50.0" fill="#FEFFFF" transform="matrix(1.00, 0.00, -0.00, -1.00, 380.0, 555.0)">1</text><text xml:space="preserve" font-family="Helvetica-Bold" font-weight="bold" font-size="50.0" fill="#FEFFFF" transform="matrix(1.00, 0.00, -0.00, -1.00, 407.8, 555.0)"> </text><text xml:space="preserve" font-family="Helvetica-Bold" font-weight="bold" font-size="50.0" fill="#FEFFFF" transform="matrix(1.00, 0.00, -0.00, -1.00, 421.7, 555.0)">2</text><text xml:space="preserve" font-family="Helvetica-Bold" font-weight="bold" font-size="50.0" fill="#FEFFFF" transform="matrix(1.00, 0.00, -0.00, -1.00, 380.0, 495.0)">1</text><text xml:space="preserve" font-family="Helvetica-Bold" font-weight="bold" font-size="50.0" fill="#FEFFFF" transform="matrix(1.00, 0.00, -0.00, -1.00, 407.8, 495.0)"> </text><text xml:space="preserve" font-family="Helvetica-Bold" font-weight="bold" font-size="50.0" fill="#FEFFFF" transform="matrix(1.00, 0.00, -0.00, -1.00, 421.7, 495.0)">3</text><text xml:space="preserve" font-family="Helvetica-Bold" font-weight="bold" font-size="50.0" fill="#FEFFFF" transform="matrix(1.00, 0.00, -0.00, -1.00, 380.0, 435.0)">2</text><text xml:space="preserve" font-family="Helvetica-Bold" font-weight="bold" font-size="50.0" fill="#FEFFFF" transform="matrix(1.00, 0.00, -0.00, -1.00, 407.8, 435.0)"> </text><text xml:space="preserve" font-family="Helvetica-Bold" font-weight="bold" font-size="50.0" fill="#FEFFFF" transform="matrix(1.00, 0.00, -0.00, -1.00, 421.7, 435.0)">3</text><text xml:space="preserve" font-family="Helvetica-Bold" font-weight="bold" font-size="50.0" fill="#FEFFFF" transform="matrix(1.00, 0.00, -0.00, -1.00, 380.0, 375.0)">2</text><text xml:space="preserve" font-family="Helvetica-Bold" font-weight="bold" font-size="50.0" fill="#FEFFFF" transform="matrix(1.00, 0.00, -0.00, -1.00, 407.8, 375.0)"> </text><text xml:space="preserve" font-family="Helvetica-Bold" font-weight="bold" font-size="50.0" fill="#FEFFFF" transform="matrix(1.00, 0.00, -0.00, -1.00, 421.7, 375.0)">4</text><text xml:space="preserve" font-family="Helvetica-Bold" font-weight="bold" font-size="50.0" fill="#FEFFFF" transform="matrix(1.00, 0.00, -0.00, -1.00, 380.0, 315.0)">3</text><text xml:space="preserve" font-family="Helvetica-Bold" font-weight="bold" font-size="50.0" fill="#FEFFFF" transform="matrix(1.00, 0.00, -0.00, -1.00, 407.8, 315.0)"> </text><text xml:space="preserve" font-family="Helvetica-Bold" font-weight="bold" font-size="50.0" fill="#FEFFFF" transform="matrix(1.00, 0.00, -0.00, -1.00, 421.7, 315.0)">5</text><text xml:space="preserve" font-family="Helvetica-Bold" font-weight="bold" font-size="50.0" fill="#FEFFFF" transform="matrix(1.00, 0.00, -0.00, -1.00, 380.0, 255.0)">4</text><text xml:space="preserve" font-family="Helvetica-Bold" font-weight="bold" font-size="50.0" fill="#FEFFFF" transform="matrix(1.00, 0.00, -0.00, -1.00, 407.8, 255.0)"> </text><text xml:space="preserve" font-family="Helvetica-Bold" font-weight="bold" font-size="50.0" fill="#FEFFFF" transform="matrix(1.00, 0.00, -0.00, -1.00, 421.7, 255.0)">5</text><text xml:space="preserve" font-family="Helvetica-Bold" font-weight="bold" font-size="50.0" fill="#FEFFFF" transform="matrix(1.00, 0.00, -0.00, -1.00, 380.0, 195.0)">5</text><text xml:space="preserve" font-family="Helvetica-Bold" font-weight="bold" font-size="50.0" fill="#FEFFFF" transform="matrix(1.00, 0.00, -0.00, -1.00, 407.8, 195.0)"> </text><text xml:space="preserve" font-family="Helvetica-Bold" font-weight="bold" font-size="50.0" fill="#FEFFFF" transform="matrix(1.00, 0.00, -0.00, -1.00, 421.7, 195.0)">6</text><text xml:space="preserve" font-family="Helvetica-Bold" font-weight="bold" font-size="50.0" fill="#FEFFFF" transform="matrix(1.00, 0.00, -0.00, -1.00, 380.0, 135.0)">6</text><text xml:space="preserve" font-family="Helvetica-Bold" font-weight="bold" font-size="50.0" fill="#FEFFFF" transform="matrix(1.00, 0.00, -0.00, -1.00, 407.8, 135.0)"> </text><text xml:space="preserve" font-family="Helvetica-Bold" font-weight="bold" font-size="50.0" fill="#FEFFFF" transform="matrix(1.00, 0.00, -0.00, -1.00, 421.7, 135.0)">7</text></g></svg>