<?xml version="1.0" encoding="UTF-8" standalone="no"?><svg xmlns="http://www.w3.org/2000/svg" xmlns:xlink="http://www.w3.org/1999/xlink" clip-rule="evenodd" stroke-miterlimit="4.00" viewBox="0 0 1920 1080"><desc>SVG generated by Keynote</desc><defs></defs><g transform="matrix(1.00, 0.00, -0.00, -1.00, 0.0, 1080.0)"><path d="M 0.0 1080.0 L 1920.0 1080.0 L 1920.0 0.0 L 0.0 0.0 Z M 0.0 1080.0 " fill="#009DFF"></path><text xml:space="preserve" font-family="Helvetica-Bold" font-weight="bold" font-size="36.0" fill="#FEFFFF" transform="matrix(1.00, 0.00, -0.00, -1.00, 1789.0, 46.0)">1</text><g opacity="0.15"><g><clipPath id="clip-0"><path d="M 661.0 0.0 L 1920.0 0.0 L 1920.0 1080.0 L 661.0 1080.0 Z M 661.0 0.0 "></path></clipPath><g clip-path="url(#clip-0)"><image xlink:href="87ABFF0ACED01E62478C9A9C0E1733CE.png" width="539.00" height="540.00" transform="matrix(0.38, -2.21, -2.21, -0.38, 1857.0, 1255.0)"></image></g></g></g><g opacity="0.15"><g><clipPath id="clip-1"><path d="M 0.0 0.0 L 752.0 0.0 L 752.0 1080.0 L 0.0 1080.0 Z M 0.0 0.0 "></path></clipPath><g clip-path="url(#clip-1)"><image xlink:href="../../615F7CD4-E262-41F7-8138-806EC6AB1FAB/assets/87ABFF0ACED01E62478C9A9C0E1733CE.png" width="539.00" height="540.00" transform="matrix(-2.14, 0.53, 0.53, 2.14, 463.8, -163.5)"></image></g></g></g><g><clipPath id="clip-2"><path d="M 636.8 349.4 L 1283.2 349.4 L 1283.2 516.2 L 636.8 516.2 Z M 636.8 349.4 "></path></clipPath><g clip-path="url(#clip-2)"><text xml:space="preserve" font-family="HelveticaNeue-Bold" font-weight="bold" font-size="134.8" fill="#FEFFFF" transform="matrix(1.00, 0.00, -0.00, -1.00, 678.0, 378.0)">G</text><text xml:space="preserve" font-family="HelveticaNeue-Bold" font-weight="bold" font-size="134.8" fill="#FEFFFF" transform="matrix(1.00, 0.00, -0.00, -1.00, 780.4, 378.0)">R</text><text xml:space="preserve" font-family="HelveticaNeue-Bold" font-weight="bold" font-size="134.8" fill="#FEFFFF" transform="matrix(1.00, 0.00, -0.00, -1.00, 877.7, 378.0)">A</text><text xml:space="preserve" font-family="HelveticaNeue-Bold" font-weight="bold" font-size="134.8" fill="#FEFFFF" transform="matrix(1.00, 0.00, -0.00, -1.00, 970.1, 378.0)">F</text><text xml:space="preserve" font-family="HelveticaNeue-Bold" font-weight="bold" font-size="134.8" fill="#FEFFFF" transform="matrix(1.00, 0.00, -0.00, -1.00, 1050.1, 378.0)">O</text><text xml:space="preserve" font-family="HelveticaNeue-Bold" font-weight="bold" font-size="134.8" fill="#FEFFFF" transform="matrix(1.00, 0.00, -0.00, -1.00, 1155.0, 378.0)">S</text><text xml:space="preserve" font-family="HelveticaNeue-Bold" font-weight="bold" font-size="134.8" fill="#FEFFFF" transform="matrix(1.00, 0.00, -0.00, -1.00, 1242.5, 378.0)"> </text></g></g><text xml:space="preserve" font-family="HelveticaNeue-Light" font-size="40.8" fill="#FEFFFF" transform="matrix(1.00, 0.00, -0.00, -1.00, 48.0, 974.0)">U</text><text xml:space="preserve" font-family="HelveticaNeue-Light" font-size="40.8" fill="#FEFFFF" transform="matrix(1.00, 0.00, -0.00, -1.00, 75.9, 974.0)">n</text><text xml:space="preserve" font-family="HelveticaNeue-Light" font-size="40.8" fill="#FEFFFF" transform="matrix(1.00, 0.00, -0.00, -1.00, 97.9, 974.0)">i</text><text xml:space="preserve" font-family="HelveticaNeue-Light" font-size="40.8" fill="#FEFFFF" transform="matrix(1.00, 0.00, -0.00, -1.00, 105.4, 974.0)">v</text><text xml:space="preserve" font-family="HelveticaNeue-Light" font-size="40.8" fill="#FEFFFF" transform="matrix(1.00, 0.00, -0.00, -1.00, 124.3, 974.0)">e</text><text xml:space="preserve" font-family="HelveticaNeue-Light" font-size="40.8" fill="#FEFFFF" transform="matrix(1.00, 0.00, -0.00, -1.00, 145.5, 974.0)">r</text><text xml:space="preserve" font-family="HelveticaNeue-Light" font-size="40.8" fill="#FEFFFF" transform="matrix(1.00, 0.00, -0.00, -1.00, 158.3, 974.0)">s</text><text xml:space="preserve" font-family="HelveticaNeue-Light" font-size="40.8" fill="#FEFFFF" transform="matrix(1.00, 0.00, -0.00, -1.00, 177.9, 974.0)">i</text><text xml:space="preserve" font-family="HelveticaNeue-Light" font-size="40.8" fill="#FEFFFF" transform="matrix(1.00, 0.00, -0.00, -1.00, 185.5, 974.0)">d</text><text xml:space="preserve" font-family="HelveticaNeue-Light" font-size="40.8" fill="#FEFFFF" transform="matrix(1.00, 0.00, -0.00, -1.00, 208.9, 974.0)">a</text><text xml:space="preserve" font-family="HelveticaNeue-Light" font-size="40.8" fill="#FEFFFF" transform="matrix(1.00, 0.00, -0.00, -1.00, 230.1, 974.0)">d</text><text xml:space="preserve" font-family="HelveticaNeue-Light" font-size="40.8" fill="#FEFFFF" transform="matrix(1.00, 0.00, -0.00, -1.00, 253.5, 974.0)">e</text><text xml:space="preserve" font-family="HelveticaNeue-Light" font-size="40.8" fill="#FEFFFF" transform="matrix(1.00, 0.00, -0.00, -1.00, 274.7, 974.0)"> </text><text xml:space="preserve" font-family="HelveticaNeue-Light" font-size="40.8" fill="#FEFFFF" transform="matrix(1.00, 0.00, -0.00, -1.00, 286.0, 974.0)">d</text><text xml:space="preserve" font-family="HelveticaNeue-Light" font-size="40.8" fill="#FEFFFF" transform="matrix(1.00, 0.00, -0.00, -1.00, 309.4, 974.0)">o</text><text xml:space="preserve" font-family="HelveticaNeue-Light" font-size="40.8" fill="#FEFFFF" transform="matrix(1.00, 0.00, -0.00, -1.00, 332.1, 974.0)"> </text><text xml:space="preserve" font-family="HelveticaNeue-Light" font-size="40.8" fill="#FEFFFF" transform="matrix(1.00, 0.00, -0.00, -1.00, 343.5, 974.0)">E</text><text xml:space="preserve" font-family="HelveticaNeue-Light" font-size="40.8" fill="#FEFFFF" transform="matrix(1.00, 0.00, -0.00, -1.00, 367.7, 974.0)">s</text><text xml:space="preserve" font-family="HelveticaNeue-Light" font-size="40.8" fill="#FEFFFF" transform="matrix(1.00, 0.00, -0.00, -1.00, 387.3, 974.0)">t</text><text xml:space="preserve" font-family="HelveticaNeue-Light" font-size="40.8" fill="#FEFFFF" transform="matrix(1.00, 0.00, -0.00, -1.00, 399.4, 974.0)">a</text><text xml:space="preserve" font-family="HelveticaNeue-Light" font-size="40.8" fill="#FEFFFF" transform="matrix(1.00, 0.00, -0.00, -1.00, 420.5, 974.0)">d</text><text xml:space="preserve" font-family="HelveticaNeue-Light" font-size="40.8" fill="#FEFFFF" transform="matrix(1.00, 0.00, -0.00, -1.00, 444.0, 974.0)">o</text><text xml:space="preserve" font-family="HelveticaNeue-Light" font-size="40.8" fill="#FEFFFF" transform="matrix(1.00, 0.00, -0.00, -1.00, 466.6, 974.0)"> </text><text xml:space="preserve" font-family="HelveticaNeue-Light" font-size="40.8" fill="#FEFFFF" transform="matrix(1.00, 0.00, -0.00, -1.00, 478.0, 974.0)">d</text><text xml:space="preserve" font-family="HelveticaNeue-Light" font-size="40.8" fill="#FEFFFF" transform="matrix(1.00, 0.00, -0.00, -1.00, 501.4, 974.0)">e</text><text xml:space="preserve" font-family="HelveticaNeue-Light" font-size="40.8" fill="#FEFFFF" transform="matrix(1.00, 0.00, -0.00, -1.00, 522.6, 974.0)"> </text><text xml:space="preserve" font-family="HelveticaNeue-Light" font-size="40.8" fill="#FEFFFF" transform="matrix(1.00, 0.00, -0.00, -1.00, 533.9, 974.0)">S</text><text xml:space="preserve" font-family="HelveticaNeue-Light" font-size="40.8" fill="#FEFFFF" transform="matrix(1.00, 0.00, -0.00, -1.00, 559.6, 974.0)">a</text><text xml:space="preserve" font-family="HelveticaNeue-Light" font-size="40.8" fill="#FEFFFF" transform="matrix(1.00, 0.00, -0.00, -1.00, 580.8, 974.0)">n</text><text xml:space="preserve" font-family="HelveticaNeue-Light" font-size="40.8" fill="#FEFFFF" transform="matrix(1.00, 0.00, -0.00, -1.00, 602.7, 974.0)">t</text><text xml:space="preserve" font-family="HelveticaNeue-Light" font-size="40.8" fill="#FEFFFF" transform="matrix(1.00, 0.00, -0.00, -1.00, 614.8, 974.0)">a</text><text xml:space="preserve" font-family="HelveticaNeue-Light" font-size="40.8" fill="#FEFFFF" transform="matrix(1.00, 0.00, -0.00, -1.00, 636.0, 974.0)"> </text><text xml:space="preserve" font-family="HelveticaNeue-Light" font-size="40.8" fill="#FEFFFF" transform="matrix(1.00, 0.00, -0.00, -1.00, 647.3, 974.0)">C</text><text xml:space="preserve" font-family="HelveticaNeue-Light" font-size="40.8" fill="#FEFFFF" transform="matrix(1.00, 0.00, -0.00, -1.00, 676.0, 974.0)">a</text><text xml:space="preserve" font-family="HelveticaNeue-Light" font-size="40.8" fill="#FEFFFF" transform="matrix(1.00, 0.00, -0.00, -1.00, 697.2, 974.0)">t</text><text xml:space="preserve" font-family="HelveticaNeue-Light" font-size="40.8" fill="#FEFFFF" transform="matrix(1.00, 0.00, -0.00, -1.00, 709.3, 974.0)">a</text><text xml:space="preserve" font-family="HelveticaNeue-Light" font-size="40.8" fill="#FEFFFF" transform="matrix(1.00, 0.00, -0.00, -1.00, 730.5, 974.0)">r</text><text xml:space="preserve" font-family="HelveticaNeue-Light" font-size="40.8" fill="#FEFFFF" transform="matrix(1.00, 0.00, -0.00, -1.00, 743.3, 974.0)">i</text><text xml:space="preserve" font-family="HelveticaNeue-Light" font-size="40.8" fill="#FEFFFF" transform="matrix(1.00, 0.00, -0.00, -1.00, 750.9, 974.0)">n</text><text xml:space="preserve" font-family="HelveticaNeue-Light" font-size="40.8" fill="#FEFFFF" transform="matrix(1.00, 0.00, -0.00, -1.00, 772.8, 974.0)">a</text><text xml:space="preserve" font-family="HelveticaNeue-Light" font-size="40.8" fill="#FEFFFF" transform="matrix(1.00, 0.00, -0.00, -1.00, 793.9, 974.0)"> </text><text xml:space="preserve" font-family="HelveticaNeue-Light" font-size="40.8" fill="#FEFFFF" transform="matrix(1.00, 0.00, -0.00, -1.00, 48.0, 916.0)">E</text><text xml:space="preserve" font-family="HelveticaNeue-Light" font-size="40.8" fill="#FEFFFF" transform="matrix(1.00, 0.00, -0.00, -1.00, 72.2, 916.0)">s</text><text xml:space="preserve" font-family="HelveticaNeue-Light" font-size="40.8" fill="#FEFFFF" transform="matrix(1.00, 0.00, -0.00, -1.00, 91.8, 916.0)">t</text><text xml:space="preserve" font-family="HelveticaNeue-Light" font-size="40.8" fill="#FEFFFF" transform="matrix(1.00, 0.00, -0.00, -1.00, 103.9, 916.0)">u</text><text xml:space="preserve" font-family="HelveticaNeue-Light" font-size="40.8" fill="#FEFFFF" transform="matrix(1.00, 0.00, -0.00, -1.00, 125.8, 916.0)">d</text><text xml:space="preserve" font-family="HelveticaNeue-Light" font-size="40.8" fill="#FEFFFF" transform="matrix(1.00, 0.00, -0.00, -1.00, 149.2, 916.0)">a</text><text xml:space="preserve" font-family="HelveticaNeue-Light" font-size="40.8" fill="#FEFFFF" transform="matrix(1.00, 0.00, -0.00, -1.00, 170.4, 916.0)">n</text><text xml:space="preserve" font-family="HelveticaNeue-Light" font-size="40.8" fill="#FEFFFF" transform="matrix(1.00, 0.00, -0.00, -1.00, 192.3, 916.0)">t</text><text xml:space="preserve" font-family="HelveticaNeue-Light" font-size="40.8" fill="#FEFFFF" transform="matrix(1.00, 0.00, -0.00, -1.00, 204.4, 916.0)">e</text><text xml:space="preserve" font-family="HelveticaNeue-Light" font-size="40.8" fill="#FEFFFF" transform="matrix(1.00, 0.00, -0.00, -1.00, 225.6, 916.0)">:</text><text xml:space="preserve" font-family="HelveticaNeue-Light" font-size="40.8" fill="#FEFFFF" transform="matrix(1.00, 0.00, -0.00, -1.00, 236.9, 916.0)"> </text><text xml:space="preserve" font-family="HelveticaNeue-Light" font-size="40.8" fill="#FEFFFF" transform="matrix(1.00, 0.00, -0.00, -1.00, 248.2, 916.0)">G</text><text xml:space="preserve" font-family="HelveticaNeue-Light" font-size="40.8" fill="#FEFFFF" transform="matrix(1.00, 0.00, -0.00, -1.00, 278.5, 916.0)">u</text><text xml:space="preserve" font-family="HelveticaNeue-Light" font-size="40.8" fill="#FEFFFF" transform="matrix(1.00, 0.00, -0.00, -1.00, 300.4, 916.0)">i</text><text xml:space="preserve" font-family="HelveticaNeue-Light" font-size="40.8" fill="#FEFFFF" transform="matrix(1.00, 0.00, -0.00, -1.00, 307.9, 916.0)">l</text><text xml:space="preserve" font-family="HelveticaNeue-Light" font-size="40.8" fill="#FEFFFF" transform="matrix(1.00, 0.00, -0.00, -1.00, 315.5, 916.0)">h</text><text xml:space="preserve" font-family="HelveticaNeue-Light" font-size="40.8" fill="#FEFFFF" transform="matrix(1.00, 0.00, -0.00, -1.00, 337.4, 916.0)">e</text><text xml:space="preserve" font-family="HelveticaNeue-Light" font-size="40.8" fill="#FEFFFF" transform="matrix(1.00, 0.00, -0.00, -1.00, 358.6, 916.0)">r</text><text xml:space="preserve" font-family="HelveticaNeue-Light" font-size="40.8" fill="#FEFFFF" transform="matrix(1.00, 0.00, -0.00, -1.00, 371.4, 916.0)">m</text><text xml:space="preserve" font-family="HelveticaNeue-Light" font-size="40.8" fill="#FEFFFF" transform="matrix(1.00, 0.00, -0.00, -1.00, 405.4, 916.0)">e</text><text xml:space="preserve" font-family="HelveticaNeue-Light" font-size="40.8" fill="#FEFFFF" transform="matrix(1.00, 0.00, -0.00, -1.00, 426.6, 916.0)"> </text><text xml:space="preserve" font-family="HelveticaNeue-Light" font-size="40.8" fill="#FEFFFF" transform="matrix(1.00, 0.00, -0.00, -1.00, 437.9, 916.0)">P</text><text xml:space="preserve" font-family="HelveticaNeue-Light" font-size="40.8" fill="#FEFFFF" transform="matrix(1.00, 0.00, -0.00, -1.00, 463.6, 916.0)">a</text><text xml:space="preserve" font-family="HelveticaNeue-Light" font-size="40.8" fill="#FEFFFF" transform="matrix(1.00, 0.00, -0.00, -1.00, 484.8, 916.0)">n</text><text xml:space="preserve" font-family="HelveticaNeue-Light" font-size="40.8" fill="#FEFFFF" transform="matrix(1.00, 0.00, -0.00, -1.00, 506.7, 916.0)">i</text><text xml:space="preserve" font-family="HelveticaNeue-Light" font-size="40.8" fill="#FEFFFF" transform="matrix(1.00, 0.00, -0.00, -1.00, 514.3, 916.0)">z</text><text xml:space="preserve" font-family="HelveticaNeue-Light" font-size="40.8" fill="#FEFFFF" transform="matrix(1.00, 0.00, -0.00, -1.00, 533.2, 916.0)">z</text><text xml:space="preserve" font-family="HelveticaNeue-Light" font-size="40.8" fill="#FEFFFF" transform="matrix(1.00, 0.00, -0.00, -1.00, 552.0, 916.0)">o</text><text xml:space="preserve" font-family="HelveticaNeue-Light" font-size="40.8" fill="#FEFFFF" transform="matrix(1.00, 0.00, -0.00, -1.00, 574.7, 916.0)">n</text><text xml:space="preserve" font-family="HelveticaNeue-Light" font-size="40.8" fill="#FEFFFF" transform="matrix(1.00, 0.00, -0.00, -1.00, 596.6, 916.0)"> </text><g><clipPath id="clip-3"><path d="M 35.8 848.7 L 1098.6 848.7 L 1098.6 1058.5 L 35.8 1058.5 Z M 35.8 848.7 "></path></clipPath><g clip-path="url(#clip-3)"><text xml:space="preserve" font-family="HelveticaNeue-Light" font-size="40.8" fill="#FEFFFF" transform="matrix(1.00, 0.00, -0.00, -1.00, 48.0, 857.0)">D</text><text xml:space="preserve" font-family="HelveticaNeue-Light" font-size="40.8" fill="#FEFFFF" transform="matrix(1.00, 0.00, -0.00, -1.00, 75.9, 857.0)">i</text><text xml:space="preserve" font-family="HelveticaNeue-Light" font-size="40.8" fill="#FEFFFF" transform="matrix(1.00, 0.00, -0.00, -1.00, 83.5, 857.0)">s</text><text xml:space="preserve" font-family="HelveticaNeue-Light" font-size="40.8" fill="#FEFFFF" transform="matrix(1.00, 0.00, -0.00, -1.00, 103.1, 857.0)">c</text><text xml:space="preserve" font-family="HelveticaNeue-Light" font-size="40.8" fill="#FEFFFF" transform="matrix(1.00, 0.00, -0.00, -1.00, 124.3, 857.0)">i</text><text xml:space="preserve" font-family="HelveticaNeue-Light" font-size="40.8" fill="#FEFFFF" transform="matrix(1.00, 0.00, -0.00, -1.00, 131.8, 857.0)">p</text><text xml:space="preserve" font-family="HelveticaNeue-Light" font-size="40.8" fill="#FEFFFF" transform="matrix(1.00, 0.00, -0.00, -1.00, 155.3, 857.0)">l</text><text xml:space="preserve" font-family="HelveticaNeue-Light" font-size="40.8" fill="#FEFFFF" transform="matrix(1.00, 0.00, -0.00, -1.00, 162.8, 857.0)">i</text><text xml:space="preserve" font-family="HelveticaNeue-Light" font-size="40.8" fill="#FEFFFF" transform="matrix(1.00, 0.00, -0.00, -1.00, 170.4, 857.0)">n</text><text xml:space="preserve" font-family="HelveticaNeue-Light" font-size="40.8" fill="#FEFFFF" transform="matrix(1.00, 0.00, -0.00, -1.00, 192.3, 857.0)">a</text><text xml:space="preserve" font-family="HelveticaNeue-Light" font-size="40.8" fill="#FEFFFF" transform="matrix(1.00, 0.00, -0.00, -1.00, 213.4, 857.0)">:</text><text xml:space="preserve" font-family="HelveticaNeue-Light" font-size="40.8" fill="#FEFFFF" transform="matrix(1.00, 0.00, -0.00, -1.00, 224.8, 857.0)"> </text><text xml:space="preserve" font-family="HelveticaNeue-Light" font-size="40.8" fill="#FEFFFF" transform="matrix(1.00, 0.00, -0.00, -1.00, 236.1, 857.0)">O</text><text xml:space="preserve" font-family="HelveticaNeue-Light" font-size="40.8" fill="#FEFFFF" transform="matrix(1.00, 0.00, -0.00, -1.00, 266.4, 857.0)">T</text><text xml:space="preserve" font-family="HelveticaNeue-Light" font-size="40.8" fill="#FEFFFF" transform="matrix(1.00, 0.00, -0.00, -1.00, 289.0, 857.0)">P</text><text xml:space="preserve" font-family="HelveticaNeue-Light" font-size="40.8" fill="#FEFFFF" transform="matrix(1.00, 0.00, -0.00, -1.00, 311.7, 857.0)">A</text><text xml:space="preserve" font-family="HelveticaNeue-Light" font-size="40.8" fill="#FEFFFF" transform="matrix(1.00, 0.00, -0.00, -1.00, 337.4, 857.0)">0</text><text xml:space="preserve" font-family="HelveticaNeue-Light" font-size="40.8" fill="#FEFFFF" transform="matrix(1.00, 0.00, -0.00, -1.00, 360.1, 857.0)">0</text><text xml:space="preserve" font-family="HelveticaNeue-Light" font-size="40.8" fill="#FEFFFF" transform="matrix(1.00, 0.00, -0.00, -1.00, 382.8, 857.0)">0</text><text xml:space="preserve" font-family="HelveticaNeue-Light" font-size="40.8" fill="#FEFFFF" transform="matrix(1.00, 0.00, -0.00, -1.00, 405.5, 857.0)">1</text><text xml:space="preserve" font-family="HelveticaNeue-Light" font-size="40.8" fill="#FEFFFF" transform="matrix(1.00, 0.00, -0.00, -1.00, 428.2, 857.0)"> </text></g></g><image xlink:href="60C531062C8CD1A62174B6BC23FDA316.png" width="193.00" height="221.00" transform="matrix(1.00, 0.00, -0.00, -1.00, 864.0, 723.0)"></image></g></svg>