<?xml version="1.0" encoding="UTF-8" standalone="no"?><svg xmlns="http://www.w3.org/2000/svg" xmlns:xlink="http://www.w3.org/1999/xlink" clip-rule="evenodd" stroke-miterlimit="4.00" viewBox="0 0 1920 1080"><desc>SVG generated by Keynote</desc><defs></defs><g transform="matrix(1.00, 0.00, -0.00, -1.00, 0.0, 1080.0)"><path d="M 0.0 1080.0 L 1920.0 1080.0 L 1920.0 0.0 L 0.0 0.0 Z M 0.0 1080.0 " fill="#009DFF"></path><text xml:space="preserve" font-family="Helvetica-Bold" font-weight="bold" font-size="36.0" fill="#FEFFFF" transform="matrix(1.00, 0.00, -0.00, -1.00, 1789.0, 46.0)">9</text><g opacity="0.15"><g><clipPath id="clip-334"><path d="M 661.0 0.0 L 1920.0 0.0 L 1920.0 1080.0 L 661.0 1080.0 Z M 661.0 0.0 "></path></clipPath><g clip-path="url(#clip-334)"><image xlink:href="../../615F7CD4-E262-41F7-8138-806EC6AB1FAB/assets/87ABFF0ACED01E62478C9A9C0E1733CE.png" width="539.00" height="540.00" transform="matrix(0.38, -2.21, -2.21, -0.38, 1857.0, 1255.0)"></image></g></g></g><g opacity="0.15"><g><clipPath id="clip-335"><path d="M 0.0 0.0 L 752.0 0.0 L 752.0 1080.0 L 0.0 1080.0 Z M 0.0 0.0 "></path></clipPath><g clip-path="url(#clip-335)"><image xlink:href="../../615F7CD4-E262-41F7-8138-806EC6AB1FAB/assets/87ABFF0ACED01E62478C9A9C0E1733CE.png" width="539.00" height="540.00" transform="matrix(-2.14, 0.53, 0.53, 2.14, 463.8, -163.5)"></image></g></g></g><g><clipPath id="clip-336"><path d="M 1411.1 708.2 L 1486.3 708.2 L 1486.3 783.4 L 1411.1 783.4 Z M 1411.1 708.2 "></path></clipPath><g clip-path="url(#clip-336)"><path d="M 1474.6 771.6 C 1488.8 757.3 1488.8 734.2 1474.6 719.9 C 1460.3 705.6 1437.1 705.6 1422.8 719.9 C 1408.5 734.2 1408.5 757.3 1422.8 771.6 C 1437.1 785.9 1460.3 785.9 1474.6 771.6 Z M 1474.6 771.6 " fill="#FEFFFF"></path></g></g><g><clipPath id="clip-337"><path d="M 1412.1 709.2 L 1485.3 709.2 L 1485.3 782.4 L 1412.1 782.4 Z M 1412.1 709.2 "></path></clipPath><g clip-path="url(#clip-337)"><text xml:space="preserve" font-family="Helvetica-Bold" font-weight="bold" font-size="40.0" fill="#51A7F9" transform="matrix(1.00, 0.00, -0.00, -1.00, 1438.0, 731.0)">1</text></g></g><g><clipPath id="clip-338"><path d="M 1540.8 845.1 L 1616.0 845.1 L 1616.0 920.3 L 1540.8 920.3 Z M 1540.8 845.1 "></path></clipPath><g clip-path="url(#clip-338)"><path d="M 1604.3 908.6 C 1618.6 894.3 1618.6 871.1 1604.3 856.8 C 1590.0 842.6 1566.8 842.6 1552.6 856.8 C 1538.3 871.1 1538.3 894.3 1552.6 908.6 C 1566.8 922.9 1590.0 922.9 1604.3 908.6 Z M 1604.3 908.6 " fill="#FEFFFF"></path></g></g><g><clipPath id="clip-339"><path d="M 1541.8 846.1 L 1615.0 846.1 L 1615.0 919.3 L 1541.8 919.3 Z M 1541.8 846.1 "></path></clipPath><g clip-path="url(#clip-339)"><text xml:space="preserve" font-family="Helvetica-Bold" font-weight="bold" font-size="40.0" fill="#51A7F9" transform="matrix(1.00, 0.00, -0.00, -1.00, 1567.0, 868.0)">3</text></g></g><g><clipPath id="clip-340"><path d="M 1281.3 845.1 L 1356.5 845.1 L 1356.5 920.3 L 1281.3 920.3 Z M 1281.3 845.1 "></path></clipPath><g clip-path="url(#clip-340)"><path d="M 1344.8 908.6 C 1359.1 894.3 1359.1 871.1 1344.8 856.8 C 1330.5 842.6 1307.3 842.6 1293.0 856.8 C 1278.8 871.1 1278.8 894.3 1293.0 908.6 C 1307.3 922.9 1330.5 922.9 1344.8 908.6 Z M 1344.8 908.6 " fill="#FEFFFF"></path></g></g><g><clipPath id="clip-341"><path d="M 1282.3 846.1 L 1355.5 846.1 L 1355.5 919.3 L 1282.3 919.3 Z M 1282.3 846.1 "></path></clipPath><g clip-path="url(#clip-341)"><text xml:space="preserve" font-family="Helvetica-Bold" font-weight="bold" font-size="40.0" fill="#51A7F9" transform="matrix(1.00, 0.00, -0.00, -1.00, 1308.0, 868.0)">2</text></g></g><g><clipPath id="clip-342"><path d="M 1281.3 974.1 L 1356.5 974.1 L 1356.5 1049.3 L 1281.3 1049.3 Z M 1281.3 974.1 "></path></clipPath><g clip-path="url(#clip-342)"><path d="M 1344.8 1037.5 C 1359.1 1023.3 1359.1 1000.1 1344.8 985.8 C 1330.5 971.5 1307.3 971.5 1293.0 985.8 C 1278.8 1000.1 1278.8 1023.3 1293.0 1037.5 C 1307.3 1051.8 1330.5 1051.8 1344.8 1037.5 Z M 1344.8 1037.5 " fill="#FEFFFF"></path></g></g><g><clipPath id="clip-343"><path d="M 1282.3 975.1 L 1355.5 975.1 L 1355.5 1048.3 L 1282.3 1048.3 Z M 1282.3 975.1 "></path></clipPath><g clip-path="url(#clip-343)"><text xml:space="preserve" font-family="Helvetica-Bold" font-weight="bold" font-size="40.0" fill="#51A7F9" transform="matrix(1.00, 0.00, -0.00, -1.00, 1308.0, 997.0)">4</text></g></g><g><clipPath id="clip-344"><path d="M 1540.8 974.1 L 1616.0 974.1 L 1616.0 1049.3 L 1540.8 1049.3 Z M 1540.8 974.1 "></path></clipPath><g clip-path="url(#clip-344)"><path d="M 1604.3 1037.5 C 1618.6 1023.3 1618.6 1000.1 1604.3 985.8 C 1590.0 971.5 1566.8 971.5 1552.6 985.8 C 1538.3 1000.1 1538.3 1023.3 1552.6 1037.5 C 1566.8 1051.8 1590.0 1051.8 1604.3 1037.5 Z M 1604.3 1037.5 " fill="#FEFFFF"></path></g></g><g><clipPath id="clip-345"><path d="M 1541.8 975.1 L 1615.0 975.1 L 1615.0 1048.3 L 1541.8 1048.3 Z M 1541.8 975.1 "></path></clipPath><g clip-path="url(#clip-345)"><text xml:space="preserve" font-family="Helvetica-Bold" font-weight="bold" font-size="40.0" fill="#51A7F9" transform="matrix(1.00, 0.00, -0.00, -1.00, 1567.0, 997.0)">5</text></g></g><g><clipPath id="clip-346"><path d="M 1313.9 918.3 L 1323.9 918.3 L 1323.9 976.1 L 1313.9 976.1 Z M 1313.9 918.3 "></path></clipPath><g clip-path="url(#clip-346)"><path d="M 0.0 55.8 C 0.0 37.2 0.0 18.6 0.0 0.0 " fill="none" stroke="#FEFFFF" stroke-width="8.00" transform="matrix(1.00, 0.00, 0.00, -1.00, 1318.9, 975.1)"></path></g></g><g><clipPath id="clip-347"><path d="M 1354.5 1006.7 L 1542.8 1006.7 L 1542.8 1016.7 L 1354.5 1016.7 Z M 1354.5 1006.7 "></path></clipPath><g clip-path="url(#clip-347)"><path d="M 0.0 0.0 C 62.1 0.0 124.2 0.0 186.3 0.0 " fill="none" stroke="#FEFFFF" stroke-width="8.00" transform="matrix(1.00, 0.00, 0.00, -1.00, 1355.5, 1011.7)"></path></g></g><g><clipPath id="clip-348"><path d="M 1354.5 877.7 L 1542.8 877.7 L 1542.8 887.7 L 1354.5 887.7 Z M 1354.5 877.7 "></path></clipPath><g clip-path="url(#clip-348)"><path d="M 0.0 0.0 C 62.1 0.0 124.2 0.0 186.3 0.0 " fill="none" stroke="#FEFFFF" stroke-width="8.00" transform="matrix(1.00, 0.00, 0.00, -1.00, 1355.5, 882.7)"></path></g></g><g><clipPath id="clip-349"><path d="M 1573.4 918.3 L 1583.4 918.3 L 1583.4 976.1 L 1573.4 976.1 Z M 1573.4 918.3 "></path></clipPath><g clip-path="url(#clip-349)"><path d="M 0.0 55.8 C 0.0 37.2 0.0 18.6 0.0 0.0 " fill="none" stroke="#FEFFFF" stroke-width="8.00" transform="matrix(1.00, 0.00, 0.00, -1.00, 1578.4, 975.1)"></path></g></g><g><clipPath id="clip-350"><path d="M 1340.2 768.6 L 1427.4 768.6 L 1427.4 859.9 L 1340.2 859.9 Z M 1340.2 768.6 "></path></clipPath><g clip-path="url(#clip-350)"><path d="M 0.0 0.0 C 26.5 27.9 52.9 55.9 79.4 83.8 " fill="none" stroke="#FEFFFF" stroke-width="8.00" transform="matrix(1.00, 0.00, 0.00, -1.00, 1344.1, 856.2)"></path></g></g><g><clipPath id="clip-351"><path d="M 1469.9 768.6 L 1557.2 768.6 L 1557.2 859.9 L 1469.9 859.9 Z M 1469.9 768.6 "></path></clipPath><g clip-path="url(#clip-351)"><path d="M 0.0 83.8 C 26.5 55.9 52.9 27.9 79.4 0.0 " fill="none" stroke="#FEFFFF" stroke-width="8.00" transform="matrix(1.00, 0.00, 0.00, -1.00, 1473.8, 856.2)"></path></g></g><g><clipPath id="clip-352"><path d="M 1786.3 974.1 L 1861.5 974.1 L 1861.5 1049.3 L 1786.3 1049.3 Z M 1786.3 974.1 "></path></clipPath><g clip-path="url(#clip-352)"><path d="M 1849.8 1037.5 C 1864.0 1023.3 1864.0 1000.1 1849.8 985.8 C 1835.5 971.5 1812.3 971.5 1798.0 985.8 C 1783.7 1000.1 1783.7 1023.3 1798.0 1037.5 C 1812.3 1051.8 1835.5 1051.8 1849.8 1037.5 Z M 1849.8 1037.5 " fill="#FEFFFF"></path></g></g><g><clipPath id="clip-353"><path d="M 1787.3 975.1 L 1860.5 975.1 L 1860.5 1048.3 L 1787.3 1048.3 Z M 1787.3 975.1 "></path></clipPath><g clip-path="url(#clip-353)"><text xml:space="preserve" font-family="Helvetica-Bold" font-weight="bold" font-size="40.0" fill="#51A7F9" transform="matrix(1.00, 0.00, -0.00, -1.00, 1813.0, 997.0)">6</text></g></g><g><clipPath id="clip-354"><path d="M 1786.3 845.1 L 1861.5 845.1 L 1861.5 920.3 L 1786.3 920.3 Z M 1786.3 845.1 "></path></clipPath><g clip-path="url(#clip-354)"><path d="M 1849.8 908.6 C 1864.0 894.3 1864.0 871.1 1849.8 856.8 C 1835.5 842.6 1812.3 842.6 1798.0 856.8 C 1783.7 871.1 1783.7 894.3 1798.0 908.6 C 1812.3 922.9 1835.5 922.9 1849.8 908.6 Z M 1849.8 908.6 " fill="#FEFFFF"></path></g></g><g><clipPath id="clip-355"><path d="M 1787.3 846.1 L 1860.5 846.1 L 1860.5 919.3 L 1787.3 919.3 Z M 1787.3 846.1 "></path></clipPath><g clip-path="url(#clip-355)"><text xml:space="preserve" font-family="Helvetica-Bold" font-weight="bold" font-size="40.0" fill="#51A7F9" transform="matrix(1.00, 0.00, -0.00, -1.00, 1813.0, 868.0)">7</text></g></g><g><clipPath id="clip-356"><path d="M 1614.0 1006.7 L 1788.3 1006.7 L 1788.3 1016.7 L 1614.0 1016.7 Z M 1614.0 1006.7 "></path></clipPath><g clip-path="url(#clip-356)"><path d="M 0.0 0.0 C 57.4 0.0 114.8 0.0 172.3 0.0 " fill="none" stroke="#FEFFFF" stroke-width="8.00" transform="matrix(1.00, 0.00, 0.00, -1.00, 1615.0, 1011.7)"></path></g></g><g><clipPath id="clip-357"><path d="M 1818.9 918.3 L 1828.9 918.3 L 1828.9 976.1 L 1818.9 976.1 Z M 1818.9 918.3 "></path></clipPath><g clip-path="url(#clip-357)"><path d="M 0.0 55.8 C 0.0 37.2 0.0 18.6 0.0 0.0 " fill="none" stroke="#FEFFFF" stroke-width="8.00" transform="matrix(1.00, 0.00, 0.00, -1.00, 1823.9, 975.1)"></path></g></g><text xml:space="preserve" font-family="HelveticaNeue-Bold" font-weight="bold" font-size="87.7" fill="#FEFFFF" transform="matrix(1.00, 0.00, -0.00, -1.00, 45.0, 950.0)">M</text><text xml:space="preserve" font-family="HelveticaNeue-Bold" font-weight="bold" font-size="87.7" fill="#FEFFFF" transform="matrix(1.00, 0.00, -0.00, -1.00, 124.6, 950.0)">a</text><text xml:space="preserve" font-family="HelveticaNeue-Bold" font-weight="bold" font-size="87.7" fill="#FEFFFF" transform="matrix(1.00, 0.00, -0.00, -1.00, 174.9, 950.0)">t</text><text xml:space="preserve" font-family="HelveticaNeue-Bold" font-weight="bold" font-size="87.7" fill="#FEFFFF" transform="matrix(1.00, 0.00, -0.00, -1.00, 205.8, 950.0)">r</text><text xml:space="preserve" font-family="HelveticaNeue-Bold" font-weight="bold" font-size="87.7" fill="#FEFFFF" transform="matrix(1.00, 0.00, -0.00, -1.00, 239.9, 950.0)">i</text><text xml:space="preserve" font-family="HelveticaNeue-Bold" font-weight="bold" font-size="87.7" fill="#FEFFFF" transform="matrix(1.00, 0.00, -0.00, -1.00, 262.5, 950.0)">z</text><text xml:space="preserve" font-family="HelveticaNeue-Bold" font-weight="bold" font-size="87.7" fill="#FEFFFF" transform="matrix(1.00, 0.00, -0.00, -1.00, 308.1, 950.0)"> </text><text xml:space="preserve" font-family="HelveticaNeue-Bold" font-weight="bold" font-size="87.7" fill="#FEFFFF" transform="matrix(1.00, 0.00, -0.00, -1.00, 332.5, 950.0)">d</text><text xml:space="preserve" font-family="HelveticaNeue-Bold" font-weight="bold" font-size="87.7" fill="#FEFFFF" transform="matrix(1.00, 0.00, -0.00, -1.00, 386.1, 950.0)">e</text><text xml:space="preserve" font-family="HelveticaNeue-Bold" font-weight="bold" font-size="87.7" fill="#FEFFFF" transform="matrix(1.00, 0.00, -0.00, -1.00, 436.4, 950.0)"> </text><text xml:space="preserve" font-family="HelveticaNeue-Bold" font-weight="bold" font-size="87.7" fill="#FEFFFF" transform="matrix(1.00, 0.00, -0.00, -1.00, 460.8, 950.0)">A</text><text xml:space="preserve" font-family="HelveticaNeue-Bold" font-weight="bold" font-size="87.7" fill="#FEFFFF" transform="matrix(1.00, 0.00, -0.00, -1.00, 520.9, 950.0)">d</text><text xml:space="preserve" font-family="HelveticaNeue-Bold" font-weight="bold" font-size="87.7" fill="#FEFFFF" transform="matrix(1.00, 0.00, -0.00, -1.00, 574.5, 950.0)">j</text><text xml:space="preserve" font-family="HelveticaNeue-Bold" font-weight="bold" font-size="87.7" fill="#FEFFFF" transform="matrix(1.00, 0.00, -0.00, -1.00, 598.9, 950.0)">a</text><text xml:space="preserve" font-family="HelveticaNeue-Bold" font-weight="bold" font-size="87.7" fill="#FEFFFF" transform="matrix(1.00, 0.00, -0.00, -1.00, 649.2, 950.0)">c</text><text xml:space="preserve" font-family="HelveticaNeue-Bold" font-weight="bold" font-size="87.7" fill="#FEFFFF" transform="matrix(1.00, 0.00, -0.00, -1.00, 699.6, 950.0)">ê</text><text xml:space="preserve" font-family="HelveticaNeue-Bold" font-weight="bold" font-size="87.7" fill="#FEFFFF" transform="matrix(1.00, 0.00, -0.00, -1.00, 749.9, 950.0)">n</text><text xml:space="preserve" font-family="HelveticaNeue-Bold" font-weight="bold" font-size="87.7" fill="#FEFFFF" transform="matrix(1.00, 0.00, -0.00, -1.00, 801.9, 950.0)">c</text><text xml:space="preserve" font-family="HelveticaNeue-Bold" font-weight="bold" font-size="87.7" fill="#FEFFFF" transform="matrix(1.00, 0.00, -0.00, -1.00, 852.3, 950.0)">i</text><text xml:space="preserve" font-family="HelveticaNeue-Bold" font-weight="bold" font-size="87.7" fill="#FEFFFF" transform="matrix(1.00, 0.00, -0.00, -1.00, 874.9, 950.0)">a</text><text xml:space="preserve" font-family="HelveticaNeue-Bold" font-weight="bold" font-size="87.7" fill="#FEFFFF" transform="matrix(1.00, 0.00, -0.00, -1.00, 925.3, 950.0)">:</text><text xml:space="preserve" font-family="HelveticaNeue-Bold" font-weight="bold" font-size="61.0" fill="#FEFFFF" transform="matrix(1.00, 0.00, -0.00, -1.00, 46.0, 851.0)">I</text><text xml:space="preserve" font-family="HelveticaNeue-Bold" font-weight="bold" font-size="61.0" fill="#FEFFFF" transform="matrix(1.00, 0.00, -0.00, -1.00, 64.0, 851.0)">m</text><text xml:space="preserve" font-family="HelveticaNeue-Bold" font-weight="bold" font-size="61.0" fill="#FEFFFF" transform="matrix(1.00, 0.00, -0.00, -1.00, 119.3, 851.0)">p</text><text xml:space="preserve" font-family="HelveticaNeue-Bold" font-weight="bold" font-size="61.0" fill="#FEFFFF" transform="matrix(1.00, 0.00, -0.00, -1.00, 156.5, 851.0)">l</text><text xml:space="preserve" font-family="HelveticaNeue-Bold" font-weight="bold" font-size="61.0" fill="#FEFFFF" transform="matrix(1.00, 0.00, -0.00, -1.00, 172.3, 851.0)">e</text><text xml:space="preserve" font-family="HelveticaNeue-Bold" font-weight="bold" font-size="61.0" fill="#FEFFFF" transform="matrix(1.00, 0.00, -0.00, -1.00, 207.3, 851.0)">m</text><text xml:space="preserve" font-family="HelveticaNeue-Bold" font-weight="bold" font-size="61.0" fill="#FEFFFF" transform="matrix(1.00, 0.00, -0.00, -1.00, 262.5, 851.0)">e</text><text xml:space="preserve" font-family="HelveticaNeue-Bold" font-weight="bold" font-size="61.0" fill="#FEFFFF" transform="matrix(1.00, 0.00, -0.00, -1.00, 297.6, 851.0)">n</text><text xml:space="preserve" font-family="HelveticaNeue-Bold" font-weight="bold" font-size="61.0" fill="#FEFFFF" transform="matrix(1.00, 0.00, -0.00, -1.00, 333.7, 851.0)">t</text><text xml:space="preserve" font-family="HelveticaNeue-Bold" font-weight="bold" font-size="61.0" fill="#FEFFFF" transform="matrix(1.00, 0.00, -0.00, -1.00, 355.2, 851.0)">a</text><text xml:space="preserve" font-family="HelveticaNeue-Bold" font-weight="bold" font-size="61.0" fill="#FEFFFF" transform="matrix(1.00, 0.00, -0.00, -1.00, 390.2, 851.0)">ç</text><text xml:space="preserve" font-family="HelveticaNeue-Bold" font-weight="bold" font-size="61.0" fill="#FEFFFF" transform="matrix(1.00, 0.00, -0.00, -1.00, 425.2, 851.0)">ã</text><text xml:space="preserve" font-family="HelveticaNeue-Bold" font-weight="bold" font-size="61.0" fill="#FEFFFF" transform="matrix(1.00, 0.00, -0.00, -1.00, 460.3, 851.0)">o</text><text xml:space="preserve" font-family="HelveticaNeue-Bold" font-weight="bold" font-size="61.0" fill="#FEFFFF" transform="matrix(1.00, 0.00, -0.00, -1.00, 497.5, 851.0)"> </text><text xml:space="preserve" font-family="HelveticaNeue-Bold" font-weight="bold" font-size="61.0" fill="#FEFFFF" transform="matrix(1.00, 0.00, -0.00, -1.00, 514.5, 851.0)">e</text><text xml:space="preserve" font-family="HelveticaNeue-Bold" font-weight="bold" font-size="61.0" fill="#FEFFFF" transform="matrix(1.00, 0.00, -0.00, -1.00, 549.5, 851.0)">m</text><text xml:space="preserve" font-family="HelveticaNeue-Bold" font-weight="bold" font-size="61.0" fill="#FEFFFF" transform="matrix(1.00, 0.00, -0.00, -1.00, 604.8, 851.0)"> </text><text xml:space="preserve" font-family="HelveticaNeue-Bold" font-weight="bold" font-size="61.0" fill="#FEFFFF" transform="matrix(1.00, 0.00, -0.00, -1.00, 621.7, 851.0)">C</text><text xml:space="preserve" font-family="HelveticaNeue-Bold" font-weight="bold" font-size="61.0" fill="#FEFFFF" transform="matrix(1.00, 0.00, -0.00, -1.00, 666.9, 851.0)">+</text><text xml:space="preserve" font-family="HelveticaNeue-Bold" font-weight="bold" font-size="61.0" fill="#FEFFFF" transform="matrix(1.00, 0.00, -0.00, -1.00, 703.5, 851.0)">+</text><image xlink:href="9740FCDBC72C11B463F27341F5F18E2C.png" width="636.00" height="540.00" transform="matrix(1.35, 0.00, -0.00, -1.35, 531.0, 818.0)"></image></g></svg>