<?xml version="1.0" encoding="UTF-8" standalone="no"?><svg xmlns="http://www.w3.org/2000/svg" xmlns:xlink="http://www.w3.org/1999/xlink" clip-rule="evenodd" stroke-miterlimit="4.00" viewBox="0 0 1920 1080"><desc>SVG generated by Keynote</desc><defs></defs><g transform="matrix(1.00, 0.00, -0.00, -1.00, 0.0, 1080.0)"><path d="M 0.0 1080.0 L 1920.0 1080.0 L 1920.0 0.0 L 0.0 0.0 Z M 0.0 1080.0 " fill="#009DFF"></path><text xml:space="preserve" font-family="Helvetica-Bold" font-weight="bold" font-size="36.0" fill="#FEFFFF" transform="matrix(1.00, 0.00, -0.00, -1.00, 1779.0, 46.0)">1</text><text xml:space="preserve" font-family="Helvetica-Bold" font-weight="bold" font-size="36.0" fill="#FEFFFF" transform="matrix(1.00, 0.00, -0.00, -1.00, 1799.0, 46.0)">5</text><g opacity="0.15"><g><clipPath id="clip-686"><path d="M 661.0 0.0 L 1920.0 0.0 L 1920.0 1080.0 L 661.0 1080.0 Z M 661.0 0.0 "></path></clipPath><g clip-path="url(#clip-686)"><image xlink:href="../../615F7CD4-E262-41F7-8138-806EC6AB1FAB/assets/87ABFF0ACED01E62478C9A9C0E1733CE.png" width="539.00" height="540.00" transform="matrix(0.38, -2.21, -2.21, -0.38, 1857.0, 1255.0)"></image></g></g></g><g opacity="0.15"><g><clipPath id="clip-687"><path d="M 0.0 0.0 L 752.0 0.0 L 752.0 1080.0 L 0.0 1080.0 Z M 0.0 0.0 "></path></clipPath><g clip-path="url(#clip-687)"><image xlink:href="../../615F7CD4-E262-41F7-8138-806EC6AB1FAB/assets/87ABFF0ACED01E62478C9A9C0E1733CE.png" width="539.00" height="540.00" transform="matrix(-2.14, 0.53, 0.53, 2.14, 463.8, -163.5)"></image></g></g></g><g><clipPath id="clip-688"><path d="M 28.4 911.7 L 1127.9 911.7 L 1127.9 1080.0 L 28.4 1080.0 Z M 28.4 911.7 "></path></clipPath><g clip-path="url(#clip-688)"><text xml:space="preserve" font-family="HelveticaNeue-Bold" font-weight="bold" font-size="102.0" fill="#FEFFFF" transform="matrix(1.00, 0.00, -0.00, -1.00, 59.0, 934.0)">L</text><text xml:space="preserve" font-family="HelveticaNeue-Bold" font-weight="bold" font-size="102.0" fill="#FEFFFF" transform="matrix(1.00, 0.00, -0.00, -1.00, 119.5, 934.0)">i</text><text xml:space="preserve" font-family="HelveticaNeue-Bold" font-weight="bold" font-size="102.0" fill="#FEFFFF" transform="matrix(1.00, 0.00, -0.00, -1.00, 145.8, 934.0)">s</text><text xml:space="preserve" font-family="HelveticaNeue-Bold" font-weight="bold" font-size="102.0" fill="#FEFFFF" transform="matrix(1.00, 0.00, -0.00, -1.00, 200.6, 934.0)">t</text><text xml:space="preserve" font-family="HelveticaNeue-Bold" font-weight="bold" font-size="102.0" fill="#FEFFFF" transform="matrix(1.00, 0.00, -0.00, -1.00, 236.5, 934.0)">a</text><text xml:space="preserve" font-family="HelveticaNeue-Bold" font-weight="bold" font-size="102.0" fill="#FEFFFF" transform="matrix(1.00, 0.00, -0.00, -1.00, 295.0, 934.0)"> </text><text xml:space="preserve" font-family="HelveticaNeue-Bold" font-weight="bold" font-size="102.0" fill="#FEFFFF" transform="matrix(1.00, 0.00, -0.00, -1.00, 323.4, 934.0)">d</text><text xml:space="preserve" font-family="HelveticaNeue-Bold" font-weight="bold" font-size="102.0" fill="#FEFFFF" transform="matrix(1.00, 0.00, -0.00, -1.00, 385.7, 934.0)">e</text><text xml:space="preserve" font-family="HelveticaNeue-Bold" font-weight="bold" font-size="102.0" fill="#FEFFFF" transform="matrix(1.00, 0.00, -0.00, -1.00, 444.3, 934.0)"> </text><text xml:space="preserve" font-family="HelveticaNeue-Bold" font-weight="bold" font-size="102.0" fill="#FEFFFF" transform="matrix(1.00, 0.00, -0.00, -1.00, 472.6, 934.0)">A</text><text xml:space="preserve" font-family="HelveticaNeue-Bold" font-weight="bold" font-size="102.0" fill="#FEFFFF" transform="matrix(1.00, 0.00, -0.00, -1.00, 542.5, 934.0)">r</text><text xml:space="preserve" font-family="HelveticaNeue-Bold" font-weight="bold" font-size="102.0" fill="#FEFFFF" transform="matrix(1.00, 0.00, -0.00, -1.00, 580.3, 934.0)">e</text><text xml:space="preserve" font-family="HelveticaNeue-Bold" font-weight="bold" font-size="102.0" fill="#FEFFFF" transform="matrix(1.00, 0.00, -0.00, -1.00, 638.9, 934.0)">s</text><text xml:space="preserve" font-family="HelveticaNeue-Bold" font-weight="bold" font-size="102.0" fill="#FEFFFF" transform="matrix(1.00, 0.00, -0.00, -1.00, 693.6, 934.0)">t</text><text xml:space="preserve" font-family="HelveticaNeue-Bold" font-weight="bold" font-size="102.0" fill="#FEFFFF" transform="matrix(1.00, 0.00, -0.00, -1.00, 729.5, 934.0)">a</text><text xml:space="preserve" font-family="HelveticaNeue-Bold" font-weight="bold" font-size="102.0" fill="#FEFFFF" transform="matrix(1.00, 0.00, -0.00, -1.00, 788.1, 934.0)">s</text></g></g><g><clipPath id="clip-689"><path d="M 107.1 773.6 L 188.9 773.6 L 188.9 855.4 L 107.1 855.4 Z M 107.1 773.6 "></path></clipPath><g clip-path="url(#clip-689)"><path d="M 109.1 853.4 L 186.9 853.4 L 186.9 775.6 L 109.1 775.6 Z M 109.1 853.4 " fill="#31D071"></path><path d="M 0.0 0.0 L 77.8 0.0 L 77.8 77.8 L 0.0 77.8 Z M 0.0 0.0 " fill="none" stroke="#FEFFFF" stroke-width="2.00" transform="matrix(1.00, 0.00, 0.00, -1.00, 109.1, 853.4)"></path></g></g><g><clipPath id="clip-690"><path d="M 103.5 772.5 L 192.5 772.5 L 192.5 856.0 L 103.5 856.0 Z M 103.5 772.5 "></path></clipPath><g clip-path="url(#clip-690)"><text xml:space="preserve" font-family="Helvetica-Bold" font-weight="bold" font-size="49.0" fill="#FEFFFE" transform="matrix(1.00, 0.00, -0.00, -1.00, 134.0, 796.0)">1</text></g></g><g><clipPath id="clip-691"><path d="M 107.1 674.0 L 188.9 674.0 L 188.9 755.8 L 107.1 755.8 Z M 107.1 674.0 "></path></clipPath><g clip-path="url(#clip-691)"><path d="M 109.1 753.8 L 186.9 753.8 L 186.9 676.0 L 109.1 676.0 Z M 109.1 753.8 " fill="#31D071"></path><path d="M 0.0 0.0 L 77.8 0.0 L 77.8 77.8 L 0.0 77.8 Z M 0.0 0.0 " fill="none" stroke="#FEFFFF" stroke-width="2.00" transform="matrix(1.00, 0.00, 0.00, -1.00, 109.1, 753.8)"></path></g></g><g><clipPath id="clip-692"><path d="M 103.5 672.9 L 192.5 672.9 L 192.5 756.4 L 103.5 756.4 Z M 103.5 672.9 "></path></clipPath><g clip-path="url(#clip-692)"><text xml:space="preserve" font-family="Helvetica-Bold" font-weight="bold" font-size="49.0" fill="#FEFFFE" transform="matrix(1.00, 0.00, -0.00, -1.00, 134.0, 696.0)">1</text></g></g><g><clipPath id="clip-693"><path d="M 107.1 574.4 L 188.9 574.4 L 188.9 656.1 L 107.1 656.1 Z M 107.1 574.4 "></path></clipPath><g clip-path="url(#clip-693)"><path d="M 109.1 654.1 L 186.9 654.1 L 186.9 576.4 L 109.1 576.4 Z M 109.1 654.1 " fill="#31D071"></path><path d="M 0.0 0.0 L 77.8 0.0 L 77.8 77.8 L 0.0 77.8 Z M 0.0 0.0 " fill="none" stroke="#FEFFFF" stroke-width="2.00" transform="matrix(1.00, 0.00, 0.00, -1.00, 109.1, 654.1)"></path></g></g><g><clipPath id="clip-694"><path d="M 103.5 573.3 L 192.5 573.3 L 192.5 656.8 L 103.5 656.8 Z M 103.5 573.3 "></path></clipPath><g clip-path="url(#clip-694)"><text xml:space="preserve" font-family="Helvetica-Bold" font-weight="bold" font-size="49.0" fill="#FEFFFE" transform="matrix(1.00, 0.00, -0.00, -1.00, 134.0, 597.0)">2</text></g></g><g><clipPath id="clip-695"><path d="M 107.1 474.7 L 188.9 474.7 L 188.9 556.5 L 107.1 556.5 Z M 107.1 474.7 "></path></clipPath><g clip-path="url(#clip-695)"><path d="M 109.1 554.5 L 186.9 554.5 L 186.9 476.7 L 109.1 476.7 Z M 109.1 554.5 " fill="#31D071"></path><path d="M 0.0 0.0 L 77.8 0.0 L 77.8 77.8 L 0.0 77.8 Z M 0.0 0.0 " fill="none" stroke="#FEFFFF" stroke-width="2.00" transform="matrix(1.00, 0.00, 0.00, -1.00, 109.1, 554.5)"></path></g></g><g><clipPath id="clip-696"><path d="M 103.5 473.6 L 192.5 473.6 L 192.5 557.1 L 103.5 557.1 Z M 103.5 473.6 "></path></clipPath><g clip-path="url(#clip-696)"><text xml:space="preserve" font-family="Helvetica-Bold" font-weight="bold" font-size="49.0" fill="#FEFFFE" transform="matrix(1.00, 0.00, -0.00, -1.00, 134.0, 497.0)">2</text></g></g><g><clipPath id="clip-697"><path d="M 107.1 375.1 L 188.9 375.1 L 188.9 456.9 L 107.1 456.9 Z M 107.1 375.1 "></path></clipPath><g clip-path="url(#clip-697)"><path d="M 109.1 454.9 L 186.9 454.9 L 186.9 377.1 L 109.1 377.1 Z M 109.1 454.9 " fill="#31D071"></path><path d="M 0.0 0.0 L 77.8 0.0 L 77.8 77.8 L 0.0 77.8 Z M 0.0 0.0 " fill="none" stroke="#FEFFFF" stroke-width="2.00" transform="matrix(1.00, 0.00, 0.00, -1.00, 109.1, 454.9)"></path></g></g><g><clipPath id="clip-698"><path d="M 103.5 374.0 L 192.5 374.0 L 192.5 457.5 L 103.5 457.5 Z M 103.5 374.0 "></path></clipPath><g clip-path="url(#clip-698)"><text xml:space="preserve" font-family="Helvetica-Bold" font-weight="bold" font-size="49.0" fill="#FEFFFE" transform="matrix(1.00, 0.00, -0.00, -1.00, 134.0, 398.0)">3</text></g></g><g><clipPath id="clip-699"><path d="M 107.1 275.5 L 188.9 275.5 L 188.9 357.2 L 107.1 357.2 Z M 107.1 275.5 "></path></clipPath><g clip-path="url(#clip-699)"><path d="M 109.1 355.2 L 186.9 355.2 L 186.9 277.5 L 109.1 277.5 Z M 109.1 355.2 " fill="#31D071"></path><path d="M 0.0 0.0 L 77.8 0.0 L 77.8 77.8 L 0.0 77.8 Z M 0.0 0.0 " fill="none" stroke="#FEFFFF" stroke-width="2.00" transform="matrix(1.00, 0.00, 0.00, -1.00, 109.1, 355.2)"></path></g></g><g><clipPath id="clip-700"><path d="M 103.5 274.4 L 192.5 274.4 L 192.5 357.9 L 103.5 357.9 Z M 103.5 274.4 "></path></clipPath><g clip-path="url(#clip-700)"><text xml:space="preserve" font-family="Helvetica-Bold" font-weight="bold" font-size="49.0" fill="#FEFFFE" transform="matrix(1.00, 0.00, -0.00, -1.00, 134.0, 298.0)">4</text></g></g><g><clipPath id="clip-701"><path d="M 107.1 175.8 L 188.9 175.8 L 188.9 257.6 L 107.1 257.6 Z M 107.1 175.8 "></path></clipPath><g clip-path="url(#clip-701)"><path d="M 109.1 255.6 L 186.9 255.6 L 186.9 177.8 L 109.1 177.8 Z M 109.1 255.6 " fill="#31D071"></path><path d="M 0.0 0.0 L 77.8 0.0 L 77.8 77.8 L 0.0 77.8 Z M 0.0 0.0 " fill="none" stroke="#FEFFFF" stroke-width="2.00" transform="matrix(1.00, 0.00, 0.00, -1.00, 109.1, 255.6)"></path></g></g><g><clipPath id="clip-702"><path d="M 103.5 174.7 L 192.5 174.7 L 192.5 258.2 L 103.5 258.2 Z M 103.5 174.7 "></path></clipPath><g clip-path="url(#clip-702)"><text xml:space="preserve" font-family="Helvetica-Bold" font-weight="bold" font-size="49.0" fill="#FEFFFE" transform="matrix(1.00, 0.00, -0.00, -1.00, 134.0, 198.0)">5</text></g></g><g><clipPath id="clip-703"><path d="M 107.1 76.2 L 188.9 76.2 L 188.9 158.0 L 107.1 158.0 Z M 107.1 76.2 "></path></clipPath><g clip-path="url(#clip-703)"><path d="M 109.1 156.0 L 186.9 156.0 L 186.9 78.2 L 109.1 78.2 Z M 109.1 156.0 " fill="#31D071"></path><path d="M 0.0 0.0 L 77.8 0.0 L 77.8 77.8 L 0.0 77.8 Z M 0.0 0.0 " fill="none" stroke="#FEFFFF" stroke-width="2.00" transform="matrix(1.00, 0.00, 0.00, -1.00, 109.1, 156.0)"></path></g></g><g><clipPath id="clip-704"><path d="M 103.5 75.1 L 192.5 75.1 L 192.5 158.6 L 103.5 158.6 Z M 103.5 75.1 "></path></clipPath><g clip-path="url(#clip-704)"><text xml:space="preserve" font-family="Helvetica-Bold" font-weight="bold" font-size="49.0" fill="#FEFFFE" transform="matrix(1.00, 0.00, -0.00, -1.00, 134.0, 99.0)">6</text></g></g><g><clipPath id="clip-705"><path d="M 336.1 774.2 L 417.9 774.2 L 417.9 855.9 L 336.1 855.9 Z M 336.1 774.2 "></path></clipPath><g clip-path="url(#clip-705)"><path d="M 338.1 853.9 L 415.9 853.9 L 415.9 776.2 L 338.1 776.2 Z M 338.1 853.9 " fill="#EB5C57"></path><path d="M 0.0 0.0 L 77.8 0.0 L 77.8 77.8 L 0.0 77.8 Z M 0.0 0.0 " fill="none" stroke="#FEFFFF" stroke-width="2.00" transform="matrix(1.00, 0.00, 0.00, -1.00, 338.1, 853.9)"></path></g></g><g><clipPath id="clip-706"><path d="M 332.5 773.1 L 421.5 773.1 L 421.5 856.6 L 332.5 856.6 Z M 332.5 773.1 "></path></clipPath><g clip-path="url(#clip-706)"><text xml:space="preserve" font-family="Helvetica-Bold" font-weight="bold" font-size="49.0" fill="#FEFFFE" transform="matrix(1.00, 0.00, -0.00, -1.00, 363.0, 797.0)">2</text></g></g><g><clipPath id="clip-707"><path d="M 336.1 674.4 L 417.9 674.4 L 417.9 756.2 L 336.1 756.2 Z M 336.1 674.4 "></path></clipPath><g clip-path="url(#clip-707)"><path d="M 338.1 754.2 L 415.9 754.2 L 415.9 676.4 L 338.1 676.4 Z M 338.1 754.2 " fill="#EB5C57"></path><path d="M 0.0 0.0 L 77.8 0.0 L 77.8 77.8 L 0.0 77.8 Z M 0.0 0.0 " fill="none" stroke="#FEFFFF" stroke-width="2.00" transform="matrix(1.00, 0.00, 0.00, -1.00, 338.1, 754.2)"></path></g></g><g><clipPath id="clip-708"><path d="M 332.5 673.3 L 421.5 673.3 L 421.5 756.8 L 332.5 756.8 Z M 332.5 673.3 "></path></clipPath><g clip-path="url(#clip-708)"><text xml:space="preserve" font-family="Helvetica-Bold" font-weight="bold" font-size="49.0" fill="#FEFFFE" transform="matrix(1.00, 0.00, -0.00, -1.00, 363.0, 697.0)">3</text></g></g><g><clipPath id="clip-709"><path d="M 336.1 574.6 L 417.9 574.6 L 417.9 656.4 L 336.1 656.4 Z M 336.1 574.6 "></path></clipPath><g clip-path="url(#clip-709)"><path d="M 338.1 654.4 L 415.9 654.4 L 415.9 576.6 L 338.1 576.6 Z M 338.1 654.4 " fill="#EB5C57"></path><path d="M 0.0 0.0 L 77.8 0.0 L 77.8 77.8 L 0.0 77.8 Z M 0.0 0.0 " fill="none" stroke="#FEFFFF" stroke-width="2.00" transform="matrix(1.00, 0.00, 0.00, -1.00, 338.1, 654.4)"></path></g></g><g><clipPath id="clip-710"><path d="M 332.5 573.5 L 421.5 573.5 L 421.5 657.0 L 332.5 657.0 Z M 332.5 573.5 "></path></clipPath><g clip-path="url(#clip-710)"><text xml:space="preserve" font-family="Helvetica-Bold" font-weight="bold" font-size="49.0" fill="#FEFFFE" transform="matrix(1.00, 0.00, -0.00, -1.00, 363.0, 597.0)">3</text></g></g><g><clipPath id="clip-711"><path d="M 336.1 474.8 L 417.9 474.8 L 417.9 556.6 L 336.1 556.6 Z M 336.1 474.8 "></path></clipPath><g clip-path="url(#clip-711)"><path d="M 338.1 554.6 L 415.9 554.6 L 415.9 476.8 L 338.1 476.8 Z M 338.1 554.6 " fill="#EB5C57"></path><path d="M 0.0 0.0 L 77.8 0.0 L 77.8 77.8 L 0.0 77.8 Z M 0.0 0.0 " fill="none" stroke="#FEFFFF" stroke-width="2.00" transform="matrix(1.00, 0.00, 0.00, -1.00, 338.1, 554.6)"></path></g></g><g><clipPath id="clip-712"><path d="M 332.5 473.7 L 421.5 473.7 L 421.5 557.2 L 332.5 557.2 Z M 332.5 473.7 "></path></clipPath><g clip-path="url(#clip-712)"><text xml:space="preserve" font-family="Helvetica-Bold" font-weight="bold" font-size="49.0" fill="#FEFFFE" transform="matrix(1.00, 0.00, -0.00, -1.00, 363.0, 497.0)">4</text></g></g><g><clipPath id="clip-713"><path d="M 336.1 375.0 L 417.9 375.0 L 417.9 456.8 L 336.1 456.8 Z M 336.1 375.0 "></path></clipPath><g clip-path="url(#clip-713)"><path d="M 338.1 454.8 L 415.9 454.8 L 415.9 377.0 L 338.1 377.0 Z M 338.1 454.8 " fill="#EB5C57"></path><path d="M 0.0 0.0 L 77.8 0.0 L 77.8 77.8 L 0.0 77.8 Z M 0.0 0.0 " fill="none" stroke="#FEFFFF" stroke-width="2.00" transform="matrix(1.00, 0.00, 0.00, -1.00, 338.1, 454.8)"></path></g></g><g><clipPath id="clip-714"><path d="M 332.5 373.9 L 421.5 373.9 L 421.5 457.4 L 332.5 457.4 Z M 332.5 373.9 "></path></clipPath><g clip-path="url(#clip-714)"><text xml:space="preserve" font-family="Helvetica-Bold" font-weight="bold" font-size="49.0" fill="#FEFFFE" transform="matrix(1.00, 0.00, -0.00, -1.00, 363.0, 397.0)">5</text></g></g><g><clipPath id="clip-715"><path d="M 336.1 275.2 L 417.9 275.2 L 417.9 357.0 L 336.1 357.0 Z M 336.1 275.2 "></path></clipPath><g clip-path="url(#clip-715)"><path d="M 338.1 355.0 L 415.9 355.0 L 415.9 277.2 L 338.1 277.2 Z M 338.1 355.0 " fill="#EB5C57"></path><path d="M 0.0 0.0 L 77.8 0.0 L 77.8 77.8 L 0.0 77.8 Z M 0.0 0.0 " fill="none" stroke="#FEFFFF" stroke-width="2.00" transform="matrix(1.00, 0.00, 0.00, -1.00, 338.1, 355.0)"></path></g></g><g><clipPath id="clip-716"><path d="M 332.5 274.1 L 421.5 274.1 L 421.5 357.6 L 332.5 357.6 Z M 332.5 274.1 "></path></clipPath><g clip-path="url(#clip-716)"><text xml:space="preserve" font-family="Helvetica-Bold" font-weight="bold" font-size="49.0" fill="#FEFFFE" transform="matrix(1.00, 0.00, -0.00, -1.00, 363.0, 298.0)">5</text></g></g><g><clipPath id="clip-717"><path d="M 336.1 175.4 L 417.9 175.4 L 417.9 257.2 L 336.1 257.2 Z M 336.1 175.4 "></path></clipPath><g clip-path="url(#clip-717)"><path d="M 338.1 255.2 L 415.9 255.2 L 415.9 177.4 L 338.1 177.4 Z M 338.1 255.2 " fill="#EB5C57"></path><path d="M 0.0 0.0 L 77.8 0.0 L 77.8 77.8 L 0.0 77.8 Z M 0.0 0.0 " fill="none" stroke="#FEFFFF" stroke-width="2.00" transform="matrix(1.00, 0.00, 0.00, -1.00, 338.1, 255.2)"></path></g></g><g><clipPath id="clip-718"><path d="M 332.5 174.4 L 421.5 174.4 L 421.5 257.9 L 332.5 257.9 Z M 332.5 174.4 "></path></clipPath><g clip-path="url(#clip-718)"><text xml:space="preserve" font-family="Helvetica-Bold" font-weight="bold" font-size="49.0" fill="#FEFFFE" transform="matrix(1.00, 0.00, -0.00, -1.00, 363.0, 198.0)">6</text></g></g><g><clipPath id="clip-719"><path d="M 336.1 75.7 L 417.9 75.7 L 417.9 157.4 L 336.1 157.4 Z M 336.1 75.7 "></path></clipPath><g clip-path="url(#clip-719)"><path d="M 338.1 155.4 L 415.9 155.4 L 415.9 77.7 L 338.1 77.7 Z M 338.1 155.4 " fill="#EB5C57"></path><path d="M 0.0 0.0 L 77.8 0.0 L 77.8 77.8 L 0.0 77.8 Z M 0.0 0.0 " fill="none" stroke="#FEFFFF" stroke-width="2.00" transform="matrix(1.00, 0.00, 0.00, -1.00, 338.1, 155.4)"></path></g></g><g><clipPath id="clip-720"><path d="M 332.5 74.6 L 421.5 74.6 L 421.5 158.1 L 332.5 158.1 Z M 332.5 74.6 "></path></clipPath><g clip-path="url(#clip-720)"><text xml:space="preserve" font-family="Helvetica-Bold" font-weight="bold" font-size="49.0" fill="#FEFFFE" transform="matrix(1.00, 0.00, -0.00, -1.00, 363.0, 98.0)">7</text></g></g><g><clipPath id="clip-721"><path d="M 213.2 799.5 L 315.5 799.5 L 315.5 830.6 L 213.2 830.6 Z M 213.2 799.5 "></path></clipPath><g clip-path="url(#clip-721)"><path d="M 20.0 0.0 L 23.0 0.0 L 77.3 0.0 L 80.3 0.0 " fill="none" stroke="#FEFFFF" stroke-width="6.00" transform="matrix(1.00, 0.00, 0.00, -1.00, 214.2, 815.1)"></path><path d="M 0.0 0.0 L 3.0 5.0 L 6.0 0.0 M 3.0 0.0 L 3.0 5.0 " fill="none" stroke="#FEFFFF" stroke-width="1.50" stroke-miterlimit="10.00" stroke-linejoin="round" transform="matrix(0.00, 4.00, 4.00, 0.00, 291.5, 803.1)"></path><path d="M 0.0 0.0 L 3.0 5.0 L 6.0 0.0 M 3.0 0.0 L 3.0 5.0 " fill="none" stroke="#FEFFFF" stroke-width="1.50" stroke-miterlimit="10.00" stroke-linejoin="round" transform="matrix(0.00, -4.00, -4.00, 0.00, 237.2, 827.1)"></path></g></g><g><clipPath id="clip-722"><path d="M 213.2 699.7 L 315.5 699.7 L 315.5 730.8 L 213.2 730.8 Z M 213.2 699.7 "></path></clipPath><g clip-path="url(#clip-722)"><path d="M 20.0 0.0 L 23.0 0.0 L 77.3 0.0 L 80.3 0.0 " fill="none" stroke="#FEFFFF" stroke-width="6.00" transform="matrix(1.00, 0.00, 0.00, -1.00, 214.2, 715.3)"></path><path d="M 0.0 0.0 L 3.0 5.0 L 6.0 0.0 M 3.0 0.0 L 3.0 5.0 " fill="none" stroke="#FEFFFF" stroke-width="1.50" stroke-miterlimit="10.00" stroke-linejoin="round" transform="matrix(0.00, 4.00, 4.00, 0.00, 291.5, 703.3)"></path><path d="M 0.0 0.0 L 3.0 5.0 L 6.0 0.0 M 3.0 0.0 L 3.0 5.0 " fill="none" stroke="#FEFFFF" stroke-width="1.50" stroke-miterlimit="10.00" stroke-linejoin="round" transform="matrix(0.00, -4.00, -4.00, 0.00, 237.2, 727.3)"></path></g></g><g><clipPath id="clip-723"><path d="M 213.2 599.9 L 315.5 599.9 L 315.5 631.1 L 213.2 631.1 Z M 213.2 599.9 "></path></clipPath><g clip-path="url(#clip-723)"><path d="M 20.0 0.0 L 23.0 0.0 L 77.3 0.0 L 80.3 0.0 " fill="none" stroke="#FEFFFF" stroke-width="6.00" transform="matrix(1.00, 0.00, 0.00, -1.00, 214.2, 615.5)"></path><path d="M 0.0 0.0 L 3.0 5.0 L 6.0 0.0 M 3.0 0.0 L 3.0 5.0 " fill="none" stroke="#FEFFFF" stroke-width="1.50" stroke-miterlimit="10.00" stroke-linejoin="round" transform="matrix(0.00, 4.00, 4.00, 0.00, 291.5, 603.5)"></path><path d="M 0.0 0.0 L 3.0 5.0 L 6.0 0.0 M 3.0 0.0 L 3.0 5.0 " fill="none" stroke="#FEFFFF" stroke-width="1.50" stroke-miterlimit="10.00" stroke-linejoin="round" transform="matrix(0.00, -4.00, -4.00, 0.00, 237.2, 627.5)"></path></g></g><g><clipPath id="clip-724"><path d="M 213.2 500.1 L 315.5 500.1 L 315.5 531.3 L 213.2 531.3 Z M 213.2 500.1 "></path></clipPath><g clip-path="url(#clip-724)"><path d="M 20.0 0.0 L 23.0 0.0 L 77.3 0.0 L 80.3 0.0 " fill="none" stroke="#FEFFFF" stroke-width="6.00" transform="matrix(1.00, 0.00, 0.00, -1.00, 214.2, 515.7)"></path><path d="M 0.0 0.0 L 3.0 5.0 L 6.0 0.0 M 3.0 0.0 L 3.0 5.0 " fill="none" stroke="#FEFFFF" stroke-width="1.50" stroke-miterlimit="10.00" stroke-linejoin="round" transform="matrix(0.00, 4.00, 4.00, 0.00, 291.5, 503.7)"></path><path d="M 0.0 0.0 L 3.0 5.0 L 6.0 0.0 M 3.0 0.0 L 3.0 5.0 " fill="none" stroke="#FEFFFF" stroke-width="1.50" stroke-miterlimit="10.00" stroke-linejoin="round" transform="matrix(0.00, -4.00, -4.00, 0.00, 237.2, 527.7)"></path></g></g><g><clipPath id="clip-725"><path d="M 213.2 400.3 L 315.5 400.3 L 315.5 431.5 L 213.2 431.5 Z M 213.2 400.3 "></path></clipPath><g clip-path="url(#clip-725)"><path d="M 20.0 0.0 L 23.0 0.0 L 77.3 0.0 L 80.3 0.0 " fill="none" stroke="#FEFFFF" stroke-width="6.00" transform="matrix(1.00, 0.00, 0.00, -1.00, 214.2, 415.9)"></path><path d="M 0.0 0.0 L 3.0 5.0 L 6.0 0.0 M 3.0 0.0 L 3.0 5.0 " fill="none" stroke="#FEFFFF" stroke-width="1.50" stroke-miterlimit="10.00" stroke-linejoin="round" transform="matrix(0.00, 4.00, 4.00, 0.00, 291.5, 403.9)"></path><path d="M 0.0 0.0 L 3.0 5.0 L 6.0 0.0 M 3.0 0.0 L 3.0 5.0 " fill="none" stroke="#FEFFFF" stroke-width="1.50" stroke-miterlimit="10.00" stroke-linejoin="round" transform="matrix(0.00, -4.00, -4.00, 0.00, 237.2, 427.9)"></path></g></g><g><clipPath id="clip-726"><path d="M 213.2 300.6 L 315.5 300.6 L 315.5 331.7 L 213.2 331.7 Z M 213.2 300.6 "></path></clipPath><g clip-path="url(#clip-726)"><path d="M 20.0 0.0 L 23.0 0.0 L 77.3 0.0 L 80.3 0.0 " fill="none" stroke="#FEFFFF" stroke-width="6.00" transform="matrix(1.00, 0.00, 0.00, -1.00, 214.2, 316.1)"></path><path d="M 0.0 0.0 L 3.0 5.0 L 6.0 0.0 M 3.0 0.0 L 3.0 5.0 " fill="none" stroke="#FEFFFF" stroke-width="1.50" stroke-miterlimit="10.00" stroke-linejoin="round" transform="matrix(0.00, 4.00, 4.00, 0.00, 291.5, 304.1)"></path><path d="M 0.0 0.0 L 3.0 5.0 L 6.0 0.0 M 3.0 0.0 L 3.0 5.0 " fill="none" stroke="#FEFFFF" stroke-width="1.50" stroke-miterlimit="10.00" stroke-linejoin="round" transform="matrix(0.00, -4.00, -4.00, 0.00, 237.2, 328.1)"></path></g></g><g><clipPath id="clip-727"><path d="M 213.2 200.8 L 315.5 200.8 L 315.5 231.9 L 213.2 231.9 Z M 213.2 200.8 "></path></clipPath><g clip-path="url(#clip-727)"><path d="M 20.0 0.0 L 23.0 0.0 L 77.3 0.0 L 80.3 0.0 " fill="none" stroke="#FEFFFF" stroke-width="6.00" transform="matrix(1.00, 0.00, 0.00, -1.00, 214.2, 216.3)"></path><path d="M 0.0 0.0 L 3.0 5.0 L 6.0 0.0 M 3.0 0.0 L 3.0 5.0 " fill="none" stroke="#FEFFFF" stroke-width="1.50" stroke-miterlimit="10.00" stroke-linejoin="round" transform="matrix(0.00, 4.00, 4.00, 0.00, 291.5, 204.3)"></path><path d="M 0.0 0.0 L 3.0 5.0 L 6.0 0.0 M 3.0 0.0 L 3.0 5.0 " fill="none" stroke="#FEFFFF" stroke-width="1.50" stroke-miterlimit="10.00" stroke-linejoin="round" transform="matrix(0.00, -4.00, -4.00, 0.00, 237.2, 228.3)"></path></g></g><g><clipPath id="clip-728"><path d="M 213.2 101.0 L 315.5 101.0 L 315.5 132.1 L 213.2 132.1 Z M 213.2 101.0 "></path></clipPath><g clip-path="url(#clip-728)"><path d="M 20.0 0.0 L 23.0 0.0 L 77.3 0.0 L 80.3 0.0 " fill="none" stroke="#FEFFFF" stroke-width="6.00" transform="matrix(1.00, 0.00, 0.00, -1.00, 214.2, 116.5)"></path><path d="M 0.0 0.0 L 3.0 5.0 L 6.0 0.0 M 3.0 0.0 L 3.0 5.0 " fill="none" stroke="#FEFFFF" stroke-width="1.50" stroke-miterlimit="10.00" stroke-linejoin="round" transform="matrix(0.00, 4.00, 4.00, 0.00, 291.5, 104.5)"></path><path d="M 0.0 0.0 L 3.0 5.0 L 6.0 0.0 M 3.0 0.0 L 3.0 5.0 " fill="none" stroke="#FEFFFF" stroke-width="1.50" stroke-miterlimit="10.00" stroke-linejoin="round" transform="matrix(0.00, -4.00, -4.00, 0.00, 237.2, 128.6)"></path></g></g><g><clipPath id="clip-729"><path d="M 973.9 339.2 L 1049.1 339.2 L 1049.1 414.4 L 973.9 414.4 Z M 973.9 339.2 "></path></clipPath><g clip-path="url(#clip-729)"><path d="M 1037.4 402.7 C 1051.7 388.4 1051.7 365.2 1037.4 350.9 C 1023.1 336.6 999.9 336.6 985.6 350.9 C 971.4 365.2 971.4 388.4 985.6 402.7 C 999.9 417.0 1023.1 417.0 1037.4 402.7 Z M 1037.4 402.7 " fill="#FEFFFF"></path></g></g><g><clipPath id="clip-730"><path d="M 974.9 340.2 L 1048.1 340.2 L 1048.1 413.4 L 974.9 413.4 Z M 974.9 340.2 "></path></clipPath><g clip-path="url(#clip-730)"><text xml:space="preserve" font-family="Helvetica-Bold" font-weight="bold" font-size="40.0" fill="#51A7F9" transform="matrix(1.00, 0.00, -0.00, -1.00, 1000.0, 362.0)">1</text></g></g><g><clipPath id="clip-731"><path d="M 1103.7 476.2 L 1178.9 476.2 L 1178.9 551.4 L 1103.7 551.4 Z M 1103.7 476.2 "></path></clipPath><g clip-path="url(#clip-731)"><path d="M 1167.2 539.7 C 1181.4 525.4 1181.4 502.2 1167.2 487.9 C 1152.9 473.6 1129.7 473.6 1115.4 487.9 C 1101.1 502.2 1101.1 525.4 1115.4 539.7 C 1129.7 553.9 1152.9 553.9 1167.2 539.7 Z M 1167.2 539.7 " fill="#FEFFFF"></path></g></g><g><clipPath id="clip-732"><path d="M 1104.7 477.2 L 1177.9 477.2 L 1177.9 550.4 L 1104.7 550.4 Z M 1104.7 477.2 "></path></clipPath><g clip-path="url(#clip-732)"><text xml:space="preserve" font-family="Helvetica-Bold" font-weight="bold" font-size="40.0" fill="#51A7F9" transform="matrix(1.00, 0.00, -0.00, -1.00, 1130.0, 499.0)">3</text></g></g><g><clipPath id="clip-733"><path d="M 844.2 476.2 L 919.4 476.2 L 919.4 551.4 L 844.2 551.4 Z M 844.2 476.2 "></path></clipPath><g clip-path="url(#clip-733)"><path d="M 907.6 539.7 C 921.9 525.4 921.9 502.2 907.6 487.9 C 893.4 473.6 870.2 473.6 855.9 487.9 C 841.6 502.2 841.6 525.4 855.9 539.7 C 870.2 553.9 893.4 553.9 907.6 539.7 Z M 907.6 539.7 " fill="#FEFFFF"></path></g></g><g><clipPath id="clip-734"><path d="M 845.2 477.2 L 918.4 477.2 L 918.4 550.4 L 845.2 550.4 Z M 845.2 477.2 "></path></clipPath><g clip-path="url(#clip-734)"><text xml:space="preserve" font-family="Helvetica-Bold" font-weight="bold" font-size="40.0" fill="#51A7F9" transform="matrix(1.00, 0.00, -0.00, -1.00, 871.0, 499.0)">2</text></g></g><g><clipPath id="clip-735"><path d="M 844.2 605.1 L 919.4 605.1 L 919.4 680.3 L 844.2 680.3 Z M 844.2 605.1 "></path></clipPath><g clip-path="url(#clip-735)"><path d="M 907.6 668.6 C 921.9 654.3 921.9 631.1 907.6 616.8 C 893.4 602.6 870.2 602.6 855.9 616.8 C 841.6 631.1 841.6 654.3 855.9 668.6 C 870.2 682.9 893.4 682.9 907.6 668.6 Z M 907.6 668.6 " fill="#FEFFFF"></path></g></g><g><clipPath id="clip-736"><path d="M 845.2 606.1 L 918.4 606.1 L 918.4 679.3 L 845.2 679.3 Z M 845.2 606.1 "></path></clipPath><g clip-path="url(#clip-736)"><text xml:space="preserve" font-family="Helvetica-Bold" font-weight="bold" font-size="40.0" fill="#51A7F9" transform="matrix(1.00, 0.00, -0.00, -1.00, 871.0, 628.0)">4</text></g></g><g><clipPath id="clip-737"><path d="M 1103.7 605.1 L 1178.9 605.1 L 1178.9 680.3 L 1103.7 680.3 Z M 1103.7 605.1 "></path></clipPath><g clip-path="url(#clip-737)"><path d="M 1167.2 668.6 C 1181.4 654.3 1181.4 631.1 1167.2 616.8 C 1152.9 602.6 1129.7 602.6 1115.4 616.8 C 1101.1 631.1 1101.1 654.3 1115.4 668.6 C 1129.7 682.9 1152.9 682.9 1167.2 668.6 Z M 1167.2 668.6 " fill="#FEFFFF"></path></g></g><g><clipPath id="clip-738"><path d="M 1104.7 606.1 L 1177.9 606.1 L 1177.9 679.3 L 1104.7 679.3 Z M 1104.7 606.1 "></path></clipPath><g clip-path="url(#clip-738)"><text xml:space="preserve" font-family="Helvetica-Bold" font-weight="bold" font-size="40.0" fill="#51A7F9" transform="matrix(1.00, 0.00, -0.00, -1.00, 1130.0, 628.0)">5</text></g></g><g><clipPath id="clip-739"><path d="M 876.8 549.4 L 886.8 549.4 L 886.8 607.1 L 876.8 607.1 Z M 876.8 549.4 "></path></clipPath><g clip-path="url(#clip-739)"><path d="M 0.0 55.8 C 0.0 37.2 0.0 18.6 0.0 0.0 " fill="none" stroke="#FEFFFF" stroke-width="8.00" transform="matrix(1.00, 0.00, 0.00, -1.00, 881.8, 606.1)"></path></g></g><g><clipPath id="clip-740"><path d="M 917.4 637.7 L 1105.7 637.7 L 1105.7 647.7 L 917.4 647.7 Z M 917.4 637.7 "></path></clipPath><g clip-path="url(#clip-740)"><path d="M 0.0 0.0 C 62.1 0.0 124.2 0.0 186.3 0.0 " fill="none" stroke="#FEFFFF" stroke-width="8.00" transform="matrix(1.00, 0.00, 0.00, -1.00, 918.4, 642.7)"></path></g></g><g><clipPath id="clip-741"><path d="M 917.4 508.8 L 1105.7 508.8 L 1105.7 518.8 L 917.4 518.8 Z M 917.4 508.8 "></path></clipPath><g clip-path="url(#clip-741)"><path d="M 0.0 0.0 C 62.1 0.0 124.2 0.0 186.3 0.0 " fill="none" stroke="#FEFFFF" stroke-width="8.00" transform="matrix(1.00, 0.00, 0.00, -1.00, 918.4, 513.8)"></path></g></g><g><clipPath id="clip-742"><path d="M 1136.3 549.4 L 1146.3 549.4 L 1146.3 607.1 L 1136.3 607.1 Z M 1136.3 549.4 "></path></clipPath><g clip-path="url(#clip-742)"><path d="M 0.0 55.8 C 0.0 37.2 0.0 18.6 0.0 0.0 " fill="none" stroke="#FEFFFF" stroke-width="8.00" transform="matrix(1.00, 0.00, 0.00, -1.00, 1141.3, 606.1)"></path></g></g><g><clipPath id="clip-743"><path d="M 903.0 399.6 L 990.3 399.6 L 990.3 491.0 L 903.0 491.0 Z M 903.0 399.6 "></path></clipPath><g clip-path="url(#clip-743)"><path d="M 0.0 0.0 C 26.5 27.9 52.9 55.9 79.4 83.8 " fill="none" stroke="#FEFFFF" stroke-width="8.00" transform="matrix(1.00, 0.00, 0.00, -1.00, 906.9, 487.2)"></path></g></g><g><clipPath id="clip-744"><path d="M 1032.8 399.6 L 1120.0 399.6 L 1120.0 491.0 L 1032.8 491.0 Z M 1032.8 399.6 "></path></clipPath><g clip-path="url(#clip-744)"><path d="M 0.0 83.8 C 26.5 55.9 52.9 27.9 79.4 0.0 " fill="none" stroke="#FEFFFF" stroke-width="8.00" transform="matrix(1.00, 0.00, 0.00, -1.00, 1036.7, 487.2)"></path></g></g><g><clipPath id="clip-745"><path d="M 1349.1 605.1 L 1424.3 605.1 L 1424.3 680.3 L 1349.1 680.3 Z M 1349.1 605.1 "></path></clipPath><g clip-path="url(#clip-745)"><path d="M 1412.6 668.6 C 1426.9 654.3 1426.9 631.1 1412.6 616.8 C 1398.3 602.6 1375.1 602.6 1360.8 616.8 C 1346.5 631.1 1346.5 654.3 1360.8 668.6 C 1375.1 682.9 1398.3 682.9 1412.6 668.6 Z M 1412.6 668.6 " fill="#FEFFFF"></path></g></g><g><clipPath id="clip-746"><path d="M 1350.1 606.1 L 1423.3 606.1 L 1423.3 679.3 L 1350.1 679.3 Z M 1350.1 606.1 "></path></clipPath><g clip-path="url(#clip-746)"><text xml:space="preserve" font-family="Helvetica-Bold" font-weight="bold" font-size="40.0" fill="#51A7F9" transform="matrix(1.00, 0.00, -0.00, -1.00, 1376.0, 628.0)">6</text></g></g><g><clipPath id="clip-747"><path d="M 1349.1 476.2 L 1424.3 476.2 L 1424.3 551.4 L 1349.1 551.4 Z M 1349.1 476.2 "></path></clipPath><g clip-path="url(#clip-747)"><path d="M 1412.6 539.7 C 1426.9 525.4 1426.9 502.2 1412.6 487.9 C 1398.3 473.6 1375.1 473.6 1360.8 487.9 C 1346.5 502.2 1346.5 525.4 1360.8 539.7 C 1375.1 553.9 1398.3 553.9 1412.6 539.7 Z M 1412.6 539.7 " fill="#FEFFFF"></path></g></g><g><clipPath id="clip-748"><path d="M 1350.1 477.2 L 1423.3 477.2 L 1423.3 550.4 L 1350.1 550.4 Z M 1350.1 477.2 "></path></clipPath><g clip-path="url(#clip-748)"><text xml:space="preserve" font-family="Helvetica-Bold" font-weight="bold" font-size="40.0" fill="#51A7F9" transform="matrix(1.00, 0.00, -0.00, -1.00, 1376.0, 499.0)">7</text></g></g><g><clipPath id="clip-749"><path d="M 1176.9 637.7 L 1351.1 637.7 L 1351.1 647.7 L 1176.9 647.7 Z M 1176.9 637.7 "></path></clipPath><g clip-path="url(#clip-749)"><path d="M 0.0 0.0 C 57.4 0.0 114.8 0.0 172.3 0.0 " fill="none" stroke="#FEFFFF" stroke-width="8.00" transform="matrix(1.00, 0.00, 0.00, -1.00, 1177.9, 642.7)"></path></g></g><g><clipPath id="clip-750"><path d="M 1381.7 549.4 L 1391.7 549.4 L 1391.7 607.1 L 1381.7 607.1 Z M 1381.7 549.4 "></path></clipPath><g clip-path="url(#clip-750)"><path d="M 0.0 55.8 C 0.0 37.2 0.0 18.6 0.0 0.0 " fill="none" stroke="#FEFFFF" stroke-width="8.00" transform="matrix(1.00, 0.00, 0.00, -1.00, 1386.7, 606.1)"></path></g></g></g></svg>