<?xml version="1.0" encoding="UTF-8" standalone="no"?><svg xmlns="http://www.w3.org/2000/svg" xmlns:xlink="http://www.w3.org/1999/xlink" clip-rule="evenodd" stroke-miterlimit="4.00" viewBox="0 0 1920 1080"><desc>SVG generated by Keynote</desc><defs></defs><g transform="matrix(1.00, 0.00, -0.00, -1.00, 0.0, 1080.0)"><path d="M 0.0 1080.0 L 1920.0 1080.0 L 1920.0 0.0 L 0.0 0.0 Z M 0.0 1080.0 " fill="#FEFFFF"></path><text xml:space="preserve" font-family="Helvetica-Bold" font-weight="bold" font-size="36.0" fill="#FEFFFF" transform="matrix(1.00, 0.00, -0.00, -1.00, 1761.0, 74.0)">2</text><text xml:space="preserve" font-family="Helvetica-Bold" font-weight="bold" font-size="36.0" fill="#FEFFFF" transform="matrix(1.00, 0.00, -0.00, -1.00, 1781.0, 74.0)">3</text><text xml:space="preserve" font-family="HelveticaNeue-Light" font-size="90.8" fill="#51A7F9" transform="matrix(1.00, 0.00, -0.00, -1.00, 59.0, 931.0)">A</text><text xml:space="preserve" font-family="HelveticaNeue-Light" font-size="90.8" fill="#51A7F9" transform="matrix(1.00, 0.00, -0.00, -1.00, 116.2, 931.0)">l</text><text xml:space="preserve" font-family="HelveticaNeue-Light" font-size="90.8" fill="#51A7F9" transform="matrix(1.00, 0.00, -0.00, -1.00, 133.0, 931.0)">g</text><text xml:space="preserve" font-family="HelveticaNeue-Light" font-size="90.8" fill="#51A7F9" transform="matrix(1.00, 0.00, -0.00, -1.00, 183.5, 931.0)">o</text><text xml:space="preserve" font-family="HelveticaNeue-Light" font-size="90.8" fill="#51A7F9" transform="matrix(1.00, 0.00, -0.00, -1.00, 233.9, 931.0)">r</text><text xml:space="preserve" font-family="HelveticaNeue-Light" font-size="90.8" fill="#51A7F9" transform="matrix(1.00, 0.00, -0.00, -1.00, 262.5, 931.0)">i</text><text xml:space="preserve" font-family="HelveticaNeue-Light" font-size="90.8" fill="#51A7F9" transform="matrix(1.00, 0.00, -0.00, -1.00, 279.3, 931.0)">t</text><text xml:space="preserve" font-family="HelveticaNeue-Light" font-size="90.8" fill="#51A7F9" transform="matrix(1.00, 0.00, -0.00, -1.00, 306.2, 931.0)">m</text><text xml:space="preserve" font-family="HelveticaNeue-Light" font-size="90.8" fill="#51A7F9" transform="matrix(1.00, 0.00, -0.00, -1.00, 381.8, 931.0)">o</text><text xml:space="preserve" font-family="HelveticaNeue-Light" font-size="90.8" fill="#51A7F9" transform="matrix(1.00, 0.00, -0.00, -1.00, 432.3, 931.0)">s</text><text xml:space="preserve" font-family="HelveticaNeue-Light" font-size="90.8" fill="#51A7F9" transform="matrix(1.00, 0.00, -0.00, -1.00, 476.0, 931.0)"> </text><text xml:space="preserve" font-family="HelveticaNeue-Light" font-size="90.8" fill="#51A7F9" transform="matrix(1.00, 0.00, -0.00, -1.00, 501.2, 931.0)">d</text><text xml:space="preserve" font-family="HelveticaNeue-Light" font-size="90.8" fill="#51A7F9" transform="matrix(1.00, 0.00, -0.00, -1.00, 553.3, 931.0)">e</text><text xml:space="preserve" font-family="HelveticaNeue-Light" font-size="90.8" fill="#51A7F9" transform="matrix(1.00, 0.00, -0.00, -1.00, 600.4, 931.0)"> </text><text xml:space="preserve" font-family="HelveticaNeue-Light" font-size="90.8" fill="#51A7F9" transform="matrix(1.00, 0.00, -0.00, -1.00, 625.6, 931.0)">B</text><text xml:space="preserve" font-family="HelveticaNeue-Light" font-size="90.8" fill="#51A7F9" transform="matrix(1.00, 0.00, -0.00, -1.00, 686.2, 931.0)">u</text><text xml:space="preserve" font-family="HelveticaNeue-Light" font-size="90.8" fill="#51A7F9" transform="matrix(1.00, 0.00, -0.00, -1.00, 734.9, 931.0)">s</text><text xml:space="preserve" font-family="HelveticaNeue-Light" font-size="90.8" fill="#51A7F9" transform="matrix(1.00, 0.00, -0.00, -1.00, 778.6, 931.0)">c</text><text xml:space="preserve" font-family="HelveticaNeue-Light" font-size="90.8" fill="#51A7F9" transform="matrix(1.00, 0.00, -0.00, -1.00, 825.7, 931.0)">a</text><text xml:space="preserve" font-family="HelveticaNeue-Light" font-size="90.8" fill="#51A7F9" transform="matrix(1.00, 0.00, -0.00, -1.00, 872.8, 931.0)"> </text><text xml:space="preserve" font-family="HelveticaNeue-Light" font-size="90.8" fill="#51A7F9" transform="matrix(1.00, 0.00, -0.00, -1.00, 898.1, 931.0)">e</text><text xml:space="preserve" font-family="HelveticaNeue-Light" font-size="90.8" fill="#51A7F9" transform="matrix(1.00, 0.00, -0.00, -1.00, 945.2, 931.0)">m</text><text xml:space="preserve" font-family="HelveticaNeue-Light" font-size="90.8" fill="#51A7F9" transform="matrix(1.00, 0.00, -0.00, -1.00, 1020.8, 931.0)"> </text><text xml:space="preserve" font-family="HelveticaNeue-Light" font-size="90.8" fill="#51A7F9" transform="matrix(1.00, 0.00, -0.00, -1.00, 1046.1, 931.0)">G</text><text xml:space="preserve" font-family="HelveticaNeue-Light" font-size="90.8" fill="#51A7F9" transform="matrix(1.00, 0.00, -0.00, -1.00, 1113.3, 931.0)">r</text><text xml:space="preserve" font-family="HelveticaNeue-Light" font-size="90.8" fill="#51A7F9" transform="matrix(1.00, 0.00, -0.00, -1.00, 1141.9, 931.0)">a</text><text xml:space="preserve" font-family="HelveticaNeue-Light" font-size="90.8" fill="#51A7F9" transform="matrix(1.00, 0.00, -0.00, -1.00, 1189.0, 931.0)">f</text><text xml:space="preserve" font-family="HelveticaNeue-Light" font-size="90.8" fill="#51A7F9" transform="matrix(1.00, 0.00, -0.00, -1.00, 1212.5, 931.0)">o</text><text xml:space="preserve" font-family="HelveticaNeue-Light" font-size="90.8" fill="#51A7F9" transform="matrix(1.00, 0.00, -0.00, -1.00, 1263.0, 931.0)">s</text><text xml:space="preserve" font-family="Helvetica-Light" font-size="27.0" fill="#000000" transform="matrix(1.00, 0.00, -0.00, -1.00, 1550.0, 580.0)">2</text><image xlink:href="../../6585EA62-EE78-4157-A176-3ADE0E03F54E/assets/1606E41AFBE4EDCE486F64DCD7BBDE8B.png" width="678.00" height="541.00" transform="matrix(1.44, 0.00, -0.00, -1.43, 733.0, 846.0)"></image><text xml:space="preserve" font-family="HelveticaNeue-Bold" font-weight="bold" font-size="39.0" fill="#51A7F9" transform="matrix(1.00, 0.00, -0.00, -1.00, 119.9, 830.9)">•</text><text xml:space="preserve" font-family="HelveticaNeue-Bold" font-weight="bold" font-size="52.0" fill="#51A7F9" transform="matrix(1.00, 0.00, -0.00, -1.00, 171.0, 825.0)">B</text><text xml:space="preserve" font-family="HelveticaNeue-Bold" font-weight="bold" font-size="52.0" fill="#51A7F9" transform="matrix(1.00, 0.00, -0.00, -1.00, 207.6, 825.0)">F</text><text xml:space="preserve" font-family="HelveticaNeue-Bold" font-weight="bold" font-size="52.0" fill="#51A7F9" transform="matrix(1.00, 0.00, -0.00, -1.00, 238.4, 825.0)">S</text><text xml:space="preserve" font-family="HelveticaNeue-Bold" font-weight="bold" font-size="52.0" fill="#51A7F9" transform="matrix(1.00, 0.00, -0.00, -1.00, 272.2, 825.0)"> </text><text xml:space="preserve" font-family="HelveticaNeue-Bold" font-weight="bold" font-size="52.0" fill="#51A7F9" transform="matrix(1.00, 0.00, -0.00, -1.00, 286.6, 825.0)">-</text><text xml:space="preserve" font-family="HelveticaNeue-Bold" font-weight="bold" font-size="52.0" fill="#51A7F9" transform="matrix(1.00, 0.00, -0.00, -1.00, 307.8, 825.0)"> </text><text xml:space="preserve" font-family="HelveticaNeue-Bold" font-weight="bold" font-size="52.0" fill="#51A7F9" transform="matrix(1.00, 0.00, -0.00, -1.00, 322.3, 825.0)">I</text><text xml:space="preserve" font-family="HelveticaNeue-Bold" font-weight="bold" font-size="52.0" fill="#51A7F9" transform="matrix(1.00, 0.00, -0.00, -1.00, 337.6, 825.0)">m</text><text xml:space="preserve" font-family="HelveticaNeue-Bold" font-weight="bold" font-size="52.0" fill="#51A7F9" transform="matrix(1.00, 0.00, -0.00, -1.00, 384.7, 825.0)">p</text><text xml:space="preserve" font-family="HelveticaNeue-Bold" font-weight="bold" font-size="52.0" fill="#51A7F9" transform="matrix(1.00, 0.00, -0.00, -1.00, 416.5, 825.0)">l</text><text xml:space="preserve" font-family="HelveticaNeue-Bold" font-weight="bold" font-size="52.0" fill="#51A7F9" transform="matrix(1.00, 0.00, -0.00, -1.00, 429.9, 825.0)">e</text><text xml:space="preserve" font-family="HelveticaNeue-Bold" font-weight="bold" font-size="52.0" fill="#51A7F9" transform="matrix(1.00, 0.00, -0.00, -1.00, 459.8, 825.0)">m</text><text xml:space="preserve" font-family="HelveticaNeue-Bold" font-weight="bold" font-size="52.0" fill="#51A7F9" transform="matrix(1.00, 0.00, -0.00, -1.00, 506.9, 825.0)">e</text><text xml:space="preserve" font-family="HelveticaNeue-Bold" font-weight="bold" font-size="52.0" fill="#51A7F9" transform="matrix(1.00, 0.00, -0.00, -1.00, 536.7, 825.0)">n</text><text xml:space="preserve" font-family="HelveticaNeue-Bold" font-weight="bold" font-size="52.0" fill="#51A7F9" transform="matrix(1.00, 0.00, -0.00, -1.00, 567.6, 825.0)">t</text><text xml:space="preserve" font-family="HelveticaNeue-Bold" font-weight="bold" font-size="52.0" fill="#51A7F9" transform="matrix(1.00, 0.00, -0.00, -1.00, 585.9, 825.0)">a</text><text xml:space="preserve" font-family="HelveticaNeue-Bold" font-weight="bold" font-size="52.0" fill="#51A7F9" transform="matrix(1.00, 0.00, -0.00, -1.00, 615.7, 825.0)">ç</text><text xml:space="preserve" font-family="HelveticaNeue-Bold" font-weight="bold" font-size="52.0" fill="#51A7F9" transform="matrix(1.00, 0.00, -0.00, -1.00, 645.6, 825.0)">ã</text><text xml:space="preserve" font-family="HelveticaNeue-Bold" font-weight="bold" font-size="52.0" fill="#51A7F9" transform="matrix(1.00, 0.00, -0.00, -1.00, 675.4, 825.0)">o</text></g></svg>