<?xml version="1.0" encoding="UTF-8" standalone="no"?><svg xmlns="http://www.w3.org/2000/svg" xmlns:xlink="http://www.w3.org/1999/xlink" clip-rule="evenodd" stroke-miterlimit="4.00" viewBox="0 0 1920 1080"><desc>SVG generated by Keynote</desc><defs></defs><g transform="matrix(1.00, 0.00, -0.00, -1.00, 0.0, 1080.0)"><path d="M 0.0 1080.0 L 1920.0 1080.0 L 1920.0 0.0 L 0.0 0.0 Z M 0.0 1080.0 " fill="#009DFF"></path><text xml:space="preserve" font-family="Helvetica-Bold" font-weight="bold" font-size="36.0" fill="#FEFFFF" transform="matrix(1.00, 0.00, -0.00, -1.00, 1779.0, 46.0)">1</text><text xml:space="preserve" font-family="Helvetica-Bold" font-weight="bold" font-size="36.0" fill="#FEFFFF" transform="matrix(1.00, 0.00, -0.00, -1.00, 1799.0, 46.0)">9</text><g opacity="0.15"><g><clipPath id="clip-960"><path d="M 661.0 0.0 L 1920.0 0.0 L 1920.0 1080.0 L 661.0 1080.0 Z M 661.0 0.0 "></path></clipPath><g clip-path="url(#clip-960)"><image xlink:href="../../615F7CD4-E262-41F7-8138-806EC6AB1FAB/assets/87ABFF0ACED01E62478C9A9C0E1733CE.png" width="539.00" height="540.00" transform="matrix(0.38, -2.21, -2.21, -0.38, 1857.0, 1255.0)"></image></g></g></g><g opacity="0.15"><g><clipPath id="clip-961"><path d="M 0.0 0.0 L 752.0 0.0 L 752.0 1080.0 L 0.0 1080.0 Z M 0.0 0.0 "></path></clipPath><g clip-path="url(#clip-961)"><image xlink:href="../../615F7CD4-E262-41F7-8138-806EC6AB1FAB/assets/87ABFF0ACED01E62478C9A9C0E1733CE.png" width="539.00" height="540.00" transform="matrix(-2.14, 0.53, 0.53, 2.14, 463.8, -163.5)"></image></g></g></g><g><clipPath id="clip-962"><path d="M 28.4 911.7 L 1127.9 911.7 L 1127.9 1080.0 L 28.4 1080.0 Z M 28.4 911.7 "></path></clipPath><g clip-path="url(#clip-962)"><text xml:space="preserve" font-family="HelveticaNeue-Bold" font-weight="bold" font-size="102.0" fill="#FEFFFF" transform="matrix(1.00, 0.00, -0.00, -1.00, 59.0, 934.0)">P</text><text xml:space="preserve" font-family="HelveticaNeue-Bold" font-weight="bold" font-size="102.0" fill="#FEFFFF" transform="matrix(1.00, 0.00, -0.00, -1.00, 127.0, 934.0)">a</text><text xml:space="preserve" font-family="HelveticaNeue-Bold" font-weight="bold" font-size="102.0" fill="#FEFFFF" transform="matrix(1.00, 0.00, -0.00, -1.00, 185.6, 934.0)">r</text><text xml:space="preserve" font-family="HelveticaNeue-Bold" font-weight="bold" font-size="102.0" fill="#FEFFFF" transform="matrix(1.00, 0.00, -0.00, -1.00, 223.4, 934.0)">e</text><text xml:space="preserve" font-family="HelveticaNeue-Bold" font-weight="bold" font-size="102.0" fill="#FEFFFF" transform="matrix(1.00, 0.00, -0.00, -1.00, 282.0, 934.0)">n</text><text xml:space="preserve" font-family="HelveticaNeue-Bold" font-weight="bold" font-size="102.0" fill="#FEFFFF" transform="matrix(1.00, 0.00, -0.00, -1.00, 342.5, 934.0)">t</text><text xml:space="preserve" font-family="HelveticaNeue-Bold" font-weight="bold" font-size="102.0" fill="#FEFFFF" transform="matrix(1.00, 0.00, -0.00, -1.00, 378.4, 934.0)">-</text><text xml:space="preserve" font-family="HelveticaNeue-Bold" font-weight="bold" font-size="102.0" fill="#FEFFFF" transform="matrix(1.00, 0.00, -0.00, -1.00, 419.9, 934.0)">C</text><text xml:space="preserve" font-family="HelveticaNeue-Bold" font-weight="bold" font-size="102.0" fill="#FEFFFF" transform="matrix(1.00, 0.00, -0.00, -1.00, 495.5, 934.0)">h</text><text xml:space="preserve" font-family="HelveticaNeue-Bold" font-weight="bold" font-size="102.0" fill="#FEFFFF" transform="matrix(1.00, 0.00, -0.00, -1.00, 555.9, 934.0)">i</text><text xml:space="preserve" font-family="HelveticaNeue-Bold" font-weight="bold" font-size="102.0" fill="#FEFFFF" transform="matrix(1.00, 0.00, -0.00, -1.00, 582.3, 934.0)">l</text><text xml:space="preserve" font-family="HelveticaNeue-Bold" font-weight="bold" font-size="102.0" fill="#FEFFFF" transform="matrix(1.00, 0.00, -0.00, -1.00, 608.6, 934.0)">d</text><text xml:space="preserve" font-family="HelveticaNeue-Bold" font-weight="bold" font-size="102.0" fill="#FEFFFF" transform="matrix(1.00, 0.00, -0.00, -1.00, 670.9, 934.0)"> </text><text xml:space="preserve" font-family="HelveticaNeue-Bold" font-weight="bold" font-size="102.0" fill="#FEFFFF" transform="matrix(1.00, 0.00, -0.00, -1.00, 699.3, 934.0)">T</text><text xml:space="preserve" font-family="HelveticaNeue-Bold" font-weight="bold" font-size="102.0" fill="#FEFFFF" transform="matrix(1.00, 0.00, -0.00, -1.00, 752.2, 934.0)">r</text><text xml:space="preserve" font-family="HelveticaNeue-Bold" font-weight="bold" font-size="102.0" fill="#FEFFFF" transform="matrix(1.00, 0.00, -0.00, -1.00, 790.0, 934.0)">e</text><text xml:space="preserve" font-family="HelveticaNeue-Bold" font-weight="bold" font-size="102.0" fill="#FEFFFF" transform="matrix(1.00, 0.00, -0.00, -1.00, 848.6, 934.0)">e</text><text xml:space="preserve" font-family="HelveticaNeue-Bold" font-weight="bold" font-size="102.0" fill="#FEFFFF" transform="matrix(1.00, 0.00, -0.00, -1.00, 907.1, 934.0)"> </text></g></g><g><clipPath id="clip-963"><path d="M 789.4 604.0 L 868.1 604.0 L 868.1 682.6 L 789.4 682.6 Z M 789.4 604.0 "></path></clipPath><g clip-path="url(#clip-963)"><path d="M 855.8 670.4 C 870.8 655.4 870.8 631.2 855.8 616.2 C 840.9 601.2 816.6 601.2 801.6 616.2 C 786.6 631.2 786.6 655.4 801.6 670.4 C 816.6 685.4 840.9 685.4 855.8 670.4 Z M 855.8 670.4 " fill="#FEFFFF"></path></g></g><g><clipPath id="clip-964"><path d="M 790.4 605.0 L 867.1 605.0 L 867.1 681.6 L 790.4 681.6 Z M 790.4 605.0 "></path></clipPath><g clip-path="url(#clip-964)"><text xml:space="preserve" font-family="Helvetica-Bold" font-weight="bold" font-size="40.0" fill="#51A7F9" transform="matrix(1.00, 0.00, -0.00, -1.00, 818.0, 628.0)">5</text></g></g><g><clipPath id="clip-965"><path d="M 789.4 440.5 L 868.1 440.5 L 868.1 519.1 L 789.4 519.1 Z M 789.4 440.5 "></path></clipPath><g clip-path="url(#clip-965)"><path d="M 855.8 506.9 C 870.8 491.9 870.8 467.7 855.8 452.7 C 840.9 437.7 816.6 437.7 801.6 452.7 C 786.6 467.7 786.6 491.9 801.6 506.9 C 816.6 521.9 840.9 521.9 855.8 506.9 Z M 855.8 506.9 " fill="#FEFFFF"></path></g></g><g><clipPath id="clip-966"><path d="M 790.4 441.5 L 867.1 441.5 L 867.1 518.1 L 790.4 518.1 Z M 790.4 441.5 "></path></clipPath><g clip-path="url(#clip-966)"><text xml:space="preserve" font-family="Helvetica-Bold" font-weight="bold" font-size="40.0" fill="#51A7F9" transform="matrix(1.00, 0.00, -0.00, -1.00, 818.0, 464.0)">9</text></g></g><g><clipPath id="clip-967"><path d="M 601.8 758.9 L 680.5 758.9 L 680.5 837.5 L 601.8 837.5 Z M 601.8 758.9 "></path></clipPath><g clip-path="url(#clip-967)"><path d="M 668.3 825.3 C 683.2 810.3 683.2 786.1 668.3 771.1 C 653.3 756.1 629.0 756.1 614.0 771.1 C 599.1 786.1 599.1 810.3 614.0 825.3 C 629.0 840.3 653.3 840.3 668.3 825.3 Z M 668.3 825.3 " fill="#FEFFFF"></path></g></g><g><clipPath id="clip-968"><path d="M 602.8 759.9 L 679.5 759.9 L 679.5 836.5 L 602.8 836.5 Z M 602.8 759.9 "></path></clipPath><g clip-path="url(#clip-968)"><text xml:space="preserve" font-family="Helvetica-Bold" font-weight="bold" font-size="40.0" fill="#51A7F9" transform="matrix(1.00, 0.00, -0.00, -1.00, 630.0, 783.0)">2</text></g></g><g><clipPath id="clip-969"><path d="M 366.6 604.0 L 445.3 604.0 L 445.3 682.6 L 366.6 682.6 Z M 366.6 604.0 "></path></clipPath><g clip-path="url(#clip-969)"><path d="M 433.1 670.4 C 448.0 655.4 448.0 631.2 433.1 616.2 C 418.1 601.2 393.8 601.2 378.8 616.2 C 363.9 631.2 363.9 655.4 378.8 670.4 C 393.8 685.4 418.1 685.4 433.1 670.4 Z M 433.1 670.4 " fill="#FEFFFF"></path></g></g><g><clipPath id="clip-970"><path d="M 367.6 605.0 L 444.3 605.0 L 444.3 681.6 L 367.6 681.6 Z M 367.6 605.0 "></path></clipPath><g clip-path="url(#clip-970)"><text xml:space="preserve" font-family="Helvetica-Bold" font-weight="bold" font-size="40.0" fill="#51A7F9" transform="matrix(1.00, 0.00, -0.00, -1.00, 395.0, 628.0)">7</text></g></g><g><clipPath id="clip-971"><path d="M 520.9 486.3 L 599.6 486.3 L 599.6 565.0 L 520.9 565.0 Z M 520.9 486.3 "></path></clipPath><g clip-path="url(#clip-971)"><path d="M 587.3 552.8 C 602.3 537.8 602.3 513.6 587.3 498.6 C 572.4 483.6 548.1 483.6 533.1 498.6 C 518.1 513.6 518.1 537.8 533.1 552.8 C 548.1 567.8 572.4 567.8 587.3 552.8 Z M 587.3 552.8 " fill="#FEFFFF"></path></g></g><g><clipPath id="clip-972"><path d="M 521.9 487.3 L 598.6 487.3 L 598.6 564.0 L 521.9 564.0 Z M 521.9 487.3 "></path></clipPath><g clip-path="url(#clip-972)"><text xml:space="preserve" font-family="Helvetica-Bold" font-weight="bold" font-size="40.0" fill="#51A7F9" transform="matrix(1.00, 0.00, -0.00, -1.00, 549.0, 510.0)">6</text></g></g><g><clipPath id="clip-973"><path d="M 434.8 660.0 L 612.3 660.0 L 612.3 781.4 L 434.8 781.4 Z M 434.8 660.0 "></path></clipPath><g clip-path="url(#clip-973)"><path d="M 171.2 0.0 C 122.8 31.9 74.4 63.7 26.1 95.6 L 22.7 97.8 " fill="none" stroke="#FEFFFF" stroke-width="8.00" transform="matrix(1.00, 0.00, 0.00, -1.00, 438.0, 777.1)"></path><path d="M 455.5 694.6 L 438.0 664.4 L 472.6 668.5 Z M 455.5 694.6 " fill="#FEFFFF"></path></g></g><g><clipPath id="clip-974"><path d="M 433.0 544.8 L 533.2 544.8 L 533.2 624.2 L 433.0 624.2 Z M 433.0 544.8 "></path></clipPath><g clip-path="url(#clip-974)"><path d="M 0.0 0.0 C 22.8 17.4 45.6 34.8 68.5 52.2 L 71.7 54.6 " fill="none" stroke="#FEFFFF" stroke-width="8.00" transform="matrix(1.00, 0.00, 0.00, -1.00, 436.4, 620.0)"></path><path d="M 495.5 555.4 L 529.7 548.9 L 514.4 580.3 Z M 495.5 555.4 " fill="#FEFFFF"></path></g></g><g><clipPath id="clip-975"><path d="M 667.2 663.6 L 802.7 663.6 L 802.7 777.9 L 667.2 777.9 Z M 667.2 663.6 "></path></clipPath><g clip-path="url(#clip-975)"><path d="M 0.0 0.0 C 34.8 28.7 69.6 57.5 104.4 86.2 L 107.5 88.7 " fill="none" stroke="#FEFFFF" stroke-width="8.00" transform="matrix(1.00, 0.00, 0.00, -1.00, 670.7, 773.8)"></path><path d="M 765.2 675.6 L 799.2 667.7 L 785.0 699.6 Z M 765.2 675.6 " fill="#FEFFFF"></path></g></g><g><clipPath id="clip-976"><path d="M 812.1 517.1 L 845.3 517.1 L 845.3 606.0 L 812.1 606.0 Z M 812.1 517.1 "></path></clipPath><g clip-path="url(#clip-976)"><path d="M 0.0 59.6 L 0.0 55.6 C 0.0 37.1 0.0 18.5 0.0 0.0 " fill="none" stroke="#FEFFFF" stroke-width="8.00" transform="matrix(1.00, 0.00, 0.00, -1.00, 828.7, 605.0)"></path><path d="M 813.1 549.3 L 828.7 518.1 L 844.3 549.3 Z M 813.1 549.3 " fill="#FEFFFF"></path></g></g><text xml:space="preserve" font-family="Helvetica-Light" font-size="56.0" fill="#FEFFFF" transform="matrix(1.00, 0.00, -0.00, -1.00, 1322.0, 837.0)">p</text><text xml:space="preserve" font-family="Helvetica-Light" font-size="56.0" fill="#FEFFFF" transform="matrix(1.00, 0.00, -0.00, -1.00, 1356.2, 837.0)">(</text><text xml:space="preserve" font-family="Helvetica-Light" font-size="56.0" fill="#FEFFFF" transform="matrix(1.00, 0.00, -0.00, -1.00, 1374.9, 837.0)">2</text><text xml:space="preserve" font-family="Helvetica-Light" font-size="56.0" fill="#FEFFFF" transform="matrix(1.00, 0.00, -0.00, -1.00, 1406.0, 837.0)">)</text><text xml:space="preserve" font-family="Helvetica-Light" font-size="56.0" fill="#FEFFFF" transform="matrix(1.00, 0.00, -0.00, -1.00, 1424.6, 837.0)"> </text><text xml:space="preserve" font-family="Helvetica-Light" font-size="56.0" fill="#FEFFFF" transform="matrix(1.00, 0.00, -0.00, -1.00, 1440.2, 837.0)">=</text><text xml:space="preserve" font-family="Helvetica-Light" font-size="56.0" fill="#FEFFFF" transform="matrix(1.00, 0.00, -0.00, -1.00, 1477.2, 837.0)"> </text><text xml:space="preserve" font-family="Helvetica-Light" font-size="56.0" fill="#FEFFFF" transform="matrix(1.00, 0.00, -0.00, -1.00, 1492.7, 837.0)">n</text><text xml:space="preserve" font-family="Helvetica-Light" font-size="56.0" fill="#FEFFFF" transform="matrix(1.00, 0.00, -0.00, -1.00, 1523.9, 837.0)">u</text><text xml:space="preserve" font-family="Helvetica-Light" font-size="56.0" fill="#FEFFFF" transform="matrix(1.00, 0.00, -0.00, -1.00, 1555.0, 837.0)">l</text><text xml:space="preserve" font-family="Helvetica-Light" font-size="56.0" fill="#FEFFFF" transform="matrix(1.00, 0.00, -0.00, -1.00, 1567.4, 837.0)">l</text><text xml:space="preserve" font-family="Helvetica-Light" font-size="56.0" fill="#FEFFFF" transform="matrix(1.00, 0.00, -0.00, -1.00, 1579.9, 837.0)"> </text><text xml:space="preserve" font-family="Helvetica-Light" font-size="56.0" fill="#FEFFFF" transform="matrix(1.00, 0.00, -0.00, -1.00, 1322.0, 770.0)">c</text><text xml:space="preserve" font-family="Helvetica-Light" font-size="56.0" fill="#FEFFFF" transform="matrix(1.00, 0.00, -0.00, -1.00, 1353.1, 770.0)">(</text><text xml:space="preserve" font-family="Helvetica-Light" font-size="56.0" fill="#FEFFFF" transform="matrix(1.00, 0.00, -0.00, -1.00, 1371.8, 770.0)">2</text><text xml:space="preserve" font-family="Helvetica-Light" font-size="56.0" fill="#FEFFFF" transform="matrix(1.00, 0.00, -0.00, -1.00, 1402.9, 770.0)">)</text><text xml:space="preserve" font-family="Helvetica-Light" font-size="56.0" fill="#FEFFFF" transform="matrix(1.00, 0.00, -0.00, -1.00, 1421.6, 770.0)"> </text><text xml:space="preserve" font-family="Helvetica-Light" font-size="56.0" fill="#FEFFFF" transform="matrix(1.00, 0.00, -0.00, -1.00, 1437.1, 770.0)">=</text><text xml:space="preserve" font-family="Helvetica-Light" font-size="56.0" fill="#FEFFFF" transform="matrix(1.00, 0.00, -0.00, -1.00, 1474.1, 770.0)"> </text><text xml:space="preserve" font-family="Helvetica-Light" font-size="56.0" fill="#FEFFFF" transform="matrix(1.00, 0.00, -0.00, -1.00, 1489.7, 770.0)">{</text><text xml:space="preserve" font-family="Helvetica-Light" font-size="56.0" fill="#FEFFFF" transform="matrix(1.00, 0.00, -0.00, -1.00, 1508.3, 770.0)">7</text><text xml:space="preserve" font-family="Helvetica-Light" font-size="56.0" fill="#FEFFFF" transform="matrix(1.00, 0.00, -0.00, -1.00, 1539.4, 770.0)">,</text><text xml:space="preserve" font-family="Helvetica-Light" font-size="56.0" fill="#FEFFFF" transform="matrix(1.00, 0.00, -0.00, -1.00, 1555.0, 770.0)">5</text><text xml:space="preserve" font-family="Helvetica-Light" font-size="56.0" fill="#FEFFFF" transform="matrix(1.00, 0.00, -0.00, -1.00, 1586.2, 770.0)">}</text><text xml:space="preserve" font-family="Helvetica-Light" font-size="56.0" fill="#FEFFFF" transform="matrix(1.00, 0.00, -0.00, -1.00, 1604.8, 770.0)"> </text><text xml:space="preserve" font-family="Helvetica-Light" font-size="56.0" fill="#FEFFFF" transform="matrix(1.00, 0.00, -0.00, -1.00, 1322.0, 703.0)">p</text><text xml:space="preserve" font-family="Helvetica-Light" font-size="56.0" fill="#FEFFFF" transform="matrix(1.00, 0.00, -0.00, -1.00, 1356.2, 703.0)">(</text><text xml:space="preserve" font-family="Helvetica-Light" font-size="56.0" fill="#FEFFFF" transform="matrix(1.00, 0.00, -0.00, -1.00, 1374.9, 703.0)">5</text><text xml:space="preserve" font-family="Helvetica-Light" font-size="56.0" fill="#FEFFFF" transform="matrix(1.00, 0.00, -0.00, -1.00, 1406.0, 703.0)">)</text><text xml:space="preserve" font-family="Helvetica-Light" font-size="56.0" fill="#FEFFFF" transform="matrix(1.00, 0.00, -0.00, -1.00, 1424.6, 703.0)"> </text><text xml:space="preserve" font-family="Helvetica-Light" font-size="56.0" fill="#FEFFFF" transform="matrix(1.00, 0.00, -0.00, -1.00, 1440.2, 703.0)">=</text><text xml:space="preserve" font-family="Helvetica-Light" font-size="56.0" fill="#FEFFFF" transform="matrix(1.00, 0.00, -0.00, -1.00, 1477.2, 703.0)"> </text><text xml:space="preserve" font-family="Helvetica-Light" font-size="56.0" fill="#FEFFFF" transform="matrix(1.00, 0.00, -0.00, -1.00, 1492.7, 703.0)">2</text><text xml:space="preserve" font-family="Helvetica-Light" font-size="56.0" fill="#FEFFFF" transform="matrix(1.00, 0.00, -0.00, -1.00, 1523.9, 703.0)"> </text><text xml:space="preserve" font-family="Helvetica-Light" font-size="56.0" fill="#FEFFFF" transform="matrix(1.00, 0.00, -0.00, -1.00, 1322.0, 636.0)">c</text><text xml:space="preserve" font-family="Helvetica-Light" font-size="56.0" fill="#FEFFFF" transform="matrix(1.00, 0.00, -0.00, -1.00, 1353.1, 636.0)">(</text><text xml:space="preserve" font-family="Helvetica-Light" font-size="56.0" fill="#FEFFFF" transform="matrix(1.00, 0.00, -0.00, -1.00, 1371.8, 636.0)">5</text><text xml:space="preserve" font-family="Helvetica-Light" font-size="56.0" fill="#FEFFFF" transform="matrix(1.00, 0.00, -0.00, -1.00, 1402.9, 636.0)">)</text><text xml:space="preserve" font-family="Helvetica-Light" font-size="56.0" fill="#FEFFFF" transform="matrix(1.00, 0.00, -0.00, -1.00, 1421.6, 636.0)"> </text><text xml:space="preserve" font-family="Helvetica-Light" font-size="56.0" fill="#FEFFFF" transform="matrix(1.00, 0.00, -0.00, -1.00, 1437.1, 636.0)">=</text><text xml:space="preserve" font-family="Helvetica-Light" font-size="56.0" fill="#FEFFFF" transform="matrix(1.00, 0.00, -0.00, -1.00, 1474.1, 636.0)"> </text><text xml:space="preserve" font-family="Helvetica-Light" font-size="56.0" fill="#FEFFFF" transform="matrix(1.00, 0.00, -0.00, -1.00, 1489.7, 636.0)">{</text><text xml:space="preserve" font-family="Helvetica-Light" font-size="56.0" fill="#FEFFFF" transform="matrix(1.00, 0.00, -0.00, -1.00, 1508.3, 636.0)">9</text><text xml:space="preserve" font-family="Helvetica-Light" font-size="56.0" fill="#FEFFFF" transform="matrix(1.00, 0.00, -0.00, -1.00, 1539.4, 636.0)">}</text><text xml:space="preserve" font-family="Helvetica-Light" font-size="56.0" fill="#FEFFFF" transform="matrix(1.00, 0.00, -0.00, -1.00, 1558.1, 636.0)"> </text><text xml:space="preserve" font-family="Helvetica-Light" font-size="56.0" fill="#FEFFFF" transform="matrix(1.00, 0.00, -0.00, -1.00, 1322.0, 569.0)">p</text><text xml:space="preserve" font-family="Helvetica-Light" font-size="56.0" fill="#FEFFFF" transform="matrix(1.00, 0.00, -0.00, -1.00, 1356.2, 569.0)">(</text><text xml:space="preserve" font-family="Helvetica-Light" font-size="56.0" fill="#FEFFFF" transform="matrix(1.00, 0.00, -0.00, -1.00, 1374.9, 569.0)">6</text><text xml:space="preserve" font-family="Helvetica-Light" font-size="56.0" fill="#FEFFFF" transform="matrix(1.00, 0.00, -0.00, -1.00, 1406.0, 569.0)">)</text><text xml:space="preserve" font-family="Helvetica-Light" font-size="56.0" fill="#FEFFFF" transform="matrix(1.00, 0.00, -0.00, -1.00, 1424.6, 569.0)"> </text><text xml:space="preserve" font-family="Helvetica-Light" font-size="56.0" fill="#FEFFFF" transform="matrix(1.00, 0.00, -0.00, -1.00, 1440.2, 569.0)">=</text><text xml:space="preserve" font-family="Helvetica-Light" font-size="56.0" fill="#FEFFFF" transform="matrix(1.00, 0.00, -0.00, -1.00, 1477.2, 569.0)"> </text><text xml:space="preserve" font-family="Helvetica-Light" font-size="56.0" fill="#FEFFFF" transform="matrix(1.00, 0.00, -0.00, -1.00, 1492.7, 569.0)">7</text><text xml:space="preserve" font-family="Helvetica-Light" font-size="56.0" fill="#FEFFFF" transform="matrix(1.00, 0.00, -0.00, -1.00, 1523.9, 569.0)"> </text><text xml:space="preserve" font-family="Helvetica-Light" font-size="56.0" fill="#FEFFFF" transform="matrix(1.00, 0.00, -0.00, -1.00, 1322.0, 502.0)">c</text><text xml:space="preserve" font-family="Helvetica-Light" font-size="56.0" fill="#FEFFFF" transform="matrix(1.00, 0.00, -0.00, -1.00, 1353.1, 502.0)">(</text><text xml:space="preserve" font-family="Helvetica-Light" font-size="56.0" fill="#FEFFFF" transform="matrix(1.00, 0.00, -0.00, -1.00, 1371.8, 502.0)">6</text><text xml:space="preserve" font-family="Helvetica-Light" font-size="56.0" fill="#FEFFFF" transform="matrix(1.00, 0.00, -0.00, -1.00, 1402.9, 502.0)">)</text><text xml:space="preserve" font-family="Helvetica-Light" font-size="56.0" fill="#FEFFFF" transform="matrix(1.00, 0.00, -0.00, -1.00, 1421.6, 502.0)"> </text><text xml:space="preserve" font-family="Helvetica-Light" font-size="56.0" fill="#FEFFFF" transform="matrix(1.00, 0.00, -0.00, -1.00, 1437.1, 502.0)">=</text><text xml:space="preserve" font-family="Helvetica-Light" font-size="56.0" fill="#FEFFFF" transform="matrix(1.00, 0.00, -0.00, -1.00, 1474.1, 502.0)"> </text><text xml:space="preserve" font-family="Helvetica-Light" font-size="56.0" fill="#FEFFFF" transform="matrix(1.00, 0.00, -0.00, -1.00, 1489.7, 502.0)">n</text><text xml:space="preserve" font-family="Helvetica-Light" font-size="56.0" fill="#FEFFFF" transform="matrix(1.00, 0.00, -0.00, -1.00, 1520.8, 502.0)">u</text><text xml:space="preserve" font-family="Helvetica-Light" font-size="56.0" fill="#FEFFFF" transform="matrix(1.00, 0.00, -0.00, -1.00, 1551.9, 502.0)">l</text><text xml:space="preserve" font-family="Helvetica-Light" font-size="56.0" fill="#FEFFFF" transform="matrix(1.00, 0.00, -0.00, -1.00, 1564.4, 502.0)">l</text><text xml:space="preserve" font-family="Helvetica-Light" font-size="56.0" fill="#FEFFFF" transform="matrix(1.00, 0.00, -0.00, -1.00, 1576.8, 502.0)"> </text><text xml:space="preserve" font-family="Helvetica-Light" font-size="56.0" fill="#FEFFFF" transform="matrix(1.00, 0.00, -0.00, -1.00, 1322.0, 435.0)">p</text><text xml:space="preserve" font-family="Helvetica-Light" font-size="56.0" fill="#FEFFFF" transform="matrix(1.00, 0.00, -0.00, -1.00, 1356.2, 435.0)">(</text><text xml:space="preserve" font-family="Helvetica-Light" font-size="56.0" fill="#FEFFFF" transform="matrix(1.00, 0.00, -0.00, -1.00, 1374.9, 435.0)">7</text><text xml:space="preserve" font-family="Helvetica-Light" font-size="56.0" fill="#FEFFFF" transform="matrix(1.00, 0.00, -0.00, -1.00, 1406.0, 435.0)">)</text><text xml:space="preserve" font-family="Helvetica-Light" font-size="56.0" fill="#FEFFFF" transform="matrix(1.00, 0.00, -0.00, -1.00, 1424.6, 435.0)"> </text><text xml:space="preserve" font-family="Helvetica-Light" font-size="56.0" fill="#FEFFFF" transform="matrix(1.00, 0.00, -0.00, -1.00, 1440.2, 435.0)">=</text><text xml:space="preserve" font-family="Helvetica-Light" font-size="56.0" fill="#FEFFFF" transform="matrix(1.00, 0.00, -0.00, -1.00, 1477.2, 435.0)"> </text><text xml:space="preserve" font-family="Helvetica-Light" font-size="56.0" fill="#FEFFFF" transform="matrix(1.00, 0.00, -0.00, -1.00, 1492.7, 435.0)">2</text><text xml:space="preserve" font-family="Helvetica-Light" font-size="56.0" fill="#FEFFFF" transform="matrix(1.00, 0.00, -0.00, -1.00, 1523.9, 435.0)"> </text><text xml:space="preserve" font-family="Helvetica-Light" font-size="56.0" fill="#FEFFFF" transform="matrix(1.00, 0.00, -0.00, -1.00, 1322.0, 368.0)">c</text><text xml:space="preserve" font-family="Helvetica-Light" font-size="56.0" fill="#FEFFFF" transform="matrix(1.00, 0.00, -0.00, -1.00, 1353.1, 368.0)">(</text><text xml:space="preserve" font-family="Helvetica-Light" font-size="56.0" fill="#FEFFFF" transform="matrix(1.00, 0.00, -0.00, -1.00, 1371.8, 368.0)">7</text><text xml:space="preserve" font-family="Helvetica-Light" font-size="56.0" fill="#FEFFFF" transform="matrix(1.00, 0.00, -0.00, -1.00, 1402.9, 368.0)">)</text><text xml:space="preserve" font-family="Helvetica-Light" font-size="56.0" fill="#FEFFFF" transform="matrix(1.00, 0.00, -0.00, -1.00, 1421.6, 368.0)"> </text><text xml:space="preserve" font-family="Helvetica-Light" font-size="56.0" fill="#FEFFFF" transform="matrix(1.00, 0.00, -0.00, -1.00, 1437.1, 368.0)">=</text><text xml:space="preserve" font-family="Helvetica-Light" font-size="56.0" fill="#FEFFFF" transform="matrix(1.00, 0.00, -0.00, -1.00, 1474.1, 368.0)"> </text><text xml:space="preserve" font-family="Helvetica-Light" font-size="56.0" fill="#FEFFFF" transform="matrix(1.00, 0.00, -0.00, -1.00, 1489.7, 368.0)">{</text><text xml:space="preserve" font-family="Helvetica-Light" font-size="56.0" fill="#FEFFFF" transform="matrix(1.00, 0.00, -0.00, -1.00, 1508.3, 368.0)">6</text><text xml:space="preserve" font-family="Helvetica-Light" font-size="56.0" fill="#FEFFFF" transform="matrix(1.00, 0.00, -0.00, -1.00, 1539.4, 368.0)">}</text><text xml:space="preserve" font-family="Helvetica-Light" font-size="56.0" fill="#FEFFFF" transform="matrix(1.00, 0.00, -0.00, -1.00, 1558.1, 368.0)"> </text><text xml:space="preserve" font-family="Helvetica-Light" font-size="56.0" fill="#FEFFFF" transform="matrix(1.00, 0.00, -0.00, -1.00, 1322.0, 301.0)">p</text><text xml:space="preserve" font-family="Helvetica-Light" font-size="56.0" fill="#FEFFFF" transform="matrix(1.00, 0.00, -0.00, -1.00, 1356.2, 301.0)">(</text><text xml:space="preserve" font-family="Helvetica-Light" font-size="56.0" fill="#FEFFFF" transform="matrix(1.00, 0.00, -0.00, -1.00, 1374.9, 301.0)">9</text><text xml:space="preserve" font-family="Helvetica-Light" font-size="56.0" fill="#FEFFFF" transform="matrix(1.00, 0.00, -0.00, -1.00, 1406.0, 301.0)">)</text><text xml:space="preserve" font-family="Helvetica-Light" font-size="56.0" fill="#FEFFFF" transform="matrix(1.00, 0.00, -0.00, -1.00, 1424.6, 301.0)"> </text><text xml:space="preserve" font-family="Helvetica-Light" font-size="56.0" fill="#FEFFFF" transform="matrix(1.00, 0.00, -0.00, -1.00, 1440.2, 301.0)">=</text><text xml:space="preserve" font-family="Helvetica-Light" font-size="56.0" fill="#FEFFFF" transform="matrix(1.00, 0.00, -0.00, -1.00, 1477.2, 301.0)"> </text><text xml:space="preserve" font-family="Helvetica-Light" font-size="56.0" fill="#FEFFFF" transform="matrix(1.00, 0.00, -0.00, -1.00, 1492.7, 301.0)">5</text><text xml:space="preserve" font-family="Helvetica-Light" font-size="56.0" fill="#FEFFFF" transform="matrix(1.00, 0.00, -0.00, -1.00, 1523.9, 301.0)"> </text><text xml:space="preserve" font-family="Helvetica-Light" font-size="56.0" fill="#FEFFFF" transform="matrix(1.00, 0.00, -0.00, -1.00, 1322.0, 234.0)">c</text><text xml:space="preserve" font-family="Helvetica-Light" font-size="56.0" fill="#FEFFFF" transform="matrix(1.00, 0.00, -0.00, -1.00, 1353.1, 234.0)">(</text><text xml:space="preserve" font-family="Helvetica-Light" font-size="56.0" fill="#FEFFFF" transform="matrix(1.00, 0.00, -0.00, -1.00, 1371.8, 234.0)">9</text><text xml:space="preserve" font-family="Helvetica-Light" font-size="56.0" fill="#FEFFFF" transform="matrix(1.00, 0.00, -0.00, -1.00, 1402.9, 234.0)">)</text><text xml:space="preserve" font-family="Helvetica-Light" font-size="56.0" fill="#FEFFFF" transform="matrix(1.00, 0.00, -0.00, -1.00, 1421.6, 234.0)"> </text><text xml:space="preserve" font-family="Helvetica-Light" font-size="56.0" fill="#FEFFFF" transform="matrix(1.00, 0.00, -0.00, -1.00, 1437.1, 234.0)">=</text><text xml:space="preserve" font-family="Helvetica-Light" font-size="56.0" fill="#FEFFFF" transform="matrix(1.00, 0.00, -0.00, -1.00, 1474.1, 234.0)"> </text><text xml:space="preserve" font-family="Helvetica-Light" font-size="56.0" fill="#FEFFFF" transform="matrix(1.00, 0.00, -0.00, -1.00, 1489.7, 234.0)">n</text><text xml:space="preserve" font-family="Helvetica-Light" font-size="56.0" fill="#FEFFFF" transform="matrix(1.00, 0.00, -0.00, -1.00, 1520.8, 234.0)">u</text><text xml:space="preserve" font-family="Helvetica-Light" font-size="56.0" fill="#FEFFFF" transform="matrix(1.00, 0.00, -0.00, -1.00, 1551.9, 234.0)">l</text><text xml:space="preserve" font-family="Helvetica-Light" font-size="56.0" fill="#FEFFFF" transform="matrix(1.00, 0.00, -0.00, -1.00, 1564.4, 234.0)">l</text><g><clipPath id="clip-977"><path d="M 90.6 -50.3 L 1254.8 -50.3 L 1254.8 427.0 L 90.6 427.0 Z M 90.6 -50.3 "></path></clipPath><g clip-path="url(#clip-977)"><text xml:space="preserve" font-family="HelveticaNeue-Light" font-size="33.8" fill="#FEFFFF" transform="matrix(1.00, 0.00, -0.00, -1.00, 103.8, 374.1)">•</text><text xml:space="preserve" font-family="HelveticaNeue-Light" font-size="45.0" fill="#FEFFFF" transform="matrix(1.00, 0.00, -0.00, -1.00, 155.0, 370.0)">P</text><text xml:space="preserve" font-family="HelveticaNeue-Light" font-size="45.0" fill="#FEFFFF" transform="matrix(1.00, 0.00, -0.00, -1.00, 183.3, 370.0)">a</text><text xml:space="preserve" font-family="HelveticaNeue-Light" font-size="45.0" fill="#FEFFFF" transform="matrix(1.00, 0.00, -0.00, -1.00, 206.7, 370.0)">r</text><text xml:space="preserve" font-family="HelveticaNeue-Light" font-size="45.0" fill="#FEFFFF" transform="matrix(1.00, 0.00, -0.00, -1.00, 220.9, 370.0)">a</text><text xml:space="preserve" font-family="HelveticaNeue-Light" font-size="45.0" fill="#FEFFFF" transform="matrix(1.00, 0.00, -0.00, -1.00, 244.2, 370.0)"> </text><text xml:space="preserve" font-family="HelveticaNeue-Light" font-size="45.0" fill="#FEFFFF" transform="matrix(1.00, 0.00, -0.00, -1.00, 256.7, 370.0)">c</text><text xml:space="preserve" font-family="HelveticaNeue-Light" font-size="45.0" fill="#FEFFFF" transform="matrix(1.00, 0.00, -0.00, -1.00, 280.1, 370.0)">a</text><text xml:space="preserve" font-family="HelveticaNeue-Light" font-size="45.0" fill="#FEFFFF" transform="matrix(1.00, 0.00, -0.00, -1.00, 303.5, 370.0)">d</text><text xml:space="preserve" font-family="HelveticaNeue-Light" font-size="45.0" fill="#FEFFFF" transform="matrix(1.00, 0.00, -0.00, -1.00, 329.3, 370.0)">a</text><text xml:space="preserve" font-family="HelveticaNeue-Light" font-size="45.0" fill="#FEFFFF" transform="matrix(1.00, 0.00, -0.00, -1.00, 352.6, 370.0)"> </text><text xml:space="preserve" font-family="HelveticaNeue-Light" font-size="45.0" fill="#FEFFFF" transform="matrix(1.00, 0.00, -0.00, -1.00, 365.1, 370.0)">v</text><text xml:space="preserve" font-family="HelveticaNeue-Light" font-size="45.0" fill="#FEFFFF" transform="matrix(1.00, 0.00, -0.00, -1.00, 386.0, 370.0)">é</text><text xml:space="preserve" font-family="HelveticaNeue-Light" font-size="45.0" fill="#FEFFFF" transform="matrix(1.00, 0.00, -0.00, -1.00, 409.3, 370.0)">r</text><text xml:space="preserve" font-family="HelveticaNeue-Light" font-size="45.0" fill="#FEFFFF" transform="matrix(1.00, 0.00, -0.00, -1.00, 423.5, 370.0)">t</text><text xml:space="preserve" font-family="HelveticaNeue-Light" font-size="45.0" fill="#FEFFFF" transform="matrix(1.00, 0.00, -0.00, -1.00, 436.8, 370.0)">i</text><text xml:space="preserve" font-family="HelveticaNeue-Light" font-size="45.0" fill="#FEFFFF" transform="matrix(1.00, 0.00, -0.00, -1.00, 445.2, 370.0)">c</text><text xml:space="preserve" font-family="HelveticaNeue-Light" font-size="45.0" fill="#FEFFFF" transform="matrix(1.00, 0.00, -0.00, -1.00, 468.5, 370.0)">e</text><text xml:space="preserve" font-family="HelveticaNeue-Light" font-size="45.0" fill="#FEFFFF" transform="matrix(1.00, 0.00, -0.00, -1.00, 491.9, 370.0)"> </text><text xml:space="preserve" font-family="HelveticaNeue-Light" font-size="45.0" fill="#FEFFFF" transform="matrix(1.00, 0.00, -0.00, -1.00, 504.4, 370.0)">é</text><text xml:space="preserve" font-family="HelveticaNeue-Light" font-size="45.0" fill="#FEFFFF" transform="matrix(1.00, 0.00, -0.00, -1.00, 527.7, 370.0)"> </text><text xml:space="preserve" font-family="HelveticaNeue-Light" font-size="45.0" fill="#FEFFFF" transform="matrix(1.00, 0.00, -0.00, -1.00, 540.2, 370.0)">a</text><text xml:space="preserve" font-family="HelveticaNeue-Light" font-size="45.0" fill="#FEFFFF" transform="matrix(1.00, 0.00, -0.00, -1.00, 563.6, 370.0)">r</text><text xml:space="preserve" font-family="HelveticaNeue-Light" font-size="45.0" fill="#FEFFFF" transform="matrix(1.00, 0.00, -0.00, -1.00, 577.8, 370.0)">m</text><text xml:space="preserve" font-family="HelveticaNeue-Light" font-size="45.0" fill="#FEFFFF" transform="matrix(1.00, 0.00, -0.00, -1.00, 615.3, 370.0)">a</text><text xml:space="preserve" font-family="HelveticaNeue-Light" font-size="45.0" fill="#FEFFFF" transform="matrix(1.00, 0.00, -0.00, -1.00, 638.6, 370.0)">z</text><text xml:space="preserve" font-family="HelveticaNeue-Light" font-size="45.0" fill="#FEFFFF" transform="matrix(1.00, 0.00, -0.00, -1.00, 659.5, 370.0)">e</text><text xml:space="preserve" font-family="HelveticaNeue-Light" font-size="45.0" fill="#FEFFFF" transform="matrix(1.00, 0.00, -0.00, -1.00, 682.8, 370.0)">n</text><text xml:space="preserve" font-family="HelveticaNeue-Light" font-size="45.0" fill="#FEFFFF" transform="matrix(1.00, 0.00, -0.00, -1.00, 707.0, 370.0)">a</text><text xml:space="preserve" font-family="HelveticaNeue-Light" font-size="45.0" fill="#FEFFFF" transform="matrix(1.00, 0.00, -0.00, -1.00, 730.3, 370.0)">d</text><text xml:space="preserve" font-family="HelveticaNeue-Light" font-size="45.0" fill="#FEFFFF" transform="matrix(1.00, 0.00, -0.00, -1.00, 756.2, 370.0)">o</text><text xml:space="preserve" font-family="HelveticaNeue-Light" font-size="45.0" fill="#FEFFFF" transform="matrix(1.00, 0.00, -0.00, -1.00, 781.2, 370.0)"> </text><text xml:space="preserve" font-family="HelveticaNeue-Light" font-size="45.0" fill="#FEFFFF" transform="matrix(1.00, 0.00, -0.00, -1.00, 793.7, 370.0)">a</text><text xml:space="preserve" font-family="HelveticaNeue-Light" font-size="45.0" fill="#FEFFFF" transform="matrix(1.00, 0.00, -0.00, -1.00, 817.0, 370.0)">p</text><text xml:space="preserve" font-family="HelveticaNeue-Light" font-size="45.0" fill="#FEFFFF" transform="matrix(1.00, 0.00, -0.00, -1.00, 842.9, 370.0)">e</text><text xml:space="preserve" font-family="HelveticaNeue-Light" font-size="45.0" fill="#FEFFFF" transform="matrix(1.00, 0.00, -0.00, -1.00, 866.2, 370.0)">n</text><text xml:space="preserve" font-family="HelveticaNeue-Light" font-size="45.0" fill="#FEFFFF" transform="matrix(1.00, 0.00, -0.00, -1.00, 890.4, 370.0)">a</text><text xml:space="preserve" font-family="HelveticaNeue-Light" font-size="45.0" fill="#FEFFFF" transform="matrix(1.00, 0.00, -0.00, -1.00, 913.7, 370.0)">s</text><text xml:space="preserve" font-family="HelveticaNeue-Light" font-size="45.0" fill="#FEFFFF" transform="matrix(1.00, 0.00, -0.00, -1.00, 935.4, 370.0)"> </text><text xml:space="preserve" font-family="HelveticaNeue-Light" font-size="45.0" fill="#FEFFFF" transform="matrix(1.00, 0.00, -0.00, -1.00, 947.9, 370.0)">2</text><text xml:space="preserve" font-family="HelveticaNeue-Light" font-size="45.0" fill="#FEFFFF" transform="matrix(1.00, 0.00, -0.00, -1.00, 972.9, 370.0)"> </text><text xml:space="preserve" font-family="HelveticaNeue-Light" font-size="45.0" fill="#FEFFFF" transform="matrix(1.00, 0.00, -0.00, -1.00, 985.4, 370.0)">a</text><text xml:space="preserve" font-family="HelveticaNeue-Light" font-size="45.0" fill="#FEFFFF" transform="matrix(1.00, 0.00, -0.00, -1.00, 1008.8, 370.0)">t</text><text xml:space="preserve" font-family="HelveticaNeue-Light" font-size="45.0" fill="#FEFFFF" transform="matrix(1.00, 0.00, -0.00, -1.00, 1022.1, 370.0)">r</text><text xml:space="preserve" font-family="HelveticaNeue-Light" font-size="45.0" fill="#FEFFFF" transform="matrix(1.00, 0.00, -0.00, -1.00, 1036.3, 370.0)">i</text><text xml:space="preserve" font-family="HelveticaNeue-Light" font-size="45.0" fill="#FEFFFF" transform="matrix(1.00, 0.00, -0.00, -1.00, 1044.6, 370.0)">b</text><text xml:space="preserve" font-family="HelveticaNeue-Light" font-size="45.0" fill="#FEFFFF" transform="matrix(1.00, 0.00, -0.00, -1.00, 1070.4, 370.0)">u</text><text xml:space="preserve" font-family="HelveticaNeue-Light" font-size="45.0" fill="#FEFFFF" transform="matrix(1.00, 0.00, -0.00, -1.00, 1094.6, 370.0)">t</text><text xml:space="preserve" font-family="HelveticaNeue-Light" font-size="45.0" fill="#FEFFFF" transform="matrix(1.00, 0.00, -0.00, -1.00, 1107.9, 370.0)">o</text><text xml:space="preserve" font-family="HelveticaNeue-Light" font-size="45.0" fill="#FEFFFF" transform="matrix(1.00, 0.00, -0.00, -1.00, 1132.9, 370.0)">s</text><text xml:space="preserve" font-family="HelveticaNeue-Light" font-size="45.0" fill="#FEFFFF" transform="matrix(1.00, 0.00, -0.00, -1.00, 1154.6, 370.0)">:</text><text xml:space="preserve" font-family="HelveticaNeue-Light" font-size="45.0" fill="#FEFFFF" transform="matrix(1.00, 0.00, -0.00, -1.00, 1167.1, 370.0)"> </text><text xml:space="preserve" font-family="HelveticaNeue-Light" font-size="45.0" fill="#FEFFFF" transform="matrix(1.00, 0.00, -0.00, -1.00, 1179.6, 370.0)">o</text><text xml:space="preserve" font-family="HelveticaNeue-Light" font-size="45.0" fill="#FEFFFF" transform="matrix(1.00, 0.00, -0.00, -1.00, 1204.6, 370.0)"> </text><text xml:space="preserve" font-family="HelveticaNeue-Light" font-size="45.0" fill="#FEFFFF" transform="matrix(1.00, 0.00, -0.00, -1.00, 155.0, 304.0)">p</text><text xml:space="preserve" font-family="HelveticaNeue-Light" font-size="45.0" fill="#FEFFFF" transform="matrix(1.00, 0.00, -0.00, -1.00, 180.8, 304.0)">a</text><text xml:space="preserve" font-family="HelveticaNeue-Light" font-size="45.0" fill="#FEFFFF" transform="matrix(1.00, 0.00, -0.00, -1.00, 204.2, 304.0)">i</text><text xml:space="preserve" font-family="HelveticaNeue-Light" font-size="45.0" fill="#FEFFFF" transform="matrix(1.00, 0.00, -0.00, -1.00, 212.5, 304.0)"> </text><text xml:space="preserve" font-family="HelveticaNeue-Light" font-size="45.0" fill="#FEFFFF" transform="matrix(1.00, 0.00, -0.00, -1.00, 225.0, 304.0)">(</text><text xml:space="preserve" font-family="HelveticaNeue-Light" font-size="45.0" fill="#FEFFFF" transform="matrix(1.00, 0.00, -0.00, -1.00, 235.9, 304.0)">N</text><text xml:space="preserve" font-family="HelveticaNeue-Light" font-size="45.0" fill="#FEFFFF" transform="matrix(1.00, 0.00, -0.00, -1.00, 267.5, 304.0)">U</text><text xml:space="preserve" font-family="HelveticaNeue-Light" font-size="45.0" fill="#FEFFFF" transform="matrix(1.00, 0.00, -0.00, -1.00, 298.4, 304.0)">L</text><text xml:space="preserve" font-family="HelveticaNeue-Light" font-size="45.0" fill="#FEFFFF" transform="matrix(1.00, 0.00, -0.00, -1.00, 322.5, 304.0)">L</text><text xml:space="preserve" font-family="HelveticaNeue-Light" font-size="45.0" fill="#FEFFFF" transform="matrix(1.00, 0.00, -0.00, -1.00, 346.7, 304.0)"> </text><text xml:space="preserve" font-family="HelveticaNeue-Light" font-size="45.0" fill="#FEFFFF" transform="matrix(1.00, 0.00, -0.00, -1.00, 359.2, 304.0)">q</text><text xml:space="preserve" font-family="HelveticaNeue-Light" font-size="45.0" fill="#FEFFFF" transform="matrix(1.00, 0.00, -0.00, -1.00, 385.0, 304.0)">u</text><text xml:space="preserve" font-family="HelveticaNeue-Light" font-size="45.0" fill="#FEFFFF" transform="matrix(1.00, 0.00, -0.00, -1.00, 409.2, 304.0)">a</text><text xml:space="preserve" font-family="HelveticaNeue-Light" font-size="45.0" fill="#FEFFFF" transform="matrix(1.00, 0.00, -0.00, -1.00, 432.6, 304.0)">n</text><text xml:space="preserve" font-family="HelveticaNeue-Light" font-size="45.0" fill="#FEFFFF" transform="matrix(1.00, 0.00, -0.00, -1.00, 456.7, 304.0)">d</text><text xml:space="preserve" font-family="HelveticaNeue-Light" font-size="45.0" fill="#FEFFFF" transform="matrix(1.00, 0.00, -0.00, -1.00, 482.6, 304.0)">o</text><text xml:space="preserve" font-family="HelveticaNeue-Light" font-size="45.0" fill="#FEFFFF" transform="matrix(1.00, 0.00, -0.00, -1.00, 507.6, 304.0)"> </text><text xml:space="preserve" font-family="HelveticaNeue-Light" font-size="45.0" fill="#FEFFFF" transform="matrix(1.00, 0.00, -0.00, -1.00, 520.1, 304.0)">v</text><text xml:space="preserve" font-family="HelveticaNeue-Light" font-size="45.0" fill="#FEFFFF" transform="matrix(1.00, 0.00, -0.00, -1.00, 540.9, 304.0)">é</text><text xml:space="preserve" font-family="HelveticaNeue-Light" font-size="45.0" fill="#FEFFFF" transform="matrix(1.00, 0.00, -0.00, -1.00, 564.3, 304.0)">r</text><text xml:space="preserve" font-family="HelveticaNeue-Light" font-size="45.0" fill="#FEFFFF" transform="matrix(1.00, 0.00, -0.00, -1.00, 578.4, 304.0)">t</text><text xml:space="preserve" font-family="HelveticaNeue-Light" font-size="45.0" fill="#FEFFFF" transform="matrix(1.00, 0.00, -0.00, -1.00, 591.8, 304.0)">i</text><text xml:space="preserve" font-family="HelveticaNeue-Light" font-size="45.0" fill="#FEFFFF" transform="matrix(1.00, 0.00, -0.00, -1.00, 600.1, 304.0)">c</text><text xml:space="preserve" font-family="HelveticaNeue-Light" font-size="45.0" fill="#FEFFFF" transform="matrix(1.00, 0.00, -0.00, -1.00, 623.4, 304.0)">e</text><text xml:space="preserve" font-family="HelveticaNeue-Light" font-size="45.0" fill="#FEFFFF" transform="matrix(1.00, 0.00, -0.00, -1.00, 646.8, 304.0)"> </text><text xml:space="preserve" font-family="HelveticaNeue-Light" font-size="45.0" fill="#FEFFFF" transform="matrix(1.00, 0.00, -0.00, -1.00, 659.3, 304.0)">r</text><text xml:space="preserve" font-family="HelveticaNeue-Light" font-size="45.0" fill="#FEFFFF" transform="matrix(1.00, 0.00, -0.00, -1.00, 673.5, 304.0)">a</text><text xml:space="preserve" font-family="HelveticaNeue-Light" font-size="45.0" fill="#FEFFFF" transform="matrix(1.00, 0.00, -0.00, -1.00, 696.8, 304.0)">i</text><text xml:space="preserve" font-family="HelveticaNeue-Light" font-size="45.0" fill="#FEFFFF" transform="matrix(1.00, 0.00, -0.00, -1.00, 705.2, 304.0)">z</text><text xml:space="preserve" font-family="HelveticaNeue-Light" font-size="45.0" fill="#FEFFFF" transform="matrix(1.00, 0.00, -0.00, -1.00, 726.0, 304.0)">)</text><text xml:space="preserve" font-family="HelveticaNeue-Light" font-size="45.0" fill="#FEFFFF" transform="matrix(1.00, 0.00, -0.00, -1.00, 736.9, 304.0)"> </text><text xml:space="preserve" font-family="HelveticaNeue-Light" font-size="45.0" fill="#FEFFFF" transform="matrix(1.00, 0.00, -0.00, -1.00, 749.4, 304.0)">e</text><text xml:space="preserve" font-family="HelveticaNeue-Light" font-size="45.0" fill="#FEFFFF" transform="matrix(1.00, 0.00, -0.00, -1.00, 772.7, 304.0)"> </text><text xml:space="preserve" font-family="HelveticaNeue-Light" font-size="45.0" fill="#FEFFFF" transform="matrix(1.00, 0.00, -0.00, -1.00, 785.2, 304.0)">a</text><text xml:space="preserve" font-family="HelveticaNeue-Light" font-size="45.0" fill="#FEFFFF" transform="matrix(1.00, 0.00, -0.00, -1.00, 808.6, 304.0)"> </text><text xml:space="preserve" font-family="HelveticaNeue-Light" font-size="45.0" fill="#FEFFFF" transform="matrix(1.00, 0.00, -0.00, -1.00, 821.1, 304.0)">l</text><text xml:space="preserve" font-family="HelveticaNeue-Light" font-size="45.0" fill="#FEFFFF" transform="matrix(1.00, 0.00, -0.00, -1.00, 829.4, 304.0)">i</text><text xml:space="preserve" font-family="HelveticaNeue-Light" font-size="45.0" fill="#FEFFFF" transform="matrix(1.00, 0.00, -0.00, -1.00, 837.7, 304.0)">s</text><text xml:space="preserve" font-family="HelveticaNeue-Light" font-size="45.0" fill="#FEFFFF" transform="matrix(1.00, 0.00, -0.00, -1.00, 859.4, 304.0)">t</text><text xml:space="preserve" font-family="HelveticaNeue-Light" font-size="45.0" fill="#FEFFFF" transform="matrix(1.00, 0.00, -0.00, -1.00, 872.7, 304.0)">a</text><text xml:space="preserve" font-family="HelveticaNeue-Light" font-size="45.0" fill="#FEFFFF" transform="matrix(1.00, 0.00, -0.00, -1.00, 896.1, 304.0)"> </text><text xml:space="preserve" font-family="HelveticaNeue-Light" font-size="45.0" fill="#FEFFFF" transform="matrix(1.00, 0.00, -0.00, -1.00, 908.6, 304.0)">d</text><text xml:space="preserve" font-family="HelveticaNeue-Light" font-size="45.0" fill="#FEFFFF" transform="matrix(1.00, 0.00, -0.00, -1.00, 934.4, 304.0)">e</text><text xml:space="preserve" font-family="HelveticaNeue-Light" font-size="45.0" fill="#FEFFFF" transform="matrix(1.00, 0.00, -0.00, -1.00, 957.8, 304.0)"> </text><text xml:space="preserve" font-family="HelveticaNeue-Light" font-size="45.0" fill="#FEFFFF" transform="matrix(1.00, 0.00, -0.00, -1.00, 970.3, 304.0)">ﬁ</text><text xml:space="preserve" font-family="HelveticaNeue-Light" font-size="45.0" fill="#FEFFFF" transform="matrix(1.00, 0.00, -0.00, -1.00, 990.2, 304.0)">l</text><text xml:space="preserve" font-family="HelveticaNeue-Light" font-size="45.0" fill="#FEFFFF" transform="matrix(1.00, 0.00, -0.00, -1.00, 998.6, 304.0)">h</text><text xml:space="preserve" font-family="HelveticaNeue-Light" font-size="45.0" fill="#FEFFFF" transform="matrix(1.00, 0.00, -0.00, -1.00, 1022.7, 304.0)">o</text><text xml:space="preserve" font-family="HelveticaNeue-Light" font-size="45.0" fill="#FEFFFF" transform="matrix(1.00, 0.00, -0.00, -1.00, 1047.8, 304.0)">s</text><text xml:space="preserve" font-family="HelveticaNeue-Light" font-size="45.0" fill="#FEFFFF" transform="matrix(1.00, 0.00, -0.00, -1.00, 1069.4, 304.0)"> </text><text xml:space="preserve" font-family="HelveticaNeue-Light" font-size="45.0" fill="#FEFFFF" transform="matrix(1.00, 0.00, -0.00, -1.00, 1081.9, 304.0)">(</text><text xml:space="preserve" font-family="HelveticaNeue-Light" font-size="45.0" fill="#FEFFFF" transform="matrix(1.00, 0.00, -0.00, -1.00, 1092.8, 304.0)">N</text><text xml:space="preserve" font-family="HelveticaNeue-Light" font-size="45.0" fill="#FEFFFF" transform="matrix(1.00, 0.00, -0.00, -1.00, 1124.4, 304.0)">U</text><text xml:space="preserve" font-family="HelveticaNeue-Light" font-size="45.0" fill="#FEFFFF" transform="matrix(1.00, 0.00, -0.00, -1.00, 1155.3, 304.0)">L</text><text xml:space="preserve" font-family="HelveticaNeue-Light" font-size="45.0" fill="#FEFFFF" transform="matrix(1.00, 0.00, -0.00, -1.00, 1179.4, 304.0)">L</text><text xml:space="preserve" font-family="HelveticaNeue-Light" font-size="45.0" fill="#FEFFFF" transform="matrix(1.00, 0.00, -0.00, -1.00, 1203.6, 304.0)"> </text><text xml:space="preserve" font-family="HelveticaNeue-Light" font-size="45.0" fill="#FEFFFF" transform="matrix(1.00, 0.00, -0.00, -1.00, 155.0, 238.0)">p</text><text xml:space="preserve" font-family="HelveticaNeue-Light" font-size="45.0" fill="#FEFFFF" transform="matrix(1.00, 0.00, -0.00, -1.00, 180.8, 238.0)">a</text><text xml:space="preserve" font-family="HelveticaNeue-Light" font-size="45.0" fill="#FEFFFF" transform="matrix(1.00, 0.00, -0.00, -1.00, 204.2, 238.0)">r</text><text xml:space="preserve" font-family="HelveticaNeue-Light" font-size="45.0" fill="#FEFFFF" transform="matrix(1.00, 0.00, -0.00, -1.00, 218.4, 238.0)">a</text><text xml:space="preserve" font-family="HelveticaNeue-Light" font-size="45.0" fill="#FEFFFF" transform="matrix(1.00, 0.00, -0.00, -1.00, 241.7, 238.0)"> </text><text xml:space="preserve" font-family="HelveticaNeue-Light" font-size="45.0" fill="#FEFFFF" transform="matrix(1.00, 0.00, -0.00, -1.00, 254.2, 238.0)">f</text><text xml:space="preserve" font-family="HelveticaNeue-Light" font-size="45.0" fill="#FEFFFF" transform="matrix(1.00, 0.00, -0.00, -1.00, 265.9, 238.0)">o</text><text xml:space="preserve" font-family="HelveticaNeue-Light" font-size="45.0" fill="#FEFFFF" transform="matrix(1.00, 0.00, -0.00, -1.00, 290.9, 238.0)">l</text><text xml:space="preserve" font-family="HelveticaNeue-Light" font-size="45.0" fill="#FEFFFF" transform="matrix(1.00, 0.00, -0.00, -1.00, 299.2, 238.0)">h</text><text xml:space="preserve" font-family="HelveticaNeue-Light" font-size="45.0" fill="#FEFFFF" transform="matrix(1.00, 0.00, -0.00, -1.00, 323.4, 238.0)">a</text><text xml:space="preserve" font-family="HelveticaNeue-Light" font-size="45.0" fill="#FEFFFF" transform="matrix(1.00, 0.00, -0.00, -1.00, 346.7, 238.0)">s</text><text xml:space="preserve" font-family="HelveticaNeue-Light" font-size="45.0" fill="#FEFFFF" transform="matrix(1.00, 0.00, -0.00, -1.00, 368.4, 238.0)">)</text><text xml:space="preserve" font-family="HelveticaNeue-Light" font-size="45.0" fill="#FEFFFF" transform="matrix(1.00, 0.00, -0.00, -1.00, 379.2, 238.0)">;</text></g></g></g></svg>