<?xml version="1.0" encoding="UTF-8" standalone="no"?><svg xmlns="http://www.w3.org/2000/svg" xmlns:xlink="http://www.w3.org/1999/xlink" clip-rule="evenodd" stroke-miterlimit="4.00" viewBox="0 0 1920 1080"><desc>SVG generated by Keynote</desc><defs></defs><g transform="matrix(1.00, 0.00, -0.00, -1.00, 0.0, 1080.0)"><path d="M 0.0 1080.0 L 1920.0 1080.0 L 1920.0 0.0 L 0.0 0.0 Z M 0.0 1080.0 " fill="#009DFF"></path><text xml:space="preserve" font-family="Helvetica-Bold" font-weight="bold" font-size="36.0" fill="#FEFFFF" transform="matrix(1.00, 0.00, -0.00, -1.00, 1779.0, 46.0)">1</text><text xml:space="preserve" font-family="Helvetica-Bold" font-weight="bold" font-size="36.0" fill="#FEFFFF" transform="matrix(1.00, 0.00, -0.00, -1.00, 1799.0, 46.0)">8</text><g opacity="0.15"><g><clipPath id="clip-936"><path d="M 661.0 0.0 L 1920.0 0.0 L 1920.0 1080.0 L 661.0 1080.0 Z M 661.0 0.0 "></path></clipPath><g clip-path="url(#clip-936)"><image xlink:href="../../615F7CD4-E262-41F7-8138-806EC6AB1FAB/assets/87ABFF0ACED01E62478C9A9C0E1733CE.png" width="539.00" height="540.00" transform="matrix(0.38, -2.21, -2.21, -0.38, 1857.0, 1255.0)"></image></g></g></g><g opacity="0.15"><g><clipPath id="clip-937"><path d="M 0.0 0.0 L 752.0 0.0 L 752.0 1080.0 L 0.0 1080.0 Z M 0.0 0.0 "></path></clipPath><g clip-path="url(#clip-937)"><image xlink:href="../../615F7CD4-E262-41F7-8138-806EC6AB1FAB/assets/87ABFF0ACED01E62478C9A9C0E1733CE.png" width="539.00" height="540.00" transform="matrix(-2.14, 0.53, 0.53, 2.14, 463.8, -163.5)"></image></g></g></g><g><clipPath id="clip-938"><path d="M 1411.1 708.2 L 1486.3 708.2 L 1486.3 783.4 L 1411.1 783.4 Z M 1411.1 708.2 "></path></clipPath><g clip-path="url(#clip-938)"><path d="M 1474.6 771.6 C 1488.8 757.3 1488.8 734.2 1474.6 719.9 C 1460.3 705.6 1437.1 705.6 1422.8 719.9 C 1408.5 734.2 1408.5 757.3 1422.8 771.6 C 1437.1 785.9 1460.3 785.9 1474.6 771.6 Z M 1474.6 771.6 " fill="#FEFFFF"></path></g></g><g><clipPath id="clip-939"><path d="M 1412.1 709.2 L 1485.3 709.2 L 1485.3 782.4 L 1412.1 782.4 Z M 1412.1 709.2 "></path></clipPath><g clip-path="url(#clip-939)"><text xml:space="preserve" font-family="Helvetica-Bold" font-weight="bold" font-size="40.0" fill="#51A7F9" transform="matrix(1.00, 0.00, -0.00, -1.00, 1438.0, 731.0)">1</text></g></g><g><clipPath id="clip-940"><path d="M 1540.8 845.1 L 1616.0 845.1 L 1616.0 920.3 L 1540.8 920.3 Z M 1540.8 845.1 "></path></clipPath><g clip-path="url(#clip-940)"><path d="M 1604.3 908.6 C 1618.6 894.3 1618.6 871.1 1604.3 856.8 C 1590.0 842.6 1566.8 842.6 1552.6 856.8 C 1538.3 871.1 1538.3 894.3 1552.6 908.6 C 1566.8 922.9 1590.0 922.9 1604.3 908.6 Z M 1604.3 908.6 " fill="#FEFFFF"></path></g></g><g><clipPath id="clip-941"><path d="M 1541.8 846.1 L 1615.0 846.1 L 1615.0 919.3 L 1541.8 919.3 Z M 1541.8 846.1 "></path></clipPath><g clip-path="url(#clip-941)"><text xml:space="preserve" font-family="Helvetica-Bold" font-weight="bold" font-size="40.0" fill="#51A7F9" transform="matrix(1.00, 0.00, -0.00, -1.00, 1567.0, 868.0)">3</text></g></g><g><clipPath id="clip-942"><path d="M 1281.3 845.1 L 1356.5 845.1 L 1356.5 920.3 L 1281.3 920.3 Z M 1281.3 845.1 "></path></clipPath><g clip-path="url(#clip-942)"><path d="M 1344.8 908.6 C 1359.1 894.3 1359.1 871.1 1344.8 856.8 C 1330.5 842.6 1307.3 842.6 1293.0 856.8 C 1278.8 871.1 1278.8 894.3 1293.0 908.6 C 1307.3 922.9 1330.5 922.9 1344.8 908.6 Z M 1344.8 908.6 " fill="#FEFFFF"></path></g></g><g><clipPath id="clip-943"><path d="M 1282.3 846.1 L 1355.5 846.1 L 1355.5 919.3 L 1282.3 919.3 Z M 1282.3 846.1 "></path></clipPath><g clip-path="url(#clip-943)"><text xml:space="preserve" font-family="Helvetica-Bold" font-weight="bold" font-size="40.0" fill="#51A7F9" transform="matrix(1.00, 0.00, -0.00, -1.00, 1308.0, 868.0)">2</text></g></g><g><clipPath id="clip-944"><path d="M 1281.3 974.1 L 1356.5 974.1 L 1356.5 1049.3 L 1281.3 1049.3 Z M 1281.3 974.1 "></path></clipPath><g clip-path="url(#clip-944)"><path d="M 1344.8 1037.5 C 1359.1 1023.3 1359.1 1000.1 1344.8 985.8 C 1330.5 971.5 1307.3 971.5 1293.0 985.8 C 1278.8 1000.1 1278.8 1023.3 1293.0 1037.5 C 1307.3 1051.8 1330.5 1051.8 1344.8 1037.5 Z M 1344.8 1037.5 " fill="#FEFFFF"></path></g></g><g><clipPath id="clip-945"><path d="M 1282.3 975.1 L 1355.5 975.1 L 1355.5 1048.3 L 1282.3 1048.3 Z M 1282.3 975.1 "></path></clipPath><g clip-path="url(#clip-945)"><text xml:space="preserve" font-family="Helvetica-Bold" font-weight="bold" font-size="40.0" fill="#51A7F9" transform="matrix(1.00, 0.00, -0.00, -1.00, 1308.0, 997.0)">4</text></g></g><g><clipPath id="clip-946"><path d="M 1540.8 974.1 L 1616.0 974.1 L 1616.0 1049.3 L 1540.8 1049.3 Z M 1540.8 974.1 "></path></clipPath><g clip-path="url(#clip-946)"><path d="M 1604.3 1037.5 C 1618.6 1023.3 1618.6 1000.1 1604.3 985.8 C 1590.0 971.5 1566.8 971.5 1552.6 985.8 C 1538.3 1000.1 1538.3 1023.3 1552.6 1037.5 C 1566.8 1051.8 1590.0 1051.8 1604.3 1037.5 Z M 1604.3 1037.5 " fill="#FEFFFF"></path></g></g><g><clipPath id="clip-947"><path d="M 1541.8 975.1 L 1615.0 975.1 L 1615.0 1048.3 L 1541.8 1048.3 Z M 1541.8 975.1 "></path></clipPath><g clip-path="url(#clip-947)"><text xml:space="preserve" font-family="Helvetica-Bold" font-weight="bold" font-size="40.0" fill="#51A7F9" transform="matrix(1.00, 0.00, -0.00, -1.00, 1567.0, 997.0)">5</text></g></g><g><clipPath id="clip-948"><path d="M 1313.9 918.3 L 1323.9 918.3 L 1323.9 976.1 L 1313.9 976.1 Z M 1313.9 918.3 "></path></clipPath><g clip-path="url(#clip-948)"><path d="M 0.0 55.8 C 0.0 37.2 0.0 18.6 0.0 0.0 " fill="none" stroke="#FEFFFF" stroke-width="8.00" transform="matrix(1.00, 0.00, 0.00, -1.00, 1318.9, 975.1)"></path></g></g><g><clipPath id="clip-949"><path d="M 1354.5 1006.7 L 1542.8 1006.7 L 1542.8 1016.7 L 1354.5 1016.7 Z M 1354.5 1006.7 "></path></clipPath><g clip-path="url(#clip-949)"><path d="M 0.0 0.0 C 62.1 0.0 124.2 0.0 186.3 0.0 " fill="none" stroke="#FEFFFF" stroke-width="8.00" transform="matrix(1.00, 0.00, 0.00, -1.00, 1355.5, 1011.7)"></path></g></g><g><clipPath id="clip-950"><path d="M 1354.5 877.7 L 1542.8 877.7 L 1542.8 887.7 L 1354.5 887.7 Z M 1354.5 877.7 "></path></clipPath><g clip-path="url(#clip-950)"><path d="M 0.0 0.0 C 62.1 0.0 124.2 0.0 186.3 0.0 " fill="none" stroke="#FEFFFF" stroke-width="8.00" transform="matrix(1.00, 0.00, 0.00, -1.00, 1355.5, 882.7)"></path></g></g><g><clipPath id="clip-951"><path d="M 1573.4 918.3 L 1583.4 918.3 L 1583.4 976.1 L 1573.4 976.1 Z M 1573.4 918.3 "></path></clipPath><g clip-path="url(#clip-951)"><path d="M 0.0 55.8 C 0.0 37.2 0.0 18.6 0.0 0.0 " fill="none" stroke="#FEFFFF" stroke-width="8.00" transform="matrix(1.00, 0.00, 0.00, -1.00, 1578.4, 975.1)"></path></g></g><g><clipPath id="clip-952"><path d="M 1340.2 768.6 L 1427.4 768.6 L 1427.4 859.9 L 1340.2 859.9 Z M 1340.2 768.6 "></path></clipPath><g clip-path="url(#clip-952)"><path d="M 0.0 0.0 C 26.5 27.9 52.9 55.9 79.4 83.8 " fill="none" stroke="#FEFFFF" stroke-width="8.00" transform="matrix(1.00, 0.00, 0.00, -1.00, 1344.1, 856.2)"></path></g></g><g><clipPath id="clip-953"><path d="M 1469.9 768.6 L 1557.2 768.6 L 1557.2 859.9 L 1469.9 859.9 Z M 1469.9 768.6 "></path></clipPath><g clip-path="url(#clip-953)"><path d="M 0.0 83.8 C 26.5 55.9 52.9 27.9 79.4 0.0 " fill="none" stroke="#FEFFFF" stroke-width="8.00" transform="matrix(1.00, 0.00, 0.00, -1.00, 1473.8, 856.2)"></path></g></g><g><clipPath id="clip-954"><path d="M 1786.3 974.1 L 1861.5 974.1 L 1861.5 1049.3 L 1786.3 1049.3 Z M 1786.3 974.1 "></path></clipPath><g clip-path="url(#clip-954)"><path d="M 1849.8 1037.5 C 1864.0 1023.3 1864.0 1000.1 1849.8 985.8 C 1835.5 971.5 1812.3 971.5 1798.0 985.8 C 1783.7 1000.1 1783.7 1023.3 1798.0 1037.5 C 1812.3 1051.8 1835.5 1051.8 1849.8 1037.5 Z M 1849.8 1037.5 " fill="#FEFFFF"></path></g></g><g><clipPath id="clip-955"><path d="M 1787.3 975.1 L 1860.5 975.1 L 1860.5 1048.3 L 1787.3 1048.3 Z M 1787.3 975.1 "></path></clipPath><g clip-path="url(#clip-955)"><text xml:space="preserve" font-family="Helvetica-Bold" font-weight="bold" font-size="40.0" fill="#51A7F9" transform="matrix(1.00, 0.00, -0.00, -1.00, 1813.0, 997.0)">6</text></g></g><g><clipPath id="clip-956"><path d="M 1786.3 845.1 L 1861.5 845.1 L 1861.5 920.3 L 1786.3 920.3 Z M 1786.3 845.1 "></path></clipPath><g clip-path="url(#clip-956)"><path d="M 1849.8 908.6 C 1864.0 894.3 1864.0 871.1 1849.8 856.8 C 1835.5 842.6 1812.3 842.6 1798.0 856.8 C 1783.7 871.1 1783.7 894.3 1798.0 908.6 C 1812.3 922.9 1835.5 922.9 1849.8 908.6 Z M 1849.8 908.6 " fill="#FEFFFF"></path></g></g><g><clipPath id="clip-957"><path d="M 1787.3 846.1 L 1860.5 846.1 L 1860.5 919.3 L 1787.3 919.3 Z M 1787.3 846.1 "></path></clipPath><g clip-path="url(#clip-957)"><text xml:space="preserve" font-family="Helvetica-Bold" font-weight="bold" font-size="40.0" fill="#51A7F9" transform="matrix(1.00, 0.00, -0.00, -1.00, 1813.0, 868.0)">7</text></g></g><g><clipPath id="clip-958"><path d="M 1614.0 1006.7 L 1788.3 1006.7 L 1788.3 1016.7 L 1614.0 1016.7 Z M 1614.0 1006.7 "></path></clipPath><g clip-path="url(#clip-958)"><path d="M 0.0 0.0 C 57.4 0.0 114.8 0.0 172.3 0.0 " fill="none" stroke="#FEFFFF" stroke-width="8.00" transform="matrix(1.00, 0.00, 0.00, -1.00, 1615.0, 1011.7)"></path></g></g><g><clipPath id="clip-959"><path d="M 1818.9 918.3 L 1828.9 918.3 L 1828.9 976.1 L 1818.9 976.1 Z M 1818.9 918.3 "></path></clipPath><g clip-path="url(#clip-959)"><path d="M 0.0 55.8 C 0.0 37.2 0.0 18.6 0.0 0.0 " fill="none" stroke="#FEFFFF" stroke-width="8.00" transform="matrix(1.00, 0.00, 0.00, -1.00, 1823.9, 975.1)"></path></g></g><text xml:space="preserve" font-family="HelveticaNeue-Bold" font-weight="bold" font-size="102.0" fill="#FEFFFF" transform="matrix(1.00, 0.00, -0.00, -1.00, 45.0, 938.0)">L</text><text xml:space="preserve" font-family="HelveticaNeue-Bold" font-weight="bold" font-size="102.0" fill="#FEFFFF" transform="matrix(1.00, 0.00, -0.00, -1.00, 105.5, 938.0)">i</text><text xml:space="preserve" font-family="HelveticaNeue-Bold" font-weight="bold" font-size="102.0" fill="#FEFFFF" transform="matrix(1.00, 0.00, -0.00, -1.00, 131.8, 938.0)">s</text><text xml:space="preserve" font-family="HelveticaNeue-Bold" font-weight="bold" font-size="102.0" fill="#FEFFFF" transform="matrix(1.00, 0.00, -0.00, -1.00, 186.6, 938.0)">t</text><text xml:space="preserve" font-family="HelveticaNeue-Bold" font-weight="bold" font-size="102.0" fill="#FEFFFF" transform="matrix(1.00, 0.00, -0.00, -1.00, 222.5, 938.0)">a</text><text xml:space="preserve" font-family="HelveticaNeue-Bold" font-weight="bold" font-size="102.0" fill="#FEFFFF" transform="matrix(1.00, 0.00, -0.00, -1.00, 281.0, 938.0)"> </text><text xml:space="preserve" font-family="HelveticaNeue-Bold" font-weight="bold" font-size="102.0" fill="#FEFFFF" transform="matrix(1.00, 0.00, -0.00, -1.00, 309.4, 938.0)">d</text><text xml:space="preserve" font-family="HelveticaNeue-Bold" font-weight="bold" font-size="102.0" fill="#FEFFFF" transform="matrix(1.00, 0.00, -0.00, -1.00, 371.7, 938.0)">e</text><text xml:space="preserve" font-family="HelveticaNeue-Bold" font-weight="bold" font-size="102.0" fill="#FEFFFF" transform="matrix(1.00, 0.00, -0.00, -1.00, 430.3, 938.0)"> </text><text xml:space="preserve" font-family="HelveticaNeue-Bold" font-weight="bold" font-size="102.0" fill="#FEFFFF" transform="matrix(1.00, 0.00, -0.00, -1.00, 458.6, 938.0)">A</text><text xml:space="preserve" font-family="HelveticaNeue-Bold" font-weight="bold" font-size="102.0" fill="#FEFFFF" transform="matrix(1.00, 0.00, -0.00, -1.00, 528.5, 938.0)">r</text><text xml:space="preserve" font-family="HelveticaNeue-Bold" font-weight="bold" font-size="102.0" fill="#FEFFFF" transform="matrix(1.00, 0.00, -0.00, -1.00, 566.3, 938.0)">e</text><text xml:space="preserve" font-family="HelveticaNeue-Bold" font-weight="bold" font-size="102.0" fill="#FEFFFF" transform="matrix(1.00, 0.00, -0.00, -1.00, 624.9, 938.0)">s</text><text xml:space="preserve" font-family="HelveticaNeue-Bold" font-weight="bold" font-size="102.0" fill="#FEFFFF" transform="matrix(1.00, 0.00, -0.00, -1.00, 679.6, 938.0)">t</text><text xml:space="preserve" font-family="HelveticaNeue-Bold" font-weight="bold" font-size="102.0" fill="#FEFFFF" transform="matrix(1.00, 0.00, -0.00, -1.00, 715.5, 938.0)">a</text><text xml:space="preserve" font-family="HelveticaNeue-Bold" font-weight="bold" font-size="102.0" fill="#FEFFFF" transform="matrix(1.00, 0.00, -0.00, -1.00, 774.1, 938.0)">s</text><text xml:space="preserve" font-family="HelveticaNeue-Bold" font-weight="bold" font-size="61.0" fill="#FEFFFF" transform="matrix(1.00, 0.00, -0.00, -1.00, 46.0, 851.0)">C</text><text xml:space="preserve" font-family="HelveticaNeue-Bold" font-weight="bold" font-size="61.0" fill="#FEFFFF" transform="matrix(1.00, 0.00, -0.00, -1.00, 91.2, 851.0)">o</text><text xml:space="preserve" font-family="HelveticaNeue-Bold" font-weight="bold" font-size="61.0" fill="#FEFFFF" transform="matrix(1.00, 0.00, -0.00, -1.00, 128.5, 851.0)">n</text><text xml:space="preserve" font-family="HelveticaNeue-Bold" font-weight="bold" font-size="61.0" fill="#FEFFFF" transform="matrix(1.00, 0.00, -0.00, -1.00, 164.6, 851.0)">s</text><text xml:space="preserve" font-family="HelveticaNeue-Bold" font-weight="bold" font-size="61.0" fill="#FEFFFF" transform="matrix(1.00, 0.00, -0.00, -1.00, 197.4, 851.0)">i</text><text xml:space="preserve" font-family="HelveticaNeue-Bold" font-weight="bold" font-size="61.0" fill="#FEFFFF" transform="matrix(1.00, 0.00, -0.00, -1.00, 213.1, 851.0)">d</text><text xml:space="preserve" font-family="HelveticaNeue-Bold" font-weight="bold" font-size="61.0" fill="#FEFFFF" transform="matrix(1.00, 0.00, -0.00, -1.00, 250.4, 851.0)">e</text><text xml:space="preserve" font-family="HelveticaNeue-Bold" font-weight="bold" font-size="61.0" fill="#FEFFFF" transform="matrix(1.00, 0.00, -0.00, -1.00, 285.4, 851.0)">r</text><text xml:space="preserve" font-family="HelveticaNeue-Bold" font-weight="bold" font-size="61.0" fill="#FEFFFF" transform="matrix(1.00, 0.00, -0.00, -1.00, 309.2, 851.0)">a</text><text xml:space="preserve" font-family="HelveticaNeue-Bold" font-weight="bold" font-size="61.0" fill="#FEFFFF" transform="matrix(1.00, 0.00, -0.00, -1.00, 344.2, 851.0)">ç</text><text xml:space="preserve" font-family="HelveticaNeue-Bold" font-weight="bold" font-size="61.0" fill="#FEFFFF" transform="matrix(1.00, 0.00, -0.00, -1.00, 379.2, 851.0)">õ</text><text xml:space="preserve" font-family="HelveticaNeue-Bold" font-weight="bold" font-size="61.0" fill="#FEFFFF" transform="matrix(1.00, 0.00, -0.00, -1.00, 416.5, 851.0)">e</text><text xml:space="preserve" font-family="HelveticaNeue-Bold" font-weight="bold" font-size="61.0" fill="#FEFFFF" transform="matrix(1.00, 0.00, -0.00, -1.00, 451.5, 851.0)">s</text><text xml:space="preserve" font-family="HelveticaNeue-Light" font-size="39.8" fill="#FEFFFF" transform="matrix(1.00, 0.00, -0.00, -1.00, 79.5, 576.9)">•</text><text xml:space="preserve" font-family="HelveticaNeue-Light" font-size="53.0" fill="#FEFFFF" transform="matrix(1.00, 0.00, -0.00, -1.00, 131.0, 571.0)">E</text><text xml:space="preserve" font-family="HelveticaNeue-Light" font-size="53.0" fill="#FEFFFF" transform="matrix(1.00, 0.00, -0.00, -1.00, 162.4, 571.0)">s</text><text xml:space="preserve" font-family="HelveticaNeue-Light" font-size="53.0" fill="#FEFFFF" transform="matrix(1.00, 0.00, -0.00, -1.00, 187.9, 571.0)">t</text><text xml:space="preserve" font-family="HelveticaNeue-Light" font-size="53.0" fill="#FEFFFF" transform="matrix(1.00, 0.00, -0.00, -1.00, 203.6, 571.0)">r</text><text xml:space="preserve" font-family="HelveticaNeue-Light" font-size="53.0" fill="#FEFFFF" transform="matrix(1.00, 0.00, -0.00, -1.00, 220.3, 571.0)">u</text><text xml:space="preserve" font-family="HelveticaNeue-Light" font-size="53.0" fill="#FEFFFF" transform="matrix(1.00, 0.00, -0.00, -1.00, 248.8, 571.0)">t</text><text xml:space="preserve" font-family="HelveticaNeue-Light" font-size="53.0" fill="#FEFFFF" transform="matrix(1.00, 0.00, -0.00, -1.00, 264.5, 571.0)">u</text><text xml:space="preserve" font-family="HelveticaNeue-Light" font-size="53.0" fill="#FEFFFF" transform="matrix(1.00, 0.00, -0.00, -1.00, 292.9, 571.0)">r</text><text xml:space="preserve" font-family="HelveticaNeue-Light" font-size="53.0" fill="#FEFFFF" transform="matrix(1.00, 0.00, -0.00, -1.00, 309.6, 571.0)">a</text><text xml:space="preserve" font-family="HelveticaNeue-Light" font-size="53.0" fill="#FEFFFF" transform="matrix(1.00, 0.00, -0.00, -1.00, 337.1, 571.0)"> </text><text xml:space="preserve" font-family="HelveticaNeue-Light" font-size="53.0" fill="#FEFFFF" transform="matrix(1.00, 0.00, -0.00, -1.00, 351.9, 571.0)">e</text><text xml:space="preserve" font-family="HelveticaNeue-Light" font-size="53.0" fill="#FEFFFF" transform="matrix(1.00, 0.00, -0.00, -1.00, 379.4, 571.0)">ﬁ</text><text xml:space="preserve" font-family="HelveticaNeue-Light" font-size="53.0" fill="#FEFFFF" transform="matrix(1.00, 0.00, -0.00, -1.00, 402.9, 571.0)">c</text><text xml:space="preserve" font-family="HelveticaNeue-Light" font-size="53.0" fill="#FEFFFF" transform="matrix(1.00, 0.00, -0.00, -1.00, 430.4, 571.0)">i</text><text xml:space="preserve" font-family="HelveticaNeue-Light" font-size="53.0" fill="#FEFFFF" transform="matrix(1.00, 0.00, -0.00, -1.00, 440.2, 571.0)">e</text><text xml:space="preserve" font-family="HelveticaNeue-Light" font-size="53.0" fill="#FEFFFF" transform="matrix(1.00, 0.00, -0.00, -1.00, 467.7, 571.0)">n</text><text xml:space="preserve" font-family="HelveticaNeue-Light" font-size="53.0" fill="#FEFFFF" transform="matrix(1.00, 0.00, -0.00, -1.00, 496.2, 571.0)">t</text><text xml:space="preserve" font-family="HelveticaNeue-Light" font-size="53.0" fill="#FEFFFF" transform="matrix(1.00, 0.00, -0.00, -1.00, 511.9, 571.0)">e</text><text xml:space="preserve" font-family="HelveticaNeue-Light" font-size="53.0" fill="#FEFFFF" transform="matrix(1.00, 0.00, -0.00, -1.00, 539.4, 571.0)"> </text><text xml:space="preserve" font-family="HelveticaNeue-Light" font-size="53.0" fill="#FEFFFF" transform="matrix(1.00, 0.00, -0.00, -1.00, 554.1, 571.0)">p</text><text xml:space="preserve" font-family="HelveticaNeue-Light" font-size="53.0" fill="#FEFFFF" transform="matrix(1.00, 0.00, -0.00, -1.00, 584.5, 571.0)">a</text><text xml:space="preserve" font-family="HelveticaNeue-Light" font-size="53.0" fill="#FEFFFF" transform="matrix(1.00, 0.00, -0.00, -1.00, 612.0, 571.0)">r</text><text xml:space="preserve" font-family="HelveticaNeue-Light" font-size="53.0" fill="#FEFFFF" transform="matrix(1.00, 0.00, -0.00, -1.00, 628.7, 571.0)">a</text><text xml:space="preserve" font-family="HelveticaNeue-Light" font-size="53.0" fill="#FEFFFF" transform="matrix(1.00, 0.00, -0.00, -1.00, 656.2, 571.0)"> </text><text xml:space="preserve" font-family="HelveticaNeue-Light" font-size="53.0" fill="#FEFFFF" transform="matrix(1.00, 0.00, -0.00, -1.00, 671.0, 571.0)">a</text><text xml:space="preserve" font-family="HelveticaNeue-Light" font-size="53.0" fill="#FEFFFF" transform="matrix(1.00, 0.00, -0.00, -1.00, 698.5, 571.0)"> </text><text xml:space="preserve" font-family="HelveticaNeue-Light" font-size="53.0" fill="#FEFFFF" transform="matrix(1.00, 0.00, -0.00, -1.00, 713.2, 571.0)">i</text><text xml:space="preserve" font-family="HelveticaNeue-Light" font-size="53.0" fill="#FEFFFF" transform="matrix(1.00, 0.00, -0.00, -1.00, 723.0, 571.0)">m</text><text xml:space="preserve" font-family="HelveticaNeue-Light" font-size="53.0" fill="#FEFFFF" transform="matrix(1.00, 0.00, -0.00, -1.00, 767.2, 571.0)">p</text><text xml:space="preserve" font-family="HelveticaNeue-Light" font-size="53.0" fill="#FEFFFF" transform="matrix(1.00, 0.00, -0.00, -1.00, 797.6, 571.0)">l</text><text xml:space="preserve" font-family="HelveticaNeue-Light" font-size="53.0" fill="#FEFFFF" transform="matrix(1.00, 0.00, -0.00, -1.00, 807.4, 571.0)">e</text><text xml:space="preserve" font-family="HelveticaNeue-Light" font-size="53.0" fill="#FEFFFF" transform="matrix(1.00, 0.00, -0.00, -1.00, 834.9, 571.0)">m</text><text xml:space="preserve" font-family="HelveticaNeue-Light" font-size="53.0" fill="#FEFFFF" transform="matrix(1.00, 0.00, -0.00, -1.00, 879.0, 571.0)">e</text><text xml:space="preserve" font-family="HelveticaNeue-Light" font-size="53.0" fill="#FEFFFF" transform="matrix(1.00, 0.00, -0.00, -1.00, 906.5, 571.0)">n</text><text xml:space="preserve" font-family="HelveticaNeue-Light" font-size="53.0" fill="#FEFFFF" transform="matrix(1.00, 0.00, -0.00, -1.00, 935.0, 571.0)">t</text><text xml:space="preserve" font-family="HelveticaNeue-Light" font-size="53.0" fill="#FEFFFF" transform="matrix(1.00, 0.00, -0.00, -1.00, 950.7, 571.0)">a</text><text xml:space="preserve" font-family="HelveticaNeue-Light" font-size="53.0" fill="#FEFFFF" transform="matrix(1.00, 0.00, -0.00, -1.00, 978.2, 571.0)">ç</text><text xml:space="preserve" font-family="HelveticaNeue-Light" font-size="53.0" fill="#FEFFFF" transform="matrix(1.00, 0.00, -0.00, -1.00, 1005.7, 571.0)">ã</text><text xml:space="preserve" font-family="HelveticaNeue-Light" font-size="53.0" fill="#FEFFFF" transform="matrix(1.00, 0.00, -0.00, -1.00, 1033.2, 571.0)">o</text><text xml:space="preserve" font-family="HelveticaNeue-Light" font-size="53.0" fill="#FEFFFF" transform="matrix(1.00, 0.00, -0.00, -1.00, 1062.7, 571.0)"> </text><text xml:space="preserve" font-family="HelveticaNeue-Light" font-size="53.0" fill="#FEFFFF" transform="matrix(1.00, 0.00, -0.00, -1.00, 1077.4, 571.0)">d</text><text xml:space="preserve" font-family="HelveticaNeue-Light" font-size="53.0" fill="#FEFFFF" transform="matrix(1.00, 0.00, -0.00, -1.00, 1107.8, 571.0)">o</text><text xml:space="preserve" font-family="HelveticaNeue-Light" font-size="53.0" fill="#FEFFFF" transform="matrix(1.00, 0.00, -0.00, -1.00, 1137.3, 571.0)"> </text><text xml:space="preserve" font-family="HelveticaNeue-Light" font-size="53.0" fill="#FEFFFF" transform="matrix(1.00, 0.00, -0.00, -1.00, 131.0, 495.0)">a</text><text xml:space="preserve" font-family="HelveticaNeue-Light" font-size="53.0" fill="#FEFFFF" transform="matrix(1.00, 0.00, -0.00, -1.00, 158.5, 495.0)">l</text><text xml:space="preserve" font-family="HelveticaNeue-Light" font-size="53.0" fill="#FEFFFF" transform="matrix(1.00, 0.00, -0.00, -1.00, 168.3, 495.0)">g</text><text xml:space="preserve" font-family="HelveticaNeue-Light" font-size="53.0" fill="#FEFFFF" transform="matrix(1.00, 0.00, -0.00, -1.00, 197.8, 495.0)">o</text><text xml:space="preserve" font-family="HelveticaNeue-Light" font-size="53.0" fill="#FEFFFF" transform="matrix(1.00, 0.00, -0.00, -1.00, 227.2, 495.0)">r</text><text xml:space="preserve" font-family="HelveticaNeue-Light" font-size="53.0" fill="#FEFFFF" transform="matrix(1.00, 0.00, -0.00, -1.00, 243.9, 495.0)">i</text><text xml:space="preserve" font-family="HelveticaNeue-Light" font-size="53.0" fill="#FEFFFF" transform="matrix(1.00, 0.00, -0.00, -1.00, 253.7, 495.0)">t</text><text xml:space="preserve" font-family="HelveticaNeue-Light" font-size="53.0" fill="#FEFFFF" transform="matrix(1.00, 0.00, -0.00, -1.00, 269.4, 495.0)">m</text><text xml:space="preserve" font-family="HelveticaNeue-Light" font-size="53.0" fill="#FEFFFF" transform="matrix(1.00, 0.00, -0.00, -1.00, 313.6, 495.0)">o</text><text xml:space="preserve" font-family="HelveticaNeue-Light" font-size="53.0" fill="#FEFFFF" transform="matrix(1.00, 0.00, -0.00, -1.00, 343.1, 495.0)"> </text><text xml:space="preserve" font-family="HelveticaNeue-Light" font-size="53.0" fill="#FEFFFF" transform="matrix(1.00, 0.00, -0.00, -1.00, 357.8, 495.0)">d</text><text xml:space="preserve" font-family="HelveticaNeue-Light" font-size="53.0" fill="#FEFFFF" transform="matrix(1.00, 0.00, -0.00, -1.00, 388.2, 495.0)">e</text><text xml:space="preserve" font-family="HelveticaNeue-Light" font-size="53.0" fill="#FEFFFF" transform="matrix(1.00, 0.00, -0.00, -1.00, 415.7, 495.0)"> </text><text xml:space="preserve" font-family="HelveticaNeue-Light" font-size="53.0" fill="#FEFFFF" transform="matrix(1.00, 0.00, -0.00, -1.00, 430.4, 495.0)">K</text><text xml:space="preserve" font-family="HelveticaNeue-Light" font-size="53.0" fill="#FEFFFF" transform="matrix(1.00, 0.00, -0.00, -1.00, 464.8, 495.0)">r</text><text xml:space="preserve" font-family="HelveticaNeue-Light" font-size="53.0" fill="#FEFFFF" transform="matrix(1.00, 0.00, -0.00, -1.00, 481.5, 495.0)">u</text><text xml:space="preserve" font-family="HelveticaNeue-Light" font-size="53.0" fill="#FEFFFF" transform="matrix(1.00, 0.00, -0.00, -1.00, 509.9, 495.0)">s</text><text xml:space="preserve" font-family="HelveticaNeue-Light" font-size="53.0" fill="#FEFFFF" transform="matrix(1.00, 0.00, -0.00, -1.00, 535.4, 495.0)">k</text><text xml:space="preserve" font-family="HelveticaNeue-Light" font-size="53.0" fill="#FEFFFF" transform="matrix(1.00, 0.00, -0.00, -1.00, 561.9, 495.0)">a</text><text xml:space="preserve" font-family="HelveticaNeue-Light" font-size="53.0" fill="#FEFFFF" transform="matrix(1.00, 0.00, -0.00, -1.00, 589.5, 495.0)">l</text><text xml:space="preserve" font-family="HelveticaNeue-Light" font-size="53.0" fill="#FEFFFF" transform="matrix(1.00, 0.00, -0.00, -1.00, 599.3, 495.0)">;</text></g></svg>